<svg xmlns="http://www.w3.org/2000/svg" xmlns:svg="http://www.w3.org/2000/svg" xmlns:xlink="http://www.w3.org/1999/xlink" id="svg2408" width="96" height="96" version="1.0"><defs id="defs2410"><linearGradient id="linearGradient4209"><stop id="stop4211" offset="0" stop-color="#58a636" stop-opacity="1"/><stop id="stop4213" offset=".118" stop-color="#58a636" stop-opacity="1"/><stop id="stop4215" offset="1" stop-color="#96d376" stop-opacity="1"/></linearGradient><linearGradient id="linearGradient4384"><stop id="stop4386" offset="0" stop-color="#fff" stop-opacity="1"/><stop id="stop4388" offset="1" stop-color="#fff" stop-opacity="0"/></linearGradient><linearGradient id="linearGradient4367"><stop id="stop4369" offset="0" stop-color="#fff" stop-opacity=".718"/><stop id="stop4371" offset="1" stop-color="#fff" stop-opacity="1"/></linearGradient><linearGradient id="ButtonShadow" x1="45.448" x2="45.448" y1="92.54" y2="7.017" gradientTransform="scale(1.0058652,0.994169)" gradientUnits="userSpaceOnUse"><stop id="stop3750" offset="0" stop-color="#000" stop-opacity="1"/><stop id="stop3752" offset="1" stop-color="#000" stop-opacity=".588"/></linearGradient><linearGradient id="linearGradient3737"><stop id="stop3739" offset="0" stop-color="#fff" stop-opacity="1"/><stop id="stop3741" offset="1" stop-color="#fff" stop-opacity="0"/></linearGradient><linearGradient id="linearGradient3700"><stop id="stop3702" offset="0" stop-color="#2276c5" stop-opacity="1"/><stop id="stop3704" offset="1" stop-color="#68baf4" stop-opacity="1"/></linearGradient><filter id="filter3174"><feGaussianBlur id="feGaussianBlur3176" stdDeviation="1.71"/></filter><linearGradient id="linearGradient3188" x1="36.357" x2="36.357" y1="6" y2="63.893" gradientUnits="userSpaceOnUse" xlink:href="#linearGradient3737"/><filter id="filter3794" width="1.384" height="1.384" x="-.192" y="-.192"><feGaussianBlur id="feGaussianBlur3796" stdDeviation="5.28"/></filter><linearGradient id="linearGradient3613" x1="48" x2="48" y1="20.221" y2="138.661" gradientUnits="userSpaceOnUse" xlink:href="#linearGradient3737"/><linearGradient id="linearGradient3617" x1="48" x2="48" y1="90" y2="5.988" gradientUnits="userSpaceOnUse" xlink:href="#linearGradient4209"/><linearGradient id="ButtonShadow-0" x1="45.448" x2="45.448" y1="92.54" y2="7.017" gradientTransform="matrix(1.0058652,0,0,0.994169,100,0)" gradientUnits="userSpaceOnUse"><stop id="stop3750-8" offset="0" stop-color="#000" stop-opacity="1"/><stop id="stop3752-5" offset="1" stop-color="#000" stop-opacity=".588"/></linearGradient><linearGradient id="linearGradient3780" x1="32.251" x2="32.251" y1="6.132" y2="90.239" gradientTransform="matrix(1.0238095,0,0,1.0119048,-1.1428571,-98.071429)" gradientUnits="userSpaceOnUse" xlink:href="#ButtonShadow-0"/><linearGradient id="linearGradient3772" x1="32.251" x2="32.251" y1="6.132" y2="90.239" gradientTransform="matrix(1.0238095,0,0,1.0119048,-1.1428571,-98.071429)" gradientUnits="userSpaceOnUse" xlink:href="#ButtonShadow-0"/><linearGradient id="linearGradient3725" x1="32.251" x2="32.251" y1="6.132" y2="90.239" gradientTransform="matrix(1.0238095,0,0,1.0119048,-1.1428571,-98.071429)" gradientUnits="userSpaceOnUse" xlink:href="#ButtonShadow-0"/><linearGradient id="linearGradient3721" x1="32.251" x2="32.251" y1="6.132" y2="90.239" gradientTransform="translate(0,-97)" gradientUnits="userSpaceOnUse" xlink:href="#ButtonShadow-0"/><linearGradient id="linearGradient3026" x1="32.251" x2="32.251" y1="6.132" y2="90.239" gradientTransform="matrix(1.0238095,0,0,1.0119048,-1.1428571,-98.071429)" gradientUnits="userSpaceOnUse" xlink:href="#ButtonShadow-0"/><linearGradient id="linearGradient3675" x1="8" x2="64.08" y1="1033.362" y2="1033.362" gradientUnits="userSpaceOnUse" spreadMethod="reflect" xlink:href="#linearGradient3669"/><linearGradient id="linearGradient3669"><stop id="stop3671" offset="0" stop-color="#c27d4f" stop-opacity="1"/><stop id="stop3677" offset=".118" stop-color="#a3704e" stop-opacity="1"/><stop id="stop3673" offset="1" stop-color="#866148" stop-opacity="1"/></linearGradient><clipPath id="clipPath4355" clipPathUnits="userSpaceOnUse"><rect id="rect4357" width="84" height="80" x="6" y="6" fill="#fff" fill-opacity="1" fill-rule="nonzero" stroke="none" rx="6" ry="6"/></clipPath><linearGradient id="linearGradient4390" x1="48" x2="48" y1="88" y2="-40" gradientTransform="matrix(1,0,0,-1.0494087,0,96.249146)" gradientUnits="userSpaceOnUse" xlink:href="#linearGradient4384"/><linearGradient id="linearGradient4429" x1="48" x2="112.124" y1="82" y2="82.455" gradientTransform="matrix(1,0,0,1.4940867,0,-38.538765)" gradientUnits="userSpaceOnUse" spreadMethod="reflect" xlink:href="#linearGradient4384"/><linearGradient id="linearGradient3542-9" x1="8" x2="50" y1="1033.362" y2="1033.362" gradientTransform="translate(-2,-956.3622)" gradientUnits="userSpaceOnUse" spreadMethod="reflect" xlink:href="#linearGradient4482"/><linearGradient id="linearGradient4482"><stop id="stop4484" offset="0" stop-color="#fff" stop-opacity=".13"/><stop id="stop4486" offset=".118" stop-color="#424242" stop-opacity=".282"/><stop id="stop4488" offset=".238" stop-color="#2f2f2f" stop-opacity=".305"/><stop id="stop4490" offset="1" stop-color="#000" stop-opacity=".351"/></linearGradient><linearGradient id="linearGradient3851" x1="90" x2="48" y1="88" y2="88" gradientUnits="userSpaceOnUse" spreadMethod="reflect" xlink:href="#linearGradient4482"/><linearGradient id="linearGradient3890" x1="90" x2="48" y1="88" y2="88" gradientUnits="userSpaceOnUse" spreadMethod="reflect" xlink:href="#linearGradient3892"/><linearGradient id="linearGradient3892"><stop id="stop3894" offset="0" stop-color="#000" stop-opacity=".588"/><stop id="stop3896" offset=".118" stop-color="#000" stop-opacity=".471"/><stop id="stop3898" offset=".238" stop-color="#000" stop-opacity=".392"/><stop id="stop3900" offset="1" stop-color="#000" stop-opacity=".314"/></linearGradient></defs><metadata id="metadata2413"/><g id="layer2" display="none"><rect id="rect3745" width="86" height="85" x="5" y="7" fill="url(#ButtonShadow)" fill-opacity="1" fill-rule="nonzero" stroke="none" filter="url(#filter3174)" opacity=".9" rx="6" ry="6"/></g><g id="layer3" display="inline"><path id="path3786" fill="url(#linearGradient3026)" fill-opacity="1" fill-rule="nonzero" stroke="none" d="m 12,-95.03125 c -5.5110903,0 -10.03125,4.52016 -10.03125,10.03125 l 0,71 c 0,5.5110902 4.5201598,10.03125 10.03125,10.03125 l 72,0 c 5.51109,0 10.03125,-4.5201597 10.03125,-10.03125 l 0,-71 c 0,-5.51109 -4.52016,-10.03125 -10.03125,-10.03125 l -72,0 z" display="inline" opacity=".08" transform="scale(1,-1)"/><path id="path3778" fill="url(#linearGradient3780)" fill-opacity="1" fill-rule="nonzero" stroke="none" d="m 12,-94.03125 c -4.971633,0 -9.03125,4.059617 -9.03125,9.03125 l 0,71 c 0,4.9716329 4.0596171,9.03125 9.03125,9.03125 l 72,0 c 4.971633,0 9.03125,-4.059617 9.03125,-9.03125 l 0,-71 c 0,-4.971633 -4.059617,-9.03125 -9.03125,-9.03125 l -72,0 z" display="inline" opacity=".1" transform="scale(1,-1)"/><path id="path3770" fill="url(#linearGradient3772)" fill-opacity="1" fill-rule="nonzero" stroke="none" d="m 12,-93 c -4.4091333,0 -8,3.590867 -8,8 l 0,71 c 0,4.4091333 3.5908667,8 8,8 l 72,0 c 4.409133,0 8,-3.5908667 8,-8 l 0,-71 c 0,-4.409133 -3.590867,-8 -8,-8 l -72,0 z" display="inline" opacity=".2" transform="scale(1,-1)"/><rect id="rect3723" width="86" height="85" x="5" y="-92" fill="url(#linearGradient3725)" fill-opacity="1" fill-rule="nonzero" stroke="none" display="inline" opacity=".3" rx="7" ry="7" transform="scale(1,-1)"/><rect id="rect3716" width="84" height="84" x="6" y="-91" fill="url(#linearGradient3721)" fill-opacity="1" fill-rule="nonzero" stroke="none" display="inline" opacity=".45" rx="6" ry="6" transform="scale(1,-1)"/></g><g id="layer1"><rect id="rect2419" width="84" height="84" x="6" y="6" fill="url(#linearGradient3617)" fill-opacity="1" fill-rule="nonzero" stroke="none" rx="6" ry="6"/><path id="rect4377" fill="url(#linearGradient4390)" fill-opacity="1" fill-rule="nonzero" stroke="none" d="m 12,89.952694 c -3.324,0 -6,-2.808218 -6,-6.296452 L 6,12.296452 C 6,8.8082176 8.676,6 12,6 l 72,0 c 3.324,0 6,2.8082176 6,6.296452 l 0,71.35979 c 0,3.488234 -2.676,6.296452 -6,6.296452 z m 0,-1.016615 72,0 c 2.80489,0 5.03125,-2.336361 5.03125,-5.279837 l 0,-71.35979 C 89.03125,9.3529761 86.80489,7.0166147 84,7.0166147 l -72,0 c -2.8048898,0 -5.03125,2.3363614 -5.03125,5.2798373 l 0,71.35979 c 0,2.943476 2.2263602,5.279837 5.03125,5.279837 z" opacity=".3"/><path id="rect4414" fill="url(#linearGradient4429)" fill-opacity="1" fill-rule="nonzero" stroke="none" d="m 6,78 0,2.988173 c 0,4.966345 2.676,8.964521 6,8.964521 l 72,0 c 3.324,0 6,-3.998176 6,-8.964521 L 90,78 c 0,4.966344 -2.676,8.96452 -6,8.96452 l -72,0 C 8.676,86.96452 6,82.966344 6,78 Z" opacity=".1"/><g id="flowRoot4212" fill="#fff" fill-opacity="1" stroke="none" stroke-linecap="butt" stroke-linejoin="miter" stroke-opacity="1" stroke-width="1" font-family="Noto Sans" font-size="75" font-stretch="normal" font-style="normal" font-variant="normal" font-weight="bold" letter-spacing="0" text-anchor="start" transform="translate(26.921049,1.2819548)" word-spacing="0" writing-mode="lr-tb" style="line-height:125%;-inkscape-font-specification:'Noto Sans, Bold';text-align:start"><path id="path4434" fill="#fff" d="m 40.429687,73.581481 -37.4267573,0 0,-7.873535 L 16.442871,52.12152 q 5.969238,-6.115723 7.800293,-8.459473 1.831055,-2.380371 2.636719,-4.394531 0.805664,-2.01416 0.805664,-4.174805 0,-3.222656 -1.794434,-4.797363 -1.757812,-1.574707 -4.724121,-1.574707 -3.112793,0 -6.04248,1.428223 -2.929688,1.428222 -6.1157229,4.064941 L 2.8564453,26.926207 q 3.9550781,-3.36914 6.5551758,-4.760742 2.6000979,-1.391601 5.6762699,-2.124023 3.076171,-0.769043 6.884765,-0.769043 5.01709,0 8.862305,1.831054 3.845215,1.831055 5.969238,5.126954 2.124024,3.295898 2.124024,7.543945 0,3.69873 -1.31836,6.958008 -1.281738,3.222656 -4.02832,6.628418 -2.709961,3.405761 -9.594727,9.70459 l -6.884765,6.481933 0,0.512695 23.327636,0 0,9.521485 z"/></g></g><g id="layer5" display="inline"><rect id="rect3171" width="66" height="62" x="15" y="15" fill="url(#linearGradient3613)" fill-opacity="1" fill-rule="nonzero" stroke="#fff" stroke-dasharray="none" stroke-dashoffset="0" stroke-linecap="round" stroke-linejoin="miter" stroke-miterlimit="4" stroke-opacity="1" stroke-width=".5" clip-path="url(#clipPath4355)" filter="url(#filter3794)" opacity=".2" rx="12" ry="12"/></g></svg>