<svg xmlns="http://www.w3.org/2000/svg" xmlns:svg="http://www.w3.org/2000/svg" id="svg7384" width="16" height="16" version="1.1"><metadata id="metadata90"/><title id="title9167">elementary Symbolic Icon Theme</title><defs id="defs7386"><filter id="filter7554" color-interpolation-filters="sRGB"><feBlend id="feBlend7556" in2="BackgroundImage" mode="darken"/></filter><filter id="filter7554-7" color-interpolation-filters="sRGB"><feBlend id="feBlend7556-6" in2="BackgroundImage" mode="darken"/></filter></defs><g id="layer10" display="inline" transform="translate(-273.0004,252)"><path id="path29424" fill="#bebebe" fill-opacity="1" fill-rule="nonzero" stroke="none" stroke-width="1" d="m 274.0004,-249 c -0.554,0 -1,0.446 -1,1 l 0,8 c 0,0.554 0.446,1 1,1 l 12,0 c 0.554,0 1,-0.446 1,-1 l 0,-2 1,0 c 0.554,0 1,-0.446 1,-1 l 0,-2 c 0,-0.554 -0.446,-1 -1,-1 l -1,0 0,-2 c 0,-0.554 -0.446,-1 -1,-1 l -12,0 z m 0.5,1 11,0 c 0.277,0 0.5,0.223 0.5,0.5 l 0,7 c 0,0.277 -0.223,0.5 -0.5,0.5 l -11,0 c -0.277,0 -0.5,-0.223 -0.5,-0.5 l 0,-7 c 0,-0.277 0.223,-0.5 0.5,-0.5 z m 0.75,1 c -0.1385,0 -0.25,0.1115 -0.25,0.25 l 0,0.75 4,2 0.0625,-3 -3.8125,0 z m 3.8125,0 5.9375,5 0,-4.75 c 0,-0.1385 -0.1115,-0.25 -0.25,-0.25 l -5.6875,0 z m 5.9375,5 -4,-2 0,3 3.75,0 c 0.1385,0 0.25,-0.1115 0.25,-0.25 l 0,-0.75 z m -4,1 -6,-5 0,4.75 c 0,0.1385 0.1115,0.25 0.25,0.25 l 5.75,0 z m 6,-4 0.5,0 c 0.277,0 0.5,0.223 0.5,0.5 l 0,1 c 0,0.277 -0.223,0.5 -0.5,0.5 l -0.5,0 0,-2 z" color="#bebebe" display="inline" enable-background="accumulate" overflow="visible" visibility="visible" style="marker:none"/></g></svg>