<svg xmlns="http://www.w3.org/2000/svg" xmlns:svg="http://www.w3.org/2000/svg" id="svg3004" width="16" height="16" version="1.1"><metadata id="metadata3009"/><g id="layer1"><path id="rect3206" fill="#bebebe" fill-opacity="1" fill-rule="nonzero" stroke="none" stroke-width="1" d="M 1,3 C 0.446,3 0,3.446 0,4 l 0,8 c 0,0.554 0.446,1 1,1 l 12,0 c 0.554,0 1,-0.446 1,-1 l 0,-2 1,0 c 0.554,0 1,-0.446 1,-1 L 16,7 C 16,6.446 15.554,6 15,6 L 14,6 14,4 C 14,3.446 13.554,3 13,3 L 1,3 z m 0.5,1 11,0 C 12.777,4 13,4.223 13,4.5 l 0,7 c 0,0.277 -0.223,0.5 -0.5,0.5 l -11,0 C 1.223,12 1,11.777 1,11.5 l 0,-7 C 1,4.223 1.223,4 1.5,4 z M 2.25,5 C 2.1115,5 2,5.1115 2,5.25 l 0,5.5 C 2,10.8885 2.1115,11 2.25,11 l 9.5,0 C 11.8885,11 12,10.8885 12,10.75 l 0,-5.5 C 12,5.1115 11.8885,5 11.75,5 L 2.25,5 z M 14,7 14.5,7 C 14.777,7 15,7.223 15,7.5 l 0,1 C 15,8.777 14.777,9 14.5,9 L 14,9 14,7 z" color="#bebebe" display="inline" enable-background="accumulate" overflow="visible" visibility="visible" style="marker:none"/></g></svg>