<svg xmlns="http://www.w3.org/2000/svg" xmlns:xlink="http://www.w3.org/1999/xlink" width="64" height="64" version="1.1"><defs id="defs5455"><linearGradient id="linearGradient4303"><stop style="stop-color:#c6cdd1" id="stop4305"/><stop style="stop-color:#e0e5e7" id="stop4307" offset="1"/></linearGradient><linearGradient id="linearGradient4770-8"><stop id="stop4772-3"/><stop style="stop-opacity:0" id="stop4774-6" offset="1"/></linearGradient><linearGradient id="linearGradient5002"><stop style="stop-color:#2e5d89" id="stop5004"/><stop style="stop-color:#1b92f4" id="stop5006" offset="1"/></linearGradient><linearGradient id="linearGradient4327" x1="402.405" x2="415.571" y1="514.632" y2="527.798" gradientTransform="matrix(1.2000014 0 0 1.2000014 -81.71483 -104.96033)" gradientUnits="userSpaceOnUse" xlink:href="#linearGradient5002"/><linearGradient id="linearGradient4352" x1="400.571" x2="415.571" y1="512.798" y2="527.798" gradientTransform="matrix(1.1818182 0 0 1.1818182 -74.28571 -95.23599)" gradientUnits="userSpaceOnUse" xlink:href="#linearGradient5002"/><linearGradient id="linearGradient4356" x1="397.478" x2="415.571" y1="509.704" y2="527.798" gradientTransform="matrix(1.0000011 0 0 1.0000011 -0.000424 -1.00062)" gradientUnits="userSpaceOnUse" xlink:href="#linearGradient5002"/><linearGradient id="linearGradient4356-7" x1="386.061" x2="415.571" y1="498.288" y2="527.798" gradientTransform="matrix(0.70000076 0 0 0.70000076 122.57112 154.93896)" gradientUnits="userSpaceOnUse" xlink:href="#linearGradient5002"/><linearGradient id="linearGradient4199"><stop style="stop-color:#2f3943" id="stop4201"/><stop style="stop-color:#4d5662" id="stop4203" offset="1"/></linearGradient><linearGradient id="linearGradient4191"><stop style="stop-color:#18222a" id="stop4193"/><stop style="stop-color:#566069" id="stop4195" offset="1"/></linearGradient><linearGradient id="linearGradient4510" x1="398.572" x2="418.571" y1="508.798" y2="528.798" gradientTransform="matrix(-1.2142883 0 0 -1.2142879 904.69496 1149.9824)" gradientUnits="userSpaceOnUse" xlink:href="#linearGradient4199"/><linearGradient id="linearGradient4545" x2="0" y1="28" y2="12" gradientTransform="matrix(1.2500005 0 0 1.1875001 382.57144 495.54797)" gradientUnits="userSpaceOnUse" xlink:href="#linearGradient4199"/><linearGradient id="linearGradient4545-5" x2="0" y1="28" y2="12" gradientTransform="matrix(-1.2500007 0 0 1.1875001 434.57144 495.54797)" gradientUnits="userSpaceOnUse" xlink:href="#linearGradient4199"/><linearGradient id="linearGradient4577" x1="405.571" x2="411.571" y1="534.798" y2="538.798" gradientTransform="matrix(1.2500048 0 0 0.70910087 -102.14482 157.57228)" gradientUnits="userSpaceOnUse" xlink:href="#linearGradient4191"/><linearGradient id="linearGradient4510-8" x1="398.305" x2="419.771" y1="509.531" y2="530.998" gradientTransform="matrix(0.92857223 0 0 0.92857223 29.18337 36.12792)" gradientUnits="userSpaceOnUse" xlink:href="#linearGradient4191"/><linearGradient id="linearGradient4609" x1="421.571" x2="398.571" y1="530.798" y2="507.798" gradientTransform="matrix(1.1875 0 0 1.1875 -76.60712 -98.46213)" gradientUnits="userSpaceOnUse" xlink:href="#linearGradient4303"/><linearGradient id="linearGradient4617" x2="0" y1="531.798" y2="501.699" gradientTransform="matrix(1.0833321 0 0 1.2045475 -34.04704 -106.77793)" gradientUnits="userSpaceOnUse" xlink:href="#linearGradient4303"/><linearGradient id="linearGradient4159-5"><stop style="stop-color:#1d1e1e" id="stop4161-5"/><stop style="stop-color:#44484c" id="stop4163-7" offset="1"/></linearGradient><linearGradient id="linearGradient4735" x2="0" y1="519.798" y2="541.011" gradientTransform="matrix(0.83567166 -0.83567166 0.83567166 0.83567166 -367.24058 426.12187)" gradientUnits="userSpaceOnUse" xlink:href="#linearGradient4770-8"/><linearGradient id="linearGradient4776-4" x1="410.571" x2="413.571" y1="538.798" y2="541.798" gradientTransform="matrix(1.2727274 0 0 1.4242361 -111.33768 -225.85028)" gradientUnits="userSpaceOnUse" xlink:href="#linearGradient4770-8"/><linearGradient id="linearGradient4784-5" x2="0" y1="541.798" y2="543.798" gradientTransform="matrix(1.1874992 0 0 1.000019 -76.60685 3.98971)" gradientUnits="userSpaceOnUse" xlink:href="#linearGradient4159-5"/><linearGradient id="linearGradient4828" x2="0" y1="537.798" y2="539.798" gradientTransform="matrix(1.1874993 0 0 1.3636306 -76.60685 -193.01434)" gradientUnits="userSpaceOnUse" xlink:href="#linearGradient4303"/></defs><metadata id="metadata5458"/><g id="layer1" transform="matrix(1 0 0 1 -376.57144 -491.79797)"><rect style="fill:url(#linearGradient4828);stroke-linecap:round;stroke-linejoin:round;stroke-width:2" id="rect4820" width="38" height="5.455" x="389.571" y="540.343"/><rect style="fill:url(#linearGradient4617);stroke-linecap:round;stroke-linejoin:round;stroke-width:2" id="rect4288" width="52" height="28.909" x="382.572" y="504.889" rx="0"/><path style="fill:url(#linearGradient4735);opacity:.2;stroke-linecap:round;stroke-linejoin:round;stroke-width:2" id="rect4727" d="m 421.94306,505.69912 -26.74325,26.74325 0.81019,0.81019 38.56144,0 0,-12.56143 z"/><path style="fill:url(#linearGradient4776-4);opacity:.2;fill-rule:evenodd" id="path4768" d="m 403.57143,541.52529 3.81817,4.2727 10.18183,0 -3.81819,-4.2727 z"/><path style="fill:url(#linearGradient4577);stroke-linecap:round;stroke-linejoin:round;stroke-width:2" id="rect4284" d="m 403.57143,536.79798 10,0 0,4.72731 c 0,0 -1.25002,1.18182 -4.99999,1.18182 -3.74997,0 -5.00001,-1.18182 -5.00001,-1.18182 z"/><rect style="fill:url(#linearGradient4784-5);stroke-linecap:round;stroke-linejoin:round;stroke-width:2" id="rect4290" width="38" height="2" x="389.571" y="545.798"/><circle style="fill:url(#linearGradient4609);stroke-linecap:round;stroke-linejoin:round;stroke-width:2" id="path4286" cx="408.571" cy="518.798" r="19"/><path style="fill:url(#linearGradient4510);stroke-linecap:round;stroke-linejoin:round;stroke-width:2" id="path4286-9" d="m 391.57144,518.79796 a 17.000003,16.999998 0 0 1 17,-16.99999 17.000003,16.999998 0 0 1 17,16.99999 17.000003,16.999998 0 0 1 -17,17.00001 17.000003,16.999998 0 0 1 -17,-17.00001 z"/><circle style="fill:url(#linearGradient4510-8);stroke-linecap:round;stroke-linejoin:round;stroke-width:2" id="path4286-9-4" cx="408.571" cy="518.798" r="13"/><circle style="fill:url(#linearGradient4327);stroke-linecap:round;stroke-linejoin:round;stroke-width:2" id="circle4309" cx="408.571" cy="518.798" r="12"/><path style="fill:url(#linearGradient4352);stroke-linecap:round;stroke-linejoin:round;stroke-width:2" id="circle4309-6" cx="408.571" cy="519.798" r="10"/><circle style="fill:url(#linearGradient4356);stroke-linecap:round;stroke-linejoin:round;stroke-width:2" id="circle4354" cx="408.571" cy="518.798" r="10"/><circle style="fill:url(#linearGradient4356-7);stroke-linecap:round;stroke-linejoin:round;stroke-width:2" id="circle4354-5" cx="408.571" cy="518.798" r="7"/><circle style="fill:#2c3e50;stroke-linecap:round;stroke-linejoin:round;stroke-width:2" id="circle4354-5-1" cx="408.571" cy="518.798" r="5"/><path style="fill:url(#linearGradient4545);stroke-linecap:round;stroke-linejoin:round;stroke-width:2" id="rect4512" d="m 382.57144,509.79797 0,19 2.5,0 c 1.38502,0 2.5,-1.05923 2.5,-2.375 l 0,-14.25001 c 0,-1.31576 -1.11498,-2.37499 -2.5,-2.37499 l -2.5,0 z"/><path style="fill:url(#linearGradient4545-5);stroke-linecap:round;stroke-linejoin:round;stroke-width:2" id="rect4512-0" d="m 434.57144,509.79797 0,19 -2.50001,0 c -1.38501,0 -2.49999,-1.05923 -2.49999,-2.375 l 0,-14.25001 c 0,-1.31576 1.11498,-2.37499 2.49999,-2.37499 l 2.50001,0 z"/><circle style="fill:#11d116;stroke-linecap:round;stroke-linejoin:round;stroke-width:2" id="path4292" cx="432.071" cy="514.298" r="1.5"/><circle style="fill:#84cbfe;stroke-linecap:round;stroke-linejoin:round;stroke-width:2" id="path4786" cx="405.571" cy="515.798" r="1"/><circle style="fill:#84cbfe;stroke-linecap:round;stroke-linejoin:round;stroke-width:2" id="path4786-6" cx="402.571" cy="512.798" r="2"/></g></svg>