<svg xmlns="http://www.w3.org/2000/svg" xmlns:xlink="http://www.w3.org/1999/xlink" version="1.1" viewBox="0 0 64 64"><defs><linearGradient id="a"><stop offset="0" stop-color="#94a2a9"/><stop offset="1" stop-color="#bec8cc"/></linearGradient><linearGradient id="h" x2="0" y1="557.8" y2="505.8" gradientTransform="matrix(.46467 0 0 .48276 -175.66 -225.28)" gradientUnits="userSpaceOnUse"><stop offset="0" stop-color="#197cf1"/><stop offset="1" stop-color="#20bcfa"/></linearGradient><linearGradient id="e" x1="50.5" x2="50.5" y1="23" y2="41" gradientTransform="matrix(-.4 0 0 -.77778 64.2 61.889)" gradientUnits="userSpaceOnUse"><stop offset="0" stop-color="#2f3943"/><stop offset="1" stop-color="#4d5662"/></linearGradient><linearGradient id="c" x1="399.07" x2="399.07" y1="592.66" y2="500.8" gradientTransform="matrix(.77819 0 0 .28303 -290.55 -117.74)" gradientUnits="userSpaceOnUse" xlink:href="#a"/><linearGradient id="b" x1="44" x2="44" y1="19" y2="11" gradientTransform="translate(2,2)" gradientUnits="userSpaceOnUse"><stop offset="0" stop-color="#2f3943"/><stop offset="1" stop-color="#535d6a"/></linearGradient><linearGradient id="g" x1="54" x2="54" y1="49" y2="25" gradientTransform="translate(5.231e-7 1.7526e-5)" gradientUnits="userSpaceOnUse" xlink:href="#a"/><linearGradient id="f" x1="24" x2="24" y1="22" y2="13" gradientTransform="translate(-1,2)" gradientUnits="userSpaceOnUse" xlink:href="#a"/><linearGradient id="d" x1="28" x2="38" y1="30" y2="40" gradientUnits="userSpaceOnUse"><stop offset="0" stop-color="#292c2f"/><stop offset="1" stop-color="#292c2f" stop-opacity=".265"/></linearGradient></defs><path fill="url(#f)" d="m17 15-9 9h6l5-5h10l3 5h5l-3-5h2v-4z"/><path fill="url(#g)" d="m58 25-14 4.9805v14l14 5.0195 3-0.01952v-24z"/><ellipse cx="31" cy="32" fill="red" fill-opacity=".967" rx="1" ry="1"/><path fill="url(#c)" d="m6 24c-1.662 0-3 1.338-3 3v20c0 1.662 1.338 3 3 3h32c1.662 0 3-1.338 3-3v-20c0-1.662-1.338-3-3-3z"/><path fill="url(#d)" d="m27.707 29.293-20.414 15.414 4.293 4.293h26.414c1.662 0 3-1.338 3-3v-5.4141l-9.293-9.293-1 1z" opacity=".2"/><path fill="url(#e)" stroke-linecap="round" stroke-width=".707" d="m44 44v-14h-3v14h1e-6z"/><path fill="url(#h)" stroke-width="1.569" d="m8 30v14h19v-14z"/><path fill="url(#b)" d="m36 19c0 3 18 1.8675 21 0 1-0.66667 1-1.4369 1-2s0-1.3333-1-2c-3-2-21-3-21 0z"/><path fill="#31363b" stroke-width="1.764" d="m8 29c-0.554 0-1 0.446-1 1v14c0 0.554 0.446 1 1 1h19c0.554 0 1-0.446 1-1v-14c0-0.554-0.446-1-1-1zm0 1h19v8l-4-2-5 4-2-2-8 6zm4.5 1.5234a2.5 2.5 0 0 0-2.5 2.5 2.5 2.5 0 0 0 2.5 2.5 2.5 2.5 0 0 0 2.5-2.5 2.5 2.5 0 0 0-2.5-2.5z"/><g fill-opacity=".967"><path fill="#da4453" d="m31.707 31.293a1 1 0 0 0-1.4142 0 1 1 0 0 0 0 1.4142 1 1 0 0 0 1.4142 0 1 1 0 0 0 0-1.4142z"/><path fill="#31363b" d="m31 35a1 1 0 0 0-1 1 1 1 0 0 0 1 1 1 1 0 0 0 1-1 1 1 0 0 0-1-1z"/><path fill="#31363b" d="m31 39a1 1 0 0 0-1 1 1 1 0 0 0 1 1 1 1 0 0 0 1-1 1 1 0 0 0-1-1z"/></g><path fill="#292c2f" d="m3 46v1c0 1.662 1.338 3 3 3h32c1.662 0 3-1.338 3-3v-1c0 1.662-1.338 3-3 3h-32c-1.662 0-3-1.338-3-3z" opacity=".4"/></svg>