<svg xmlns="http://www.w3.org/2000/svg" xmlns:xlink="http://www.w3.org/1999/xlink" width="64" height="64" version="1.1"><defs id="defs5455"><linearGradient id="linearGradient4722"><stop style="stop-color:#a1adb3" id="stop4724"/><stop style="stop-color:#bfc7cb" id="stop4726" offset="1"/></linearGradient><linearGradient id="linearGradient4303"><stop style="stop-color:#c6cdd1" id="stop4305"/><stop style="stop-color:#e0e5e7" id="stop4307" offset="1"/></linearGradient><linearGradient id="linearGradient4770-8"><stop id="stop4772-3"/><stop style="stop-opacity:0" id="stop4774-6" offset="1"/></linearGradient><linearGradient id="linearGradient5002"><stop style="stop-color:#2e5d89" id="stop5004"/><stop style="stop-color:#1b92f4" id="stop5006" offset="1"/></linearGradient><linearGradient id="linearGradient4352" x1="400.571" x2="415.571" y1="512.798" y2="527.798" gradientTransform="matrix(1.1818182 0 0 1.1818182 -74.28571 -95.73208)" gradientUnits="userSpaceOnUse" xlink:href="#linearGradient5002"/><linearGradient id="linearGradient4199"><stop style="stop-color:#2f3943" id="stop4201"/><stop style="stop-color:#4d5662" id="stop4203" offset="1"/></linearGradient><linearGradient id="linearGradient4191"><stop style="stop-color:#18222a" id="stop4193"/><stop style="stop-color:#566069" id="stop4195" offset="1"/></linearGradient><linearGradient id="linearGradient4617" x2="0" y1="531.798" y2="501.699" gradientTransform="matrix(1.0833321 0 0 1.3356131 -34.04711 -170.45106)" gradientUnits="userSpaceOnUse" xlink:href="#linearGradient4303"/><linearGradient id="linearGradient4749" x2="0" y1="530.798" y2="528.798" gradientTransform="matrix(1.5 0 0 1.5 -182.28572 -282.39512)" gradientUnits="userSpaceOnUse" xlink:href="#linearGradient4347"/><linearGradient id="linearGradient4347"><stop style="stop-color:#f33777" id="stop4349"/><stop style="stop-color:#fd2d65" id="stop4351" offset="1"/></linearGradient><linearGradient id="linearGradient4327-2" x1="402.405" x2="415.571" y1="514.632" y2="527.798" gradientTransform="matrix(1 0 0 1 -7 4.02733)" gradientUnits="userSpaceOnUse" xlink:href="#linearGradient5002"/><linearGradient id="linearGradient4352-6" x1="400.571" x2="415.571" y1="512.798" y2="527.798" gradientTransform="matrix(1 0 0 1 78.999997 3.656239)" gradientUnits="userSpaceOnUse" xlink:href="#linearGradient5002"/><linearGradient id="linearGradient4356-76" x1="397.478" x2="415.571" y1="509.704" y2="527.798" gradientTransform="matrix(0.79999828 0 0 0.79999828 74.71499 107.98782)" gradientUnits="userSpaceOnUse" xlink:href="#linearGradient5002"/><linearGradient id="linearGradient4356-7-7" x1="386.061" x2="415.571" y1="498.288" y2="527.798" gradientTransform="matrix(0.59999951 0 0 0.59999951 156.42877 211.94677)" gradientUnits="userSpaceOnUse" xlink:href="#linearGradient5002"/><linearGradient id="linearGradient4510-5" x1="398.572" x2="418.571" y1="508.798" y2="528.798" gradientTransform="matrix(-1 0 0 -1 810.14289 1043.6233)" gradientUnits="userSpaceOnUse" xlink:href="#linearGradient4199"/><linearGradient id="linearGradient4510-8-2" x1="398.305" x2="419.771" y1="509.531" y2="530.998" gradientTransform="matrix(0.78571495 0 0 0.78571495 80.55076 115.4122)" gradientUnits="userSpaceOnUse" xlink:href="#linearGradient4191"/><linearGradient id="linearGradient4609-6" x1="421.571" x2="398.571" y1="530.798" y2="507.798" gradientTransform="matrix(1 0 0 1 -7 4.02733)" gradientUnits="userSpaceOnUse" xlink:href="#linearGradient4722"/><linearGradient id="linearGradient4735-2" x2="0" y1="519.798" y2="541.011" gradientTransform="matrix(0.70710678 -0.70710678 0.70710678 0.70710678 -254.88488 445.17629)" gradientUnits="userSpaceOnUse" xlink:href="#linearGradient4770-8"/><linearGradient id="linearGradient4352-5" x1="400.571" x2="415.571" y1="512.798" y2="527.798" gradientTransform="matrix(1.1818182 0 0 1.1818182 6.714285 -89.23598)" gradientUnits="userSpaceOnUse" xlink:href="#linearGradient5002"/><linearGradient id="linearGradient4861" x2="0" y1="41" y2="23" gradientUnits="userSpaceOnUse" xlink:href="#linearGradient4199"/><linearGradient id="linearGradient4352-9" x1="400.571" x2="415.571" y1="512.798" y2="527.798" gradientTransform="matrix(1.1818182 0 0 1.1818182 3.714275 -96.23596)" gradientUnits="userSpaceOnUse" xlink:href="#linearGradient5002"/><linearGradient id="linearGradient4159-5"><stop style="stop-color:#1d1e1e" id="stop4161-5"/><stop style="stop-color:#44484c" id="stop4163-7" offset="1"/></linearGradient><linearGradient id="linearGradient4784-5" x2="0" y1="541.798" y2="543.798" gradientTransform="matrix(1.6249997 0 0 1.000019 -255.35713 -36.01031)" gradientUnits="userSpaceOnUse" xlink:href="#linearGradient4159-5"/><linearGradient id="linearGradient4784-5-7" x2="0" y1="541.798" y2="543.798" gradientTransform="matrix(1.6249997 0 0 1.000019 -255.35717 -2.01027)" gradientUnits="userSpaceOnUse" xlink:href="#linearGradient4159-5"/><linearGradient id="linearGradient4208" x2="0" y1="504.798" y2="499.798" gradientTransform="matrix(1 0 0 1 0 1.99994)" gradientUnits="userSpaceOnUse" xlink:href="#linearGradient4159-5"/></defs><metadata id="metadata5458"/><g id="layer1" transform="matrix(1 0 0 1 -376.57144 -491.79797)"><rect style="fill:url(#linearGradient4208)" id="rect4200" width="6" height="3" x="424.571" y="503.798"/><path style="fill:url(#linearGradient4352);stroke-linecap:round;stroke-linejoin:round;stroke-width:2" id="circle4309-6" cx="408.571" cy="519.798" r="10"/><rect style="fill:url(#linearGradient4617);stroke-linecap:round;stroke-linejoin:round;stroke-width:2" id="rect4288" width="52" height="32.055" x="382.571" y="507.771" rx="0"/><path style="fill:url(#linearGradient4749);stroke-linecap:square;stroke-width:.1" id="path4715" d="m 426.07142,510.80188 a 1.5,1.5 0 0 0 -1.5,1.5 1.5,1.5 0 0 0 1.5,1.5 1.5,1.5 0 0 0 1.5,-1.5 1.5,1.5 0 0 0 -1.5,-1.5 z"/><path style="fill:url(#linearGradient4352-6);stroke-linecap:round;stroke-linejoin:round;stroke-width:2" id="circle4309-6-0" cx="408.571" cy="519.798" r="10"/><path style="fill:url(#linearGradient4735-2);opacity:.2;stroke-linecap:round;stroke-linejoin:round;stroke-width:2" id="rect4727-1" d="m 412.88588,512.51088 -22.6289,22.6289 0.68554,0.68555 32.62891,0 0,-10.62891 z"/><circle style="fill:url(#linearGradient4609-6);stroke-linecap:round;stroke-linejoin:round;stroke-width:2" id="path4286-2" cx="401.571" cy="523.825" r="16"/><path style="fill:url(#linearGradient4510-5);stroke-linecap:round;stroke-linejoin:round;stroke-width:2" id="path4286-9-6" d="m 387.57147,523.8253 a 13.999973,13.999973 0 0 1 13.99997,-13.99997 13.999973,13.999973 0 0 1 13.99997,13.99997 13.999973,13.999973 0 0 1 -13.99997,13.99998 13.999973,13.999973 0 0 1 -13.99997,-13.99998 z"/><circle style="fill:url(#linearGradient4510-8-2);stroke-linecap:round;stroke-linejoin:round;stroke-width:2" id="path4286-9-4-4" cx="401.571" cy="523.825" r="11"/><circle style="fill:url(#linearGradient4327-2);stroke-linecap:round;stroke-linejoin:round;stroke-width:2" id="circle4309-9" cx="401.571" cy="523.825" r="10"/><circle style="fill:url(#linearGradient4356-76);stroke-linecap:round;stroke-linejoin:round;stroke-width:2" id="circle4354-3" cx="401.571" cy="523.825" r="8"/><circle style="fill:url(#linearGradient4356-7-7);stroke-linecap:round;stroke-linejoin:round;stroke-width:2" id="circle4354-5-3" cx="401.571" cy="523.825" r="6"/><circle style="fill:#2c3e50;stroke-linecap:round;stroke-linejoin:round;stroke-width:2" id="circle4354-5-1-8" cx="401.571" cy="523.825" r="4"/><circle style="fill:#84cbfe;stroke-linecap:round;stroke-linejoin:round;stroke-width:2" id="path4786-1" cx="398.571" cy="520.825" r="1"/><ellipse style="fill:#84cbfe;stroke-linecap:round;stroke-linejoin:round;stroke-width:2" id="path4786-6-8" cx="396.571" cy="518.825" rx="1.5" ry="1.5"/><path style="fill:url(#linearGradient4352-5);stroke-linecap:round;stroke-linejoin:round;stroke-width:2" id="circle4309-6-7" cx="408.571" cy="519.798" r="10"/><path style="fill:url(#linearGradient4861);stroke-linecap:round" id="rect4850" d="M 55 23 C 53.891989 23 53 23.891989 53 25 L 53 39 C 53 40.108011 53.891989 41 55 41 L 56 41 L 58 41 L 58 39 L 58 25 L 58 23 L 56 23 L 55 23 z" transform="matrix(1 0 0 1 376.57144 491.79797)"/><rect style="fill:url(#linearGradient4784-5);stroke-linecap:round;stroke-linejoin:round;stroke-width:2" id="rect4290" width="52" height="2" x="382.571" y="505.798"/><path style="fill:url(#linearGradient4352-9);stroke-linecap:round;stroke-linejoin:round;stroke-width:2" id="circle4309-6-4" cx="408.571" cy="519.798" r="10"/><rect style="fill:url(#linearGradient4784-5-7);stroke-linecap:round;stroke-linejoin:round;stroke-width:2" id="rect4290-6" width="52" height="2" x="382.571" y="539.798"/></g></svg>