<svg xmlns="http://www.w3.org/2000/svg" xmlns:xlink="http://www.w3.org/1999/xlink" width="64" height="64" version="1.1"><defs id="defs5455"><linearGradient id="linearGradient5002"><stop style="stop-color:#2e5d89" id="stop5004"/><stop style="stop-color:#1b92f4" id="stop5006" offset="1"/></linearGradient><linearGradient id="linearGradient4352" x1="400.571" x2="415.571" y1="512.798" y2="527.798" gradientTransform="matrix(1.1818182 0 0 1.1818182 -74.28571 -95.23599)" gradientUnits="userSpaceOnUse" xlink:href="#linearGradient5002"/><linearGradient id="linearGradient4159"><stop style="stop-color:#2a2c2f" id="stop4161"/><stop style="stop-color:#424649" id="stop4163" offset="1"/></linearGradient><linearGradient id="linearGradient4250" x1="409.495" x2="409.571" y1="544.663" y2="503.798" gradientTransform="matrix(1.0833331 0 0 1.027779 -410.61896 -509.79302)" gradientUnits="userSpaceOnUse" xlink:href="#linearGradient4159"/><linearGradient id="linearGradient4591"><stop style="stop-color:#7e8f9e" id="stop4593"/><stop style="stop-color:#84ced5" id="stop4595" offset="1"/></linearGradient><linearGradient id="linearGradient4597-5" x2="0" y1="541.798" y2="489.798" gradientTransform="matrix(1.0871079 0 0 1.1000002 -44.37025 -47.979925)" gradientUnits="userSpaceOnUse" xlink:href="#linearGradient4591"/><linearGradient id="linearGradient4681" x1="394.571" x2="404.571" y1="535.798" y2="522.798" gradientTransform="matrix(1.0999997 0 0 1.1428564 -49.45702 -70.68506)" gradientUnits="userSpaceOnUse" xlink:href="#linearGradient4675"/><linearGradient id="linearGradient4675"><stop style="stop-color:#e4a56d" id="stop4677"/><stop style="stop-color:#a7bd78" id="stop4679" offset="1"/></linearGradient><linearGradient id="linearGradient4689" x1="404.571" x2="421.571" gradientTransform="matrix(1.0795244 0 0 1.1428567 -41.17329 -70.68517)" gradientUnits="userSpaceOnUse" xlink:href="#linearGradient4683"/><linearGradient id="linearGradient4683"><stop style="stop-color:#c3a278" id="stop4685"/><stop style="stop-color:#68a" id="stop4687" offset="1"/></linearGradient><linearGradient id="linearGradient4728" x1="430.571" x2="437.5" y1="536.798" y2="524.798" gradientTransform="matrix(1.1078085 0 0 1.1428564 -53.44896 -70.68507)" gradientUnits="userSpaceOnUse" xlink:href="#linearGradient4722"/><linearGradient id="linearGradient4722"><stop style="stop-color:#6588af" id="stop4724"/><stop style="stop-color:#8ba8cd" id="stop4726" offset="1"/></linearGradient><linearGradient id="linearGradient4840" x1="421.571" x2="438.571" gradientTransform="matrix(1.0489857 0 0 1.1000002 -27.650963 -47.979924)" gradientUnits="userSpaceOnUse" xlink:href="#linearGradient4834"/><linearGradient id="linearGradient4834"><stop style="stop-color:#89ad8b" id="stop4836"/><stop style="stop-color:#82b3c7" id="stop4838" offset="1"/></linearGradient><linearGradient id="linearGradient4784" x1="387.571" x2="401.571" y1="525.798" y2="513.798" gradientTransform="matrix(1.0999997 0 0 1.2751426 -49.45702 -137.41798)" gradientUnits="userSpaceOnUse" xlink:href="#linearGradient4778"/><linearGradient id="linearGradient4778"><stop style="stop-color:#e1b16f" id="stop4780"/><stop style="stop-color:#99bf83" id="stop4782" offset="1"/></linearGradient><linearGradient id="linearGradient4792" x1="404.571" x2="391.571" y1="510.798" y2="498.798" gradientTransform="matrix(1.0999997 0 0 1.1000002 -49.45702 -47.979925)" gradientUnits="userSpaceOnUse" xlink:href="#linearGradient4786"/><linearGradient id="linearGradient4786"><stop style="stop-color:#99c487" id="stop4788"/><stop style="stop-color:#b4d99e" id="stop4790" offset="1"/></linearGradient><linearGradient id="linearGradient4808" x1="404.571" x2="421.571" y1="501.798" y2="501.616" gradientTransform="matrix(1.1176469 0 0 1.1000002 -56.59659 -47.979925)" gradientUnits="userSpaceOnUse" xlink:href="#linearGradient4802"/><linearGradient id="linearGradient4802"><stop style="stop-color:#75d5c7" id="stop4804"/><stop style="stop-color:#66afb9" id="stop4806" offset="1"/></linearGradient><linearGradient id="linearGradient4776" x1="428.571" x2="438.571" y1="495.798" y2="504.798" gradientTransform="matrix(1.0489851 0 0 1.062501 -27.650705 -29.2379)" gradientUnits="userSpaceOnUse" xlink:href="#linearGradient4770"/><linearGradient id="linearGradient4770"><stop style="stop-color:#5c7b9e" id="stop4772"/><stop style="stop-color:#839dc0" id="stop4774" offset="1"/></linearGradient><linearGradient id="linearGradient4816" x1="421.571" x2="406.571" gradientTransform="matrix(1.0871079 0 0 1.1000002 -44.37025 -47.979925)" gradientUnits="userSpaceOnUse" xlink:href="#linearGradient4810"/><linearGradient id="linearGradient4810"><stop style="stop-color:#7fbcc6" id="stop4812"/><stop style="stop-color:#8ee4e3" id="stop4814" offset="1"/></linearGradient><linearGradient id="linearGradient4824" x1="421.571" x2="436.571" gradientTransform="matrix(1.0871079 0 0 1.1000002 -44.37025 -47.979925)" gradientUnits="userSpaceOnUse" xlink:href="#linearGradient4818"/><linearGradient id="linearGradient4818"><stop style="stop-color:#84d5d7" id="stop4820"/><stop style="stop-color:#84a8ba" id="stop4822" offset="1"/></linearGradient><linearGradient id="linearGradient4352-8" x1="400.571" x2="415.571" y1="512.798" y2="527.798" gradientTransform="matrix(1 0 0 1 57.62496 10.500083)" gradientUnits="userSpaceOnUse" xlink:href="#linearGradient5002"/><linearGradient id="linearGradient4531" x1="409.495" x2="409.571" y1="544.663" y2="503.798" gradientTransform="matrix(1.0833331 0 0 1.027779 -34.04754 -14.995041)" gradientUnits="userSpaceOnUse" xlink:href="#linearGradient4143"/><linearGradient id="linearGradient4533" x2="0" y1="541.798" y2="489.798" gradientTransform="matrix(1.0871079 0 0 1.1000002 -44.37025 -45.979902)" gradientUnits="userSpaceOnUse" xlink:href="#linearGradient4591"/><linearGradient id="linearGradient4535" x1="394.571" x2="404.571" y1="535.798" y2="522.798" gradientTransform="matrix(1.0999997 0 0 1.1428564 -49.45702 -68.68503)" gradientUnits="userSpaceOnUse" xlink:href="#linearGradient4675"/><linearGradient id="linearGradient4537" x1="404.571" x2="421.571" gradientTransform="matrix(1.0795244 0 0 1.1428567 -41.17329 -68.68515)" gradientUnits="userSpaceOnUse" xlink:href="#linearGradient4683"/><linearGradient id="linearGradient4539" x1="430.571" x2="437.5" y1="536.798" y2="524.798" gradientTransform="matrix(1.1078085 0 0 1.1428564 -53.44896 -68.68505)" gradientUnits="userSpaceOnUse" xlink:href="#linearGradient4722"/><linearGradient id="linearGradient4541" x1="421.571" x2="438.571" gradientTransform="matrix(1.0489857 0 0 1.1000002 -27.650963 -45.979901)" gradientUnits="userSpaceOnUse" xlink:href="#linearGradient4834"/><linearGradient id="linearGradient4543" x1="387.571" x2="401.571" y1="525.798" y2="513.798" gradientTransform="matrix(1.0999997 0 0 1.2751426 -49.45702 -135.41796)" gradientUnits="userSpaceOnUse" xlink:href="#linearGradient4778"/><linearGradient id="linearGradient4545" x1="404.571" x2="391.571" y1="510.798" y2="498.798" gradientTransform="matrix(1.0999997 0 0 1.1000002 -49.45702 -45.979902)" gradientUnits="userSpaceOnUse" xlink:href="#linearGradient4786"/><linearGradient id="linearGradient4547" x1="404.571" x2="421.571" y1="501.798" y2="501.616" gradientTransform="matrix(1.1176469 0 0 1.1000002 -56.59659 -45.979902)" gradientUnits="userSpaceOnUse" xlink:href="#linearGradient4802"/><linearGradient id="linearGradient4549" x1="428.571" x2="438.571" y1="495.798" y2="504.798" gradientTransform="matrix(1.0489851 0 0 1.062501 -27.650705 -27.23787)" gradientUnits="userSpaceOnUse" xlink:href="#linearGradient4770"/><linearGradient id="linearGradient4551" x1="421.571" x2="406.571" gradientTransform="matrix(1.0871079 0 0 1.1000002 -44.37025 -45.979902)" gradientUnits="userSpaceOnUse" xlink:href="#linearGradient4810"/><linearGradient id="linearGradient4553" x1="421.571" x2="436.571" gradientTransform="matrix(1.0871079 0 0 1.1000002 -44.37025 -45.979902)" gradientUnits="userSpaceOnUse" xlink:href="#linearGradient4818"/><linearGradient id="linearGradient4592" x2="0" y1="540.798" y2="536.798" gradientUnits="userSpaceOnUse" xlink:href="#linearGradient4159"/><linearGradient id="linearGradient4143"><stop style="stop-color:#197cf1" id="stop4145"/><stop style="stop-color:#20bcfa" id="stop4147" offset="1"/></linearGradient></defs><metadata id="metadata5458"/><g id="layer1" transform="matrix(1 0 0 1 -376.57144 -491.79797)"><path style="fill:url(#linearGradient4352);stroke-linecap:round;stroke-linejoin:round;stroke-width:2" id="circle4309-6" cx="408.571" cy="519.798" r="10"/><g id="g4853" transform="matrix(1 0 0 1 0 2.00002)"><path style="stroke-opacity:.550265;fill:url(#linearGradient4250);stroke-width:2.8" id="rect4173" d="M 6,8 6,45 58,45 58,8 Z" transform="matrix(1 0 0 1 376.57144 491.79797)"/><path style="fill:url(#linearGradient4597-5)" id="path4589-5" d="m 384.57143,501.79797 0,33 47.83274,0 0,-33 -47.83274,0 z"/><path style="fill:url(#linearGradient4681);fill-rule:evenodd" id="path4476-9" d="m 395.57143,518.79798 -11,9.41072 0,6.58927 11,0 0,-15.99999 z"/><path style="fill:url(#linearGradient4689);fill-rule:evenodd" id="path4478-4" d="m 395.57143,519.79799 0,14.99998 18.35191,0 z"/><path style="fill:url(#linearGradient4728);fill-rule:evenodd" id="path4488-0-8" d="m 432.57143,518.79798 -19,15.99999 19,1e-5 z"/><path style="fill:url(#linearGradient4840);fill-rule:evenodd" id="path4188-3" d="m 414.57143,528.19797 0,-24.39999 18,15 -18,15.99999 z"/><path style="fill:url(#linearGradient4784);fill-rule:evenodd" id="path4192-6" d="m 384.57143,509.79798 0,21.00001 11,-11 z"/><path style="fill:url(#linearGradient4792);fill-rule:evenodd" id="path4198-3" d="m 384.57143,501.79797 0,8.54219 11,9.45783 0,-7.00002 0,-11 z"/><path style="fill:url(#linearGradient4808);fill-rule:evenodd" id="path4200-1" d="m 395.57143,501.79797 0,11 0,7.00002 19,-16.00001 -3,-2 z"/><path style="fill:url(#linearGradient4776);fill-rule:evenodd" id="path4202-1" d="m 417.12013,501.79797 -2.5487,2.00001 18,15 0,-6 0,-11 z"/><path style="fill:url(#linearGradient4816);fill-rule:evenodd" id="path4206-9-2" d="m 411.57143,501.79798 3,2 0,-2 z"/><path style="fill:url(#linearGradient4824);fill-rule:evenodd" id="path4208-1-1" d="m 414.57143,501.79798 0,2 3,-2 z"/><rect style="fill:#fff;fill-opacity:.784314" id="rect4267" width="48" height="4" x="384.571" y="530.798"/><circle style="fill:#4d4d4d" id="path4166" cx="429.571" cy="532.798" r="1"/><path style="fill:#4d4d4d" id="rect4183" d="m 386.57143,531.79798 0,1 1,0 0,-1 z m 1,1 0,1 1,0 0,-1 z"/><rect style="fill:#fff;fill-opacity:.784314" id="rect3432" width="20" height="17" x="386.571" y="503.798"/><path style="fill:#3580ca" id="rect4160" d="m 387.57143,504.79798 0,4 4.16667,0 0,-3 -1.04167,0 -1.04166,-1 z"/><path style="fill:#f95" id="rect4235" d="m 395.57143,504.79798 0,5 4,0 0,-3 -2,-2 z"/><path style="fill:#d45500;fill-rule:evenodd" id="path4237" d="m 397.57143,504.79798 2,2 -2,0 z"/><path style="fill:#7aabdc" id="rect4272" d="m 387.57143,505.79798 5,0 0,4 -5,0 z"/><path style="fill:#71c837" id="path4275" d="m 401.57143,504.79798 0,5 4,0 0,-3 -2,-2 z"/><path style="fill:#447821;fill-rule:evenodd" id="path4277" d="m 403.57143,504.79798 2,2 -2,0 z"/></g><path style="fill:url(#linearGradient4352-8);stroke-linecap:round;stroke-linejoin:round;stroke-width:2" id="circle4309-6-3" cx="408.571" cy="519.798" r="10"/><path style="stroke-opacity:.550265;fill:url(#linearGradient4531);stroke-width:2.8" id="rect4173-6" d="m 380.57143,540.79797 0,2 a 2,2 0 0 0 2,2 l 52,0 a 2,2 0 0 0 2,-2 l 0,-2 -2,0 -52,0 -2,0 z"/><path style="fill:url(#linearGradient4533)" id="path4589-5-9" d="m 384.57143,503.79799 0,33 47.83274,0 0,-33 -47.83274,0 z"/><path style="fill:url(#linearGradient4535);fill-rule:evenodd" id="path4476-9-4" d="m 395.57143,520.798 -11,9.41072 0,6.58927 11,0 0,-15.99999 z"/><path style="fill:url(#linearGradient4537);fill-rule:evenodd" id="path4478-4-76" d="m 395.57143,521.79801 0,14.99998 18.35191,0 z"/><path style="fill:url(#linearGradient4539);fill-rule:evenodd" id="path4488-0-8-6" d="m 432.57143,520.798 -19,15.99999 19,10e-6 z"/><path style="fill:url(#linearGradient4541);fill-rule:evenodd" id="path4188-3-5" d="m 414.57143,530.19799 0,-24.39999 18,15 -18,15.99999 z"/><path style="fill:url(#linearGradient4543);fill-rule:evenodd" id="path4192-6-6" d="m 384.57143,511.798 0,21.00001 11,-11 z"/><path style="fill:url(#linearGradient4545);fill-rule:evenodd" id="path4198-3-3" d="m 384.57143,503.79799 0,8.54219 11,9.45783 0,-7.00002 0,-11 z"/><path style="fill:url(#linearGradient4547);fill-rule:evenodd" id="path4200-1-8" d="m 395.57143,503.79799 0,11 0,7.00002 19,-16.00001 -3,-2 z"/><path style="fill:url(#linearGradient4549);fill-rule:evenodd" id="path4202-1-0" d="m 417.12013,503.79799 -2.5487,2.00001 18,15 0,-6 0,-11 z"/><path style="fill:url(#linearGradient4551);fill-rule:evenodd" id="path4206-9-2-50" d="m 411.57143,503.798 3,2 0,-2 z"/><path style="fill:url(#linearGradient4553);fill-rule:evenodd" id="path4208-1-1-3" d="m 414.57143,503.798 0,2 3,-2 z"/><rect style="fill:#fff;fill-opacity:.784314" id="rect4267-5" width="48" height="4" x="384.571" y="532.798"/><circle style="fill:#4d4d4d" id="path4166-70" cx="429.571" cy="534.798" r="1"/><path style="fill:#4d4d4d" id="rect4183-8" d="m 386.57143,533.798 0,1 1,0 0,-1 z m 1,1 0,1 1,0 0,-1 z"/><rect style="fill:#fff;fill-opacity:.784314" id="rect3432-0" width="20" height="17" x="386.571" y="505.798"/><path style="fill:#3580ca" id="rect4160-5" d="m 387.57143,506.798 0,4 4.16667,0 0,-3 -1.04167,0 -1.04166,-1 z"/><path style="fill:#f95" id="rect4235-8" d="m 395.57143,506.798 0,5 4,0 0,-3 -2,-2 z"/><path style="fill:#d45500;fill-rule:evenodd" id="path4237-5" d="m 397.57143,506.798 2,2 -2,0 z"/><path style="fill:#7aabdc" id="rect4272-6" d="m 387.57143,507.798 5,0 0,4 -5,0 z"/><path style="fill:#71c837" id="path4275-8" d="m 401.57143,506.798 0,5 4,0 0,-3 -2,-2 z"/><path style="fill:#447821;fill-rule:evenodd" id="path4277-5" d="m 403.57143,506.798 2,2 -2,0 z"/><circle style="fill:#fff;fill-opacity:.784314;stroke-linecap:round;stroke-linejoin:round;stroke-width:2" id="path4292-0" cx="384.571" cy="542.798" r="1"/><path style="fill:url(#linearGradient4592);fill-rule:evenodd" id="path4584" d="m 380.57143,540.79799 56,0 -1.99999,-2 -52,0 -2.00001,2 z"/><path style="stroke-opacity:.550265;fill:#0b66cb;stroke-width:2.8" id="path4259" d="M 4 50 L 4 51 A 2 2 0 0 0 6 53 L 58 53 A 2 2 0 0 0 60 51 L 60 50 A 2 2 0 0 1 58 52 L 6 52 A 2 2 0 0 1 4 50 z" transform="matrix(1 0 0 1 376.57144 491.79797)"/></g></svg>