<svg xmlns="http://www.w3.org/2000/svg" xmlns:xlink="http://www.w3.org/1999/xlink" width="64" height="64"><linearGradient id="a" x1="20" x2="20" y1="40" y2="16" gradientUnits="userSpaceOnUse"><stop offset="0" stop-color="#3e3e3e"/><stop offset="1" stop-color="#5c5c5c"/></linearGradient><linearGradient id="b" x1="16" x2="44" y1="16" y2="44" gradientUnits="userSpaceOnUse" xlink:href="#e"/><linearGradient id="c" x1="386.571" x2="386.571" y1="549.798" y2="497.798" gradientUnits="userSpaceOnUse"><stop offset="0" stop-color="#7f8c8d"/><stop offset="1" stop-color="#afb0b3"/></linearGradient><linearGradient id="d" x1="12" x2="12" y1="48" y2="10" gradientUnits="userSpaceOnUse"><stop offset="0" stop-color="#eef1f2"/><stop offset="1" stop-color="#f9fafb"/></linearGradient><linearGradient id="e" x1="400.571" x2="420.571" y1="511.798" y2="531.798" gradientUnits="userSpaceOnUse"><stop offset="0" stop-color="#292c2f"/><stop offset="1" stop-opacity="0"/></linearGradient><path fill="url(#c)" d="m386.571 497.798h44v52h-44z" transform="translate(-376.571 -491.798)"/><path fill="#292c2f" d="m47 52h7v6h-7zm-37 0h7v6h-7z" opacity=".2"/><path fill="#292c2f" d="m10 52h7v6h-1zm37 0h7v6h-7z" opacity=".2"/><path fill="#292c2e" d="m16 52h32v6h-32z"/><path fill="#f6b44d" d="m20 54h14v2h-14zm16 0h8v2h-8z"/><path fill="url(#e)" d="m390.571 533.798 16 16h24v-38.728l-6.636-6.636z" opacity=".2" transform="translate(-376.571 -491.798)"/><path fill="url(#d)" d="m23 10a9 9 0 0 0 -9 9v8.535a6 6 0 0 1 2 4.465 6 6 0 0 1 -2 4.463v5.537l6 6h24l6-6v-5.535a6 6 0 0 1 -2-4.465 6 6 0 0 1 2-4.463v-8.537a9 9 0 0 0 -9-9z"/><path fill="#292c2f" d="m10 57h44v1h-44z" opacity=".4"/><path fill="url(#b)" d="m36 16-16 24 12 12h12l-12-12 12-2 6 6v-14z" opacity=".2"/><path fill="url(#b)" d="m32 40 12 12h6v-8l-6-6z"/><path fill="url(#a)" d="m32 38h12v2h-12zm0-22-12 24h4l12-24z"/></svg>