<svg xmlns="http://www.w3.org/2000/svg" xmlns:xlink="http://www.w3.org/1999/xlink" width="64" height="64"><linearGradient id="a"><stop offset="0" stop-color="#292c2f"/><stop offset="1" stop-opacity="0"/></linearGradient><linearGradient id="e" x1="16" x2="44" y1="16" y2="44" gradientUnits="userSpaceOnUse" xlink:href="#a"/><linearGradient id="f" x1="22" x2="22" y1="40" y2="16" gradientUnits="userSpaceOnUse"><stop offset="0" stop-color="#3e3e3e"/><stop offset="1" stop-color="#5c5c5c"/></linearGradient><linearGradient id="b" x1="386.571" x2="386.571" y1="549.798" y2="497.798" gradientUnits="userSpaceOnUse"><stop offset="0" stop-color="#7f8c8d"/><stop offset="1" stop-color="#afb0b3"/></linearGradient><linearGradient id="d" x1="12" x2="12" y1="48" y2="10" gradientUnits="userSpaceOnUse"><stop offset="0" stop-color="#eef1f2"/><stop offset="1" stop-color="#f9fafb"/></linearGradient><linearGradient id="c" x1="400.571" x2="420.571" y1="511.798" y2="531.798" gradientUnits="userSpaceOnUse" xlink:href="#a"/><path fill="url(#b)" d="M386.571 497.798h44v52h-44z" transform="translate(-376.571 -491.798)"/><path fill="#292c2f" d="M47 52h7v6h-7zm-37 0h7v6h-7z" opacity=".2"/><g stroke-width="1.857"><path fill="#292c2f" d="M10 52h7v6h-1zm37 0h7v6h-7z" opacity=".2"/><path fill="#292c2e" d="M16 52h32v6H16z"/><path fill="#f6b44d" d="M20 54h14v2H20zm16 0h8v2h-8z"/></g><path fill="url(#c)" d="M390.571 533.798l16 16h24V511.07l-6.636-6.636z" opacity=".2" transform="translate(-376.571 -491.798)"/><path fill="url(#d)" d="M23 10a9 9 0 0 0-9 9v8.535A6 6 0 0 1 16 32a6 6 0 0 1-2 4.463V42l6 6h24l6-6v-5.535A6 6 0 0 1 48 32a6 6 0 0 1 2-4.463V19a9 9 0 0 0-9-9z"/><path fill="#292c2f" d="M10 57h44v1H10z" opacity=".4"/><path fill="url(#e)" d="M36.246 17.753L50 31.508V48H30l-8-8 4-12 2-9 2-2z" opacity=".2"/><path fill="url(#f)" d="M32 16c-3.324 0-6 2.676-6 6v6h-4v12h20V28h-4v-6c0-3.324-2.676-6-6-6m0 2c2.492 0 4 1.092 4 4v6h-8v-6c0-2.908 1.508-4 4-4"/></svg>