<svg xmlns="http://www.w3.org/2000/svg" xmlns:svg="http://www.w3.org/2000/svg" id="svg7384" width="16" height="16" version="1.1"><metadata id="metadata90"/><title id="title9167">elementary Symbolic Icon Theme</title><defs id="defs7386"><filter id="filter7554" color-interpolation-filters="sRGB"><feBlend id="feBlend7556" in2="BackgroundImage" mode="darken"/></filter><filter id="filter7554-7" color-interpolation-filters="sRGB"><feBlend id="feBlend7556-6" in2="BackgroundImage" mode="darken"/></filter></defs><g id="layer10" display="inline" transform="translate(-433.0002,211)"><path id="path40617" fill="#bebebe" fill-opacity="1" stroke="none" stroke-width="2" d="m 435.90645,-210 c -0.41942,0.0775 -0.76625,0.45099 -0.8125,0.875 l -1.09375,10.15625 0,2 c 5e-5,0.52358 0.47642,0.99995 1,1 l 12.125,0 c 0.52358,-5e-5 0.99995,-0.47642 1,-1 l 0,-2 -1.21875,-10.15625 c -0.0606,-0.48063 -0.51558,-0.87875 -1,-0.875 l -9.8125,0 c -0.0312,-0.001 -0.0625,-0.001 -0.0937,0 -0.0312,-0.001 -0.0625,-0.001 -0.0937,0 z m 0.0937,11 2,0 0,1 -2,0 0,-1 z" baseline-shift="baseline" color="#000" direction="ltr" display="inline" enable-background="accumulate" font-family="Sans" font-size="medium" font-stretch="normal" font-style="normal" font-variant="normal" font-weight="normal" letter-spacing="normal" overflow="visible" text-anchor="start" text-decoration="none" visibility="visible" word-spacing="normal" writing-mode="lr-tb" style="text-indent:0;text-align:start;line-height:normal;text-transform:none;block-progression:tb;marker:none;-inkscape-font-specification:Sans"/></g></svg>