<svg xmlns="http://www.w3.org/2000/svg" xmlns:xlink="http://www.w3.org/1999/xlink" width="64" height="64" version="1.1"><defs id="defs5455"><linearGradient id="linearGradient4158" x2="0" y1="557.798" y2="505.798" gradientTransform="matrix(0.78261 0 0 1 83.25419 -8.00002)" gradientUnits="userSpaceOnUse" xlink:href="#linearGradient4143"/><linearGradient id="linearGradient4400"><stop style="stop-color:#020303" id="stop4402"/><stop style="stop-color:#424649;stop-opacity:0" id="stop4404" offset="1"/></linearGradient><linearGradient id="linearGradient4231" x1="14" x2="34" y1="14" y2="34" gradientTransform="matrix(1 0 0 1 10 22)" gradientUnits="userSpaceOnUse" xlink:href="#linearGradient4400"/><linearGradient id="linearGradient4143"><stop style="stop-color:#197cf1" id="stop4145"/><stop style="stop-color:#20bcfa" id="stop4147" offset="1"/></linearGradient><linearGradient id="linearGradient4301" x2="0" y1="52" y2="36" gradientUnits="userSpaceOnUse" xlink:href="#linearGradient4290"/><linearGradient id="linearGradient4290"><stop style="stop-color:#7cbaf8" id="stop4292"/><stop style="stop-color:#f4fcff" id="stop4294" offset="1"/></linearGradient><linearGradient id="linearGradient4319" x2="0" y1="551.798" y2="528.798" gradientTransform="matrix(0.63587062 0 0 1 144.25118 -30.99993)" gradientUnits="userSpaceOnUse" xlink:href="#linearGradient4303"/><linearGradient id="linearGradient4303"><stop style="stop-color:#c6cdd1" id="stop4305"/><stop style="stop-color:#e0e5e7" id="stop4307" offset="1"/></linearGradient><linearGradient id="linearGradient4375" x1="398.571" x2="400.571" gradientTransform="matrix(2 0 0 2 -384.5714 -537.79802)" gradientUnits="userSpaceOnUse" xlink:href="#linearGradient4143-8"/><linearGradient id="linearGradient4143-8"><stop style="stop-color:#faae2a" id="stop4145-7"/><stop style="stop-color:#ffc35a" id="stop4147-4" offset="1"/></linearGradient><linearGradient id="linearGradient4371" x1="398.571" x2="400.571" gradientTransform="matrix(2 0 0 2 -396.57143 -537.79802)" gradientUnits="userSpaceOnUse" xlink:href="#linearGradient4143-8"/></defs><metadata id="metadata5458"/><g id="layer1" transform="matrix(1 0 0 1 -376.57144 -491.79797)"><rect style="fill:url(#linearGradient4319)" id="rect4317" width="26" height="24" x="395.571" y="497.798" rx="0"/><rect style="fill:url(#linearGradient4158)" id="rect4139" width="32" height="29" x="392.571" y="520.798" rx="0"/><path style="fill:url(#linearGradient4231);opacity:.2" id="rect4200" d="M 28.707031 36.292969 L 27.292969 37.707031 L 35.292969 45.707031 L 35 46 L 47 58 L 48 58 L 48 49 L 40 41 L 36.707031 44.292969 L 28.707031 36.292969 z M 26.560547 42.439453 L 24.439453 44.560547 L 29.939453 50.060547 L 28.585938 51.414062 L 35.171875 58 L 42.123047 58 L 26.560547 42.439453 z" transform="matrix(1 0 0 1 376.57144 491.79797)"/><path style="fill:url(#linearGradient4301)" id="path4292" d="M 28 36 C 27.446 36 27 36.446 27 37 C 27 37.554 27.446 38 28 38 C 28.554 38 29 37.554 29 37 C 29 36.446 28.554 36 28 36 z M 35 36 L 33 38 L 36 41 L 33 44 L 35 46 L 38 43 L 40 41 L 35 36 z M 25.5 42 C 24.669 42 24 42.669 24 43.5 C 24 44.331 24.669 45 25.5 45 C 26.331 45 27 44.331 27 43.5 C 27 42.669 26.331 42 25.5 42 z M 30 48 C 28.892 48 28 48.892 28 50 C 28 51.108 28.892 52 30 52 C 31.108 52 32 51.108 32 50 C 32 48.892 31.108 48 30 48 z" transform="matrix(1 0 0 1 376.57144 491.79797)"/><rect style="stroke-opacity:.550265;fill:#0c69cf;stroke-width:2.8" id="rect4492" width="32" height="1" x="392.571" y="548.798"/><rect style="fill:#23262c" id="rect4359" width="8" height="8" x="398.571" y="501.798"/><rect style="fill:#23262c" id="rect4361" width="8" height="8" x="410.572" y="501.798"/><rect style="fill:url(#linearGradient4371)" id="rect4363" width="4" height="8" x="400.571" y="501.798"/><rect style="fill:url(#linearGradient4375)" id="rect4373" width="4" height="8" x="412.572" y="501.798"/></g></svg>