<svg xmlns="http://www.w3.org/2000/svg" xmlns:xlink="http://www.w3.org/1999/xlink" width="64" height="64" version="1.1"><defs id="defs5455"><linearGradient id="linearGradient4229"><stop style="stop-color:#566069" id="stop4231"/><stop style="stop-color:#18222a" id="stop4233" offset="1"/></linearGradient><linearGradient id="linearGradient4369"><stop style="stop-color:#253440" id="stop4371"/><stop style="stop-color:#566069;stop-opacity:.463277" id="stop4373" offset="1"/></linearGradient><linearGradient id="linearGradient4191"><stop style="stop-color:#18222a" id="stop4193"/><stop style="stop-color:#566069" id="stop4195" offset="1"/></linearGradient><linearGradient id="linearGradient4303-4"><stop style="stop-color:#197cf1" id="stop4305-0"/><stop style="stop-color:#21c9fb" id="stop4307-7" offset="1"/></linearGradient><radialGradient id="radialGradient4227" cx="400.571" cy="531.798" r="14" gradientTransform="matrix(2.000003 0 0 2.000003 -392.57266 -539.79957)" gradientUnits="userSpaceOnUse" xlink:href="#linearGradient4229"/><linearGradient id="linearGradient4262" x2="0" y1="543.798" y2="519.798" gradientTransform="matrix(2.000003 0 0 2 -392.57266 -539.79798)" gradientUnits="userSpaceOnUse" xlink:href="#linearGradient4191"/><linearGradient id="linearGradient4288" x2="0" y1="543.798" y2="539.798" gradientTransform="matrix(2.000003 0 0 2 -392.57266 -539.79798)" gradientUnits="userSpaceOnUse" xlink:href="#linearGradient4369"/><linearGradient id="linearGradient4288-8" x2="0" y1="543.798" y2="539.798" gradientTransform="matrix(2.000003 0 0 2 -366.57264 -539.79792)" gradientUnits="userSpaceOnUse" xlink:href="#linearGradient4369"/><linearGradient id="linearGradient4416" x1="20" x2="8" y1="19" y2="10" gradientTransform="matrix(2.000003 0 0 2 378.57135 489.29802)" gradientUnits="userSpaceOnUse" xlink:href="#linearGradient4303-4"/><linearGradient id="linearGradient4198" x1="9" x2="23" y1="9" y2="23" gradientTransform="matrix(2.000003 0 0 2 378.57133 488.79802)" gradientUnits="userSpaceOnUse" xlink:href="#linearGradient4227"/><linearGradient id="linearGradient4227"><stop style="stop-color:#292c2f" id="stop4229"/><stop style="stop-opacity:0" id="stop4231-3" offset="1"/></linearGradient></defs><metadata id="metadata5458"/><g id="layer1" transform="matrix(1 0 0 1 -376.57144 -491.79797)"><rect style="fill:url(#radialGradient4227);stroke-linejoin:round;stroke-width:2" id="rect4189" width="52" height="52" x="382.571" y="497.798" rx="2"/><rect style="fill:url(#linearGradient4262);stroke-linejoin:round;stroke-width:2" id="rect4237" width="48" height="48" x="384.571" y="499.798" rx="1"/><rect style="fill:#83878a;stroke-linejoin:round;stroke-width:2" id="rect4239" width="22" height="8" x="384.571" y="539.798" rx="0"/><rect style="fill:#83878a;stroke-linejoin:round;stroke-width:2" id="rect4239-7" width="22" height="8" x="410.571" y="539.798" rx="0"/><rect style="fill:url(#linearGradient4288);stroke-linejoin:round;stroke-width:2" id="rect4280" width="22" height="2" x="384.571" y="545.798" rx="0"/><rect style="fill:url(#linearGradient4288-8);stroke-linejoin:round;stroke-width:2" id="rect4280-1" width="22" height="2" x="410.571" y="545.798" rx="0"/><path id="path4369"/><path style="fill:url(#linearGradient4198);opacity:.2;fill-rule:evenodd" id="path4175" d="m 407.50894,510.54797 -2.9375,0.25 -2,0 -2,4 4,4 0,14 16.99999,17 13.00001,2e-5 0,-14.86525 z"/><path style="fill:url(#linearGradient4416);stroke-linejoin:round;stroke-width:2" id="path4405" d="m 404.57139,509.29802 a 4.000006,4 0 0 0 -4,4 4.000006,4 0 0 0 3,3.8711 l 0,-2.14454 a 2.000003,2 0 0 1 -1,-1.72656 2.000003,2 0 0 1 2,-2 2.000003,2 0 0 1 2.00001,2 2.000003,2 0 0 1 -0.02,0.26954 l 1.6875,1.3125 a 4.000006,4 0 0 0 0.33204,-1.58204 4.000006,4 0 0 0 -4.00001,-4 z m 0,4 0.012,19.5 5.98829,-8 9.00002,0 -15.00003,-11.5 z"/></g></svg>