<svg xmlns="http://www.w3.org/2000/svg" xmlns:svg="http://www.w3.org/2000/svg" id="svg7384" width="16" height="16" version="1.1"><metadata id="metadata90"/><title id="title9167">elementary Symbolic Icon Theme</title><g id="layer10" display="inline" transform="translate(-453.0002,212)"><path id="path27183" fill="#bebebe" fill-opacity="1" stroke="none" d="m 455.5004,-209 c -1.385,0 -2.5,1.115 -2.5,2.5 l 0,6 c 0,1.385 1.115,2.5 2.5,2.5 l 11,0 c 1.385,0 2.5,-1.115 2.5,-2.5 l 0,-6 c 0,-1.385 -1.115,-2.5 -2.5,-2.5 l -11,0 z m 2,3 c 1.37479,0 2.5,1.12521 2.5,2.5 0,0.56453 -0.21241,1.08026 -0.53125,1.5 l 3.0625,0 c -0.31884,-0.41974 -0.53125,-0.93547 -0.53125,-1.5 0,-1.37479 1.12521,-2.5 2.5,-2.5 1.37479,0 2.5,1.12521 2.5,2.5 0,1.37479 -1.12521,2.5 -2.5,2.5 l -0.5,0 -6,0 -0.5,0 c -1.37479,0 -2.5,-1.12521 -2.5,-2.5 0,-1.37479 1.12521,-2.5 2.5,-2.5 z m 0,1 c -0.83435,0 -1.5,0.66565 -1.5,1.5 0,0.83435 0.66565,1.5 1.5,1.5 0.83435,0 1.5,-0.66565 1.5,-1.5 0,-0.83435 -0.66565,-1.5 -1.5,-1.5 z m 7,0 c -0.83435,0 -1.5,0.66565 -1.5,1.5 0,0.83435 0.66565,1.5 1.5,1.5 0.83435,0 1.5,-0.66565 1.5,-1.5 0,-0.83435 -0.66565,-1.5 -1.5,-1.5 z"/></g></svg>