<svg xmlns="http://www.w3.org/2000/svg" xmlns:xlink="http://www.w3.org/1999/xlink" width="64" height="64" version="1.1"><defs id="defs5455"><linearGradient id="linearGradient4251-0"><stop style="stop-color:#63984b" id="stop4253-4"/><stop style="stop-color:#8fc278" id="stop4255-2" offset="1"/></linearGradient><linearGradient id="linearGradient4159"><stop style="stop-color:#2a2c2f" id="stop4161"/><stop style="stop-color:#424649" id="stop4163" offset="1"/></linearGradient><linearGradient id="linearGradient4291" x2="0" y1="549.798" y2="497.798" gradientTransform="matrix(1 0 0 1 -0.000002 -29)" gradientUnits="userSpaceOnUse" xlink:href="#linearGradient4251-0"/><linearGradient id="linearGradient4183" x2="0" y1="527.798" y2="518.798" gradientTransform="matrix(0.85714287 0 0 0.8888889 60.65304 46.644314)" gradientUnits="userSpaceOnUse" xlink:href="#linearGradient4159"/><linearGradient id="linearGradient4281" x2="0" y1="527.798" y2="518.798" gradientTransform="matrix(0.85714287 0 0 0.8888889 52.653035 46.644314)" gradientUnits="userSpaceOnUse" xlink:href="#linearGradient4159"/><linearGradient id="linearGradient4324" x2="0" y1="527.798" y2="518.798" gradientTransform="matrix(0.85714287 0 0 0.8888889 44.653035 46.644314)" gradientUnits="userSpaceOnUse" xlink:href="#linearGradient4159"/><linearGradient id="linearGradient4903"><stop style="stop-color:#eef1f2" id="stop4905"/><stop style="stop-color:#f9fafb" id="stop4907" offset="1"/></linearGradient><linearGradient id="linearGradient4455" x2="0" y1="526.798" y2="519.798" gradientTransform="matrix(1 0 0 1 0 -11)" gradientUnits="userSpaceOnUse" xlink:href="#linearGradient4903"/><linearGradient id="linearGradient4184" x1="408.571" x2="417.571" y1="518.798" y2="527.798" gradientTransform="matrix(1 0 0 1 0 -11)" gradientUnits="userSpaceOnUse" xlink:href="#linearGradient4227"/><linearGradient id="linearGradient4227"><stop style="stop-color:#292c2f" id="stop4229"/><stop style="stop-opacity:0" id="stop4231" offset="1"/></linearGradient><linearGradient id="linearGradient4259" x1="408.571" x2="417.571" y1="518.798" y2="527.798" gradientTransform="matrix(1 0 0 1 7.999999 -11)" gradientUnits="userSpaceOnUse" xlink:href="#linearGradient4227"/><linearGradient id="linearGradient4263" x1="408.571" x2="417.571" y1="518.798" y2="527.798" gradientTransform="matrix(1 0 0 1 15.999999 -11)" gradientUnits="userSpaceOnUse" xlink:href="#linearGradient4227"/><linearGradient id="linearGradient4304" x2="0" y1="549.798" y2="497.798" gradientTransform="matrix(1 0 0 1 -0.000002 -7)" gradientUnits="userSpaceOnUse" xlink:href="#linearGradient4251-0"/><linearGradient id="linearGradient4306" x1="408.571" x2="417.571" y1="518.798" y2="527.798" gradientTransform="matrix(1 0 0 1 7.999999 11)" gradientUnits="userSpaceOnUse" xlink:href="#linearGradient4227"/><linearGradient id="linearGradient4308" x1="408.571" x2="417.571" y1="518.798" y2="527.798" gradientTransform="matrix(1 0 0 1 15.999999 11)" gradientUnits="userSpaceOnUse" xlink:href="#linearGradient4227"/><linearGradient id="linearGradient4310" x1="408.571" x2="417.571" y1="518.798" y2="527.798" gradientTransform="matrix(1 0 0 1 0 11)" gradientUnits="userSpaceOnUse" xlink:href="#linearGradient4227"/><linearGradient id="linearGradient4312" x2="0" y1="527.798" y2="518.798" gradientTransform="matrix(0.85714287 0 0 0.8888889 60.65304 68.64431)" gradientUnits="userSpaceOnUse" xlink:href="#linearGradient4159"/><linearGradient id="linearGradient4314" x2="0" y1="526.798" y2="519.798" gradientTransform="matrix(1 0 0 1 0 11)" gradientUnits="userSpaceOnUse" xlink:href="#linearGradient4903"/><linearGradient id="linearGradient4316" x2="0" y1="527.798" y2="518.798" gradientTransform="matrix(0.85714287 0 0 0.8888889 52.653035 68.64431)" gradientUnits="userSpaceOnUse" xlink:href="#linearGradient4159"/><linearGradient id="linearGradient4318" x2="0" y1="527.798" y2="518.798" gradientTransform="matrix(0.85714287 0 0 0.8888889 44.653035 68.64431)" gradientUnits="userSpaceOnUse" xlink:href="#linearGradient4159"/></defs><metadata id="metadata5458"/><g id="layer1" transform="matrix(1 0 0 1 -376.57144 -491.79797)"><path style="fill:url(#linearGradient4291)" id="rect4283" d="m 382.57144,504.79797 c 0,17.33333 0,-1.33333 0,16 l 52,0 0,-16 z"/><path style="fill:url(#linearGradient4259);opacity:.2;fill-rule:evenodd" id="path4257" d="m 422.57144,507.79797 -6,8 5,5 13,0 0,-1 -12,-12 z"/><path style="fill:url(#linearGradient4263);opacity:.2;fill-rule:evenodd" id="path4261" d="m 430.57144,507.79797 -6,8 5,5 5,0 0,-9 -4,-4 z"/><path style="fill:url(#linearGradient4184);opacity:.2;fill-rule:evenodd" id="path4181" d="m 408.57144,515.79797 6,-8 13,13 -13,0 -2,0 1,0 z"/><rect style="fill:#dce269" id="rect4293" width="52" height="1" x="382.571" y="519.798"/><rect style="fill:url(#linearGradient4183)" id="rect4175" width="6" height="8" x="424.571" y="507.798"/><path style="fill:#dee372;opacity:.6" id="rect4193" d="m 431.57144,507.79797 0,1 1,0 0,-1 -1,0 z m 1,1 0,1 1,0 0,-1 -1,0 z m 0,1 -1,0 0,1 1,0 0,-1 z m 0,1 0,1 1,0 0,-1 -1,0 z m 0,1 -1,0 0,1 1,0 0,-1 z m 0,1 0,1 1,0 0,-1 -1,0 z m 0,1 -1,0 0,1 1,0 0,-1 z m 0,1 0,1 1,0 0,-1 -1,0 z m 0,1 -1,0 0,1 1,0 0,-1 z m 0,1 0,1 1,0 0,-1 -1,0 z m -1,0 -1,0 0,1 1,0 0,-1 z m -1,1 -1,0 0,1 1,0 0,-1 z m -1,0 0,-1 -1,0 0,1 1,0 z m -1,0 -1,0 0,1 1,0 0,-1 z m -1,0 0,-1 -1,0 0,1 1,0 z"/><rect style="fill:url(#linearGradient4455)" id="rect4277" width="19" height="7" x="385.571" y="508.798"/><rect style="fill:url(#linearGradient4281)" id="rect4279" width="6" height="8" x="416.571" y="507.798"/><rect style="fill:url(#linearGradient4324)" id="rect4322" width="6" height="8" x="408.571" y="507.798"/><rect style="fill:#f55" id="rect4457" width="8" height="1" x="386.571" y="509.798"/><rect style="fill:#35383b" id="rect4459" width="3" height="1" x="386.571" y="511.798"/><rect style="fill:#35383b" id="rect4461" width="4" height="1" x="390.571" y="511.798"/><path style="fill:#35383b" id="rect4463" d="m 390.57144,513.79797 0,1 -1,0 0,1 1,0 1,0 1,0 1,0 1,0 1,0 1,0 1,0 1,0 1,0 0,-1 -1,0 0,-1 -1,0 0,1 -1,0 -1,0 0,-1 -1,0 0,1 -1,0 0,-1 -1,0 0,1 -1,0 0,-1 -1,0 z"/><path style="fill:url(#linearGradient4304)" id="path4275" d="m 382.57144,526.79797 c 0,17.33333 0,-1.33333 0,16 l 52,0 0,-16 z"/><path style="fill:url(#linearGradient4306);opacity:.2;fill-rule:evenodd" id="path4277" d="m 422.57144,529.79797 -6,8 5,5 13,0 0,-1 -12,-12 z"/><path style="fill:url(#linearGradient4308);opacity:.2;fill-rule:evenodd" id="path4279" d="m 430.57144,529.79797 -6,8 5,5 5,0 0,-9 -4,-4 z"/><path style="fill:url(#linearGradient4310);opacity:.2;fill-rule:evenodd" id="path4281" d="m 408.57144,537.79797 6,-8 13,13 -13,0 -2,0 1,0 z"/><rect style="fill:#dce269" id="rect4284" width="52" height="1" x="382.571" y="541.798"/><rect style="fill:url(#linearGradient4312)" id="rect4286" width="6" height="8" x="424.571" y="529.798"/><path style="fill:#dee372;opacity:.6" id="path4288" d="m 431.57144,529.79797 0,1 1,0 0,-1 -1,0 z m 1,1 0,1 1,0 0,-1 -1,0 z m 0,1 -1,0 0,1 1,0 0,-1 z m 0,1 0,1 1,0 0,-1 -1,0 z m 0,1 -1,0 0,1 1,0 0,-1 z m 0,1 0,1 1,0 0,-1 -1,0 z m 0,1 -1,0 0,1 1,0 0,-1 z m 0,1 0,1 1,0 0,-1 -1,0 z m 0,1 -1,0 0,1 1,0 0,-1 z m 0,1 0,1 1,0 0,-1 -1,0 z m -1,0 -1,0 0,1 1,0 0,-1 z m -1,1 -1,0 0,1 1,0 0,-1 z m -1,0 0,-1 -1,0 0,1 1,0 z m -1,0 -1,0 0,1 1,0 0,-1 z m -1,0 0,-1 -1,0 0,1 1,0 z"/><rect style="fill:url(#linearGradient4314)" id="rect4290" width="19" height="7" x="385.571" y="530.798"/><rect style="fill:url(#linearGradient4316)" id="rect4292" width="6" height="8" x="416.571" y="529.798"/><rect style="fill:url(#linearGradient4318)" id="rect4294" width="6" height="8" x="408.571" y="529.798"/><rect style="fill:#f55" id="rect4296" width="8" height="1" x="386.571" y="531.798"/><rect style="fill:#35383b" id="rect4298" width="3" height="1" x="386.571" y="533.798"/><rect style="fill:#35383b" id="rect4300" width="4" height="1" x="390.571" y="533.798"/><path style="fill:#35383b" id="path4302" d="m 390.57144,535.79797 0,1 -1,0 0,1 1,0 1,0 1,0 1,0 1,0 1,0 1,0 1,0 1,0 1,0 0,-1 -1,0 0,-1 -1,0 0,1 -1,0 -1,0 0,-1 -1,0 0,1 -1,0 0,-1 -1,0 0,1 -1,0 0,-1 -1,0 z"/></g></svg>