<svg xmlns="http://www.w3.org/2000/svg" xmlns:svg="http://www.w3.org/2000/svg" id="svg7384" width="16" height="16" version="1.1"><metadata id="metadata90"/><title id="title9167">elementary Symbolic Icon Theme</title><g id="layer10" display="inline" transform="translate(-313.0006,212)"><path id="path26945" fill="#bebebe" fill-opacity="1" stroke="none" d="m 323.82143,-209.0774 c -0.51724,0.0289 -0.89399,0.45912 -1.21788,0.81961 -0.31299,0.40363 -0.63204,0.84439 -0.72013,1.35834 -4.4e-4,0.15361 0.19053,0.22826 0.27388,0.34769 0.3157,0.28394 0.64079,0.71588 0.44008,1.15767 -0.28282,0.56132 -0.8168,0.93361 -1.22884,1.39409 -0.33373,0.33495 -0.76097,0.7905 -1.28205,0.5974 -0.38647,-0.14676 -0.61392,-0.50331 -0.91524,-0.74631 -0.4169,0.0323 -0.7847,0.29108 -1.13345,0.50474 -0.44691,0.3241 -0.90981,0.72224 -1.07193,1.2696 -0.0953,0.43568 0.36229,0.66962 0.64528,0.89893 0.70695,0.51212 1.65662,0.5798 2.46459,0.2866 1.30128,-0.4622 2.34991,-1.424 3.27337,-2.42025 0.78929,-0.89761 1.54295,-1.95008 1.64413,-3.17843 0.0693,-0.86385 -0.37093,-1.72031 -1.03654,-2.25103 l -0.0669,-0.0264 -0.0683,-0.0122 z" display="inline" enable-background="new"/><path d="m 323.90665,-202 c -0.78136,0.64834 -1.70296,1.25106 -2.84375,1.65625 -1.61391,0.58567 -3.5818,0.50692 -5.1875,-0.65625 -0.0425,-0.0301 -0.0842,-0.0614 -0.125,-0.0937 0.0583,0.0472 -0.12967,-0.067 -0.375,-0.28125 l -1.375,1.37495 0,3 14,0 0,-3 -2,-2 z m -0.40625,1.79687 c 0.38953,0 0.70313,0.3136 0.70313,0.70313 0,0.38953 -0.3136,0.70313 -0.70313,0.70313 -0.38953,0 -0.70313,-0.3136 -0.70313,-0.70313 0,-0.38953 0.3136,-0.70313 0.70313,-0.70313 z m 2,0.0234 c 0.37655,0 0.67969,0.30314 0.67969,0.67969 0,0.37655 -0.30314,0.67969 -0.67969,0.67969 -0.37655,0 -0.67969,-0.30314 -0.67969,-0.67969 0,-0.37655 0.30314,-0.67969 0.67969,-0.67969 z" style="marker:none" id="path26971" fill="#bebebe" fill-opacity="1" fill-rule="nonzero" stroke="none" stroke-width="2" color="#000" display="inline" enable-background="new" overflow="visible" visibility="visible"/></g></svg>