<svg xmlns="http://www.w3.org/2000/svg" xmlns:xlink="http://www.w3.org/1999/xlink" width="64" height="64" version="1.1"><defs id="defs5455"><linearGradient id="linearGradient4298" x2="0" y1="545.798" y2="517.798" gradientTransform="matrix(1.6666664 0 0 1.8571411 -259.04764 -463.82593)" gradientUnits="userSpaceOnUse" xlink:href="#linearGradient4159"/><linearGradient id="linearGradient4159"><stop style="stop-color:#2a2c2f" id="stop4161"/><stop style="stop-color:#424649" id="stop4163" offset="1"/></linearGradient><linearGradient id="linearGradient4213"><stop style="stop-color:#ee6406" id="stop4215"/><stop style="stop-color:#ffce0d" id="stop4217" offset="1"/></linearGradient><linearGradient id="linearGradient4176"><stop style="stop-opacity:0" id="stop4178"/><stop style="stop-opacity:.452632" id="stop4180" offset="1"/></linearGradient><linearGradient id="linearGradient4391"><stop stop-color="#21c9fb"/><stop offset="1" stop-color="#197cf1"/></linearGradient><linearGradient id="linearGradient4397" x2="0" y1="535.798" y2="505.798" gradientTransform="matrix(1.1818179 0 0 1.2 -50.2856 -97.1597)" gradientUnits="userSpaceOnUse" xlink:href="#linearGradient4391"/><radialGradient id="radialGradient4182" cx="408.571" cy="520.798" r="22" gradientTransform="matrix(1.1818179 0 0 0.8181816 -50.2856 101.69057)" gradientUnits="userSpaceOnUse" xlink:href="#linearGradient4176"/><linearGradient id="linearGradient4219" x1="33" x2="24" y1="21" y2="12" gradientTransform="matrix(1.2857142 0 0 1.2857143 401.7143 500.79795)" gradientUnits="userSpaceOnUse" xlink:href="#linearGradient4213"/><linearGradient id="linearGradient4234" x1="419.41" x2="399.249" gradientTransform="matrix(1.2399993 0 0 1 -74.49681 9.499947)" gradientUnits="userSpaceOnUse" xlink:href="#linearGradient4213"/></defs><metadata id="metadata5458"/><g id="layer1" transform="matrix(1 0 0 1 -376.57144 -491.79797)"><rect style="fill:url(#linearGradient4298)" id="rect4232" width="30" height="52" x="393.571" y="497.798"/><rect style="fill:#1c1e20" id="rect4180" width="30" height="1" x="393.571" y="548.798"/><rect style="fill:#fff" id="rect4300" width="26" height="42" x="395.571" y="502.798"/><rect style="fill:#1c1e20" id="rect4164" width="7" height="2" x="405.071" y="545.798"/><rect style="fill:#1c1e20" id="rect4166" width="7" height="2" x="405.071" y="499.798"/><g id="layer1-4" transform="matrix(1 0 0 1 -24.00002 -3.999981)"><rect style="stroke-opacity:.550265;fill:url(#linearGradient4397);stroke-width:2.8" id="rect4304" width="27" height="42" x="419.571" y="506.798"/><rect style="stroke-opacity:.550265;fill:url(#radialGradient4182);opacity:.85;stroke-width:2.8" id="rect4174" width="27" height="42" x="419.571" y="506.798"/><rect style="opacity:.85;fill-opacity:.621053;stroke-width:.1" id="rect4184" width="27" height="5" x="419.571" y="540.798"/><rect style="opacity:.85;fill-opacity:.621053;stroke-width:.1" id="rect4186" width="27" height="8" x="419.571" y="506.798"/><path style="fill:url(#linearGradient4234);stroke-width:.1" id="rect4195" d="m 421.19146,542.79795 c -0.3435,0 -0.62001,0.223 -0.62001,0.5 0,0.277 0.27651,0.5 0.62001,0.5 l 11.68726,0 6.69272,0 0,-1 z"/><path style="fill:#fff;opacity:.85;fill-opacity:.452632;stroke-width:.1" id="rect4188" d="m 432.57145,518.79795 c -4.98599,0 -9,4.01401 -9,9 0,4.98599 4.01401,9 9,9 4.98599,0 9,-4.01401 9,-9 0,-4.98599 -4.01401,-9 -9,-9 z m 0,1 a 8,8 0 0 1 8,8 8,8 0 0 1 -8,8 8,8 0 0 1 -8,-8 8,8 0 0 1 8,-8 z"/><path style="fill:url(#linearGradient4219);opacity:.85;stroke-width:.1" id="path4197" d="m 432.57145,518.79795 0,1 a 8,8 0 0 1 8,8 l 1,0 c 0,-4.98599 -4.01401,-9 -9,-9 z"/><g id="g4462" transform="matrix(1 0 0 1 24 3.999977)"><rect style="opacity:.8;stroke-width:.1" id="rect4190" width="5.909" height="6" x="405.617" y="520.798" rx="2.955" ry="3"/><path style="fill:#fff;fill-rule:evenodd" id="path4221" d="m 410.34414,523.79796 -2.95454,-1.8 0,3.6 z"/></g><path style="fill:#999;stroke-width:.1" id="rect4223" d="m 440.57145,542.79795 0,1 4.38431,0 c 0.34094,0 0.61539,-0.223 0.61539,-0.5 0,-0.277 -0.27445,-0.5 -0.61539,-0.5 z"/><rect style="fill:#fff;stroke-width:.1" id="rect4239" width="3" height="3" x="438.571" y="541.798" rx="1.5"/></g></g></svg>