<svg xmlns="http://www.w3.org/2000/svg" xmlns:xlink="http://www.w3.org/1999/xlink" width="64" height="64" version="1.1"><defs id="defs5455"><linearGradient id="linearGradient4251-0"><stop style="stop-color:#63984b" id="stop4253-4"/><stop style="stop-color:#8fc278" id="stop4255-2" offset="1"/></linearGradient><linearGradient id="linearGradient4232" x2="0" y1="54" y2="12" gradientUnits="userSpaceOnUse" xlink:href="#linearGradient4251-0"/><linearGradient id="linearGradient4384" x2="0" y1="1043.362" y2="1012.362" gradientTransform="matrix(0.625 0 0 0.54839315 437.17147 -33.374703)" gradientUnits="userSpaceOnUse" xlink:href="#linearGradient4159"/><linearGradient id="linearGradient4159"><stop style="stop-color:#2a2c2f" id="stop4161"/><stop style="stop-color:#424649" id="stop4163" offset="1"/></linearGradient><linearGradient id="linearGradient4300-2"><stop style="stop-color:#22a7f0" id="stop4302-4"/><stop style="stop-color:#19b5fe" id="stop4304-7" offset="1"/></linearGradient><linearGradient id="linearGradient4300-2-3"><stop style="stop-color:#f9b425" id="stop4302-4-0"/><stop style="stop-color:#f9bf3b" id="stop4304-1" offset="1"/></linearGradient><linearGradient id="linearGradient4824" x2="0" y1="523.798" y2="516.798" gradientTransform="matrix(1 0 0 1 -376.5722 -485.79797)" gradientUnits="userSpaceOnUse" xlink:href="#linearGradient4300-2"/><linearGradient id="linearGradient4830" x2="0" y1="523.798" y2="516.798" gradientTransform="matrix(1 0 0 1 -376.5722 -479.79797)" gradientUnits="userSpaceOnUse" xlink:href="#linearGradient4300-2"/><linearGradient id="linearGradient4227"><stop style="stop-color:#292c2f" id="stop4229"/><stop style="stop-opacity:0" id="stop4231" offset="1"/></linearGradient><linearGradient id="linearGradient4864" x1="20" x2="48" y1="20" y2="48" gradientUnits="userSpaceOnUse" xlink:href="#linearGradient4227"/><linearGradient id="linearGradient4936" x1="-6" x2="24" y1="6" y2="36" gradientTransform="matrix(1 0 0 1 0 12)" gradientUnits="userSpaceOnUse" xlink:href="#linearGradient4227"/><linearGradient id="linearGradient4940" x1="-6" x2="24" y1="6" y2="36" gradientTransform="matrix(1 0 0 1 0 18)" gradientUnits="userSpaceOnUse" xlink:href="#linearGradient4227"/></defs><metadata id="metadata5458"/><g id="layer1" transform="matrix(1 0 0 1 -376.57144 -491.79797)"><path style="fill:url(#linearGradient4232)" id="rect4200" d="m 6,12 0,42 4,0 0,-4 12,0 0,4 30,0 0,-4 6,0 0,-26 -18,0 -30,0 0,-10 0,-2 z" transform="matrix(1 0 0 1 376.57144 491.79797)"/><path style="fill:url(#linearGradient4940);opacity:.2;fill-rule:evenodd" id="path4938" d="M 15 40 L 10 44 L 16 50 L 22 50 L 22 54 L 29 54 L 15 40 z" transform="matrix(1 0 0 1 376.57144 491.79797)"/><path style="fill:url(#linearGradient4936);opacity:.2;fill-rule:evenodd" id="path4934" d="M 15 34 L 10 38 L 22 50 L 26 54 L 35 54 L 15 34 z" transform="matrix(1 0 0 1 376.57144 491.79797)"/><path style="fill:url(#linearGradient4864);opacity:.2;fill-rule:evenodd" id="path4842" d="m 48,30 -20,17 6,7 18,0 0,-4 6,0 0,-10 z" transform="matrix(1 0 0 1 376.57144 491.79797)"/><rect style="fill:#dce269" id="rect4234" width="30" height="1" x="398.571" y="544.798"/><path style="color:#000" id="path4303" d="m 406.57144,539.79797 0,1 1,0 0,-1 -1,0 z m 1,1 0,1 1,0 0,-1 -1,0 z m 1,0 1,0 0,-1 -1,0 0,1 z m 1,0 0,1 1,0 0,-1 -1,0 z m 1,0 1,0 0,-1 -1,0 0,1 z m 1,0 0,1 1,0 0,-1 -1,0 z m 1,0 1,0 0,-1 -1,0 0,1 z m 1,0 0,1 1,0 0,-1 -1,0 z m 1,0 1,0 0,-1 -1,0 0,1 z m 1,0 0,1 1,0 0,-1 -1,0 z m 1,0 1,0 0,-1 -1,0 0,1 z m 1,0 0,1 1,0 0,-1 -1,0 z m 1,0 1,0 0,-1 -1,0 0,1 z m 1,0 0,1 1,0 0,-1 -1,0 z m 1,0 1,0 0,-1 -1,0 0,1 z m 1,0 0,1 1,0 0,-1 -1,0 z"/><path style="color:#000" id="path4313" d="m 390.57144,538.79797 0,1 1,0 0,-1 -1,0 z m 1,1 0,1 1,0 0,-1 -1,0 z m 1,0 1,0 0,-1 -1,0 0,1 z m 1,0 0,1 1,0 0,-1 -1,0 z m 1,0 1,0 0,-1 -1,0 0,1 z m -4,0 -1,0 0,1 1,0 0,-1 z"/><rect style="fill:url(#linearGradient4384);fill-rule:evenodd" id="rect4241" width="20" height="17" x="404.671" y="521.798"/><rect style="fill:#afc0c6" id="rect4487" width="4" height="42" x="382.571" y="503.798"/><rect style="fill:#96aab5" id="rect4489" width="1" height="42" x="382.571" y="503.798"/><path style="color:#000" id="path4497" d="m 422.57144,518.79797 0,1 -1,0 0,-1 1,0 z m -1,1 0,1 -1,0 0,-1 1,0 z m -1,0 -1,0 0,-1 1,0 0,1 z m -1,0 0,1 -1,0 0,-1 1,0 z m -1,0 -1,0 0,-1 1,0 0,1 z m -1,0 0,1 -1,0 0,-1 1,0 z m -1,0 -1,0 0,-1 1,0 0,1 z m -1,0 0,1 -1,0 0,-1 1,0 z m -1,0 -1,0 0,-1 1,0 0,1 z m -1,0 0,1 -1,0 0,-1 1,0 z m -1,0 -1,0 0,-1 1,0 0,1 z m -1,0 0,1 -1,0 0,-1 1,0 z m -1,0 -1,0 0,-1 1,0 0,1 z m -1,0 0,1 -1,0 0,-1 1,0 z m -1,0 -1,0 0,-1 1,0 0,1 z m -1,0 0,1 -1,0 0,-1 1,0 z"/><path style="fill:url(#linearGradient4824)" id="path4822" d="m 386.57145,525.79797 0,4 3.90039,0 c 0.0355,0 0.0651,-0.016 0.0996,-0.0195 l 0,0.0195 1,0 0,-4 -1,0 0,0.0195 c -0.0345,-0.004 -0.0641,-0.0195 -0.0996,-0.0195 l -3.90039,0 z"/><path style="fill:url(#linearGradient4830)" id="path4828" d="m 386.57145,531.79797 0,4 3.90039,0 c 0.0355,0 0.0651,-0.016 0.0996,-0.0195 l 0,0.0195 1,0 0,-4 -1,0 0,0.0195 c -0.0345,-0.004 -0.0641,-0.0195 -0.0996,-0.0195 l -3.90039,0 z"/><rect style="opacity:.09" id="rect4832" width="5" height="1" x="386.571" y="534.798"/><rect style="opacity:.09" id="rect4834" width="5" height="1" x="386.571" y="528.798"/><rect style="fill:#afc0c6" id="rect4197-7" width="2" height="4" x="381.571" y="525.798"/><rect style="fill:#afc0c6" id="rect4197-5" width="2" height="4" x="381.571" y="531.798"/><path style="fill:#afc0c6" id="rect4161" d="m 413.67142,524.29807 0,1 6,0 0,7 -6,0 0,2 0,1 -1,0 c -0.55401,0 -1,-0.44599 -1,-1 l 0,-2 0,-2 0,-1 1,0 0,-4 -3,0 0,4 1,0 0,1 0,2 0,2 c 0,1.108 0.892,2 2,2 l 1,0 2,0 2,0 0,-1 -2,0 0,-1 5,0 0,-1 0,-1 0,-8 -7,0 z m -3,3 1,0 0,1 -1,0 0,-1 z m -2,3 0,4 1,0 0,-2 0,-2 -1,0 z"/></g></svg>