<svg xmlns="http://www.w3.org/2000/svg" xmlns:svg="http://www.w3.org/2000/svg" id="svg7384" width="16" height="16" version="1.1"><metadata id="metadata90"/><title id="title9167">elementary Symbolic Icon Theme</title><g id="layer10" display="inline" transform="translate(-393.0004,212)"><path id="path26990" fill="#bebebe" fill-opacity="1" stroke="none" d="m 397.18309,-212 c -1.79783,1e-5 -3.15144,1.33801 -3.15144,3 l 0,10 c 0,1.662 1.3536,3 3.15144,3 l 7.57212,0 c 1.79783,-1e-5 3.24519,-1.33801 3.24519,-3 l 0,-6.58931 -1.97596,2.87722 0,3.71209 c 10e-6,0.554 -0.48245,1 -1.08173,1 l -7.91587,0 c -0.59928,-1e-5 -1.01924,-0.44601 -1.01923,-1 l 0,-10 c -10e-6,-0.554 0.41995,-0.99999 1.01923,-1 l 7.66076,0 1.31836,-1.75 c -0.38069,-0.14431 -0.81253,-0.25 -1.25075,-0.25 z"/><path id="path8552-8" fill="#bebebe" fill-opacity="1" stroke="none" stroke-width="2" d="m 407.04073,-210.96897 c 0,0 -2.51922,3.50643 -4.04033,5.96897 l -1.40567,1.1673 0.0373,1.57392 -0.76313,1.24524 0.69536,-0.001 0.74028,-0.58334 1.67496,-0.4626 0.5949,-1.48097 4.18505,-6.36462 z" baseline-shift="baseline" color="#000" direction="ltr" display="inline" enable-background="new" font-family="Sans" font-size="medium" font-stretch="normal" font-style="normal" font-variant="normal" font-weight="normal" letter-spacing="normal" overflow="visible" text-anchor="start" text-decoration="none" visibility="visible" word-spacing="normal" writing-mode="lr-tb" style="text-indent:0;text-align:start;line-height:normal;text-transform:none;block-progression:tb;marker:none;-inkscape-font-specification:Sans"/></g></svg>