<svg xmlns="http://www.w3.org/2000/svg" xmlns:xlink="http://www.w3.org/1999/xlink" width="64" height="64" version="1.1"><defs id="defs5455"><linearGradient id="linearGradient4903"><stop style="stop-color:#eef1f2" id="stop4905"/><stop style="stop-color:#f9fafb" id="stop4907" offset="1"/></linearGradient><linearGradient id="linearGradient4303"><stop style="stop-color:#c6cdd1" id="stop4305"/><stop style="stop-color:#e0e5e7" id="stop4307" offset="1"/></linearGradient><linearGradient id="linearGradient4271"><stop style="stop-color:#2a2c2f" id="stop4273"/><stop style="stop-color:#424649" id="stop4275" offset="1"/></linearGradient><linearGradient id="linearGradient4976"><stop style="stop-color:#e74c3c" id="stop4978"/><stop style="stop-color:#f39c1f" id="stop4988" offset=".25"/><stop style="stop-color:#11d116" id="stop4984" offset=".5"/><stop style="stop-color:#3498db" id="stop4986" offset=".75"/><stop style="stop-color:#9b59b6" id="stop4980" offset="1"/></linearGradient><linearGradient id="linearGradient4770"><stop id="stop4772"/><stop style="stop-opacity:0" id="stop4774" offset="1"/></linearGradient><linearGradient id="linearGradient5002"><stop style="stop-color:#2e5d89" id="stop5004"/><stop style="stop-color:#1b92f4" id="stop5006" offset="1"/></linearGradient><linearGradient id="linearGradient4328"><stop style="stop-color:#bec900" id="stop4330"/><stop style="stop-color:#9ec80a" id="stop4332" offset=".312"/><stop style="stop-color:#71b93d" id="stop4334" offset=".562"/><stop style="stop-color:#35a48f" id="stop4336" offset=".75"/><stop style="stop-color:#018fca" id="stop4338" offset="1"/></linearGradient><linearGradient id="linearGradient4316"><stop style="stop-color:#c1cc00" id="stop4318"/><stop style="stop-color:#dfcd00" id="stop4320" offset=".312"/><stop style="stop-color:#f0cc00" id="stop4322" offset=".562"/><stop style="stop-color:#fd8c08" id="stop4324" offset=".75"/><stop style="stop-color:#f25c13" id="stop4326" offset="1"/></linearGradient><linearGradient id="linearGradient4300"><stop style="stop-color:#e51561" id="stop4302"/><stop style="stop-color:#e4156c" id="stop4304" offset=".312"/><stop style="stop-color:#e71e2c" id="stop4306" offset=".562"/><stop style="stop-color:#e8301e" id="stop4308" offset=".75"/><stop style="stop-color:#e6320e" id="stop4310" offset="1"/></linearGradient><linearGradient id="linearGradient4288"><stop style="stop-color:#e81877" id="stop4290"/><stop style="stop-color:#dd1d8c" id="stop4294" offset=".312"/><stop style="stop-color:#6d57b1" id="stop4296" offset=".562"/><stop style="stop-color:#2a78c1" id="stop4298" offset=".75"/><stop style="stop-color:#018dcb" id="stop4292" offset="1"/></linearGradient><clipPath id="clipPath4528"><rect style="fill:url(#linearGradient4532)" id="rect4530" width="32" height="32" x="8" y="8" rx="16"/></clipPath><linearGradient id="linearGradient4532" x2="0" y1="543.798" y2="503.798" gradientTransform="matrix(0.79999996 0 0 0.79999996 -302.85712 -395.03837)" gradientUnits="userSpaceOnUse" xlink:href="#linearGradient4271"/><clipPath id="clipPath4534"><rect style="fill:url(#linearGradient4532)" id="rect4536" width="32" height="32" x="8" y="8" rx="16"/></clipPath><clipPath id="clipPath4544"><rect style="fill:url(#linearGradient4548)" id="rect4546-71" width="32" height="32" x="392.571" y="507.798" rx="16"/></clipPath><linearGradient id="linearGradient4548" x2="0" y1="543.798" y2="503.798" gradientTransform="matrix(0.79999995 0 0 0.79999995 81.71431 104.75963)" gradientUnits="userSpaceOnUse" xlink:href="#linearGradient4271"/><clipPath id="clipPath4550"><rect style="fill:url(#linearGradient4548)" id="rect4552" width="32" height="32" x="392.571" y="507.798" rx="16"/></clipPath><clipPath id="clipPath4562"><rect style="fill:url(#linearGradient4548)" id="rect4564" width="32" height="32" x="392.571" y="507.798" rx="16"/></clipPath><clipPath id="clipPath4568"><rect style="fill:url(#linearGradient4548)" id="rect4570" width="32" height="32" x="392.571" y="507.798" rx="16"/></clipPath><clipPath id="clipPath4578"><rect style="fill:url(#linearGradient4548)" id="rect4580" width="32" height="32" x="392.571" y="507.798" rx="16"/></clipPath><clipPath id="clipPath4584"><rect style="fill:url(#linearGradient4548)" id="rect4586" width="32" height="32" x="392.571" y="507.798" rx="16"/></clipPath><linearGradient id="linearGradient4303-3"><stop style="stop-color:#989a9b" id="stop4305-3"/><stop style="stop-color:#f6f6f7" id="stop4307-8" offset="1"/></linearGradient><linearGradient id="linearGradient4415" x1="8" x2="24" y1="24" y2="8" gradientUnits="userSpaceOnUse" xlink:href="#linearGradient4288"/><linearGradient id="linearGradient4417" x1="8" x2="24" y1="24" y2="8" gradientTransform="matrix(1 0 0 -1 384.57143 547.798)" gradientUnits="userSpaceOnUse" xlink:href="#linearGradient4300"/><linearGradient id="linearGradient4419" x1="8" x2="24" y1="24" y2="8" gradientTransform="matrix(-1 0 0 1 432.57143 499.798)" gradientUnits="userSpaceOnUse" xlink:href="#linearGradient4328"/><linearGradient id="linearGradient4421" x1="8" x2="24" y1="24" y2="8" gradientTransform="matrix(-1 0 0 -1 432.57143 547.798)" gradientUnits="userSpaceOnUse" xlink:href="#linearGradient4316"/><linearGradient id="linearGradient4423" x2="0" y1="543.798" y2="503.798" gradientTransform="matrix(0.34999981 0 0 0.34999981 265.57152 -707.12715)" gradientUnits="userSpaceOnUse" xlink:href="#linearGradient4271"/><clipPath id="clipPath4528-1"><rect style="fill:url(#linearGradient4532)" id="rect4530-7" width="32" height="32" x="8" y="8" rx="16"/></clipPath><clipPath id="clipPath4534-1"><rect style="fill:url(#linearGradient4532)" id="rect4536-8" width="32" height="32" x="8" y="8" rx="16"/></clipPath><clipPath id="clipPath4544-1"><rect style="fill:url(#linearGradient4548)" id="rect4546-1" width="32" height="32" x="392.571" y="507.798" rx="16"/></clipPath><clipPath id="clipPath4550-4"><rect style="fill:url(#linearGradient4548)" id="rect4552-1" width="32" height="32" x="392.571" y="507.798" rx="16"/></clipPath><clipPath id="clipPath4562-8"><rect style="fill:url(#linearGradient4548)" id="rect4564-8" width="32" height="32" x="392.571" y="507.798" rx="16"/></clipPath><clipPath id="clipPath4568-4"><rect style="fill:url(#linearGradient4548)" id="rect4570-1" width="32" height="32" x="392.571" y="507.798" rx="16"/></clipPath><clipPath id="clipPath4578-8"><rect style="fill:url(#linearGradient4548)" id="rect4580-7" width="32" height="32" x="392.571" y="507.798" rx="16"/></clipPath><clipPath id="clipPath4584-9"><rect style="fill:url(#linearGradient4548)" id="rect4586-2" width="32" height="32" x="392.571" y="507.798" rx="16"/></clipPath><linearGradient id="linearGradient4472" x2="0" y1="524.798" y2="522.798" gradientTransform="matrix(2 0 0 2 -408.57143 -523.798)" gradientUnits="userSpaceOnUse" xlink:href="#linearGradient4303-3"/><linearGradient id="linearGradient4352" x1="400.571" x2="415.571" y1="512.798" y2="527.798" gradientUnits="userSpaceOnUse" xlink:href="#linearGradient5002"/><linearGradient id="linearGradient4191"><stop style="stop-color:#18222a" id="stop4193"/><stop style="stop-color:#566069" id="stop4195" offset="1"/></linearGradient><linearGradient id="linearGradient4617" x2="0" y1="531.798" y2="501.699" gradientTransform="matrix(1.0833316 0 0 1.1666676 -34.04692 -84.63341)" gradientUnits="userSpaceOnUse" xlink:href="#linearGradient4303"/><linearGradient id="linearGradient4930" x2="0" y1="533.798" y2="537.798" gradientTransform="matrix(1.1111099 0 0 1 -45.39633 0)" gradientUnits="userSpaceOnUse" xlink:href="#linearGradient4191"/><linearGradient id="linearGradient4938" x2="0" y1="514.798" y2="511.798" gradientTransform="matrix(1 0 0 2.2857186 0 -664.88526)" gradientUnits="userSpaceOnUse" xlink:href="#linearGradient4191"/><linearGradient id="linearGradient4950" x1="391.571" x2="404.571" y1="533.798" y2="546.798" gradientTransform="matrix(1 0 0 1 -2 0)" gradientUnits="userSpaceOnUse" xlink:href="#linearGradient4770"/><linearGradient id="linearGradient4950-6" x1="391.571" x2="404.571" y1="533.798" y2="546.798" gradientTransform="matrix(1 0 0 1 0 -22)" gradientUnits="userSpaceOnUse" xlink:href="#linearGradient4770"/><linearGradient id="linearGradient4982" x1="394.571" x2="422.571" gradientTransform="matrix(1.1428557 0 0 1 -58.36675 0)" gradientUnits="userSpaceOnUse" xlink:href="#linearGradient4976"/><linearGradient id="linearGradient4386" x2="0" y1="505.798" y2="503.798" gradientTransform="matrix(1 0 0 1 0 -12)" gradientUnits="userSpaceOnUse" xlink:href="#linearGradient4903"/><linearGradient id="linearGradient4394" x2="0" y1="519.798" y2="507.798" gradientTransform="matrix(1 0 0 1.3333333 0 -181.26599)" gradientUnits="userSpaceOnUse" xlink:href="#linearGradient4903"/><linearGradient id="linearGradient4402" x2="0" y1="507.798" y2="505.798" gradientTransform="matrix(1 0 0 1 0 -12)" gradientUnits="userSpaceOnUse" xlink:href="#linearGradient4903"/><clipPath id="clipPath4528-8"><rect style="fill:url(#linearGradient4532)" id="rect4530-0" width="32" height="32" x="8" y="8" rx="16"/></clipPath><clipPath id="clipPath4534-10"><rect style="fill:url(#linearGradient4532)" id="rect4536-6" width="32" height="32" x="8" y="8" rx="16"/></clipPath><clipPath id="clipPath4544-3"><rect style="fill:url(#linearGradient4548)" id="rect4546-559" width="32" height="32" x="392.571" y="507.798" rx="16"/></clipPath><clipPath id="clipPath4550-0"><rect style="fill:url(#linearGradient4548)" id="rect4552-3" width="32" height="32" x="392.571" y="507.798" rx="16"/></clipPath><clipPath id="clipPath4562-5"><rect style="fill:url(#linearGradient4548)" id="rect4564-1" width="32" height="32" x="392.571" y="507.798" rx="16"/></clipPath><clipPath id="clipPath4568-6"><rect style="fill:url(#linearGradient4548)" id="rect4570-4" width="32" height="32" x="392.571" y="507.798" rx="16"/></clipPath><clipPath id="clipPath4578-88"><rect style="fill:url(#linearGradient4548)" id="rect4580-3" width="32" height="32" x="392.571" y="507.798" rx="16"/></clipPath><clipPath id="clipPath4584-0"><rect style="fill:url(#linearGradient4548)" id="rect4586-5" width="32" height="32" x="392.571" y="507.798" rx="16"/></clipPath><clipPath id="clipPath4528-1-9"><rect style="fill:url(#linearGradient4532)" id="rect4530-7-1" width="32" height="32" x="8" y="8" rx="16"/></clipPath><clipPath id="clipPath4534-1-5"><rect style="fill:url(#linearGradient4532)" id="rect4536-8-9" width="32" height="32" x="8" y="8" rx="16"/></clipPath><clipPath id="clipPath4544-1-6"><rect style="fill:url(#linearGradient4548)" id="rect4546-1-4" width="32" height="32" x="392.571" y="507.798" rx="16"/></clipPath><clipPath id="clipPath4550-4-0"><rect style="fill:url(#linearGradient4548)" id="rect4552-1-1" width="32" height="32" x="392.571" y="507.798" rx="16"/></clipPath><clipPath id="clipPath4562-8-4"><rect style="fill:url(#linearGradient4548)" id="rect4564-8-0" width="32" height="32" x="392.571" y="507.798" rx="16"/></clipPath><clipPath id="clipPath4568-4-4"><rect style="fill:url(#linearGradient4548)" id="rect4570-1-6" width="32" height="32" x="392.571" y="507.798" rx="16"/></clipPath><clipPath id="clipPath4578-8-8"><rect style="fill:url(#linearGradient4548)" id="rect4580-7-9" width="32" height="32" x="392.571" y="507.798" rx="16"/></clipPath><clipPath id="clipPath4584-9-1"><rect style="fill:url(#linearGradient4548)" id="rect4586-2-6" width="32" height="32" x="392.571" y="507.798" rx="16"/></clipPath><linearGradient id="linearGradient4199"><stop style="stop-color:#2f3943" id="stop4201"/><stop style="stop-color:#4d5662" id="stop4203" offset="1"/></linearGradient><linearGradient id="linearGradient4545" x2="0" y1="28" y2="12" gradientTransform="matrix(1 0 0 1 382.57145 501.79803)" gradientUnits="userSpaceOnUse" xlink:href="#linearGradient4199"/><linearGradient id="linearGradient4545-5" x2="0" y1="28" y2="12" gradientTransform="matrix(-1 0 0 1 434.57145 501.79803)" gradientUnits="userSpaceOnUse" xlink:href="#linearGradient4199"/><linearGradient id="linearGradient4852" x1="425.571" x2="390.571" y1="524.798" y2="511.798" gradientUnits="userSpaceOnUse" xlink:href="#linearGradient4199"/></defs><metadata id="metadata5458"/><g id="layer1-5" transform="matrix(1 0 0 1 -376.57147 -485.79798)"><rect style="fill:url(#linearGradient4617);stroke-linecap:round;stroke-linejoin:round;stroke-width:2" id="rect4288" width="52" height="28" x="382.571" y="507.798" rx="0"/><rect style="fill:#737b81;stroke-linecap:round;stroke-linejoin:round;stroke-width:2" id="rect4290" width="52" height="2" x="382.571" y="535.798"/><path style="fill:url(#linearGradient4352);stroke-linecap:round;stroke-linejoin:round;stroke-width:2" id="circle4309-6" cx="408.571" cy="519.798" r="10"/><rect style="fill:url(#linearGradient4930);stroke-linejoin:round;stroke-width:.5" id="rect4868" width="40" height="7" x="388.571" y="533.798"/><rect style="fill:#eff0f1;stroke-linejoin:round;stroke-width:.5" id="rect4299" width="36" height="10" x="390.571" y="533.798"/><rect style="fill:url(#linearGradient4938);stroke-linejoin:round;stroke-width:.5" id="rect4868-5" width="36" height="16" x="390.571" y="495.798"/><rect style="fill:url(#linearGradient4386);stroke-linejoin:round;stroke-width:.5" id="rect4299-2" width="32" height="16" x="392.571" y="491.798"/><rect style="fill:url(#linearGradient4982);stroke-linejoin:round;stroke-width:.5" id="rect4299-3" width="32" height="8" x="392.571" y="533.798"/><path style="fill:url(#linearGradient4950);opacity:.2;fill-rule:evenodd" id="path4942" d="m 388.57143,533.798 10,10 24,0 0,-3 2,0 0,-7 z"/><rect style="fill:url(#linearGradient4402);stroke-linejoin:round;stroke-width:.5" id="rect4299-2-2-8" width="32" height="12" x="392.571" y="493.798"/><rect style="fill:url(#linearGradient4394);stroke-linejoin:round;stroke-width:.5" id="rect4299-2-2" width="32" height="16" x="392.571" y="495.798"/><path style="fill:url(#linearGradient4545);stroke-linecap:round;stroke-linejoin:round;stroke-width:2" id="rect4512" d="m 382.57145,509.79803 0,22 2,0 c 1.10802,0 2,-0.89198 2,-2 l 0,-18 c 0,-1.10802 -1,-2 -2,-2 z"/><path style="fill:url(#linearGradient4545-5);stroke-linecap:round;stroke-linejoin:round;stroke-width:2" id="rect4512-0" d="m 434.57145,509.79803 0,22 -2,0 c -1.10802,0 -2,-0.89198 -2,-2 l 0,-18 c 0,-1.10802 1,-2 2,-2 z"/><circle style="fill:#11d116;stroke-linecap:round;stroke-linejoin:round;stroke-width:2" id="path4292" cx="432.571" cy="529.798" r="1"/><rect style="fill:#99a1a7;stroke-linecap:round;stroke-linejoin:bevel;stroke-width:2" id="rect4826" width="44" height="1" x="386.571" y="527.798"/><path style="fill:url(#linearGradient4852);stroke-linecap:round;stroke-linejoin:bevel;stroke-width:2" id="rect4841" d="m 390.57147,511.79798 0,10 c 0,1.108 0.892,2 2,2 l 32,0 c 1.108,0 2,-0.892 2,-2 l 0,-10 -36,0 z"/><path style="fill:url(#linearGradient4950-6);opacity:.2;fill-rule:evenodd" id="path4942-8" d="m 390.57143,511.798 14,14 22,0 0,-14 z"/><path style="fill:#d9d9d9" id="rect4119" d="m 407.57147,515.79791 c -0.1385,0 -0.25,0.1115 -0.25,0.25 0,0.1385 0.1115,0.25 0.25,0.25 0.1385,0 0.25,-0.1115 0.25,-0.25 0,-0.1385 -0.1115,-0.25 -0.25,-0.25 z m 1.75,0 -0.5,0.5 0.75,0.75 -0.25,0.25 -0.25,0.25 -0.25,0.25 0.5,0.5 0.25,-0.25 0.25,-0.25 0.25,-0.25 0.5,-0.5 z m -2.375,1.5 c -0.20775,0 -0.375,0.16725 -0.375,0.375 0,0.20775 0.16725,0.375 0.375,0.375 0.20775,0 0.375,-0.16725 0.375,-0.375 0,-0.20775 -0.16725,-0.375 -0.375,-0.375 z m 1.125,1.5 c -0.277,0 -0.5,0.223 -0.5,0.5 0,0.277 0.223,0.5 0.5,0.5 0.277,0 0.5,-0.223 0.5,-0.5 0,-0.277 -0.223,-0.5 -0.5,-0.5 z"/></g></svg>