<svg xmlns="http://www.w3.org/2000/svg" xmlns:xlink="http://www.w3.org/1999/xlink" width="64" height="64" version="1.1"><defs id="defs5455"><linearGradient id="linearGradient4610"><stop style="stop-color:#84cbfe" id="stop4612"/><stop style="stop-color:#84cbfe;stop-opacity:0" id="stop4614" offset="1"/></linearGradient><linearGradient id="linearGradient4212"><stop id="stop4214"/><stop style="stop-opacity:0" id="stop4216" offset="1"/></linearGradient><linearGradient id="linearGradient4158" x2="0" y1="543.798" y2="503.798" gradientTransform="matrix(1.4378762 0 0 1.1250009 -178.89768 -63.975264)" gradientUnits="userSpaceOnUse" xlink:href="#linearGradient4303"/><linearGradient id="linearGradient4303"><stop style="stop-color:#c6cdd1" id="stop4305"/><stop style="stop-color:#e0e5e7" id="stop4307" offset="1"/></linearGradient><linearGradient id="linearGradient4218" x1="390.571" x2="418.571" y1="507.674" y2="535.798" gradientTransform="matrix(1.288793 0 0 1.2937921 -117.7943 -153.98804)" gradientUnits="userSpaceOnUse" xlink:href="#linearGradient4212"/><linearGradient id="linearGradient5002"><stop style="stop-color:#2e5d89" id="stop5004"/><stop style="stop-color:#1b92f4" id="stop5006" offset="1"/></linearGradient><linearGradient id="linearGradient4199"><stop style="stop-color:#2f3943" id="stop4201"/><stop style="stop-color:#4d5662" id="stop4203" offset="1"/></linearGradient><linearGradient id="linearGradient4191"><stop style="stop-color:#18222a" id="stop4193"/><stop style="stop-color:#566069" id="stop4195" offset="1"/></linearGradient><linearGradient id="linearGradient4514" x2="0" y1="507.798" y2="503.798" gradientTransform="matrix(1.3 0 0 1.2500057 -122.57143 -131.9524)" gradientUnits="userSpaceOnUse" xlink:href="#linearGradient4199"/><linearGradient id="linearGradient4522" x1="43" x2="8" y1="46" y2="37" gradientTransform="matrix(1.2888893 0 0 1.3 377.83808 492.59797)" gradientUnits="userSpaceOnUse" xlink:href="#linearGradient4303"/><linearGradient id="linearGradient4530" x2="0" y1="509.798" y2="537.798" gradientTransform="matrix(1.3124999 0 0 1.3571435 -127.67852 -187.07106)" gradientUnits="userSpaceOnUse" xlink:href="#linearGradient5002"/><linearGradient id="linearGradient4545-5-7" x1="3" x2="-1" gradientTransform="matrix(0 1.3124924 -1.2857143 0 426.57143 544.79799)" gradientUnits="userSpaceOnUse" xlink:href="#linearGradient4199"/><linearGradient id="linearGradient4616" x2="0" y1="-521.798" y2="-518.798" gradientTransform="matrix(1.2500004 0 0 1.3333395 -102.14303 174.93583)" gradientUnits="userSpaceOnUse" xlink:href="#linearGradient4610"/><linearGradient id="linearGradient4616-6" x2="0" y1="-521.798" y2="-518.798" gradientTransform="matrix(1.2500004 0 0 1.3333394 -102.14303 1218.5319)" gradientUnits="userSpaceOnUse" xlink:href="#linearGradient4610"/><linearGradient id="linearGradient4650" x2="0" y1="505.798" y2="509.798" gradientTransform="matrix(1.3 0 0 1.3 -122.57143 -157.13943)" gradientUnits="userSpaceOnUse" xlink:href="#linearGradient4191"/><linearGradient id="linearGradient4530-3" x2="0" y1="509.798" y2="537.798" gradientTransform="matrix(1.3781177 0 0 1.4104872 -154.43824 -215.26546)" gradientUnits="userSpaceOnUse" xlink:href="#linearGradient4303"/></defs><metadata id="metadata5458"/><g id="layer1" transform="matrix(1 0 0 1 -376.57144 -491.79797)"><rect style="fill:url(#linearGradient4158)" id="rect4139" width="46.012" height="45" x="385.571" y="502.798" rx="0"/><rect style="fill:url(#linearGradient4530-3);stroke-linecap:round;stroke-linejoin:bevel;stroke-width:6.2" id="rect4189-8" width="44" height="40" x="386.571" y="503.798"/><path style="fill:url(#linearGradient4522)" id="rect4188" d="m 385.57143,544.53098 0,3.26699 c 0,1.4764 0.9157,2 2.37948,2 l 41.62053,0 c 0.99999,0 2,-0.99998 2,-2 l -10e-6,-2.99998 z"/><rect style="fill:url(#linearGradient4530);stroke-linecap:round;stroke-linejoin:bevel;stroke-width:6.2" id="rect4189" width="42" height="38" x="387.571" y="504.798"/><path style="fill:url(#linearGradient4514)" id="rect4188-1" d="m 385.57143,502.79799 10e-6,-3.00002 c 0,-0.99998 0.99999,-2 2.04503,-2 l 41.95497,0 c 0.99999,0 2,1.00002 2,2 l -10e-6,3.00002 z"/><rect style="fill:#84cbfe;stroke-linecap:round;stroke-linejoin:bevel;stroke-width:6.2" id="rect4585" width="40" height="2" x="388.571" y="520.798"/><rect style="fill:url(#linearGradient4616-6);opacity:.2;stroke-linecap:round;stroke-linejoin:bevel;stroke-width:6.2" id="rect4585-1-9" width="40" height="4" x="388.571" y="522.798"/><rect style="fill:url(#linearGradient4616);opacity:.2;stroke-linecap:round;stroke-linejoin:bevel;stroke-width:6.2" id="rect4585-1" width="40" height="4" x="388.571" y="-520.798" transform="matrix(1 0 0 -1 0 0)"/><rect style="fill:#eff0f1;stroke-linecap:round;stroke-linejoin:bevel;stroke-width:6.2" id="rect4532" width="22" height="27" x="389.571" y="514.798"/><path style="fill:url(#linearGradient4218);opacity:.2;fill-rule:evenodd" id="path4210" d="m 385.57143,502.83645 41,41.96154 5,0 0,-42 z"/><path style="fill:url(#linearGradient4545-5-7);stroke-linecap:round;stroke-linejoin:round;stroke-width:2" id="rect4512-0-1" d="m 426.57143,544.79799 -36,0 0,1.99998 c 0,1.00002 1,2 2.00001,2 l 32,0 c 0.99999,0 2.00001,-0.99998 2,-2 z"/><circle style="fill:#11d116;stroke-linecap:round;stroke-linejoin:round;stroke-width:2" id="path4292-3" cx="-546.798" cy="-423.571" r="1" transform="matrix(0 -1 -1 0 0 0)"/><rect style="fill:url(#linearGradient4650);stroke-linecap:round;stroke-linejoin:bevel;stroke-width:6.2" id="rect4642" width="46" height="3" x="385.571" y="499.798"/></g></svg>