<svg xmlns="http://www.w3.org/2000/svg" xmlns:xlink="http://www.w3.org/1999/xlink" width="64" height="64" version="1.1"><defs id="defs5455"><linearGradient id="linearGradient4298" x2="0" y1="545.798" y2="517.798" gradientTransform="matrix(1.6666664 0 0 1.8571411 -259.04764 -463.82593)" gradientUnits="userSpaceOnUse" xlink:href="#linearGradient4303"/><linearGradient id="linearGradient4303"><stop style="stop-color:#c6cdd1" id="stop4305"/><stop style="stop-color:#e0e5e7" id="stop4307" offset="1"/></linearGradient><linearGradient id="linearGradient4159"><stop style="stop-color:#2a2c2f" id="stop4161"/><stop style="stop-color:#424649" id="stop4163" offset="1"/></linearGradient><linearGradient id="linearGradient4574" x2="0" y1="544.798" y2="502.798" gradientUnits="userSpaceOnUse" xlink:href="#linearGradient4159"/><linearGradient id="linearGradient4529" x2="0" y1="20" y2="18" gradientTransform="matrix(2 0 0 2 370.57149 501.79797)" gradientUnits="userSpaceOnUse" xlink:href="#linearGradient4219"/><linearGradient id="linearGradient4219"><stop style="stop-color:#999a9c" id="stop4221"/><stop style="stop-color:#f4f5f5" id="stop4223" offset="1"/></linearGradient><linearGradient id="linearGradient4725" x2="0" y1="532.798" y2="530.798" gradientTransform="matrix(2 0 0 2 -416.57137 -523.79803)" gradientUnits="userSpaceOnUse" xlink:href="#linearGradient4264"/><linearGradient id="linearGradient4264"><stop style="stop-color:#2980b9" id="stop4266"/><stop style="stop-color:#3498db" id="stop4268" offset="1"/></linearGradient><linearGradient id="linearGradient4741" x2="0" y1="530.798" y2="528.798" gradientTransform="matrix(2 0 0 2 -405.57142 -519.79803)" gradientUnits="userSpaceOnUse" xlink:href="#linearGradient4280"/><linearGradient id="linearGradient4280"><stop style="stop-color:#c0392b" id="stop4282"/><stop style="stop-color:#e74c3c" id="stop4284" offset="1"/></linearGradient><linearGradient id="linearGradient4749" x2="0" y1="530.798" y2="528.798" gradientTransform="matrix(2 0 0 2 -407.57142 -519.79803)" gradientUnits="userSpaceOnUse" xlink:href="#linearGradient4347"/><linearGradient id="linearGradient4347"><stop style="stop-color:#f33777" id="stop4349"/><stop style="stop-color:#fd2d65" id="stop4351" offset="1"/></linearGradient><linearGradient id="linearGradient4733" x2="0" y1="528.798" y2="526.798" gradientTransform="matrix(2 0 0 2 -396.57137 -515.79803)" gradientUnits="userSpaceOnUse" xlink:href="#linearGradient4255"/><linearGradient id="linearGradient4255"><stop style="stop-color:#27ae60" id="stop4257"/><stop style="stop-color:#2ecc71" id="stop4259" offset="1"/></linearGradient></defs><metadata id="metadata5458"/><g id="layer1" transform="matrix(1 0 0 1 -376.57144 -491.79797)"><rect style="fill:url(#linearGradient4298)" id="rect4232" width="30" height="52" x="393.571" y="497.798"/><rect style="fill:#99a1a7" id="rect4180" width="30" height="1" x="393.571" y="548.798"/><rect style="fill:url(#linearGradient4574)" id="rect4300" width="26" height="42" x="395.571" y="502.798"/><rect style="fill:#1c1e20" id="rect4164" width="7" height="2" x="405.071" y="545.798"/><rect style="fill:#1c1e20" id="rect4166" width="7" height="2" x="405.071" y="499.798"/><path style="fill:url(#linearGradient4733);stroke-linecap:square;stroke-width:.1" id="path4717" d="m 418.57149,537.79797 a 2,2 0 0 0 -2,2 2,2 0 0 0 2,2 2,2 0 0 0 2,-2 2,2 0 0 0 -2,-2 z"/><path style="fill:url(#linearGradient4529);stroke-linecap:square;stroke-width:.1" id="path4518" d="m 408.57149,537.79797 a 2.000012,2.000012 0 0 0 -2,2 2.000012,2.000012 0 0 0 2,2 2.000012,2.000012 0 0 0 2,-2 2.000012,2.000012 0 0 0 -2,-2 z"/><path style="fill:url(#linearGradient4749);stroke-linecap:square;stroke-width:.1" id="path4715" d="m 403.57144,537.79797 a 2,2 0 0 0 -2,2 2,2 0 0 0 2,2 2,2 0 0 0 2,-2 2,2 0 0 0 -2,-2 z"/><path style="fill:url(#linearGradient4741);stroke-linecap:square;stroke-width:.1" id="path4713" d="m 413.57144,537.79797 a 2,2 0 0 0 -2,2 2,2 0 0 0 2,2 2,2 0 0 0 2,-2 2,2 0 0 0 -2,-2 z"/><path style="fill:url(#linearGradient4725);stroke-linecap:square;stroke-width:.1" id="path4268" d="m 398.57149,537.79797 a 2,2 0 0 0 -2,2 2,2 0 0 0 2,2 2,2 0 0 0 2,-2 2,2 0 0 0 -2,-2 z"/><circle style="fill:#fff" id="path4212" cx="419.071" cy="504.298" r=".5"/><circle style="fill:#fff" id="circle4214" cx="417.071" cy="504.298" r=".5"/><circle style="fill:#fff" id="circle4216" cx="398.071" cy="504.298" r=".5"/></g></svg>