<svg xmlns="http://www.w3.org/2000/svg" xmlns:svg="http://www.w3.org/2000/svg" id="svg7384" width="16" height="16" version="1.1"><metadata id="metadata90"/><title id="title9167">elementary Symbolic Icon Theme</title><g id="layer10" display="inline" transform="translate(-473.0004,232)"><path id="path27207" fill="#bebebe" fill-opacity="1" stroke="none" d="m 476.6254,-228.99242 c -1.45425,0 -2.625,1.03817 -2.625,2.49242 l 0,7.875 c 0,1.45425 1.17075,2.625 2.625,2.625 l 8.75,0 c 1.45425,0 2.625,-1.17075 2.625,-2.625 l 0,-7.875 c 0,-1.45425 -1.17075,-2.49242 -2.625,-2.49242 z m 0.875,0.99242 7,0 c 2.00417,0.53702 1.9805,6.85657 0,8 l -7,0 c -2.31899,-1.57669 -1.58576,-7.08446 0,-8 z m 7.52285,11.04907 -1.0457,0 0,-1.04571 1.0457,0 z"/><path id="path27232" fill="#bebebe" fill-opacity="1" stroke="none" stroke-width="1" d="m 6,331 a 1,1 0 1 1 -2,0 1,1 0 1 1 2,0 z" color="#000" display="inline" enable-background="new" overflow="visible" transform="translate(473.0004,-562)" visibility="visible" style="marker:none"/><path id="path27234" fill="#bebebe" fill-opacity="1" stroke="none" stroke-width="1" d="m 6,331 a 1,1 0 1 1 -2,0 1,1 0 1 1 2,0 z" color="#000" display="inline" enable-background="new" overflow="visible" transform="translate(478.98871,-562)" visibility="visible" style="marker:none"/><path id="path27236" fill="#bebebe" fill-opacity="1" stroke="none" stroke-width="1" d="m 478.34375,-231.34375 -0.6875,0.6875 2.46875,2.5 0.125,0.15625 0.21875,0 1.09375,0 0.21875,-0.0312 0.125,-0.125 2.4375,-2.5 -0.6875,-0.6875 -2.34375,2.34375 -0.65625,0 -2.3125,-2.34375 z" baseline-shift="baseline" color="#000" direction="ltr" display="inline" enable-background="new" font-family="Sans" font-size="medium" font-stretch="normal" font-style="normal" font-variant="normal" font-weight="normal" letter-spacing="normal" overflow="visible" text-anchor="start" text-decoration="none" visibility="visible" word-spacing="normal" writing-mode="lr-tb" style="text-indent:0;text-align:start;line-height:normal;text-transform:none;block-progression:tb;marker:none;-inkscape-font-specification:Sans"/></g></svg>