<svg xmlns="http://www.w3.org/2000/svg" xmlns:svg="http://www.w3.org/2000/svg" id="svg7384" width="16" height="16" version="1.1"><metadata id="metadata90"/><title id="title9167">elementary Symbolic Icon Theme</title><defs id="defs7386"><filter id="filter7554" color-interpolation-filters="sRGB"><feBlend id="feBlend7556" in2="BackgroundImage" mode="darken"/></filter><filter id="filter7554-7" color-interpolation-filters="sRGB"><feBlend id="feBlend7556-6" in2="BackgroundImage" mode="darken"/></filter></defs><g id="layer10" display="inline" transform="translate(-493.00021,212)"><path id="rect27244" fill="#bebebe" fill-opacity="1" stroke="none" stroke-width="2" d="m 497.1877,-212 c -1.2016,0 -2.1875,0.98758 -2.1875,2.1875 l 0,11.625 c 0,1.19992 0.9859,2.1875 2.1875,2.1875 l 7.625,0 c 1.2016,0 2.1875,-0.98758 2.1875,-2.1875 l 0,-11.625 c 0,-1.19992 -0.9859,-2.1875 -2.1875,-2.1875 l -7.625,0 z m 0,2 7.625,0 c 0.1238,0 0.1875,0.0566 0.1875,0.1875 l 0,11.625 c 0,0.1309 -0.0637,0.1875 -0.1875,0.1875 l -7.625,0 c -0.1238,0 -0.1875,-0.0566 -0.1875,-0.1875 l 0,-11.625 c 0,-0.1309 0.0637,-0.1875 0.1875,-0.1875 z" baseline-shift="baseline" color="#bebebe" direction="ltr" display="inline" enable-background="accumulate" font-family="Sans" font-size="medium" font-stretch="normal" font-style="normal" font-variant="normal" font-weight="normal" letter-spacing="normal" overflow="visible" text-anchor="start" text-decoration="none" visibility="visible" word-spacing="normal" writing-mode="lr-tb" style="text-indent:0;text-align:start;line-height:normal;text-transform:none;block-progression:tb;marker:none;-inkscape-font-specification:Sans"/><path d="m 498.0002,-209 0,1 1,0 0,-1 z m 2,0 0,1 3,0 1,0 0,-1 z m 3,1 -5,5.9375 3,0.0625 -2,4 5,-6 -3,0 z" style="marker:none" id="rect27278" fill="#bebebe" fill-opacity="1" fill-rule="nonzero" stroke="none" stroke-width="1" color="#000" display="inline" enable-background="new" overflow="visible" visibility="visible"/></g></svg>