<svg xmlns="http://www.w3.org/2000/svg" xmlns:xlink="http://www.w3.org/1999/xlink" width="64" height="64" version="1.1"><defs id="defs5455"><linearGradient id="linearGradient4159"><stop style="stop-color:#2a2c2f" id="stop4161"/><stop style="stop-color:#424649" id="stop4163" offset="1"/></linearGradient><linearGradient id="linearGradient4250" x2="0" y1="536.798" y2="503.798" gradientTransform="matrix(1.0833331 0 0 1.0909092 -36.04753 -47.800024)" gradientUnits="userSpaceOnUse" xlink:href="#linearGradient4159"/><linearGradient id="linearGradient4272" x2="0" y1="547.798" y2="536.798" gradientTransform="matrix(0.50000031 0 0 0.72726714 198.2856 146.40233)" gradientUnits="userSpaceOnUse" xlink:href="#linearGradient4303"/><linearGradient id="linearGradient4303"><stop style="stop-color:#c6cdd1" id="stop4305"/><stop style="stop-color:#e0e5e7" id="stop4307" offset="1"/></linearGradient><linearGradient id="linearGradient4213"><stop style="stop-color:#ee6406" id="stop4215"/><stop style="stop-color:#ffce0d" id="stop4217" offset="1"/></linearGradient><linearGradient id="linearGradient4176"><stop style="stop-opacity:0" id="stop4178"/><stop style="stop-opacity:.452632" id="stop4180" offset="1"/></linearGradient><linearGradient id="linearGradient4391"><stop stop-color="#21c9fb"/><stop offset="1" stop-color="#197cf1"/></linearGradient><linearGradient id="linearGradient4397" x2="0" y1="535.798" y2="505.798" gradientTransform="matrix(1.1818179 0 0 1.2 -74.28562 -103.1598)" gradientUnits="userSpaceOnUse" xlink:href="#linearGradient4391"/><radialGradient id="radialGradient4182" cx="408.571" cy="520.798" r="22" gradientTransform="matrix(1.1818179 0 0 0.8181816 -74.28562 95.69047)" gradientUnits="userSpaceOnUse" xlink:href="#linearGradient4176"/><linearGradient id="linearGradient4219" x1="33" x2="24" y1="21" y2="12" gradientTransform="matrix(1.2857142 0 0 1.2857143 377.71429 494.79785)" gradientUnits="userSpaceOnUse" xlink:href="#linearGradient4213"/><linearGradient id="linearGradient4234" x1="428.571" x2="388.571" gradientTransform="matrix(1.2399993 0 0 1 -98.49683 0.499815)" gradientUnits="userSpaceOnUse" xlink:href="#linearGradient4213"/><linearGradient id="linearGradient4183" x2="0" y1="547.798" y2="536.798" gradientTransform="matrix(0.50000031 0 0 0.72726714 210.2856 146.40233)" gradientUnits="userSpaceOnUse" xlink:href="#linearGradient4303"/></defs><metadata id="metadata5458"/><g id="layer1" transform="matrix(1 0 0 1 -376.57144 -491.79797)"><path style="stroke-opacity:.550265;fill:url(#linearGradient4183);stroke-width:2.8" id="path4181" d="m 411.57143,536.79786 0,5.09077 0,1.45455 0,1.45461 6,0 0,-1.45461 0,-1.45455 0,-5.09077 z"/><path style="stroke-opacity:.550265;fill:url(#linearGradient4272);stroke-width:2.8" id="rect4254" d="m 399.57143,536.79786 0,5.09077 0,1.45455 0,1.45461 6,0 0,-1.45461 0,-1.45455 0,-5.09077 z"/><rect style="stroke-opacity:.550265;fill:url(#linearGradient4250);stroke-width:2.8" id="rect4173" width="64" height="35" x="376.571" y="502.798"/><rect style="stroke-opacity:.550265;fill:url(#linearGradient4397);stroke-width:2.8" id="rect4304" width="48" height="33" x="384.571" y="503.798"/><rect style="stroke-opacity:.550265;fill:url(#radialGradient4182);opacity:.85;stroke-width:2.8" id="rect4174" width="48" height="33" x="384.571" y="503.798"/><rect style="opacity:.85;fill-opacity:.621053;stroke-width:.1" id="rect4184" width="48" height="4.8" x="384.571" y="531.798"/><rect style="opacity:.85;fill-opacity:.621053;stroke-width:.1" id="rect4186" width="48" height="4.808" x="384.571" y="503.99"/><path style="fill:url(#linearGradient4234);stroke-width:.1" id="rect4195" d="m 385.19145,533.79781 c -0.3435,0 -0.62001,0.223 -0.62001,0.5 0,0.277 0.27651,0.5 0.62001,0.5 l 30.37998,0 0,-1 -30.37998,0 z"/><path style="fill:#fff;opacity:.85;fill-opacity:.452632;stroke-width:.1" id="rect4188" d="m 408.57144,512.79785 c -4.98599,0 -9,4.01401 -9,9 0,4.98599 4.01401,9 9,9 4.98599,0 9,-4.01401 9,-9 0,-4.98599 -4.01401,-9 -9,-9 z m 0,1 a 8,8 0 0 1 8,8 8,8 0 0 1 -8,8 8,8 0 0 1 -8,-8 8,8 0 0 1 8,-8 z"/><path style="fill:url(#linearGradient4219);opacity:.85;stroke-width:.1" id="path4197" d="m 408.57144,512.79785 0,1 a 8,8 0 0 1 8,8 l 1,0 c 0,-4.98599 -4.01401,-9 -9,-9 z"/><g id="g4462" transform="matrix(1 0 0 1 -0.000011 -2.00012)"><rect style="opacity:.8;stroke-width:.1" id="rect4190" width="5.909" height="6" x="405.617" y="520.798" rx="2.955" ry="3"/><path style="fill:#fff;fill-rule:evenodd" id="path4221" d="m 410.34414,523.79796 -2.95454,-1.8 0,3.6 z"/></g><path style="fill:#999;stroke-width:.1" id="rect4223" d="m 416.57144,533.79781 0,1 15.38461,0 c 0.34094,0 0.61539,-0.223 0.61539,-0.5 0,-0.277 -0.27445,-0.5 -0.61539,-0.5 l -15.38461,0 z"/><rect style="fill:#fff;stroke-width:.1" id="rect4239" width="3" height="3" x="414.571" y="532.798" rx="1.5"/><rect style="stroke-opacity:.550265;fill:#99a1a7;stroke-width:2.8" id="rect4295" width="28" height="1" x="394.571" y="543.798"/><rect style="fill:#1e2426" id="rect4185" width="4" height="28" x="434.571" y="505.798" rx="2"/><rect style="fill:#1e2426" id="rect4187" width="4" height="28" x="378.571" y="505.798" rx="2"/></g></svg>