<svg xmlns="http://www.w3.org/2000/svg" xmlns:xlink="http://www.w3.org/1999/xlink" width="32" height="32" version="1.1" viewBox="0 0 32 32"><defs><linearGradient id="a" x2="0" y1="532.8" y2="527.8" gradientUnits="userSpaceOnUse"><stop offset="0" stop-color="#ebf1f1"/><stop offset="1" stop-color="#fcfcfc"/></linearGradient><filter id="g" width="1.072" height="1.072" x="-.036" y="-.036" color-interpolation-filters="sRGB"><feGaussianBlur stdDeviation=".45"/></filter><linearGradient id="b" x1="16" x2="16" y1="4" y2="11" gradientUnits="userSpaceOnUse"><stop offset="0" stop-color="#fdfefe"/><stop offset="1" stop-color="#dfe4e6"/></linearGradient><linearGradient id="f" x1="16" x2="16" y1="1" y2="31" gradientUnits="userSpaceOnUse"><stop offset="0" stop-color="#f71252"/><stop offset="1" stop-color="#ff5c39"/></linearGradient><filter id="j" width="1.083" height="1.22" x="-.041" y="-.11" color-interpolation-filters="sRGB"><feGaussianBlur stdDeviation=".275"/></filter><linearGradient id="e" x1="7.5" x2="7.5" y1="12" y2="17" gradientUnits="userSpaceOnUse" xlink:href="#a"/><linearGradient id="d" x1="7.5" x2="7.5" y1="12" y2="17" gradientTransform="translate(17)" gradientUnits="userSpaceOnUse" xlink:href="#a"/><filter id="i" width="1.12" height="1.12" x="-.06" y="-.06" color-interpolation-filters="sRGB"><feGaussianBlur stdDeviation=".125"/></filter><filter id="h" width="1.12" height="1.12" x="-.06" y="-.06" color-interpolation-filters="sRGB"><feGaussianBlur stdDeviation=".125"/></filter><linearGradient id="c" x1="16" x2="16" y1="6" y2="14" gradientUnits="userSpaceOnUse"><stop offset="0" stop-color="#5d5d5d" stop-opacity="0"/><stop offset="1" stop-color="#030303"/></linearGradient></defs><circle cx="16" cy="16" r="15" fill-rule="evenodd" filter="url(#g)" opacity=".25" style="paint-order:fill markers stroke"/><circle cx="16" cy="16" r="15" fill="url(#f)" fill-rule="evenodd" style="paint-order:fill markers stroke"/><g stroke-linecap="square" stroke-width=".1"><path d="m11 4c-1.662 0-3 1.338-3 3v3h2v-3c0-0.55401 0.44598-1 1-1h10c0.55402 0 1 0.44599 1 1v3h2v-3c0-1.662-1.338-3-3-3h-10z" filter="url(#j)" opacity=".25"/><path fill="url(#b)" d="m11 4c-1.662 0-3 1.338-3 3v3h2v-3c0-0.55401 0.44598-1 1-1h10c0.55402 0 1 0.44599 1 1v3h2v-3c0-1.662-1.338-3-3-3h-10z"/></g><path fill-rule="evenodd" d="m7.5 12a2.5 2.5 0 0 0-2.5 2.5 2.5 2.5 0 0 0 2.5 2.5 2.5 2.5 0 0 0 2.5-2.5 2.5 2.5 0 0 0-2.5-2.5zm0 1a1.5 1.5 0 0 1 1.5 1.5 1.5 1.5 0 0 1-1.5 1.5 1.5 1.5 0 0 1-1.5-1.5 1.5 1.5 0 0 1 1.5-1.5z" filter="url(#i)" opacity=".25" style="paint-order:normal"/><path fill="url(#e)" fill-rule="evenodd" d="m7.5 12a2.5 2.5 0 0 0-2.5 2.5 2.5 2.5 0 0 0 2.5 2.5 2.5 2.5 0 0 0 2.5-2.5 2.5 2.5 0 0 0-2.5-2.5zm0 1a1.5 1.5 0 0 1 1.5 1.5 1.5 1.5 0 0 1-1.5 1.5 1.5 1.5 0 0 1-1.5-1.5 1.5 1.5 0 0 1 1.5-1.5z" style="paint-order:normal"/><g><path fill-rule="evenodd" d="m24.5 12a2.5 2.5 0 0 0-2.5 2.5 2.5 2.5 0 0 0 2.5 2.5 2.5 2.5 0 0 0 2.5-2.5 2.5 2.5 0 0 0-2.5-2.5zm0 1a1.5 1.5 0 0 1 1.5 1.5 1.5 1.5 0 0 1-1.5 1.5 1.5 1.5 0 0 1-1.5-1.5 1.5 1.5 0 0 1 1.5-1.5z" filter="url(#h)" opacity=".25" style="paint-order:normal"/><path fill="url(#d)" fill-rule="evenodd" d="m24.5 12a2.5 2.5 0 0 0-2.5 2.5 2.5 2.5 0 0 0 2.5 2.5 2.5 2.5 0 0 0 2.5-2.5 2.5 2.5 0 0 0-2.5-2.5zm0 1a1.5 1.5 0 0 1 1.5 1.5 1.5 1.5 0 0 1-1.5 1.5 1.5 1.5 0 0 1-1.5-1.5 1.5 1.5 0 0 1 1.5-1.5z" style="paint-order:normal"/><path fill="url(#c)" d="m16 1a15 15 0 0 0-13.74 9h27.469a15 15 0 0 0-13.729-9z" opacity=".35" style="paint-order:fill markers stroke"/></g></svg>