<svg xmlns="http://www.w3.org/2000/svg" xmlns:xlink="http://www.w3.org/1999/xlink" width="32" height="32" version="1.1" viewBox="0 0 32 32"><defs><linearGradient id="a" x1="403.44" x2="402.49" y1="544.99" y2="518.34" gradientTransform="matrix(1.0196 0 0 1.0196 -7.835 -10.539)" gradientUnits="userSpaceOnUse"><stop offset="0" stop-color="#d3d3d3"/><stop offset="1" stop-color="#fcf9f9"/></linearGradient><filter id="b" width="1.072" height="1.072" x="-.036" y="-.036" color-interpolation-filters="sRGB"><feGaussianBlur stdDeviation=".428"/></filter></defs><g><g transform="translate(-384.57 -515.8) matrix(1.0509 0 0 1.0509 -20.38 -26.904)"><circle cx="400.58" cy="531.67" r="14.274" filter="url(#b)" opacity=".25"/><circle cx="400.58" cy="531.67" r="14.274" fill="url(#a)"/><g fill-rule="evenodd" stroke-width=".095"><path fill="#48cfad" stroke="#37bc9b" d="m400.45 543.89c4.6442-3.4267 5.2095-7.0387 0.16524-10.906-5.898 4.3069-3.7385 7.6876-0.16524 10.906z" opacity=".85"/><path fill="#ed5565" stroke="#da4453" d="m400.45 519.87c4.6442 3.4267 5.2095 7.0387 0.16524 10.906-5.898-4.3069-3.7385-7.6876-0.16524-10.906z" opacity=".85"/><path fill="#ffce54" stroke="#f6bb42" d="m412.68 531.73c-3.4267 4.6442-7.0387 5.2095-10.906 0.16524 4.3069-5.898 7.6876-3.7385 10.906-0.16524z" opacity=".85"/><path fill="#ac92ec" stroke="#967adc" d="m388.64 531.81c3.4267 4.6441 7.0387 5.2095 10.906 0.16523-4.3069-5.898-7.6876-3.7385-10.906-0.16523z" opacity=".85"/><path fill="#ec87c0" stroke="#d770ad" d="m399.99 531.12c-5.7577 0.39858-8.5286-1.9866-7.1915-8.2004 7.2831-0.54045 7.8284 3.4339 7.1915 8.2004z" opacity=".85"/><path fill="#5d9cec" stroke="#4a89dc" d="m392.66 540.9c5.7577 0.39858 8.5286-1.9866 7.1915-8.2004-7.2831-0.54045-7.8284 3.4339-7.1915 8.2004z" opacity=".85"/><path fill="#fc6e51" stroke="#e9573f" d="m401.41 531.18c5.7577 0.39859 8.5286-1.9866 7.1915-8.2004-7.2831-0.54045-7.8284 3.4339-7.1915 8.2004z" opacity=".85"/><path fill="#a0d468" stroke="#8cc152" d="m408.73 540.92c-5.7577 0.39858-8.5286-1.9866-7.1915-8.2004 7.2831-0.54045 7.8284 3.4339 7.1915 8.2004z" opacity=".85"/></g></g></g></svg>