<svg xmlns="http://www.w3.org/2000/svg" xmlns:xlink="http://www.w3.org/1999/xlink" width="32" height="32" version="1.1" viewBox="0 0 32 32"><defs><linearGradient id="c" x2="0" y1="541.04" y2="538.61" gradientTransform="translate(8e-6 -.007763)" gradientUnits="userSpaceOnUse"><stop offset="0" stop-color="#bd8d48"/><stop offset="1" stop-color="#e8b971"/></linearGradient><linearGradient id="d" x2="0" y1="545.8" y2="517.8" gradientTransform="matrix(1.0714 0 0 1.0714 -28.613 -37.979)" gradientUnits="userSpaceOnUse"><stop offset="0" stop-color="#343b40"/><stop offset="1" stop-color="#555e63"/></linearGradient><linearGradient id="b" x2="0" y1="538.8" y2="522.8" gradientUnits="userSpaceOnUse"><stop offset="0" stop-color="#c6cdd1"/><stop offset="1" stop-color="#e0e5e7"/></linearGradient><linearGradient id="a" x2="0" y1="22" y2="15" gradientUnits="userSpaceOnUse"><stop offset="0" stop-color="#42a603"/><stop offset="1" stop-color="#78da06"/></linearGradient><filter id="g" width="1.072" height="1.072" x="-.036" y="-.036" color-interpolation-filters="sRGB"><feGaussianBlur stdDeviation=".45"/></filter><filter id="f" width="1.077" height="1.067" x="-.039" y="-.034" color-interpolation-filters="sRGB"><feGaussianBlur stdDeviation=".225"/></filter><filter id="e" width="1.039" height="1.54" x="-.019" y="-.27" color-interpolation-filters="sRGB"><feGaussianBlur stdDeviation=".225"/></filter></defs><g transform="translate(-384.57 -515.8)"><circle cx="400.57" cy="531.8" r="15" stroke-width="4" filter="url(#g)" opacity=".25"/><circle cx="400.57" cy="531.8" r="15" fill="url(#d)" stroke-width="4"/><path fill-rule="evenodd" d="m393.57 537.8v1h14v-1l-5-8v-6h1v-1h-6v0.99973h1v6.0003z" filter="url(#f)" opacity=".25"/><path fill="url(#b)" fill-rule="evenodd" d="m393.57 537.8v1h14v-1l-5-8v-6h1v-1h-6v0.99973h1v6.0003z"/><rect width="28" height="2" x="386.57" y="538.79" color="#000" color-rendering="auto" filter="url(#e)" image-rendering="auto" opacity=".25" shape-rendering="auto"/><rect width="28" height="2" x="386.57" y="538.79" fill="url(#c)" color="#000" color-rendering="auto" image-rendering="auto" shape-rendering="auto"/><path fill="url(#a)" fill-rule="evenodd" d="m14 16-3.7 6h5.7 5.7l-3.7-6h-2z" transform="translate(384.57 515.8)"/></g></svg>