<svg xmlns="http://www.w3.org/2000/svg" xmlns:xlink="http://www.w3.org/1999/xlink" width="32" height="32" version="1.1" viewBox="0 0 8.466 8.466"><defs><filter id="c" width="1.072" height="1.072" x="-.036" y="-.036" color-interpolation-filters="sRGB"><feGaussianBlur stdDeviation=".214"/></filter><linearGradient id="a" x1="8.309" x2="8.441" y1="295.74" y2="281.32" gradientUnits="userSpaceOnUse"><stop offset="0" stop-color="#3d71f3"/><stop offset="1" stop-color="#67c7eb"/></linearGradient><filter id="b" width="1.062" height="1.086" x="-.031" y="-.043" color-interpolation-filters="sRGB"><feGaussianBlur stdDeviation=".133"/></filter></defs><g stroke-width="1.8" transform="matrix(.55556 0 0 .55556 -.47037 -156.06)" style="paint-order:stroke markers fill"><circle cx="8.466" cy="288.53" r="7.144" filter="url(#c)" opacity=".25"/><circle cx="8.466" cy="288.53" r="7.144" fill="url(#a)"/><path d="m3.696 285.65c-0.274 0-0.449 0.246-0.334 0.494l2.721 5.891 0.245 0.53c0.113 0.246 0.306 0.488 0.576 0.493 0.27-5e-3 0.463-0.247 0.576-0.493l1.381-2.99 1.092-2.36c0.076-0.166 0.253-0.33 0.436-0.33h1.156c0.021 1e-3 0.041 4e-3 0.06 8e-3 5e-3 0 0.01 4e-3 0.014 6e-3a0.222 0.222 0 0 1 0.14 0.316l-0.864 1.872-0.109 0.234-0.432 0.936-0.109 0.234-0.055 0.12-0.053 0.114c-0.02 0.05-0.041 0.111-0.108 0.11-0.068 1e-3 -0.09-0.066-0.108-0.11l-0.432-0.936-0.109-0.234-0.052-0.113-0.66 1.424 0.785 1.7c0.114 0.246 0.307 0.488 0.576 0.492 0.27-5e-3 0.463-0.246 0.577-0.493l0.244-0.53 2.721-5.89c0.115-0.249-0.06-0.495-0.334-0.495h-3.456c-0.274 0-0.54 0.246-0.654 0.494l-1.585 3.431h2e-3l-0.1 0.214-0.107 0.234-0.108 0.234-0.109 0.234-0.108 0.234c-0.018 0.044-0.04 0.111-0.108 0.11-0.066 1e-3 -0.088-0.06-0.108-0.11l-0.052-0.113-0.056-0.12-0.108-0.235-0.109-0.234-0.432-0.936-0.865-1.872c-0.077-0.166 0.04-0.33 0.223-0.33h1.149c0.182 0 0.36 0.164 0.436 0.33l0.667 1.444 0.661-1.426-0.502-1.09c-0.115-0.247-0.38-0.493-0.655-0.493h-1.237z" filter="url(#b)" opacity=".25"/><path fill="#fff" d="m3.696 285.65c-0.274 0-0.449 0.246-0.334 0.494l2.721 5.891 0.245 0.53c0.113 0.246 0.306 0.488 0.576 0.493 0.27-5e-3 0.463-0.247 0.576-0.493l1.381-2.99 1.092-2.36c0.076-0.166 0.253-0.33 0.436-0.33h1.156c0.021 1e-3 0.041 4e-3 0.06 8e-3 5e-3 0 0.01 4e-3 0.014 6e-3a0.222 0.222 0 0 1 0.14 0.316l-0.864 1.872-0.109 0.234-0.432 0.936-0.109 0.234-0.055 0.12-0.053 0.114c-0.02 0.05-0.041 0.111-0.108 0.11-0.068 1e-3 -0.09-0.066-0.108-0.11l-0.432-0.936-0.109-0.234-0.052-0.113-0.66 1.424 0.785 1.7c0.114 0.246 0.307 0.488 0.576 0.492 0.27-5e-3 0.463-0.246 0.577-0.493l0.244-0.53 2.721-5.89c0.115-0.249-0.06-0.495-0.334-0.495h-3.456c-0.274 0-0.54 0.246-0.654 0.494l-1.585 3.431h2e-3l-0.1 0.214-0.107 0.234-0.108 0.234-0.109 0.234-0.108 0.234c-0.018 0.044-0.04 0.111-0.108 0.11-0.066 1e-3 -0.088-0.06-0.108-0.11l-0.052-0.113-0.056-0.12-0.108-0.235-0.109-0.234-0.432-0.936-0.865-1.872c-0.077-0.166 0.04-0.33 0.223-0.33h1.149c0.182 0 0.36 0.164 0.436 0.33l0.667 1.444 0.661-1.426-0.502-1.09c-0.115-0.247-0.38-0.493-0.655-0.493h-1.237z"/></g></svg>