<svg xmlns="http://www.w3.org/2000/svg" xmlns:svg="http://www.w3.org/2000/svg" xmlns:xlink="http://www.w3.org/1999/xlink" id="svg19" width="32" height="32" version="1.1"><defs id="defs23"><linearGradient id="linearGradient9912" x1="8.301" x2="34.32" y1="-57.734" y2="-57.734" gradientUnits="userSpaceOnUse" xlink:href="#linearGradient4928"/><linearGradient id="linearGradient4928" x1="70.108" x2="115" y1="-77.894" y2="-77.894" gradientTransform="translate(-21.671,-25)" gradientUnits="userSpaceOnUse"><stop id="stop1565" offset="0" stop-color="#19326e"/><stop id="stop1567" offset="1" stop-color="#285abe"/></linearGradient><linearGradient id="linearGradient9920" x1="11.196" x2="31.425" y1="-57.734" y2="-57.734" gradientUnits="userSpaceOnUse" xlink:href="#linearGradient4926"/><linearGradient id="linearGradient4926" x1="18.523" x2="30.427" y1="-23.994" y2="-23.994" gradientTransform="matrix(3.7796,0,0,3.7796,-21.671,-25)" gradientUnits="userSpaceOnUse"><stop id="stop1560" offset="0" stop-color="#1e4b96"/><stop id="stop1562" offset="1" stop-color="#3278d7"/></linearGradient><linearGradient id="linearGradient9928" x1="13.549" x2="29.071" y1="-57.734" y2="-57.734" gradientTransform="matrix(1.0030221,0,0,1.0030221,-0.06440299,0.17448004)" gradientUnits="userSpaceOnUse" xlink:href="#linearGradient4924"/><linearGradient id="linearGradient4924" x1="18.523" x2="30.427" y1="-27.715" y2="-27.715" gradientTransform="matrix(3.7796,0,0,3.7796,-21.671,-25)" gradientUnits="userSpaceOnUse"><stop id="stop1555" offset="0" stop-color="#2369b4"/><stop id="stop1557" offset="1" stop-color="#3296e6"/></linearGradient></defs><metadata id="metadata2"/><g id="system-reboot-1" transform="translate(-6.4053807)"><rect style="opacity:0;fill:#000;fill-opacity:1;fill-rule:evenodd;stroke:none;stroke-width:2;stroke-linecap:round;stroke-linejoin:round;stroke-miterlimit:4;stroke-dasharray:none;stroke-opacity:1;paint-order:fill markers stroke" id="rect1129-7" width="32" height="32" x="-40" y="0" rx="0" ry="0"/><g id="g1376" transform="translate(-1.0005689,-63.999453)"><rect id="rect1370" width="6" height="1" x="70.999" y="-35.999" ry=".5" transform="matrix(0,1,1,0,0,0)" style="opacity:1;fill:#eaeaea;fill-opacity:1;fill-rule:evenodd;stroke:none;stroke-width:1.2247448;stroke-linecap:round;stroke-linejoin:miter;stroke-miterlimit:4;stroke-dasharray:none;stroke-dashoffset:3;stroke-opacity:1;paint-order:stroke fill markers"/><path style="opacity:1;fill:none;fill-opacity:1;fill-rule:evenodd;stroke:#eaeaea;stroke-width:1.00004983;stroke-linecap:round;stroke-linejoin:miter;stroke-miterlimit:4;stroke-dasharray:none;stroke-dashoffset:3;stroke-opacity:1;paint-order:stroke fill markers" id="path1372" d="m -78.767921,29.304807 a 12.499453,12.499453 0 0 1 16.476234,4.281307 12.499453,12.499453 0 0 1 -3.074306,16.743493 12.499453,12.499453 0 0 1 -16.922451,-1.851093 12.499453,12.499453 0 0 1 0.618117,-17.012167" transform="rotate(-45)"/><rect style="opacity:1;fill:#eaeaea;fill-opacity:1;fill-rule:evenodd;stroke:none;stroke-width:1.2247448;stroke-linecap:round;stroke-linejoin:miter;stroke-miterlimit:4;stroke-dasharray:none;stroke-dashoffset:3;stroke-opacity:1;paint-order:stroke fill markers" id="rect1374" width="6" height="1" x="29.999" y="75.999" ry=".5" transform="scale(-1,1)"/></g></g><g id="system-reboot" transform="translate(40)"><rect style="opacity:0;fill:#000;fill-opacity:1;fill-rule:evenodd;stroke:none;stroke-width:2;stroke-linecap:round;stroke-linejoin:round;stroke-miterlimit:4;stroke-dasharray:none;stroke-opacity:1;paint-order:fill markers stroke" id="rect1129-7-6" width="32" height="32" x="-40" y="0" rx="0" ry="0"/><g id="g9933" transform="translate(0.7456768,71.891732)"><path id="path9882" d="m 21.310347,-69.243398 a 11.509583,11.509583 0 0 1 10.898771,7.809949 11.509583,11.509583 0 0 1 -3.892181,12.830801 11.509583,11.509583 0 0 1 -13.400972,0.438703 11.509583,11.509583 0 0 1 -4.723022,-12.548768" transform="rotate(-45)" style="opacity:1;fill:none;fill-opacity:1;fill-rule:evenodd;stroke:url(#linearGradient9912);stroke-width:2.9996829;stroke-linecap:round;stroke-linejoin:miter;stroke-miterlimit:4;stroke-dasharray:none;stroke-dashoffset:3;stroke-opacity:1;paint-order:stroke fill markers"/><path style="opacity:1;fill:none;fill-opacity:1;fill-rule:evenodd;stroke:url(#linearGradient9920);stroke-width:2.5;stroke-linecap:round;stroke-linejoin:miter;stroke-miterlimit:4;stroke-dasharray:none;stroke-dashoffset:3;stroke-opacity:1;paint-order:stroke fill markers" id="circle9902" d="m 21.310347,-66.682372 a 8.9485579,8.9485579 0 0 1 8.473659,6.072138 8.9485579,8.9485579 0 0 1 -3.026122,9.975788 8.9485579,8.9485579 0 0 1 -10.41909,0.341086 8.9485579,8.9485579 0 0 1 -3.672091,-9.756511" transform="rotate(-45)"/><path id="circle9904" d="m 21.310347,-64.620723 a 6.8869085,6.8869085 0 0 1 6.521421,4.673185 6.8869085,6.8869085 0 0 1 -2.328937,7.677476 6.8869085,6.8869085 0 0 1 -8.018646,0.262503 6.8869085,6.8869085 0 0 1 -2.826081,-7.508718" transform="rotate(-45)" style="opacity:1;fill:none;fill-opacity:1;fill-rule:evenodd;stroke:url(#linearGradient9928);stroke-width:2;stroke-linecap:round;stroke-linejoin:miter;stroke-miterlimit:4;stroke-dasharray:none;stroke-dashoffset:3;stroke-opacity:1;paint-order:stroke fill markers"/></g></g></svg>