<svg xmlns="http://www.w3.org/2000/svg" xmlns:svg="http://www.w3.org/2000/svg" xmlns:xlink="http://www.w3.org/1999/xlink" id="svg14" width="32" height="32" version="1.1"><defs id="defs18"><linearGradient id="linearGradient6349" x1="99.392" x2="114.002" y1="16.172" y2="16.172" gradientUnits="userSpaceOnUse" xlink:href="#linearGradient4928"/><linearGradient id="linearGradient4928" x1="70.108" x2="115" y1="-77.894" y2="-77.894" gradientTransform="translate(-21.671,-25)" gradientUnits="userSpaceOnUse"><stop id="stop1565" offset="0" stop-color="#19326e"/><stop id="stop1567" offset="1" stop-color="#285abe"/></linearGradient><linearGradient id="linearGradient6379" x1="82.755" x2="104" y1="19.623" y2="19.623" gradientUnits="userSpaceOnUse" xlink:href="#linearGradient4922"/><linearGradient id="linearGradient4922" x1="70.011" x2="115" y1="-117.64" y2="-117.64" gradientTransform="translate(-21.671,-25)" gradientUnits="userSpaceOnUse"><stop id="stop1550" offset="0" stop-color="#236eb9"/><stop id="stop1552" offset="1" stop-color="#32a5f0"/></linearGradient><linearGradient id="linearGradient6396" x1="82.755" x2="104" y1="19.623" y2="19.623" gradientTransform="translate(0.53360463,-0.53360463)" gradientUnits="userSpaceOnUse" xlink:href="#linearGradient4922"/><linearGradient id="linearGradient6398" x1="82.755" x2="104" y1="19.623" y2="19.623" gradientTransform="translate(1.2407097,-1.2407097)" gradientUnits="userSpaceOnUse" xlink:href="#linearGradient4922"/><linearGradient id="linearGradient876" x1="99.392" x2="114.002" y1="16.172" y2="16.172" gradientUnits="userSpaceOnUse" xlink:href="#linearGradient4928"/><linearGradient id="linearGradient878" x1="99.392" x2="114.002" y1="16.172" y2="16.172" gradientUnits="userSpaceOnUse" xlink:href="#linearGradient4928"/><linearGradient id="linearGradient880" x1="82.755" x2="104" y1="19.623" y2="19.623" gradientUnits="userSpaceOnUse" xlink:href="#linearGradient4922"/></defs><metadata id="metadata2"/><g id="g1181" transform="translate(-120.8175,46)"><path style="opacity:1;fill:#eaeaea;fill-opacity:1;stroke:none;stroke-width:1.01980388;stroke-miterlimit:4;stroke-dasharray:none;stroke-opacity:1" id="rect1124" d="m 3,3 v 1 24 1 H 20 V 28 H 4 V 4 H 20 V 3 H 4 Z m 20.34375,7.318359 -0.707031,0.707032 4.449219,4.449218 H 14 v 1 h 13.136719 l -4.5,4.5 0.707031,0.707032 L 29,16.025391 28.974609,16 29,15.974609 Z" transform="translate(84.000003,-46)"/></g><g id="system-log-out" transform="translate(-83)"><rect id="rect950" width="32" height="32" x="83" y="0" rx="0" ry="0" style="opacity:0;fill:#000;fill-opacity:1;fill-rule:evenodd;stroke:none;stroke-width:2;stroke-linecap:round;stroke-linejoin:round;stroke-miterlimit:4;stroke-dasharray:none;stroke-opacity:1;paint-order:fill markers stroke"/><g id="g6388" transform="translate(-0.00182143,-0.56497007)"><g id="g6341" style="fill:url(#linearGradient6349);fill-opacity:1"><rect style="opacity:1;fill:url(#linearGradient876);fill-opacity:1;stroke:none;stroke-width:.5;stroke-linecap:round;stroke-linejoin:round;stroke-miterlimit:4;stroke-dasharray:none;stroke-opacity:1" id="rect940" width="4" height="19" x="65.761" y="73.631" ry="2" transform="rotate(-45)"/><rect id="rect6335" width="4" height="19" x="88.632" y="50.76" ry="2" transform="matrix(0.70710678,0.70710678,0.70710678,-0.70710678,0,0)" style="opacity:1;fill:url(#linearGradient878);fill-opacity:1;stroke:none;stroke-width:.5;stroke-linecap:round;stroke-linejoin:round;stroke-miterlimit:4;stroke-dasharray:none;stroke-opacity:1"/></g><g id="g6371" style="fill:url(#linearGradient6379);fill-opacity:1"><rect id="rect942" width="3" height="9" x="83.353" y="-61.602" ry="1.5" transform="rotate(45)" style="opacity:1;fill:url(#linearGradient880);fill-opacity:1;stroke:none;stroke-width:.29801974;stroke-linecap:round;stroke-linejoin:round;stroke-miterlimit:4;stroke-dasharray:none;stroke-opacity:1"/><rect style="opacity:1;fill:url(#linearGradient6396);fill-opacity:1;stroke:none;stroke-width:.29801974;stroke-linecap:round;stroke-linejoin:round;stroke-miterlimit:4;stroke-dasharray:none;stroke-opacity:1" id="rect6360" width="3" height="9" x="78.937" y="-57.186" ry="1.5" transform="rotate(45)"/><rect id="rect6364" width="3" height="9" x="74.694" y="-52.943" ry="1.5" transform="rotate(45)" style="opacity:1;fill:url(#linearGradient6398);fill-opacity:1;stroke:none;stroke-width:.29801974;stroke-linecap:round;stroke-linejoin:round;stroke-miterlimit:4;stroke-dasharray:none;stroke-opacity:1"/></g></g></g></svg>