<svg xmlns="http://www.w3.org/2000/svg" xmlns:svg="http://www.w3.org/2000/svg" xmlns:xlink="http://www.w3.org/1999/xlink" id="svg17" width="32" height="32" version="1.1"><defs id="defs21"><linearGradient id="linearGradient9948" x1="8.301" x2="34.32" y1="-57.734" y2="-57.734" gradientTransform="translate(12.532842,40.665312)" gradientUnits="userSpaceOnUse" xlink:href="#linearGradient4928"/><linearGradient id="linearGradient4928" x1="70.108" x2="115" y1="-77.894" y2="-77.894" gradientTransform="translate(-21.671,-25)" gradientUnits="userSpaceOnUse"><stop id="stop1565" offset="0" stop-color="#19326e"/><stop id="stop1567" offset="1" stop-color="#285abe"/></linearGradient><linearGradient id="linearGradient9950" x1="11.196" x2="31.425" y1="-57.734" y2="-57.734" gradientTransform="matrix(0.97120189,0,0,0.97120189,13.14654,39.002687)" gradientUnits="userSpaceOnUse" xlink:href="#linearGradient4926"/><linearGradient id="linearGradient4926" x1="18.523" x2="30.427" y1="-23.994" y2="-23.994" gradientTransform="matrix(3.7796,0,0,3.7796,-21.671,-25)" gradientUnits="userSpaceOnUse"><stop id="stop1560" offset="0" stop-color="#1e4b96"/><stop id="stop1562" offset="1" stop-color="#3278d7"/></linearGradient><linearGradient id="linearGradient9952" x1="13.549" x2="29.071" y1="-57.734" y2="-57.734" gradientTransform="matrix(0.89209638,0,0,0.89209638,14.832304,34.435626)" gradientUnits="userSpaceOnUse" xlink:href="#linearGradient4924"/><linearGradient id="linearGradient4924" x1="18.523" x2="30.427" y1="-27.715" y2="-27.715" gradientTransform="matrix(3.7796,0,0,3.7796,-21.671,-25)" gradientUnits="userSpaceOnUse"><stop id="stop1555" offset="0" stop-color="#2369b4"/><stop id="stop1557" offset="1" stop-color="#3296e6"/></linearGradient><linearGradient id="linearGradient9963" x1="-37" x2="-32" y1="-9" y2="-25" gradientTransform="matrix(0.79999998,0,0,0.6875,39.461495,-31.8125)" gradientUnits="userSpaceOnUse" xlink:href="#linearGradient4922"/><linearGradient id="linearGradient4922" x1="70.011" x2="115" y1="-117.64" y2="-117.64" gradientTransform="translate(-21.671,-25)" gradientUnits="userSpaceOnUse"><stop id="stop1550" offset="0" stop-color="#236eb9"/><stop id="stop1552" offset="1" stop-color="#32a5f0"/></linearGradient></defs><metadata id="metadata2"/><g id="system-shutdown-1" transform="translate(-59.932203)"><rect id="rect1086" width="32" height="32" x="0" y="0" rx="0" ry="0" style="opacity:0;fill:#000;fill-opacity:1;fill-rule:evenodd;stroke:none;stroke-width:2;stroke-linecap:round;stroke-linejoin:round;stroke-miterlimit:4;stroke-dasharray:none;stroke-opacity:1;paint-order:fill markers stroke"/><g id="g1223" transform="translate(-1.9998678,46.500017)"><rect id="rect1207" width="12" height="1" x="-44" y="-18.5" ry=".5" transform="rotate(90)" style="opacity:1;fill:#eaeaea;fill-opacity:1;fill-rule:evenodd;stroke:none;stroke-width:1.73205078;stroke-linecap:round;stroke-linejoin:miter;stroke-miterlimit:4;stroke-dasharray:none;stroke-dashoffset:3;stroke-opacity:1;paint-order:stroke fill markers"/><path style="opacity:1;fill:none;fill-opacity:1;fill-rule:evenodd;stroke:#eaeaea;stroke-width:1.08332598;stroke-linecap:round;stroke-linejoin:miter;stroke-miterlimit:4;stroke-dasharray:none;stroke-dashoffset:3;stroke-opacity:1;paint-order:stroke fill markers" id="path1209" d="M 21.224119,-42.032312 A 12.457548,12.457548 0 0 1 30.35084,-28.373208 12.457548,12.457548 0 0 1 17.999868,-17.541697 12.457548,12.457548 0 0 1 5.6488963,-28.373209 12.457548,12.457548 0 0 1 14.775618,-42.032312"/></g></g><g id="system-shutdown"><rect id="rect1086-6" width="32" height="32" x="0" y="0" rx="0" ry="0" style="opacity:0;fill:#000;fill-opacity:1;fill-rule:evenodd;stroke:none;stroke-width:2;stroke-linecap:round;stroke-linejoin:round;stroke-miterlimit:4;stroke-dasharray:none;stroke-opacity:1;paint-order:fill markers stroke"/><g id="g9972" transform="translate(4.1301028,52)"><path style="opacity:1;fill:none;fill-opacity:1;fill-rule:evenodd;stroke:url(#linearGradient9948);stroke-width:2.9996829;stroke-linecap:round;stroke-linejoin:miter;stroke-miterlimit:4;stroke-dasharray:none;stroke-dashoffset:3;stroke-opacity:1;paint-order:stroke fill markers" id="path9940" d="M 45.352773,-17.068501 A 11.509583,11.509583 0 0 1 38.247716,-6.4350319 11.509583,11.509583 0 0 1 25.704685,-8.9299961 11.509583,11.509583 0 0 1 23.209721,-21.473028 11.509583,11.509583 0 0 1 33.843189,-28.578084" transform="rotate(-45)"/><path id="path9942" d="m 42.534045,-17.068501 a 8.690856,8.690856 0 0 1 -5.365009,8.0293045 8.690856,8.690856 0 0 1 -9.47121,-1.8839405 8.690856,8.690856 0 0 1 -1.883941,-9.47121 8.690856,8.690856 0 0 1 8.029304,-5.365009" transform="rotate(-45)" style="opacity:1;fill:none;fill-opacity:1;fill-rule:evenodd;stroke:url(#linearGradient9950);stroke-width:2.91360569;stroke-linecap:round;stroke-linejoin:miter;stroke-miterlimit:4;stroke-dasharray:none;stroke-dashoffset:3;stroke-opacity:1;paint-order:stroke fill markers"/><path style="opacity:1;fill:none;fill-opacity:1;fill-rule:evenodd;stroke:url(#linearGradient9952);stroke-width:2.66822529;stroke-linecap:round;stroke-linejoin:miter;stroke-miterlimit:4;stroke-dasharray:none;stroke-dashoffset:3;stroke-opacity:1;paint-order:stroke fill markers" id="path9944" d="m 39.968464,-17.068501 a 6.1252747,6.1252747 0 0 1 -3.781234,5.659016 6.1252747,6.1252747 0 0 1 -6.675264,-1.327792 6.1252747,6.1252747 0 0 1 -1.327793,-6.675265 6.1252747,6.1252747 0 0 1 5.659016,-3.781233" transform="rotate(-45)"/><rect id="rect9961" width="4" height="11" x="9.861" y="-49" ry="2" style="opacity:1;fill:url(#linearGradient9963);fill-opacity:1;stroke:none;stroke-width:.38044295;stroke-linecap:round;stroke-linejoin:round;stroke-miterlimit:4;stroke-dasharray:none;stroke-opacity:1"/></g></g></svg>