<svg xmlns="http://www.w3.org/2000/svg" xmlns:xlink="http://www.w3.org/1999/xlink" width="22" height="22" version="1.1" viewBox="0 0 5.821 5.821"><defs><radialGradient id="d" cx="4.062" cy="291.63" r="7.276" gradientTransform="matrix(2.2066 0 0 2.2066 12.283 -619.24)" gradientUnits="userSpaceOnUse"><stop offset="0" stop-color="#ca564d" stop-opacity=".019"/><stop offset="1" stop-color="#f35e4d"/></radialGradient><radialGradient id="f" cx="4.062" cy="291.63" r="7.276" gradientTransform="matrix(2.2066 0 0 2.2066 -5.7145 -623.23)" gradientUnits="userSpaceOnUse"><stop offset="0" stop-color="#ca564d" stop-opacity=".019"/><stop offset="1" stop-color="#fd5c4f"/></radialGradient></defs><rect width="4.762" height="3.704" x=".529" y="1.058" fill="#ef746d" rx=".529" ry=".529" style="paint-order:stroke markers fill"/><path fill="url(#d)" stroke-width="3.779" d="m19.996 12.031a16.055 16.055 0 0 0-11.498 5.9668h9.5c1.1076 0 1.998-0.89238 1.998-2v-3.9668z" transform="scale(.26459)" style="paint-order:stroke markers fill"/><circle cx="4.233" cy="2.116" r=".529" fill="#ffdb8a" style="paint-order:stroke markers fill"/><path fill="url(#f)" stroke-width="3.779" d="m3 7.998a16.055 16.055 0 0 0-1 0.035156v7.9648c0 1.1076 0.89043 2 1.998 2h13.861a16.055 16.055 0 0 0-14.859-10z" transform="scale(.26459)" style="paint-order:stroke markers fill"/></svg>