<svg xmlns="http://www.w3.org/2000/svg" width="16" height="16.001"><defs><style id="current-color-scheme" type="text/css"/></defs><path fill="#dfdfdf" d="M9 .001c-1 0-1 1-1 1v14s0 1 1 1h6c1 0 1-1 1-1v-14s0-1-1-1zm1 2.004h4v11h-4z"/><path fill="#e74c3c" stroke-linecap="round" stroke-linejoin="round" stroke-width="0" d="M2.5.001a.5.5 0 0 0-.5.5v.5L0 1v14.502c0 .277.223.5.5.5l5-.002c.277 0 .5-.223.5-.5V.998L5.5 1H4V.5c0-.277-.223-.5-.5-.5z" color="#bebebe" opacity=".35"/><path fill="#e74c3c" stroke-linecap="round" stroke-linejoin="round" stroke-width="0" d="M0 13.001v2.5c0 .277.223.5.5.5l5-.002a.505.505 0 0 0 .5-.5V13z" color="#bebebe"/></svg>