<svg xmlns="http://www.w3.org/2000/svg" xmlns:svg="http://www.w3.org/2000/svg" xmlns:xlink="http://www.w3.org/1999/xlink" id="svg7" width="16" height="16" version="1.1"><metadata id="metadata11"/><defs id="defs3"><style id="current-color-scheme" type="text/css">.ColorScheme-Text{color:#dfdfdf}</style><style id="current-color-scheme-35" type="text/css">.ColorScheme-Text{color:#dfdfdf}</style><style id="current-color-scheme-3" type="text/css">.ColorScheme-Text{color:#dfdfdf}</style><linearGradient id="linearGradient992" x1="13.152" x2="20.621" y1="9.126" y2="9.126" gradientTransform="matrix(0.85495515,0,0,0.85495515,-2.1299959,2.6174204)" gradientUnits="userSpaceOnUse"><stop id="stop818" offset="0" stop-color="#fafafa"/><stop id="stop820" offset="1" stop-color="#d4d4d4"/></linearGradient><filter id="filter1012" width="1.096" height="1.153" x="-.048" y="-.076" color-interpolation-filters="sRGB"><feGaussianBlur id="feGaussianBlur823" stdDeviation=".188"/></filter><linearGradient id="linearGradient885" x1="5.959" x2="16.556" y1="1.046" y2="11.644" gradientTransform="matrix(0.85494046,0,0,0.85494046,-1.7195744,2.6175126)" gradientUnits="userSpaceOnUse"><stop id="stop826" offset="0" stop-color="#ffcd00"/><stop id="stop828" offset="1" stop-color="#e16405"/></linearGradient><style id="current-color-scheme-1" type="text/css">.ColorScheme-Text{color:#dfdfdf}</style><filter style="color-interpolation-filters:sRGB" id="filter1012-3" width="1.096" height="1.153" x="-.048" y="-.076"><feGaussianBlur id="feGaussianBlur823-6" stdDeviation=".188"/></filter><linearGradient id="linearGradient890" x1="0" x2="16" y1="8" y2="8" gradientUnits="userSpaceOnUse" xlink:href="#linearGradient992"/></defs><path style="fill:url(#linearGradient890);fill-opacity:1" id="path5" d="M 8.0208,0 A 0.99921,1.0001 0 1 0 8.0208,2 C 8.0208,2 8.3062,2.013 8.5633,2.1426 8.8204,2.2721 9.0062,2.331 9.0062,3 9.0062,3.669 8.8204,3.7279 8.5633,3.8574 8.3062,3.987 8.0208,4 8.0208,4 H 1.0133 A 0.99921,1.0001 0 1 0 1.0133,6 H 8.0208 C 8.0208,6 8.7278,6.013 9.4629,5.6426 10.198,5.2721 11.004,4.331 11.004,3 11.004,1.669 10.198,0.72785 9.4629,0.35742 8.7278,-0.01301 8.0208,0 8.0208,0 Z M 13.016,3 A 0.99921,1.0001 0 1 0 13.016,5 C 13.016,5 13.302,5.013 13.559,5.1426 13.816,5.2721 14.002,5.331 14.002,6 14.002,6.669 13.816,6.7279 13.559,6.8574 13.302,6.987 13.016,7 13.016,7 H 5.0234 A 0.99921,1.0001 0 1 0 5.0234,9 H 13.016 C 13.016,9 13.723,9.013 14.458,8.6426 15.193,8.2721 16,7.331 16,6 16,4.669 15.193,3.7279 14.458,3.3574 13.723,2.987 13.016,3 13.016,3 Z M 1.0133,10 A 0.99921,1.0001 0 1 0 1.0133,12 H 8.0208 C 8.0208,12 8.3062,12.013 8.5633,12.143 8.8204,12.272 9.0062,12.331 9.0062,13 9.0062,13.669 8.8204,13.728 8.5633,13.857 8.3062,13.987 8.0208,14 8.0208,14 A 0.99921,1.0001 0 1 0 8.0208,16 C 8.0208,16 8.7278,16.013 9.4629,15.643 10.198,15.272 11.004,14.331 11.004,13 11.004,11.669 10.198,10.728 9.4629,10.357 8.7278,9.987 8.0208,10 8.0208,10 Z" class="ColorScheme-Text"/></svg>