<svg xmlns="http://www.w3.org/2000/svg" xmlns:svg="http://www.w3.org/2000/svg" xmlns:xlink="http://www.w3.org/1999/xlink" id="svg7" width="16" height="16" version="1.1"><metadata id="metadata11"/><defs id="defs3"><style id="current-color-scheme" type="text/css">.ColorScheme-Text{color:#dfdfdf}</style><linearGradient id="linearGradient992" x1="13.152" x2="20.621" y1="9.126" y2="9.126" gradientTransform="matrix(0.85495515,0,0,0.85495515,-2.1299959,2.6174204)" gradientUnits="userSpaceOnUse"><stop id="stop818" offset="0" stop-color="#fafafa"/><stop id="stop820" offset="1" stop-color="#d4d4d4"/></linearGradient><filter style="color-interpolation-filters:sRGB" id="filter1012" width="1.096" height="1.153" x="-.048" y="-.076"><feGaussianBlur id="feGaussianBlur823" stdDeviation=".188"/></filter><linearGradient id="linearGradient906" x1="13.152" x2="20.621" y1="9.126" y2="9.126" gradientTransform="matrix(1.5222658,0,0,1.5222658,-15.780274,-8.0667938)" gradientUnits="userSpaceOnUse" xlink:href="#linearGradient992"/><linearGradient id="linearGradient962" x1="8" x2="8" y1="15.377" y2="8.758" gradientUnits="userSpaceOnUse" xlink:href="#linearGradient992"/></defs><g id="g967"><path id="path5" d="m 7.9999479,9.0215314 c -1.104569,0 -2,0.895431 -2,2.0000006 0,1.104569 0.895431,2 2,2 1.104569,0 2.0000001,-0.895431 2.0000001,-2 0,-1.1045696 -0.8954311,-2.0000006 -2.0000001,-2.0000006 z m -5,2.0000006 c -1.104569,0 -1.9999999,0.895431 -1.9999999,2 0,1.104569 0.8954309,2 1.9999999,2 1.104569,0 2,-0.895431 2,-2 0,-1.104569 -0.895431,-2 -2,-2 z m 10.0000001,0 c -1.104569,0 -2,0.895431 -2,2 0,1.104569 0.895431,2 2,2 1.104569,0 2,-0.895431 2,-2 0,-1.104569 -0.895431,-2 -2,-2 z" class="ColorScheme-Text" style="color:#dfdfdf;fill:url(#linearGradient962);fill-opacity:1"/><path id="path853" d="m 6.0429168,1.6410031 c -1.6042268,-4.292e-4 -2.9051956,1.55234 -2.90625,3.46875 v 0.00195 0.00195 C 1.9346457,5.1137906 0.95997988,6.2772707 0.95893243,7.7132687 0.95817429,9.1507924 1.9333689,10.316653 3.1366668,10.316785 H 5.6132292 C 5.9210273,9.2846499 6.8713732,8.5218625 7.999948,8.5218625 c 1.1119403,0 2.048982,0.7411365 2.371094,1.7500005 1.41229,-0.265972 2.452733,-1.7197766 2.453125,-3.4277349 C 12.824015,4.9269552 11.522782,3.3729958 9.9179168,3.3734249 9.4952375,3.3752611 9.0779827,3.48724 8.6952605,3.7015499 8.2291329,2.4494808 7.1900009,1.6422023 6.0429168,1.6410031 Z" style="opacity:.3;fill-rule:evenodd;stroke-width:1.36411202;filter:url(#filter1012)"/><path id="path855" d="m 7.453073,1.3343625 v 0.00195 C 5.5245265,1.3368715 3.9608734,2.9433524 3.9589324,4.9261593 v 0.00195 0.00195 C 2.5131627,4.9304502 1.3409956,6.1349589 1.3397918,7.6214718 1.3388979,9.1095103 2.5116791,10.3164 3.9589324,10.316785 H 5.6132292 C 5.9210273,9.2846499 6.8713732,8.5218625 7.999948,8.5218625 c 1.1285748,0 2.078921,0.7627874 2.386719,1.7949225 h 1.726562 0.002 c 1.930792,5.52e-4 3.49625,-1.6086338 3.496094,-3.5937507 1.56e-4,-1.9851167 -1.565302,-3.594302 -3.496094,-3.59375 -0.508441,0.00195 -1.010347,0.1179277 -1.470703,0.3398438 C 10.08409,2.17198 8.8335789,1.3354998 7.453073,1.3343625 Z" style="fill:url(#linearGradient906);fill-rule:evenodd;stroke-width:1.52226579"/></g></svg>