<svg xmlns="http://www.w3.org/2000/svg" xmlns:svg="http://www.w3.org/2000/svg" id="svg7" width="16" height="16" version="1.1"><metadata id="metadata11"/><defs id="defs3"><style id="current-color-scheme" type="text/css"/><style id="current-color-scheme-3" type="text/css"/><linearGradient id="linearGradient992" x1="13.152" x2="20.621" y1="9.126" y2="9.126" gradientTransform="matrix(0.85495515,0,0,0.85495515,-2.1299959,2.6174204)" gradientUnits="userSpaceOnUse"><stop id="stop818" offset="0" stop-color="#fafafa"/><stop id="stop820" offset="1" stop-color="#d4d4d4"/></linearGradient><filter id="filter1012" width="1.096" height="1.153" x="-.048" y="-.076" color-interpolation-filters="sRGB"><feGaussianBlur id="feGaussianBlur823" stdDeviation=".188"/></filter><linearGradient id="linearGradient885" x1="5.959" x2="16.556" y1="1.046" y2="11.644" gradientTransform="matrix(0.85494046,0,0,0.85494046,-1.7195742,2.6175128)" gradientUnits="userSpaceOnUse"><stop id="stop826" offset="0" stop-color="#ffcd00"/><stop id="stop828" offset="1" stop-color="#e16405"/></linearGradient></defs><g id="g849" transform="matrix(0.94487931,0,0,0.94487931,1.9590087e-4,-0.34230553)" style="fill:#5e4aa6;stroke-width:.26458001"><g id="g843" transform="translate(-21.834,0.89695)"><circle id="circle835" cx="-330.35" cy="-328.38" r="0"/><circle id="circle837" cx="-312.11" cy="-326.25" r="0"/><circle id="circle839" cx="-306.02" cy="-333.07" r="0"/><circle id="circle841" cx="-308.84" cy="-326.01" r="0"/></g><circle id="circle845" cx="-354.32" cy="-329.38" r="0"/><circle id="circle847" cx="-63.402" cy="5.443" r="0" style="fill-rule:evenodd"/></g><path style="fill:url(#linearGradient885);stroke-width:.02650829" id="path851" d="m 14.785907,7.9998764 c 0,0.8135012 -0.143195,1.5934379 -0.405788,2.3163756 -0.18253,0.502432 -0.422667,0.977454 -0.712953,1.416806 -0.121589,0.184735 -0.252327,0.363136 -0.391093,0.534578 -0.444269,0.548692 -0.972238,1.026527 -1.564883,1.414328 -0.218266,0.14292 -0.445116,0.273666 -0.679976,0.39081 -0.912052,0.456436 -1.9416557,0.713192 -3.0312774,0.713192 -1.0896216,0 -2.1192265,-0.256756 -3.031277,-0.713209 C 4.7337734,13.955587 4.5066497,13.824858 4.2883919,13.681947 3.6881725,13.288913 3.1538859,12.803581 2.7060682,12.245818 2.5670377,12.072983 2.4365652,11.892941 2.3149755,11.706547 2.0324519,11.27447 1.7984205,10.808262 1.6194986,10.315559 1.3569463,9.5929044 1.2140003,8.8132581 1.2140003,8.0000388 c 0,-3.7478026 3.0382021,-6.7860047 6.7860046,-6.7860047 1.8812963,0 3.5835691,0.7655736 4.8128031,2.0019286 0.354244,0.3561768 0.669187,0.7517321 0.937271,1.1793905 0.253439,0.4027367 0.465318,0.8342509 0.630116,1.2882242 0.26262,0.7229207 0.405805,1.5029 0.405805,2.3163759 z"/></svg>