<svg xmlns="http://www.w3.org/2000/svg" xmlns:svg="http://www.w3.org/2000/svg" xmlns:xlink="http://www.w3.org/1999/xlink" id="svg9" width="16" height="16" version="1.1"><metadata id="metadata13"/><defs id="defs3"><style id="current-color-scheme" type="text/css">.ColorScheme-Highlight{color:#4285f4}</style><style id="current-color-scheme-6" type="text/css">.ColorScheme-Highlight{color:#4285f4}</style><linearGradient id="linearGradient992" x1="13.152" x2="20.621" y1="9.126" y2="9.126" gradientTransform="matrix(0.85495515,0,0,0.85495515,-2.1299959,2.6174204)" gradientUnits="userSpaceOnUse"><stop id="stop818" offset="0" stop-color="#fafafa"/><stop id="stop820" offset="1" stop-color="#d4d4d4"/></linearGradient><filter id="filter1012" width="1.096" height="1.153" x="-.048" y="-.076" color-interpolation-filters="sRGB"><feGaussianBlur id="feGaussianBlur823" stdDeviation=".188"/></filter><linearGradient id="linearGradient885" x1="5.959" x2="16.556" y1="1.046" y2="11.644" gradientTransform="matrix(0.85494046,0,0,0.85494046,-24.702624,-7.4199074)" gradientUnits="userSpaceOnUse"><stop id="stop826" offset="0" stop-color="#ffcd00"/><stop id="stop828" offset="1" stop-color="#e16405"/></linearGradient><linearGradient id="linearGradient900" x1="13.152" x2="20.621" y1="9.126" y2="9.126" gradientTransform="matrix(0.85495515,0,0,0.85495515,-2.1299959,2.6174204)" gradientUnits="userSpaceOnUse" xlink:href="#linearGradient992"/><linearGradient id="linearGradient902" x1="13.152" x2="20.621" y1="9.126" y2="9.126" gradientTransform="matrix(1.5222658,0,0,1.5222658,-15.780066,-8.5151245)" gradientUnits="userSpaceOnUse" xlink:href="#linearGradient992"/><linearGradient id="linearGradient929" x1="7.823" x2="7.823" y1="15.356" y2="6.966" gradientUnits="userSpaceOnUse" xlink:href="#linearGradient3490"/><linearGradient id="linearGradient3490" x1="19.843" x2="33.837" y1="-82.284" y2="-72.245" gradientUnits="userSpaceOnUse"><stop id="stop933" offset="0" stop-color="#0c35f9"/><stop id="stop935" offset="1" stop-color="#2acbd7"/></linearGradient><style id="style938" type="text/css"/></defs><g id="g843" transform="matrix(0.94487931,0,0,0.94487931,-43.61335,-9.1897115)" style="fill:#5e4aa6;stroke-width:.26458001"><circle id="circle835" cx="-330.35" cy="-328.38" r="0"/><circle id="circle837" cx="-312.11" cy="-326.25" r="0"/><circle id="circle839" cx="-306.02" cy="-333.07" r="0"/><circle id="circle841" cx="-308.84" cy="-326.01" r="0"/></g><circle id="circle845" cx="-357.772" cy="-321.262" r="0" style="fill:#5e4aa6;stroke-width:.24999619"/><circle style="fill:#5e4aa6;fill-rule:evenodd;stroke-width:.24999619" id="circle847" cx="-82.89" cy="-4.894" r="0"/><g id="g980" transform="translate(-1.0667943e-4,0.09511026)"><path style="color:#4285f4;fill:url(#linearGradient929);fill-opacity:1" id="path7" d="m 10.5,7.2809084 -0.344,0.34 -1.406,1.41 C 8.297,9.4809084 8,10.090908 8,10.780908 c 0,1.37 1.125,2.5 2.5,2.5 1.375,0 2.5,-1.13 2.5,-2.5 0,-0.69 -0.297,-1.2999996 -0.75,-1.7499996 l -1.406,-1.41 z m -5,2 -0.3440001,0.34 L 3.75,11.030908 c -0.453,0.45 -0.75,1.06 -0.75,1.75 0,1.37 1.125,2.5 2.5,2.5 1.375,0 2.5,-1.13 2.5,-2.5 0,-0.69 -0.297,-1.3 -0.75,-1.75 L 5.844,9.6209084 Z" class="ColorScheme-Highlight"/><path style="opacity:.3;fill-rule:evenodd;stroke-width:1.36411202;filter:url(#filter1012)" id="path853" d="m 6.0429688,1.1914062 v 0.00195 c -1.6042268,-4.292e-4 -2.9051956,1.55234 -2.90625,3.46875 v 0.00195 C 1.9340596,4.6641944 0.95912961,5.8288642 0.95898438,7.265625 0.95912961,8.7023858 1.9340596,9.8670556 3.1367188,9.8671875 H 4.203125 L 4.8027344,9.265625 5.1484375,8.9257812 5.5,8.578125 6.1972656,9.265625 6.796875,9.8671875 H 7.7109375 C 7.8491143,9.412006 8.0734098,8.9991823 8.3964844,8.6777344 L 9.8027344,7.265625 10.148438,6.9257812 10.5,6.578125 l 0.697266,0.6875 1.107422,1.1113281 C 12.642892,7.7955433 12.824175,7.1044875 12.824219,6.3964844 12.824067,4.4793115 11.522834,2.9253521 9.9179688,2.9257812 9.4952895,2.9276174 9.0780347,3.0395963 8.6953125,3.2539062 8.2296742,2.0010734 7.1904381,1.1929487 6.0429688,1.1914062 Z"/><path style="fill:url(#linearGradient902);fill-rule:evenodd;stroke-width:1.52226579" id="path855" d="M 7.453281,0.88671875 C 5.5239936,0.88727596 3.9600341,2.4949462 3.959141,4.4785156 v 0.00195 C 2.5126297,4.4808507 1.3401556,5.6865491 1.34,7.1738249 1.3401556,8.6611007 2.5126297,9.8667992 3.959141,9.8671843 h 0.24414 L 4.802891,9.2656218 5.148594,8.925778 5.500156,8.5781218 l 0.697266,0.6875 0.599609,0.6015625 H 7.711094 C 7.84927,9.412006 8.073566,8.9991823 8.396641,8.6777344 l 1.40625,-1.4121094 0.345703,-0.3398438 0.351562,-0.3476562 0.697266,0.6875 1.404296,1.4101562 0.002,0.00195 C 12.881915,8.954528 13.10981,9.289301 13.26778,9.6621062 14.669861,9.1591391 15.609749,7.800193 15.611484,6.2734375 15.610591,4.2890836 14.04544,2.6810886 12.11539,2.6816406 11.60709,2.6829785 11.105191,2.7982887 10.644687,3.0195312 10.083729,1.7231468 8.8333394,0.88751277 7.453281,0.88671875 Z"/></g><g id="g898" transform="matrix(1.7805212,0,0,1.7805212,-39.513143,-13.175497)"><path style="opacity:.3;fill-rule:evenodd;filter:url(#filter1012)" id="path894" d="m 15.187,6.176 a 2.296,2.3606 0 0 1 2.0957,1.4016 2.296,2.3606 0 0 1 0.9664,-0.22286 2.296,2.3606 0 0 1 2.296,2.3606 2.296,2.3606 0 0 1 -2.296,2.3606 2.296,2.3606 0 0 1 -7.47e-4,0 h -5.3574 a 1.721,1.7695 0 0 1 -1.7205,-1.7697 1.721,1.7695 0 0 1 1.7205,-1.7689 2.296,2.3606 0 0 0 0,-7.6e-4 2.296,2.3606 0 0 1 0,-0.001 2.296,2.3606 0 0 1 2.296,-2.3591 z" transform="matrix(0.71074986,0,0,0.82582683,-0.66762934,2.9691404)"/><path style="fill:url(#linearGradient900);fill-rule:evenodd;stroke-width:.85495514" id="path896" d="M 10.919065,7.8976234 A 1.962977,2.0182071 0 0 1 12.710794,9.0959285 1.962977,2.0182071 0 0 1 13.537023,8.9053932 1.962977,2.0182071 0 0 1 15.5,10.9236 a 1.962977,2.0182071 0 0 1 -1.962977,2.018207 1.962977,2.0182071 0 0 1 -6.39e-4,0 H 8.9560476 a 1.4713778,1.5128431 0 0 1 -1.4709503,-1.513014 1.4713778,1.5128431 0 0 1 1.4709503,-1.5123298 1.962977,2.0182071 0 0 0 0,-6.498e-4 1.962977,2.0182071 0 0 1 0,-8.549e-4 1.962977,2.0182071 0 0 1 1.9629774,-2.0169247 z"/></g><style id="style942" type="text/css"/></svg>