<svg xmlns="http://www.w3.org/2000/svg" xmlns:svg="http://www.w3.org/2000/svg" xmlns:xlink="http://www.w3.org/1999/xlink" id="svg7" width="16" height="16" version="1.1"><metadata id="metadata11"/><defs id="defs3"><style id="current-color-scheme" type="text/css">.ColorScheme-Text{color:#dfdfdf}</style><style id="current-color-scheme-35" type="text/css">.ColorScheme-Text{color:#dfdfdf}</style><style id="current-color-scheme-3" type="text/css">.ColorScheme-Text{color:#dfdfdf}</style><linearGradient id="linearGradient992" x1="13.152" x2="20.621" y1="9.126" y2="9.126" gradientTransform="matrix(0.85495515,0,0,0.85495515,-2.1299959,2.6174204)" gradientUnits="userSpaceOnUse"><stop id="stop818" offset="0" stop-color="#fafafa"/><stop id="stop820" offset="1" stop-color="#d4d4d4"/></linearGradient><filter id="filter1012" width="1.096" height="1.153" x="-.048" y="-.076" color-interpolation-filters="sRGB"><feGaussianBlur id="feGaussianBlur823" stdDeviation=".188"/></filter><linearGradient id="linearGradient885" x1="5.959" x2="16.556" y1="1.046" y2="11.644" gradientTransform="matrix(0.85494046,0,0,0.85494046,-1.7195744,2.6175126)" gradientUnits="userSpaceOnUse"><stop id="stop826" offset="0" stop-color="#ffcd00"/><stop id="stop828" offset="1" stop-color="#e16405"/></linearGradient><linearGradient id="linearGradient874" x1="2" x2="14" y1="7.999" y2="7.999" gradientTransform="translate(8.168431e-5,-0.26983108)" gradientUnits="userSpaceOnUse" xlink:href="#linearGradient885"/><style id="current-color-scheme-7" type="text/css">.ColorScheme-Text{color:#dfdfdf}</style><filter id="filter1012-3" width="1.096" height="1.153" x="-.048" y="-.076" color-interpolation-filters="sRGB"><feGaussianBlur id="feGaussianBlur823-6" stdDeviation=".188"/></filter></defs><g style="fill:#5e4aa6;stroke-width:.26458001" id="g843" transform="matrix(0.94487931,0,0,0.94487931,-40.494706,9.3187633)"><circle id="circle835" cx="-330.35" cy="-328.38" r="0"/><circle id="circle837" cx="-312.11" cy="-326.25" r="0"/><circle id="circle839" cx="-306.02" cy="-333.07" r="0"/><circle id="circle841" cx="-308.84" cy="-326.01" r="0"/></g><circle style="fill:#5e4aa6;stroke-width:.24999619" id="circle845" cx="-354.654" cy="-302.753" r="0"/><circle id="circle847" cx="-79.771" cy="13.614" r="0" style="fill:#5e4aa6;fill-rule:evenodd;stroke-width:.24999619"/><g id="g844"><path style="color:#dfdfdf;fill:url(#linearGradient874);fill-opacity:1" id="path5-6" d="m 8.6420817,0.73016896 c -2.723,0.1 -5.232,1.81000004 -6.221,4.57000004 -1.303,3.64 0.516,7.69 4.096,9.01 2.718,1 5.6560003,0.14 7.4830003,-1.91 -1.308,0.43 -2.765,0.45 -4.1570003,-0.06 -3.324,-1.23 -5.029,-4.98 -3.819,-8.36 0.507,-1.41 1.453,-2.51 2.618,-3.25000004 z" class="ColorScheme-Text"/><g id="g850" transform="matrix(1.7805212,0,0,1.7805212,-11.987719,-7.8313675)"><path id="path853" d="m 15.187,6.176 a 2.296,2.3606 0 0 1 2.0957,1.4016 2.296,2.3606 0 0 1 0.9664,-0.22286 2.296,2.3606 0 0 1 2.296,2.3606 2.296,2.3606 0 0 1 -2.296,2.3606 2.296,2.3606 0 0 1 -7.47e-4,0 h -5.3574 a 1.721,1.7695 0 0 1 -1.7205,-1.7697 1.721,1.7695 0 0 1 1.7205,-1.7689 2.296,2.3606 0 0 0 0,-7.6e-4 2.296,2.3606 0 0 1 0,-0.001 2.296,2.3606 0 0 1 2.296,-2.3591 z" transform="matrix(0.71074986,0,0,0.82582683,-0.66762934,2.9691404)" style="opacity:.3;fill-rule:evenodd;filter:url(#filter1012-3)"/><path id="path855" d="M 10.919065,7.8976234 A 1.962977,2.0182071 0 0 1 12.710794,9.0959285 1.962977,2.0182071 0 0 1 13.537023,8.9053932 1.962977,2.0182071 0 0 1 15.5,10.9236 a 1.962977,2.0182071 0 0 1 -1.962977,2.018207 1.962977,2.0182071 0 0 1 -6.39e-4,0 H 8.9560476 a 1.4713778,1.5128431 0 0 1 -1.4709503,-1.513014 1.4713778,1.5128431 0 0 1 1.4709503,-1.5123298 1.962977,2.0182071 0 0 0 0,-6.498e-4 1.962977,2.0182071 0 0 1 0,-8.549e-4 1.962977,2.0182071 0 0 1 1.9629774,-2.0169247 z" style="fill:url(#linearGradient992);fill-rule:evenodd;stroke-width:.85495514"/></g></g></svg>