<svg xmlns="http://www.w3.org/2000/svg" xmlns:svg="http://www.w3.org/2000/svg" xmlns:xlink="http://www.w3.org/1999/xlink" id="svg7" width="16" height="16" version="1.1"><metadata id="metadata11"/><defs id="defs3"><style id="current-color-scheme" type="text/css"/><style id="current-color-scheme-3" type="text/css"/><linearGradient id="linearGradient992" x1="13.152" x2="20.621" y1="9.126" y2="9.126" gradientTransform="matrix(0.85495515,0,0,0.85495515,-2.1299959,2.6174204)" gradientUnits="userSpaceOnUse"><stop id="stop818" offset="0" stop-color="#fafafa"/><stop id="stop820" offset="1" stop-color="#d4d4d4"/></linearGradient><filter id="filter1012" width="1.096" height="1.153" x="-.048" y="-.076" color-interpolation-filters="sRGB"><feGaussianBlur id="feGaussianBlur823" stdDeviation=".188"/></filter><linearGradient id="linearGradient885" x1="5.959" x2="16.556" y1="1.046" y2="11.644" gradientTransform="matrix(0.85494046,0,0,0.85494046,-1.7195744,2.6175126)" gradientUnits="userSpaceOnUse"><stop id="stop826" offset="0" stop-color="#ffcd00"/><stop id="stop828" offset="1" stop-color="#e16405"/></linearGradient><style id="current-color-scheme-1" type="text/css"/><filter style="color-interpolation-filters:sRGB" id="filter1012-3" width="1.096" height="1.153" x="-.048" y="-.076"><feGaussianBlur id="feGaussianBlur823-6" stdDeviation=".188"/></filter><linearGradient id="linearGradient896" x1="13.152" x2="20.621" y1="9.126" y2="9.126" gradientTransform="matrix(1.10014,0,0,1.10014,-7.6266213,0.93467994)" gradientUnits="userSpaceOnUse" xlink:href="#linearGradient992"/><linearGradient id="linearGradient900" x1="13.152" x2="20.621" y1="9.126" y2="9.126" gradientTransform="matrix(0.85495515,0,0,0.85495515,-2.1299959,2.6174204)" gradientUnits="userSpaceOnUse" xlink:href="#linearGradient992"/><filter id="filter1022" width="1.098" height="1.155" x="-.049" y="-.078" style="color-interpolation-filters:sRGB"><feGaussianBlur id="feGaussianBlur1024" stdDeviation=".21"/></filter></defs><g id="g843" transform="matrix(0.94487931,0,0,0.94487931,-42.867588,-8.4439486)" style="fill:#5e4aa6;stroke-width:.26458001"><circle id="circle835" cx="-330.35" cy="-328.38" r="0"/><circle id="circle837" cx="-312.11" cy="-326.25" r="0"/><circle id="circle839" cx="-306.02" cy="-333.07" r="0"/><circle id="circle841" cx="-308.84" cy="-326.01" r="0"/></g><circle id="circle845" cx="-357.027" cy="-320.516" r="0" style="fill:#5e4aa6;stroke-width:.24999619"/><circle style="fill:#5e4aa6;fill-rule:evenodd;stroke-width:.24999619" id="circle847" cx="-82.144" cy="-4.149" r="0"/><g id="g1031"><g id="g850" transform="matrix(1.7805212,0,0,1.7805212,-11.987719,-12.429355)"><path style="opacity:.3;fill-rule:evenodd;filter:url(#filter1012)" id="path853" d="m 15.187,6.176 a 2.296,2.3606 0 0 1 2.0957,1.4016 2.296,2.3606 0 0 1 0.9664,-0.22286 2.296,2.3606 0 0 1 2.296,2.3606 2.296,2.3606 0 0 1 -2.296,2.3606 2.296,2.3606 0 0 1 -7.47e-4,0 h -5.3574 a 1.721,1.7695 0 0 1 -1.7205,-1.7697 1.721,1.7695 0 0 1 1.7205,-1.7689 2.296,2.3606 0 0 0 0,-7.6e-4 2.296,2.3606 0 0 1 0,-0.001 2.296,2.3606 0 0 1 2.296,-2.3591 z" transform="matrix(0.71074986,0,0,0.82582683,-0.66762934,2.9691404)"/><path style="fill:url(#linearGradient900);fill-rule:evenodd;stroke-width:.85495514" id="path855" d="M 10.919065,7.8976234 A 1.962977,2.0182071 0 0 1 12.710794,9.0959285 1.962977,2.0182071 0 0 1 13.537023,8.9053932 1.962977,2.0182071 0 0 1 15.5,10.9236 a 1.962977,2.0182071 0 0 1 -1.962977,2.018207 1.962977,2.0182071 0 0 1 -6.39e-4,0 H 8.9560476 a 1.4713778,1.5128431 0 0 1 -1.4709503,-1.513014 1.4713778,1.5128431 0 0 1 1.4709503,-1.5123298 1.962977,2.0182071 0 0 0 0,-6.498e-4 1.962977,2.0182071 0 0 1 0,-8.549e-4 1.962977,2.0182071 0 0 1 1.9629774,-2.0169247 z"/></g><path id="path934" d="m 9.1646624,7.7291448 a 2.5259215,2.5969906 0 0 1 2.3055626,1.5419563 2.5259215,2.5969906 0 0 1 1.063176,-0.2451772 2.5259215,2.5969906 0 0 1 2.525921,2.5969901 2.5259215,2.5969906 0 0 1 -2.525921,2.59699 2.5259215,2.5969906 0 0 1 -8.23e-4,0 H 6.6386889 a 1.893341,1.9466978 0 0 1 -1.8927909,-1.946918 1.893341,1.9466978 0 0 1 1.8927909,-1.946037 2.5259215,2.5969906 0 0 0 0,-8.36e-4 2.5259215,2.5969906 0 0 1 0,-0.0011 2.5259215,2.5969906 0 0 1 2.525922,-2.5953401 z" transform="matrix(1.0343111,0,0,1.0343111,-0.53399839,-0.50519707)" style="opacity:.3;fill:#000;fill-opacity:1;fill-rule:evenodd;stroke-width:1.10013998;filter:url(#filter1022)"/><path style="fill:url(#linearGradient896);fill-rule:evenodd;stroke-width:1.10013998" id="path855-0" d="m 9.1646624,7.7291448 a 2.5259215,2.5969906 0 0 1 2.3055626,1.5419563 2.5259215,2.5969906 0 0 1 1.063176,-0.2451772 2.5259215,2.5969906 0 0 1 2.525921,2.5969901 2.5259215,2.5969906 0 0 1 -2.525921,2.59699 2.5259215,2.5969906 0 0 1 -8.23e-4,0 H 6.6386889 a 1.893341,1.9466978 0 0 1 -1.8927909,-1.946918 1.893341,1.9466978 0 0 1 1.8927909,-1.946037 2.5259215,2.5969906 0 0 0 0,-8.36e-4 2.5259215,2.5969906 0 0 1 0,-0.0011 2.5259215,2.5969906 0 0 1 2.525922,-2.5953401 z"/></g></svg>