<svg xmlns="http://www.w3.org/2000/svg" xmlns:svg="http://www.w3.org/2000/svg" xmlns:xlink="http://www.w3.org/1999/xlink" id="svg7" width="16" height="16" version="1.1"><metadata id="metadata11"/><defs id="defs3"><style id="current-color-scheme" type="text/css">.ColorScheme-Text{color:#dfdfdf}</style><linearGradient id="linearGradient992" x1="13.152" x2="20.621" y1="9.126" y2="9.126" gradientTransform="matrix(0.85495515,0,0,0.85495515,-2.1299959,2.6174204)" gradientUnits="userSpaceOnUse"><stop id="stop818" offset="0" stop-color="#fafafa"/><stop id="stop820" offset="1" stop-color="#d4d4d4"/></linearGradient><filter style="color-interpolation-filters:sRGB" id="filter1012" width="1.096" height="1.153" x="-.048" y="-.076"><feGaussianBlur id="feGaussianBlur823" stdDeviation=".188"/></filter><linearGradient id="linearGradient906" x1="13.152" x2="20.621" y1="9.126" y2="9.126" gradientTransform="matrix(0.85495515,0,0,0.85495515,-2.1299959,2.6174204)" gradientUnits="userSpaceOnUse" xlink:href="#linearGradient992"/><linearGradient id="linearGradient859" x1="8.241" x2="8.241" y1="15.991" y2="11.618" gradientUnits="userSpaceOnUse" xlink:href="#linearGradient992"/></defs><g id="g865" transform="translate(4.3977845e-7,-0.49385075)"><path id="path5" d="m 3.4822221,11.783461 c -0.183075,0.0092 -0.346465,0.117754 -0.4258,0.283 l -1,2 c -0.298552,0.596362 0.596048,1.044362 0.8946,0.448 l 1,-2 c 0.179242,-0.342979 -0.08232,-0.750828 -0.4688,-0.731 z m 3,0.002 c -0.183075,0.0092 -0.346465,0.117754 -0.4258,0.283 l -1,2 c -0.298781,0.596438 0.595819,1.044438 0.8946,0.448 l 1,-2 c 0.179242,-0.342979 -0.08232,-0.750828 -0.4688,-0.731 z m 4.5214999,0.006 c -0.552285,0 -1,0.447715 -1,1 0,0.552285 0.447715,1 1,1 0.552285,0 1,-0.447715 1,-1 0,-0.552285 -0.447715,-1 -1,-1 z m -1.9999999,2 c -0.552285,0 -1,0.447715 -1,1 0,0.552285 0.447715,1 1,1 0.552285,0 0.9999999,-0.447715 0.9999999,-1 0,-0.552285 -0.4477149,-1 -0.9999999,-1 z m 3.9999999,0 c -0.552285,0 -1,0.447715 -1,1 0,0.552285 0.447715,1 1,1 0.552285,0 1,-0.447715 1,-1 0,-0.552285 -0.447715,-1 -1,-1 z" class="ColorScheme-Text" style="color:#dfdfdf;fill:url(#linearGradient859);fill-opacity:1"/><g id="g850" transform="matrix(1.7805212,0,0,1.7805212,-11.987719,-12.509084)"><path id="path853" d="m 15.187,6.176 a 2.296,2.3606 0 0 1 2.0957,1.4016 2.296,2.3606 0 0 1 0.9664,-0.22286 2.296,2.3606 0 0 1 2.296,2.3606 2.296,2.3606 0 0 1 -2.296,2.3606 2.296,2.3606 0 0 1 -7.47e-4,0 h -5.3574 a 1.721,1.7695 0 0 1 -1.7205,-1.7697 1.721,1.7695 0 0 1 1.7205,-1.7689 2.296,2.3606 0 0 0 0,-7.6e-4 2.296,2.3606 0 0 1 0,-0.001 2.296,2.3606 0 0 1 2.296,-2.3591 z" transform="matrix(0.71074986,0,0,0.82582683,-0.66762934,2.9691404)" style="opacity:.3;fill-rule:evenodd;filter:url(#filter1012)"/><path id="path855" d="M 10.919065,7.8976234 A 1.962977,2.0182071 0 0 1 12.710794,9.0959285 1.962977,2.0182071 0 0 1 13.537023,8.9053932 1.962977,2.0182071 0 0 1 15.5,10.9236 a 1.962977,2.0182071 0 0 1 -1.962977,2.018207 1.962977,2.0182071 0 0 1 -6.39e-4,0 H 8.9560476 a 1.4713778,1.5128431 0 0 1 -1.4709503,-1.513014 1.4713778,1.5128431 0 0 1 1.4709503,-1.5123298 1.962977,2.0182071 0 0 0 0,-6.498e-4 1.962977,2.0182071 0 0 1 0,-8.549e-4 1.962977,2.0182071 0 0 1 1.9629774,-2.0169247 z" style="fill:url(#linearGradient906);fill-rule:evenodd;stroke-width:.85495514"/></g></g></svg>