<svg xmlns="http://www.w3.org/2000/svg" xmlns:xlink="http://www.w3.org/1999/xlink" width="64" height="64" version="1.1" viewBox="0 0 16.933 16.933"><defs><linearGradient id="linearGradient1064" x1="-15.961" x2="-.301" y1="-43.254" y2="-54.196" gradientTransform="matrix(1 0 0 1.1 16.669 62.435)" gradientUnits="userSpaceOnUse"><stop offset="0" stop-color="#3c3c3c"/><stop offset="1" stop-color="#646464"/></linearGradient><linearGradient id="linearGradient1006" x1=".529" x2="16.217" y1="2.778" y2="14.872" gradientTransform="matrix(1,0,0,1.1,16.669,62.435)" gradientUnits="userSpaceOnUse"><stop offset="0" stop-color="#3c3c3c"/><stop offset="1" stop-color="#646464"/></linearGradient><linearGradient id="linearGradient937" x1="-16.14" x2="-1.07" y1="-55.616" y2="-44.835" gradientTransform="matrix(1,0,0,1.1,16.669,62.435)" gradientUnits="userSpaceOnUse"><stop offset="0" stop-color="#3c3c3c"/><stop offset="1" stop-color="#646464"/></linearGradient></defs><metadata/><g fill="#5e4aa6" stroke-width=".265"><circle cx="-330.35" cy="-328.38" r="0"/><circle cx="-312.11" cy="-326.25" r="0"/><circle cx="-306.02" cy="-333.07" r="0"/><circle cx="-308.84" cy="-326.01" r="0"/><circle cx="-328.8" cy="-330.45" r="0"/></g><g fill="#5e4aa6" stroke-width=".265" transform="translate(.000295 -.00033478)"><circle cx="-330.35" cy="-328.38" r="0"/><circle cx="-312.11" cy="-326.25" r="0"/><circle cx="-306.02" cy="-333.07" r="0"/><circle cx="-308.84" cy="-326.01" r="0"/><circle cx="-328.8" cy="-330.45" r="0"/></g><g transform="translate(.000295 -.00033478)"><g fill="url(#linearGradient937)" stroke-width=".661" transform="matrix(1,0,0,1.1,16.669,63.956)"><path fill="url(#linearGradient937)" d="m-8.2026-51.317h-7.9373v-3.6379c0-0.36531 0.29614-0.66144 0.66144-0.66144h5.6223l1.6536 1.3229z"/></g><rect width="15.874" height="10.848" x=".529" y="4.233" fill="url(#linearGradient1006)" ry=".794"/><rect width="14.987" height="9.922" x=".973" y="4.696" fill="#fffffc" ry=".299"/></g><path fill="url(#linearGradient1064)" stroke-width=".694" d="m15.742 4.2329h-7.2759l-1.6536 1.4552h-5.6223c-0.36531 0-0.66144 0.32575-0.66144 0.72759v7.9373c0 0.40184 0.29614 0.72759 0.66144 0.72759h14.552c0.36531 0 0.66145-0.32575 0.66145-0.72759v-9.3926c0-0.40184-0.29614-0.72759-0.66145-0.72759z"/><g fill="#323232"><path d="m6.2176 7.9373v5.5561h2.1166v-5.5561zm0.26458 0.26458h1.5875v5.027h-1.5875z"/><rect width=".529" height=".265" x="7.54" y="8.731"/><rect width=".529" height=".265" x="7.54" y="9.525"/><rect width=".529" height=".265" x="7.54" y="10.319"/><rect width=".529" height=".265" x="7.54" y="11.112"/><rect width=".529" height=".265" x="7.54" y="11.906"/><rect width=".529" height=".265" x="7.54" y="12.7"/><path d="m8.8623 7.9373v3.7041l0.79373 1.852h0.26458l0.79374-1.852v-3.7041zm0.26562 0.26562h1.3227v3.4385l-0.65609 1.5875h0.00528l-0.67299-1.5875z" color="#000" color-rendering="auto" dominant-baseline="auto" image-rendering="auto" shape-rendering="auto" solid-color="#000000" style="font-feature-settings:normal;font-variant-alternates:normal;font-variant-caps:normal;font-variant-ligatures:normal;font-variant-numeric:normal;font-variant-position:normal;isolation:auto;mix-blend-mode:normal;shape-padding:0;text-decoration-color:#000;text-decoration-line:none;text-decoration-style:solid;text-indent:0;text-orientation:mixed;text-transform:none;white-space:normal"/><rect width="1.852" height="2.117" x="8.863" y="8.996"/></g></svg>