<svg xmlns="http://www.w3.org/2000/svg" xmlns:xlink="http://www.w3.org/1999/xlink" width="64" height="64" version="1.1" viewBox="0 0 16.933 16.933"><defs><linearGradient id="linearGradient1064" x1="-15.961" x2="-.301" y1="-43.254" y2="-54.196" gradientTransform="matrix(1 0 0 1.1 16.669 62.435)" gradientUnits="userSpaceOnUse"><stop offset="0" stop-color="#3c3c3c"/><stop offset="1" stop-color="#646464"/></linearGradient><linearGradient id="linearGradient1006" x1=".529" x2="16.217" y1="2.778" y2="14.872" gradientTransform="matrix(1,0,0,1.1,16.669,62.435)" gradientUnits="userSpaceOnUse"><stop offset="0" stop-color="#3c3c3c"/><stop offset="1" stop-color="#646464"/></linearGradient><linearGradient id="linearGradient963" x1="-16.14" x2="-1.07" y1="-55.616" y2="-44.835" gradientTransform="matrix(1,0,0,1.1,16.669,62.435)" gradientUnits="userSpaceOnUse"><stop offset="0" stop-color="#3c3c3c"/><stop offset="1" stop-color="#646464"/></linearGradient></defs><metadata/><g fill="#5e4aa6" stroke-width=".265"><circle cx="-330.35" cy="-328.38" r="0"/><circle cx="-312.11" cy="-326.25" r="0"/><circle cx="-306.02" cy="-333.07" r="0"/><circle cx="-308.84" cy="-326.01" r="0"/><circle cx="-328.8" cy="-330.45" r="0"/><g transform="translate(-1.4001e-4,5e-6)"><circle cx="-330.35" cy="-328.38" r="0"/><circle cx="-312.11" cy="-326.25" r="0"/><circle cx="-306.02" cy="-333.07" r="0"/><circle cx="-308.84" cy="-326.01" r="0"/><circle cx="-328.8" cy="-330.45" r="0"/></g><g transform="translate(.000295 -.00032978)"><circle cx="-330.35" cy="-328.38" r="0"/><circle cx="-312.11" cy="-326.25" r="0"/><circle cx="-306.02" cy="-333.07" r="0"/><circle cx="-308.84" cy="-326.01" r="0"/><circle cx="-328.8" cy="-330.45" r="0"/></g></g><g transform="translate(.000295 -.00032978)"><g fill="url(#linearGradient963)" stroke-width=".661" transform="matrix(1,0,0,1.1,16.669,63.956)"><path fill="url(#linearGradient963)" d="m-8.2026-51.317h-7.9373v-3.6379c0-0.36531 0.29614-0.66144 0.66144-0.66144h5.6223l1.6536 1.3229z"/></g><rect width="15.874" height="10.848" x=".529" y="4.233" fill="url(#linearGradient1006)" ry=".794"/><rect width="14.987" height="9.922" x=".973" y="4.696" fill="#fffffc" ry=".299"/></g><path fill="url(#linearGradient1064)" stroke-width=".694" d="m15.742 4.2329h-7.2759l-1.6536 1.4552h-5.6223c-0.36531 0-0.66144 0.32575-0.66144 0.72759v7.9373c0 0.40184 0.29614 0.72759 0.66144 0.72759h14.552c0.36531 0 0.66145-0.32575 0.66145-0.72759v-9.3926c0-0.40184-0.29614-0.72759-0.66145-0.72759z"/><path fill="#323232" stroke-width=".265" d="m11.245 8.9957c0-0.29315-0.236-0.52916-0.52916-0.52916h-4.4979c-0.29316 0-0.52916 0.23601-0.52916 0.52916v3.4395c0 0.29316 0.236 0.52916 0.52916 0.52916h4.4979c0.29316 0 0.52916-0.236 0.52916-0.52916zm-0.26458 0v3.4395c0 0.14658-0.118 0.26458-0.26458 0.26458h-4.4979c-0.14658 0-0.26458-0.118-0.26458-0.26458v-3.4395c0-0.14658 0.118-0.26458 0.26458-0.26458h4.4979c0.14658 0 0.26458 0.118 0.26458 0.26458z"/><path fill="#323232" stroke-width=".265" d="m10.054 8.9957a0.52916 0.52916 0 0 0-0.52916 0.52916 0.52916 0.52916 0 0 0 0.52916 0.52916 0.52916 0.52916 0 0 0 0.52916-0.52916 0.52916 0.52916 0 0 0-0.52916-0.52916zm0 0.26458a0.26458 0.26458 0 0 1 0.26458 0.26458 0.26458 0.26458 0 0 1-0.26458 0.26458 0.26458 0.26458 0 0 1-0.26458-0.26458 0.26458 0.26458 0 0 1 0.26458-0.26458z"/><g fill="none" stroke="#323232" stroke-linecap="round" stroke-linejoin="round" stroke-width=".265"><path d="m6.0853 11.641 1.0583-1.3229 1.5875 2.1166" transform="translate(.064609)"/><path d="m8.3365 11.377 0.79373-1.0583 1.5875 1.852" transform="translate(.064609)"/></g></svg>