<svg xmlns="http://www.w3.org/2000/svg" xmlns:xlink="http://www.w3.org/1999/xlink" width="64" height="64" version="1.1" viewBox="0 0 16.933 16.933"><defs><style type="text/css"/><linearGradient id="linearGradient1064" x1="-15.961" x2="-.301" y1="-43.254" y2="-54.196" gradientTransform="matrix(1 0 0 1.1 16.669 62.435)" gradientUnits="userSpaceOnUse"><stop offset="0" stop-color="#005ae1"/><stop offset="1" stop-color="#059bff"/></linearGradient><linearGradient id="linearGradient1006" x1=".529" x2="16.217" y1="2.778" y2="14.872" gradientTransform="matrix(1,0,0,1.1,16.669,62.435)" gradientUnits="userSpaceOnUse"><stop offset="0" stop-color="#005ae1"/><stop offset="1" stop-color="#059bff"/></linearGradient><linearGradient id="linearGradient968" x1="-16.14" x2="-1.07" y1="-55.616" y2="-44.835" gradientTransform="matrix(1,0,0,1.1,16.669,62.435)" gradientUnits="userSpaceOnUse"><stop offset="0" stop-color="#005ae1"/><stop offset="1" stop-color="#059bff"/></linearGradient></defs><metadata/><g fill="#5e4aa6" stroke-width=".265"><circle cx="-330.35" cy="-328.38" r="0"/><circle cx="-312.11" cy="-326.25" r="0"/><circle cx="-306.02" cy="-333.07" r="0"/><circle cx="-308.84" cy="-326.01" r="0"/><circle cx="-328.8" cy="-330.45" r="0"/><g transform="translate(-21.76 -10.352)"><circle cx="-330.35" cy="-328.38" r="0"/><circle cx="-312.11" cy="-326.25" r="0"/><circle cx="-306.02" cy="-333.07" r="0"/><circle cx="-308.84" cy="-326.01" r="0"/><circle cx="-328.8" cy="-330.45" r="0"/></g><g transform="translate(.000295 -.00033978)"><circle cx="-330.35" cy="-328.38" r="0"/><circle cx="-312.11" cy="-326.25" r="0"/><circle cx="-306.02" cy="-333.07" r="0"/><circle cx="-308.84" cy="-326.01" r="0"/><circle cx="-328.8" cy="-330.45" r="0"/></g></g><g transform="translate(.000295 -.00033978)"><g fill="url(#linearGradient968)" stroke-width=".661" transform="matrix(1,0,0,1.1,16.669,63.956)"><path fill="url(#linearGradient968)" d="m-8.2026-51.317h-7.9373v-3.6379c0-0.36531 0.29614-0.66144 0.66144-0.66144h5.6223l1.6536 1.3229z"/></g><rect width="15.874" height="10.848" x=".529" y="4.233" fill="url(#linearGradient1006)" ry=".794"/><rect width="14.987" height="9.922" x=".973" y="4.696" fill="#fffffc" ry=".299"/></g><path fill="url(#linearGradient1064)" stroke-width=".694" d="m15.742 4.2329h-7.2759l-1.6536 1.4552h-5.6223c-0.36531 0-0.66144 0.32575-0.66144 0.72759v7.9373c0 0.40184 0.29614 0.72759 0.66144 0.72759h14.552c0.36531 0 0.66145-0.32575 0.66145-0.72759v-9.3926c0-0.40184-0.29614-0.72759-0.66145-0.72759z"/><g fill="#0050d7" transform="translate(-4.8948)"><path d="m44 30c-1.108 0-2 0.892-2 2v17c0 1.108 0.892 2 2 2h13c1.108 0 2-0.892 2-2v-17c0-1.108-0.892-2-2-2h-3a0.5 0.5 0 0 0-0.49805 0.5 0.5 0.5 0 0 0 0.49805 0.5 0.5 0.5 0 0 0 2e-3 0h2.998c0.554 0 1 0.446 1 1v17c0 0.554-0.446 1-1 1h-13c-0.554 0-1-0.446-1-1v-17c0-0.554 0.446-1 1-1h3.998a0.5 0.5 0 0 0 2e-3 0 0.5 0.5 0 0 0 0.49805-0.5 0.5 0.5 0 0 0-0.49805-0.5h-2e-3z" transform="scale(.26458)"/><rect width=".265" height="4.498" x="13.229" y="7.937" ry=".132"/><rect width=".265" height="1.852" x="18.015" y="-2.468" ry=".132" transform="rotate(45)"/><rect width=".265" height="1.852" x="-.881" y="16.427" ry=".132" transform="matrix(-.70711 .70711 .70711 .70711 0 0)"/></g></svg>