<svg xmlns="http://www.w3.org/2000/svg" xmlns:xlink="http://www.w3.org/1999/xlink" width="200mm" height="200mm" version="1.1" viewBox="0 0 200 200"><defs><linearGradient id="a"><stop offset="0" stop-color="#d9dadd"/><stop offset=".254" stop-color="#e3e4e6"/><stop offset=".744" stop-color="#d8dbde"/><stop offset="1" stop-color="#f7f7f8"/></linearGradient><clipPath id="p"><path fill="#fff" d="m45.102 268 3.7755 30.736c-5e-6 2.8428 5.3769 5.1475 12.01 5.1475 6.6332 0 12.011-2.3047 12.011-5.1475l3.7419-30.736c-7.94e-4 2.1771-7.0606 3.9419-15.769 3.9419-8.7084 2e-5 -15.768-1.7648-15.769-3.9419zm31.538 0c0-0.0854-0.01476-0.17017-0.03617-0.25425 0.02299 0.0846 0.03506 0.16942 0.03617 0.25425z" color="#000" opacity=".691"/></clipPath><filter id="k" width="1.169" height="1.375" x="-.084" y="-.187" color-interpolation-filters="sRGB"><feGaussianBlur stdDeviation="1.079"/></filter><clipPath id="n"><path fill="#fff" d="m45.102 268 3.7755 30.736c-5e-6 2.8428 5.3769 5.1475 12.01 5.1475 6.6332 0 12.011-2.3047 12.011-5.1475l3.7419-30.736c-7.94e-4 2.1771-7.0606 3.9419-15.769 3.9419-8.7084 2e-5 -15.768-1.7648-15.769-3.9419zm31.538 0c0-0.0854-0.01476-0.17017-0.03617-0.25425 0.02299 0.0846 0.03506 0.16942 0.03617 0.25425z" color="#000" opacity=".691"/></clipPath><filter id="i" width="1.733" height="2.181" x="-.367" y="-.591" color-interpolation-filters="sRGB"><feGaussianBlur stdDeviation="1.695"/></filter><linearGradient id="f" x1="170.46" x2="289.66" y1="713.63" y2="713.63" gradientTransform="matrix(1.1115 0 0 1.1115 -152.89 -585.89)" gradientUnits="userSpaceOnUse" xlink:href="#a"/><linearGradient id="e" x1="170.46" x2="289.66" y1="704.73" y2="704.73" gradientTransform="matrix(1.1115 0 0 1.1115 -152.89 -585.89)" gradientUnits="userSpaceOnUse"><stop offset="0" stop-color="#fbfbfc"/><stop offset=".254" stop-color="#ccced2"/><stop offset=".744" stop-color="#f3f4f5"/><stop offset="1" stop-color="#d6d6db"/></linearGradient><clipPath id="o"><path fill="#fff" d="m45.102 268 3.7755 30.736c-5e-6 2.8428 5.3769 5.1475 12.01 5.1475 6.6332 0 12.011-2.3047 12.011-5.1475l3.7419-30.736c-7.94e-4 2.1771-7.0606 3.9419-15.769 3.9419-8.7084 2e-5 -15.768-1.7648-15.769-3.9419zm31.538 0c0-0.0854-0.01476-0.17017-0.03617-0.25425 0.02299 0.0846 0.03506 0.16942 0.03617 0.25425z" color="#000" opacity=".691"/></clipPath><filter id="j" width="1.169" height="1.375" x="-.084" y="-.187" color-interpolation-filters="sRGB"><feGaussianBlur stdDeviation="1.079"/></filter><clipPath id="m"><path fill="#fff" d="m45.102 268 3.7755 30.736c-5e-6 2.8428 5.3769 5.1475 12.01 5.1475 6.6332 0 12.011-2.3047 12.011-5.1475l3.7419-30.736c-7.94e-4 2.1771-7.0606 3.9419-15.769 3.9419-8.7084 2e-5 -15.768-1.7648-15.769-3.9419zm31.538 0c0-0.0854-0.01476-0.17017-0.03617-0.25425 0.02299 0.0846 0.03506 0.16942 0.03617 0.25425z" color="#000" opacity=".691"/></clipPath><filter id="h" width="1.733" height="2.181" x="-.367" y="-.591" color-interpolation-filters="sRGB"><feGaussianBlur stdDeviation="1.695"/></filter><clipPath id="l"><g><path fill="url(#d)" d="m170.46 646.3 14.27 116.17c-2e-5 10.744 20.322 19.455 45.393 19.455s45.395-8.7107 45.395-19.455l14.143-116.17c-3e-3 8.2284-26.686 14.899-59.6 14.898-32.914 8e-5 -59.597-6.67-59.6-14.898zm119.2 0c0-0.3229-0.0558-0.64315-0.13672-0.96094 0.0869 0.31986 0.13251 0.64034 0.13672 0.96094z" color="#000" opacity=".915" transform="translate(-3.4018 -18.615) matrix(.26458 0 0 .26458 0 97)"/><path fill="#fff" fill-rule="evenodd" d="m46.505 302.14c7.684-6.0136 8.7531-2.8063 14.767-2.205 6.0136 0.60135 15.903-4.2763 15.903-4.2763l-1.0023 13.631s-28.531 2.0713-29.667-7.1495z" clip-path="url(#o)" filter="url(#j)" opacity=".729" transform="translate(-3.4018 -18.615)"/><path fill="#a4a4a4" fill-rule="evenodd" d="m60.737 305.42c6.7486-6.3476 8.1517-7.4836 10.758-1.6704 2.6059 5.8131-10.758 1.6704-10.758 1.6704z" clip-path="url(#m)" filter="url(#h)" opacity=".483" transform="translate(-3.4018 -18.615)"/></g></clipPath><linearGradient id="d" x1="170.46" x2="289.66" y1="713.63" y2="713.63" gradientUnits="userSpaceOnUse" xlink:href="#a"/><filter id="g" width="1.481" height="1.064" x="-.24" y="-.032" color-interpolation-filters="sRGB"><feGaussianBlur stdDeviation=".506"/></filter><pattern id="b" width="500.757" height="171.651" patternTransform="matrix(.26458 0 0 .26458 36.58 237.81)" patternUnits="userSpaceOnUse"><path fill="#fff" fill-rule="evenodd" d="m46.505 302.14c7.684-6.0136 8.7531-2.8063 14.767-2.205 6.0136 0.60135 15.903-4.2763 15.903-4.2763l-1.0023 13.631s-28.531 2.0713-29.667-7.1495z" clip-path="url(#p)" filter="url(#k)" opacity=".729" transform="matrix(15.878 0 0 15.878 -716.12 -4653.4)"/></pattern><pattern id="c" width="305.319" height="126.844" patternTransform="matrix(.26458 0 0 .26458 85.177 249.67)" patternUnits="userSpaceOnUse"><path fill="#a4a4a4" fill-rule="evenodd" d="m60.737 305.42c6.7486-6.3476 8.1517-7.4836 10.758-1.6704 2.6059 5.8131-10.758 1.6704-10.758 1.6704z" clip-path="url(#n)" filter="url(#i)" opacity=".483" transform="matrix(15.878 0 0 15.878 -899.79 -4698.2)"/></pattern></defs><g transform="translate(0 -97)"><path fill="url(#e)" d="m102.83 115.92c-36.586 0-66.246 7.4154-66.246 16.562l0.11725 0.94871c1.42e-4 6.8e-4 -1.55e-4 1e-3 0 2e-3 1.9736 8.7036 30.821 15.609 66.129 15.609 35.314 9e-5 64.166-6.9076 66.131-15.613l0.11507-0.94653c-5e-5 -9.1466-29.66-16.562-66.246-16.562zm-50.125 147.89c0.17211 0.72627 0.42854 1.4416 0.76417 2.1449-0.33574-0.70321-0.59193-1.4186-0.76417-2.1449zm0.76417 2.147c0.50408 1.0558 1.1875 2.0826 2.0363 3.0762-0.84838-0.99307-1.5323-2.021-2.0363-3.0762zm2.9394 4.0575c0.6386 0.64716 1.3481 1.2777 2.1253 1.8909-0.7767-0.6128-1.4871-1.2441-2.1253-1.8909zm92.981 2e-3c-0.63778 0.64603-1.3473 1.2766-2.1232 1.8887 0.77674-0.61281 1.4849-1.2419 2.1232-1.8887zm-89.64 2.794c0.84239 0.59411 1.75 1.1712 2.718 1.7259-0.96851-0.55508-1.8753-1.1314-2.718-1.7259zm4.216 2.5422c1.5424 0.801 3.2163 1.5532 5.0083 2.2513-1.792-0.69808-3.466-1.4503-5.0083-2.2513zm5.0083 2.2513c1.1947 0.46535 2.4411 0.90699 3.7362 1.3221-1.2951-0.41507-2.5415-0.85671-3.7362-1.3221zm72.861-2.2513c-1.5424 0.801-3.2184 1.5532-5.0105 2.2513 1.7921-0.69804 3.4681-1.4503 5.0105-2.2513zm-5.0105 2.2513c-1.1947 0.46539-2.441 0.90695-3.7362 1.3221 1.2951-0.41507 2.5415-0.85675 3.7362-1.3221z" color="#000" opacity=".542"/><path fill="url(#f)" d="m36.58 132.48 15.861 129.12c-2.2e-5 11.943 22.589 21.625 50.455 21.625 27.866 0 50.457-9.682 50.457-21.625l15.72-129.12c-3e-3 9.146-29.662 16.56-66.246 16.56-36.584 8e-5 -66.243-7.4138-66.246-16.56zm132.49 0c0-0.35891-0.062-0.71487-0.15197-1.0681 0.0966 0.35553 0.14729 0.71175 0.15197 1.0681z" color="#000" opacity=".915"/><rect width="132.49" height="45.416" x="36.58" y="237.81" fill="url(#b)"/><rect width="80.782" height="33.561" x="85.177" y="249.67" fill="url(#c)"/><path fill="#9d9da9" fill-rule="evenodd" d="m44.938 285.23c3.4963-11.623-4.5155-41.02-4.1589-37.78z" clip-path="url(#l)" filter="url(#g)" opacity=".064" transform="matrix(4.201 0 0 4.201 -138.6 -915.19)"/></g></svg>