<svg xmlns="http://www.w3.org/2000/svg" xmlns:xlink="http://www.w3.org/1999/xlink" width="64" height="64" version="1.1" viewBox="0 0 16.933 16.933"><defs><style type="text/css"/><linearGradient id="linearGradient1064" x1="-15.961" x2="-.301" y1="-43.254" y2="-54.196" gradientTransform="matrix(1 0 0 1.1 16.669 62.435)" gradientUnits="userSpaceOnUse"><stop offset="0" stop-color="#005ae1"/><stop offset="1" stop-color="#059bff"/></linearGradient><linearGradient id="linearGradient1006" x1=".529" x2="16.217" y1="2.778" y2="14.872" gradientTransform="matrix(1,0,0,1.1,16.669,62.435)" gradientUnits="userSpaceOnUse"><stop offset="0" stop-color="#005ae1"/><stop offset="1" stop-color="#059bff"/></linearGradient><linearGradient id="linearGradient945" x1="-16.14" x2="-1.07" y1="-55.616" y2="-44.835" gradientTransform="matrix(1,0,0,1.1,16.669,62.435)" gradientUnits="userSpaceOnUse"><stop offset="0" stop-color="#005ae1"/><stop offset="1" stop-color="#059bff"/></linearGradient></defs><metadata/><g fill="#5e4aa6" stroke-width=".265"><circle cx="-330.35" cy="-328.38" r="0"/><circle cx="-312.11" cy="-326.25" r="0"/><circle cx="-306.02" cy="-333.07" r="0"/><circle cx="-308.84" cy="-326.01" r="0"/><circle cx="-328.8" cy="-330.45" r="0"/></g><g fill="#5e4aa6" stroke-width=".265" transform="translate(.000295 -.00033978)"><circle cx="-330.35" cy="-328.38" r="0"/><circle cx="-312.11" cy="-326.25" r="0"/><circle cx="-306.02" cy="-333.07" r="0"/><circle cx="-308.84" cy="-326.01" r="0"/><circle cx="-328.8" cy="-330.45" r="0"/></g><g transform="translate(.000295 -.00033978)"><g fill="url(#linearGradient945)" stroke-width=".661" transform="matrix(1,0,0,1.1,16.669,63.956)"><path fill="url(#linearGradient945)" d="m-8.2026-51.317h-7.9373v-3.6379c0-0.36531 0.29614-0.66144 0.66144-0.66144h5.6223l1.6536 1.3229z"/></g><rect width="15.874" height="10.848" x=".529" y="4.233" fill="url(#linearGradient1006)" ry=".794"/><rect width="14.987" height="9.922" x=".973" y="4.696" fill="#fffffc" ry=".299"/></g><path fill="url(#linearGradient1064)" stroke-width=".694" d="m15.742 4.2329h-7.2759l-1.6536 1.4552h-5.6223c-0.36531 0-0.66144 0.32575-0.66144 0.72759v7.9373c0 0.40184 0.29614 0.72759 0.66144 0.72759h14.552c0.36531 0 0.66145-0.32575 0.66145-0.72759v-9.3926c0-0.40184-0.29614-0.72759-0.66145-0.72759z"/><path fill="#0050d7" stroke-width=".006" d="m10.605 8.0222c-0.06992-0.06919-0.16191-0.09822-0.25181-0.07907l-2.6458 0.54855c-0.14772 0.03089-0.25496 0.181-0.25496 0.35705v3.0936c-0.1309-0.13096-0.30017-0.21065-0.48521-0.21065-0.4132 0-0.74964 0.39535-0.74964 0.88089s0.33644 0.88089 0.74964 0.88089 0.74964-0.39535 0.74964-0.88089v-2.7712l2.7341-0.56708v2.0459c-0.1309-0.13096-0.30017-0.21065-0.48522-0.21065-0.41319 0-0.74964 0.39535-0.74964 0.88089s0.33644 0.88089 0.74964 0.88089 0.74964-0.39535 0.74964-0.88089v-3.6904c0-0.10749-0.03995-0.2088-0.1104-0.27798zm-3.6378 5.16c-0.26758 0-0.48522-0.25574-0.48522-0.57017s0.21764-0.57017 0.48522-0.57017 0.48521 0.25574 0.48521 0.57017-0.21764 0.57017-0.48521 0.57017zm0.74964-3.6564v-0.67704c0-0.02533 0.01525-0.04695 0.03627-0.05127l2.6458-0.54855c0.01787-0.0031 0.02996 0.0056 0.03575 0.01174 0.0058 0.0056 0.01577 0.01853 0.01577 0.03954v0.65912zm2.2489 3.0349c-0.26758 0-0.48521-0.25574-0.48521-0.57017s0.21764-0.57017 0.48521-0.57017 0.48522 0.25574 0.48522 0.57017-0.21764 0.57017-0.48522 0.57017z" p-id="7717"/></svg>