<svg xmlns="http://www.w3.org/2000/svg" width="64" height="64" version="1.1" viewBox="0 0 16.933 16.933"><defs><linearGradient id="linearGradient894" x1=".529" x2="16.404" y1="14.42" y2="2.514" gradientTransform="matrix(1 0 0 1.1111 0 -.94071)" gradientUnits="userSpaceOnUse"><stop offset="0" stop-color="#e1a000"/><stop offset="1" stop-color="#ffc832"/></linearGradient></defs><metadata/><circle cx="-330.35" cy="-328.38" r="0" fill="#5e4aa6" stroke-width=".265"/><circle cx="-312.93" cy="-341.25" r="0" fill="#5e4aa6" stroke-width=".265"/><rect width="15.875" height="13.229" x=".529" y="1.852" fill="url(#linearGradient894)" fill-rule="evenodd" stroke-width="1.054" ry="1.191" style="paint-order:stroke fill markers"/><g fill="#fff"><path fill-rule="evenodd" stroke-width="1.054" d="m1.6014 1.8521c-0.14543 0-0.28356 0.032922-0.40979 0.090719-0.013902 0.00648-0.026708 0.014814-0.040307 0.021819-0.36707 0.18867-0.62217 0.5984-0.62217 1.0789v0.1424h15.875v-0.1424c0-0.65989-0.47785-1.1914-1.0717-1.1914z" opacity=".35" style="paint-order:stroke fill markers"/><rect width="2.646" height=".529" x="7.144" y="2.31" ry=".265" style="paint-order:stroke markers fill"/><rect width="1.058" height=".529" x="2.576" y="2.31" ry=".265" style="paint-order:stroke markers fill"/><rect width=".529" height=".529" x="13.827" y="2.31" ry=".265" style="paint-order:stroke markers fill"/><rect width=".794" height=".529" x="12.769" y="2.31" ry=".265" style="paint-order:stroke markers fill"/><rect width=".529" height=".529" x="11.975" y="2.31" ry=".265" style="paint-order:stroke markers fill"/><path stroke-width=".265" d="m3.9687 14.023c-0.29316 0-0.52916 0.23601-0.52916 0.52916v0.52916h10.054v-0.52916c0-0.29316-0.23601-0.52916-0.52916-0.52916z" opacity=".35" style="paint-order:stroke markers fill"/><rect width="1.323" height="1.323" x="4.498" y="13.233" ry=".132" style="paint-order:stroke markers fill"/><rect width="1.323" height="1.323" x="6.703" y="13.233" ry=".132" style="paint-order:stroke markers fill"/><rect width="1.323" height="1.323" x="8.908" y="13.233" ry=".132" style="paint-order:stroke markers fill"/><rect width="1.323" height="1.323" x="11.112" y="13.233" ry=".132" style="paint-order:stroke markers fill"/></g></svg>