<svg xmlns="http://www.w3.org/2000/svg" width="64" height="64" version="1.1" viewBox="0 0 16.933 16.933"><defs><linearGradient id="linearGradient1064" x1="-15.961" x2="-.301" y1="-43.254" y2="-54.196" gradientTransform="matrix(1 0 0 1.1 16.669 62.435)" gradientUnits="userSpaceOnUse"><stop offset="0" stop-color="#148c64"/><stop offset="1" stop-color="#14d778"/></linearGradient></defs><metadata/><g fill="#5e4aa6" stroke-width=".265"><circle cx="-330.35" cy="-328.38" r="0"/><circle cx="-312.11" cy="-326.25" r="0"/><circle cx="-306.02" cy="-333.07" r="0"/><circle cx="-308.84" cy="-326.01" r="0"/><circle cx="-328.8" cy="-330.45" r="0"/></g><path fill="#148c64" stroke-width=".694" d="m8.4661 7.5073h-7.9373v-4.0017c0-0.40184 0.29614-0.72758 0.66144-0.72758h5.6223l1.6536 1.4552z"/><rect width="15.874" height="10.848" x=".529" y="4.233" fill="#148c64" ry=".794"/><rect width="14.987" height="9.922" x=".973" y="4.696" fill="#fffffc" ry=".299"/><path fill="url(#linearGradient1064)" stroke-width=".694" d="m15.742 4.2332h-7.2759l-1.6536 1.4552h-5.6223c-0.36531 0-0.66144 0.32575-0.66144 0.72759v7.9373c0 0.40184 0.29614 0.72759 0.66144 0.72759h14.552c0.36531 0 0.66145-0.32575 0.66145-0.72759v-9.3926c0-0.40184-0.29614-0.72759-0.66145-0.72759z"/><g><path fill="none" stroke="#146e50" stroke-width=".265" d="m5.8207-5.4239c-0.29315 0-0.52916 0.236-0.52916 0.52916v4.2332c0 0.29315 0.236 0.52916 0.52916 0.52916h2.3812l1.3229-1.3229v-3.4395c0-0.29315-0.236-0.52916-0.52916-0.52916z" transform="translate(1.0583 13.493)"/><path fill="#146e50" d="m8.6861-1.5875c-0.29315 0-0.52916 0.236-0.52916 0.52916v0.79373l1.3229-1.3229z" transform="translate(1.0583 13.493)"/></g><g fill="#146e50" transform="translate(3e-5,13.493)"><rect width="2.646" height=".265" x="7.144" y="-4.762"/><rect width="2.646" height=".265" x="7.144" y="-3.969"/><rect width="2.646" height=".265" x="7.144" y="-3.175"/><rect width="1.587" height=".265" x="7.144" y="-2.381"/></g></svg>