<svg xmlns="http://www.w3.org/2000/svg" xmlns:xlink="http://www.w3.org/1999/xlink" width="200mm" height="200mm" version="1.1" viewBox="0 0 200 200"><defs><pattern id="bo" patternTransform="matrix(.26457 0 0 .26457 37.008 140.23)" xlink:href="#i"/><pattern id="bp" patternTransform="matrix(.26457 0 0 .26457 85.055 151.95)" xlink:href="#g"/><pattern id="f" patternTransform="translate(-4.5558e-6 -1.5878e-5)" xlink:href="#h"/><linearGradient id="b"><stop offset="0" stop-color="#d9dadd"/><stop offset=".254" stop-color="#e3e4e6"/><stop offset=".744" stop-color="#d8dbde"/><stop offset="1" stop-color="#f7f7f8"/></linearGradient><clipPath id="bl"><path fill="#fff" d="m45.102 268 3.7755 30.736c-5e-6 2.8428 5.3769 5.1475 12.01 5.1475 6.6332 0 12.011-2.3047 12.011-5.1475l3.7419-30.736c-7.94e-4 2.1771-7.0606 3.9419-15.769 3.9419-8.7084 2e-5 -15.768-1.7648-15.769-3.9419zm31.538 0c0-0.0854-0.01476-0.17017-0.03617-0.25425 0.02299 0.0846 0.03506 0.16942 0.03617 0.25425z" color="#000" opacity=".691"/></clipPath><filter id="at" width="1.169" height="1.375" x="-.084" y="-.187" color-interpolation-filters="sRGB"><feGaussianBlur stdDeviation="1.079"/></filter><clipPath id="bj"><path fill="#fff" d="m45.102 268 3.7755 30.736c-5e-6 2.8428 5.3769 5.1475 12.01 5.1475 6.6332 0 12.011-2.3047 12.011-5.1475l3.7419-30.736c-7.94e-4 2.1771-7.0606 3.9419-15.769 3.9419-8.7084 2e-5 -15.768-1.7648-15.769-3.9419zm31.538 0c0-0.0854-0.01476-0.17017-0.03617-0.25425 0.02299 0.0846 0.03506 0.16942 0.03617 0.25425z" color="#000" opacity=".691"/></clipPath><filter id="as" width="1.733" height="2.181" x="-.367" y="-.591" color-interpolation-filters="sRGB"><feGaussianBlur stdDeviation="1.695"/></filter><linearGradient id="r" x1="170.46" x2="289.66" y1="713.63" y2="713.63" gradientUnits="userSpaceOnUse" xlink:href="#b"/><linearGradient id="k" x1="-.685" x2="-3.354" y1="217.79" y2="211.6" gradientTransform="matrix(3.7795,0,0,3.7795,82.118,-750.16)" gradientUnits="userSpaceOnUse" xlink:href="#a"/><linearGradient id="a"><stop offset="0" stop-color="#fff"/><stop offset="1" stop-color="#fff" stop-opacity="0"/></linearGradient><filter id="c" width="1.171" height="1.139" x="-.086" y="-.07" color-interpolation-filters="sRGB"><feGaussianBlur stdDeviation=".938"/></filter><filter id="ah" width="1.16" height="1.212" x="-.08" y="-.106" color-interpolation-filters="sRGB"><feGaussianBlur stdDeviation=".204"/></filter><filter id="aj" width="1.16" height="1.212" x="-.08" y="-.106" color-interpolation-filters="sRGB"><feGaussianBlur stdDeviation=".204"/></filter><filter id="ae" width="1.753" height="1.573" x="-.376" y="-.286" color-interpolation-filters="sRGB"><feGaussianBlur stdDeviation=".466"/></filter><filter id="ad" width="1.753" height="1.573" x="-.376" y="-.286" color-interpolation-filters="sRGB"><feGaussianBlur stdDeviation=".466"/></filter><filter id="ai" width="1.16" height="1.212" x="-.08" y="-.106" color-interpolation-filters="sRGB"><feGaussianBlur stdDeviation=".204"/></filter><linearGradient id="l" x1="-.685" x2="-3.354" y1="217.79" y2="211.6" gradientUnits="userSpaceOnUse" xlink:href="#a"/><radialGradient id="e" cx="1.401" cy="209.31" r="1.195" gradientTransform="matrix(1.5723 1.7816 -.76333 .67366 158.91 65.624)" gradientUnits="userSpaceOnUse" xlink:href="#a"/><filter id="aa" width="1.108" height="1.141" x="-.054" y="-.07" color-interpolation-filters="sRGB"><feGaussianBlur stdDeviation=".054"/></filter><filter id="ac" width="1.753" height="1.573" x="-.376" y="-.286" color-interpolation-filters="sRGB"><feGaussianBlur stdDeviation=".466"/></filter><filter id="ag" width="1.16" height="1.212" x="-.08" y="-.106" color-interpolation-filters="sRGB"><feGaussianBlur stdDeviation=".204"/></filter><filter id="ab" width="1.753" height="1.573" x="-.376" y="-.286" color-interpolation-filters="sRGB"><feGaussianBlur stdDeviation=".466"/></filter><filter id="af" width="1.16" height="1.212" x="-.08" y="-.106" color-interpolation-filters="sRGB"><feGaussianBlur stdDeviation=".204"/></filter><filter id="z" width="1.486" height="2.568" x="-.243" y="-.784" color-interpolation-filters="sRGB"><feGaussianBlur stdDeviation=".895"/></filter><filter id="v" width="1.486" height="2.568" x="-.243" y="-.784" color-interpolation-filters="sRGB"><feGaussianBlur stdDeviation=".895"/></filter><filter id="y" width="1.486" height="2.568" x="-.243" y="-.784" color-interpolation-filters="sRGB"><feGaussianBlur stdDeviation=".895"/></filter><filter id="u" width="1.486" height="2.568" x="-.243" y="-.784" color-interpolation-filters="sRGB"><feGaussianBlur stdDeviation=".895"/></filter><filter id="t" width="1.32" height="1.487" x="-.16" y="-.244" color-interpolation-filters="sRGB"><feGaussianBlur stdDeviation=".573"/></filter><filter id="x" width="1.486" height="2.568" x="-.243" y="-.784" color-interpolation-filters="sRGB"><feGaussianBlur stdDeviation=".895"/></filter><filter id="w" width="1.486" height="2.568" x="-.243" y="-.784" color-interpolation-filters="sRGB"><feGaussianBlur stdDeviation=".895"/></filter><clipPath id="ax"><path fill="#b0afad" fill-rule="evenodd" d="m-16.962 206.64c-1.1694-0.69689-2.6576-1.9844-2.6576-3.9333 0-1.1694 0.75595-1.7127 0.75595-1.7127-0.05906 0.61421-0.7087 1.7954 0.12993 2.4805 0.2008 0.3071 0.43703 0.33073 1.1103 0.3071 0.67327-0.0236 0.53153 0.17718 0.53153 0.17718s0.16536-0.74414 0.33073-0.93313c0.16536-0.18899 0.86226-1.7009 0.86226-1.7009s3.3191-1.6891 3.5553-1.7954c0.23624-0.1063 1.193-0.24805 1.193-0.24805s3.39 1.193 3.5553 1.3584c0.16536 0.16536 0.37798 1.2638 0.37798 1.2638l-0.42522 1.6418-3.0829 1.1576 1.571 3.3782-3.3545 0.22443s-3.6616-0.29529-4.453-1.6655z"/></clipPath><clipPath id="az"><path fill="#b0afad" fill-rule="evenodd" d="m-16.962 206.64c-1.1694-0.69689-2.6576-1.9844-2.6576-3.9333 0-1.1694 0.75595-1.7127 0.75595-1.7127-0.05906 0.61421-0.7087 1.7954 0.12993 2.4805 0.2008 0.3071 0.43703 0.33073 1.1103 0.3071 0.67327-0.0236 0.53153 0.17718 0.53153 0.17718s0.16536-0.74414 0.33073-0.93313c0.16536-0.18899 0.86226-1.7009 0.86226-1.7009s3.3191-1.6891 3.5553-1.7954c0.23624-0.1063 1.193-0.24805 1.193-0.24805s3.39 1.193 3.5553 1.3584c0.16536 0.16536 0.37798 1.2638 0.37798 1.2638l-0.42522 1.6418-3.0829 1.1576 1.571 3.3782-3.3545 0.22443s-3.6616-0.29529-4.453-1.6655z"/></clipPath><clipPath id="ay"><path fill="#b0afad" fill-rule="evenodd" d="m-16.962 206.64c-1.1694-0.69689-2.6576-1.9844-2.6576-3.9333 0-1.1694 0.75595-1.7127 0.75595-1.7127-0.05906 0.61421-0.7087 1.7954 0.12993 2.4805 0.2008 0.3071 0.43703 0.33073 1.1103 0.3071 0.67327-0.0236 0.53153 0.17718 0.53153 0.17718s0.16536-0.74414 0.33073-0.93313c0.16536-0.18899 0.86226-1.7009 0.86226-1.7009s3.3191-1.6891 3.5553-1.7954c0.23624-0.1063 1.193-0.24805 1.193-0.24805s3.39 1.193 3.5553 1.3584c0.16536 0.16536 0.37798 1.2638 0.37798 1.2638l-0.42522 1.6418-3.0829 1.1576 1.571 3.3782-3.3545 0.22443s-3.6616-0.29529-4.453-1.6655z"/></clipPath><clipPath id="bh"><path fill="#dedede" fill-rule="evenodd" d="m-14.611 203.49c4.2995 1.6064 4.3704 4.3113 5.3035 4.3113 0.93313 0 0.83863 0.4961 1.3229-0.16536 0.48428-0.66146 1.6064-1.8308 1.7245-2.8939 0.11812-1.0631 1.0276-0.57878 1.0158-0.14174-0.011811 0.43703-0.30711 3.3545-0.2008 3.579s0.25986 0.34254 0.35435-0.43704c0.094494-0.77957 0.11812-1.9844 0.31892-2.1379 0.2008-0.15356 1.4292-0.8977 1.6655-1.7481 0 0 0.03543-0.42523-0.68508-0.67328-0.72052-0.24804 1.7127-2.2915 1.7127-2.2915s3.4845 1.6064 4.3704 2.5277c0 0-0.33707 1.2262 0.08054 1.2262s0.60136 1.0858-0.31738 0.86862-1.6203-0.61806-2.1883 0.0167-0.81851 1.2361-1.1192 1.353-0.70158 0.31738-0.68488-0.53454-0.11693 0.70158-0.3675 0.66817c-0.25056-0.0334-0.15034 0.40091-1.6871 0.45102 0 0 0.90204 0.3508 0.96885 0.88534 0.06682 0.53454 0.11693 0.55124 0.11693 0.55124s1.921 0.16705 2.0045-0.3842c0.08352-0.55124 0.55124-1.3029 0.7517-1.5535 0.20045-0.25057 1.1025-1.2862 1.9544-1.1693 0 0-1.5535 0.98555-2.1716 2.3553-0.61806 1.3698 4.3932 1.0023 4.3932 1.0023s2.6727-0.70158 2.9734-1.6537 0.3675-4.6271-0.21716-5.2285c-0.89971-0.75589-2.0809-1.4646-3.5219-0.54328-1.441 0.92131-0.25986 1.3702-2.2206-0.35435-1.9608-1.7245-3.7561-2.5041-3.7561-2.5041s-2.2915 3.0947-2.3387 2.764c-0.047247-0.33073-0.56696-2.0552-0.82682-0.77957 0 0-0.75595-0.28348-0.68508 0.37797 0.070871 0.66146-1.0158-0.7087-1.0158-0.7087s0.094494 1.8899-0.37798 2.1261c0 0 1.9844-0.51971 1.252 0.54335-0.73233 1.063-1.5592 1.1339-2.8348 1.2048-1.2757 0.0709-2.1025-0.66145-2.7403-0.85044s-1.1576-0.75595-2.3269-0.0591z"/></clipPath><filter id="aq" width="1.346" height="1.243" x="-.173" y="-.121" color-interpolation-filters="sRGB"><feGaussianBlur stdDeviation=".184"/></filter><clipPath id="bg"><path fill="#dedede" fill-rule="evenodd" d="m-14.611 203.49c4.2995 1.6064 4.3704 4.3113 5.3035 4.3113 0.93313 0 0.83863 0.4961 1.3229-0.16536 0.48428-0.66146 1.6064-1.8308 1.7245-2.8939 0.11812-1.0631 1.0276-0.57878 1.0158-0.14174-0.011811 0.43703-0.30711 3.3545-0.2008 3.579s0.25986 0.34254 0.35435-0.43704c0.094494-0.77957 0.11812-1.9844 0.31892-2.1379 0.2008-0.15356 1.4292-0.8977 1.6655-1.7481 0 0 0.03543-0.42523-0.68508-0.67328-0.72052-0.24804 1.7127-2.2915 1.7127-2.2915s3.4845 1.6064 4.3704 2.5277c0 0-0.33707 1.2262 0.08054 1.2262s0.60136 1.0858-0.31738 0.86862-1.6203-0.61806-2.1883 0.0167-0.81851 1.2361-1.1192 1.353-0.70158 0.31738-0.68488-0.53454-0.11693 0.70158-0.3675 0.66817c-0.25056-0.0334-0.15034 0.40091-1.6871 0.45102 0 0 0.90204 0.3508 0.96885 0.88534 0.06682 0.53454 0.11693 0.55124 0.11693 0.55124s1.921 0.16705 2.0045-0.3842c0.08352-0.55124 0.55124-1.3029 0.7517-1.5535 0.20045-0.25057 1.1025-1.2862 1.9544-1.1693 0 0-1.5535 0.98555-2.1716 2.3553-0.61806 1.3698 4.3932 1.0023 4.3932 1.0023s2.6727-0.70158 2.9734-1.6537 0.3675-4.6271-0.21716-5.2285c-0.89971-0.75589-2.0809-1.4646-3.5219-0.54328-1.441 0.92131-0.25986 1.3702-2.2206-0.35435-1.9608-1.7245-3.7561-2.5041-3.7561-2.5041s-2.2915 3.0947-2.3387 2.764c-0.047247-0.33073-0.56696-2.0552-0.82682-0.77957 0 0-0.75595-0.28348-0.68508 0.37797 0.070871 0.66146-1.0158-0.7087-1.0158-0.7087s0.094494 1.8899-0.37798 2.1261c0 0 1.9844-0.51971 1.252 0.54335-0.73233 1.063-1.5592 1.1339-2.8348 1.2048-1.2757 0.0709-2.1025-0.66145-2.7403-0.85044s-1.1576-0.75595-2.3269-0.0591z"/></clipPath><filter id="ap" width="1.108" height="1.066" x="-.054" y="-.033" color-interpolation-filters="sRGB"><feGaussianBlur stdDeviation=".097"/></filter><clipPath id="bf"><path fill="#dedede" fill-rule="evenodd" d="m-14.611 203.49c4.2995 1.6064 4.3704 4.3113 5.3035 4.3113 0.93313 0 0.83863 0.4961 1.3229-0.16536 0.48428-0.66146 1.6064-1.8308 1.7245-2.8939 0.11812-1.0631 1.0276-0.57878 1.0158-0.14174-0.011811 0.43703-0.30711 3.3545-0.2008 3.579s0.25986 0.34254 0.35435-0.43704c0.094494-0.77957 0.11812-1.9844 0.31892-2.1379 0.2008-0.15356 1.4292-0.8977 1.6655-1.7481 0 0 0.03543-0.42523-0.68508-0.67328-0.72052-0.24804 1.7127-2.2915 1.7127-2.2915s3.4845 1.6064 4.3704 2.5277c0 0-0.33707 1.2262 0.08054 1.2262s0.60136 1.0858-0.31738 0.86862-1.6203-0.61806-2.1883 0.0167-0.81851 1.2361-1.1192 1.353-0.70158 0.31738-0.68488-0.53454-0.11693 0.70158-0.3675 0.66817c-0.25056-0.0334-0.15034 0.40091-1.6871 0.45102 0 0 0.90204 0.3508 0.96885 0.88534 0.06682 0.53454 0.11693 0.55124 0.11693 0.55124s1.921 0.16705 2.0045-0.3842c0.08352-0.55124 0.55124-1.3029 0.7517-1.5535 0.20045-0.25057 1.1025-1.2862 1.9544-1.1693 0 0-1.5535 0.98555-2.1716 2.3553-0.61806 1.3698 4.3932 1.0023 4.3932 1.0023s2.6727-0.70158 2.9734-1.6537 0.3675-4.6271-0.21716-5.2285c-0.89971-0.75589-2.0809-1.4646-3.5219-0.54328-1.441 0.92131-0.25986 1.3702-2.2206-0.35435-1.9608-1.7245-3.7561-2.5041-3.7561-2.5041s-2.2915 3.0947-2.3387 2.764c-0.047247-0.33073-0.56696-2.0552-0.82682-0.77957 0 0-0.75595-0.28348-0.68508 0.37797 0.070871 0.66146-1.0158-0.7087-1.0158-0.7087s0.094494 1.8899-0.37798 2.1261c0 0 1.9844-0.51971 1.252 0.54335-0.73233 1.063-1.5592 1.1339-2.8348 1.2048-1.2757 0.0709-2.1025-0.66145-2.7403-0.85044s-1.1576-0.75595-2.3269-0.0591z"/></clipPath><filter id="ao" width="1.43" height="1.351" x="-.215" y="-.175" color-interpolation-filters="sRGB"><feGaussianBlur stdDeviation=".138"/></filter><clipPath id="be"><path fill="#dedede" fill-rule="evenodd" d="m-14.611 203.49c4.2995 1.6064 4.3704 4.3113 5.3035 4.3113 0.93313 0 0.83863 0.4961 1.3229-0.16536 0.48428-0.66146 1.6064-1.8308 1.7245-2.8939 0.11812-1.0631 1.0276-0.57878 1.0158-0.14174-0.011811 0.43703-0.30711 3.3545-0.2008 3.579s0.25986 0.34254 0.35435-0.43704c0.094494-0.77957 0.11812-1.9844 0.31892-2.1379 0.2008-0.15356 1.4292-0.8977 1.6655-1.7481 0 0 0.03543-0.42523-0.68508-0.67328-0.72052-0.24804 1.7127-2.2915 1.7127-2.2915s3.4845 1.6064 4.3704 2.5277c0 0-0.33707 1.2262 0.08054 1.2262s0.60136 1.0858-0.31738 0.86862-1.6203-0.61806-2.1883 0.0167-0.81851 1.2361-1.1192 1.353-0.70158 0.31738-0.68488-0.53454-0.11693 0.70158-0.3675 0.66817c-0.25056-0.0334-0.15034 0.40091-1.6871 0.45102 0 0 0.90204 0.3508 0.96885 0.88534 0.06682 0.53454 0.11693 0.55124 0.11693 0.55124s1.921 0.16705 2.0045-0.3842c0.08352-0.55124 0.55124-1.3029 0.7517-1.5535 0.20045-0.25057 1.1025-1.2862 1.9544-1.1693 0 0-1.5535 0.98555-2.1716 2.3553-0.61806 1.3698 4.3932 1.0023 4.3932 1.0023s2.6727-0.70158 2.9734-1.6537 0.3675-4.6271-0.21716-5.2285c-0.89971-0.75589-2.0809-1.4646-3.5219-0.54328-1.441 0.92131-0.25986 1.3702-2.2206-0.35435-1.9608-1.7245-3.7561-2.5041-3.7561-2.5041s-2.2915 3.0947-2.3387 2.764c-0.047247-0.33073-0.56696-2.0552-0.82682-0.77957 0 0-0.75595-0.28348-0.68508 0.37797 0.070871 0.66146-1.0158-0.7087-1.0158-0.7087s0.094494 1.8899-0.37798 2.1261c0 0 1.9844-0.51971 1.252 0.54335-0.73233 1.063-1.5592 1.1339-2.8348 1.2048-1.2757 0.0709-2.1025-0.66145-2.7403-0.85044s-1.1576-0.75595-2.3269-0.0591z"/></clipPath><filter id="an" width="1.086" height="1.165" x="-.043" y="-.082" color-interpolation-filters="sRGB"><feGaussianBlur stdDeviation=".17"/></filter><clipPath id="bd"><path fill="#dedede" fill-rule="evenodd" d="m-14.611 203.49c4.2995 1.6064 4.3704 4.3113 5.3035 4.3113 0.93313 0 0.83863 0.4961 1.3229-0.16536 0.48428-0.66146 1.6064-1.8308 1.7245-2.8939 0.11812-1.0631 1.0276-0.57878 1.0158-0.14174-0.011811 0.43703-0.30711 3.3545-0.2008 3.579s0.25986 0.34254 0.35435-0.43704c0.094494-0.77957 0.11812-1.9844 0.31892-2.1379 0.2008-0.15356 1.4292-0.8977 1.6655-1.7481 0 0 0.03543-0.42523-0.68508-0.67328-0.72052-0.24804 1.7127-2.2915 1.7127-2.2915s3.4845 1.6064 4.3704 2.5277c0 0-0.33707 1.2262 0.08054 1.2262s0.60136 1.0858-0.31738 0.86862-1.6203-0.61806-2.1883 0.0167-0.81851 1.2361-1.1192 1.353-0.70158 0.31738-0.68488-0.53454-0.11693 0.70158-0.3675 0.66817c-0.25056-0.0334-0.15034 0.40091-1.6871 0.45102 0 0 0.90204 0.3508 0.96885 0.88534 0.06682 0.53454 0.11693 0.55124 0.11693 0.55124s1.921 0.16705 2.0045-0.3842c0.08352-0.55124 0.55124-1.3029 0.7517-1.5535 0.20045-0.25057 1.1025-1.2862 1.9544-1.1693 0 0-1.5535 0.98555-2.1716 2.3553-0.61806 1.3698 4.3932 1.0023 4.3932 1.0023s2.6727-0.70158 2.9734-1.6537 0.3675-4.6271-0.21716-5.2285c-0.89971-0.75589-2.0809-1.4646-3.5219-0.54328-1.441 0.92131-0.25986 1.3702-2.2206-0.35435-1.9608-1.7245-3.7561-2.5041-3.7561-2.5041s-2.2915 3.0947-2.3387 2.764c-0.047247-0.33073-0.56696-2.0552-0.82682-0.77957 0 0-0.75595-0.28348-0.68508 0.37797 0.070871 0.66146-1.0158-0.7087-1.0158-0.7087s0.094494 1.8899-0.37798 2.1261c0 0 1.9844-0.51971 1.252 0.54335-0.73233 1.063-1.5592 1.1339-2.8348 1.2048-1.2757 0.0709-2.1025-0.66145-2.7403-0.85044s-1.1576-0.75595-2.3269-0.0591z"/></clipPath><filter id="am" width="1.153" height="1.152" x="-.076" y="-.076" color-interpolation-filters="sRGB"><feGaussianBlur stdDeviation=".229"/></filter><clipPath id="bc"><path fill="#dedede" fill-rule="evenodd" d="m-55.223 402.47c16.25 6.0714 16.518 16.295 20.045 16.295 3.5268 0 3.1696 1.875 5-0.62498 1.8304-2.5 6.0714-6.9196 6.5179-10.938 0.44643-4.0179 3.8839-2.1875 3.8393-0.53571-0.04464 1.6518-1.1607 12.679-0.75893 13.527s0.98214 1.2946 1.3393-1.6518c0.35714-2.9464 0.44643-7.5 1.2054-8.0803 0.75893-0.58039 5.4018-3.3929 6.2946-6.6072 0 0 0.13391-1.6072-2.5893-2.5447-2.7232-0.93747 6.4732-8.6607 6.4732-8.6607s13.17 6.0714 16.518 9.5536c0 0-1.274 4.6345 0.3044 4.6345s2.2728 4.1037-1.1996 3.283c-3.4724-0.82076-6.124-2.336-8.2706 0.0631s-3.0936 4.672-4.23 5.1139-2.6517 1.1996-2.5885-2.0203c0.063118-3.2198-0.44194 2.6516-1.389 2.5254-0.94702-0.12624-0.56821 1.5152-6.3766 1.7046 0 0 3.4093 1.3259 3.6618 3.3462 0.25255 2.0203 0.44194 2.0834 0.44194 2.0834s7.2605 0.63137 7.5761-1.4521c0.31567-2.0834 2.0834-4.9245 2.8411-5.8715 0.75761-0.94703 4.1669-4.8614 7.3867-4.4194 0 0-5.8715 3.7249-8.2075 8.902-2.336 5.177 16.604 3.7881 16.604 3.7881s10.102-2.6516 11.238-6.2503c1.1364-3.5987 1.389-17.488-0.82075-19.761-3.4005-2.8569-7.8648-5.5355-13.311-2.0533-5.4464 3.4821-0.98214 5.1786-8.3929-1.3393-7.4107-6.5179-14.196-9.4643-14.196-9.4643s-8.6607 11.696-8.8393 10.446c-0.17857-1.25-2.1429-7.7678-3.125-2.9464 0 0-2.8571-1.0714-2.5893 1.4286 0.26786 2.5-3.8393-2.6786-3.8393-2.6786s0.35714 7.1428-1.4286 8.0357c0 0 7.5-1.9643 4.7321 2.0536-2.7679 4.0178-5.8929 4.2857-10.714 4.5535-4.8214 0.26797-7.9464-2.5-10.357-3.2143s-4.375-2.8571-8.7946-0.22337z"/></clipPath><filter id="al" width="1.395" height="1.248" x="-.198" y="-.124" color-interpolation-filters="sRGB"><feGaussianBlur stdDeviation=".243"/></filter><clipPath id="bb"><path fill="#dedede" fill-rule="evenodd" d="m-14.611 203.49c4.2995 1.6064 4.3704 4.3113 5.3035 4.3113 0.93313 0 0.83863 0.4961 1.3229-0.16536 0.48428-0.66146 1.6064-1.8308 1.7245-2.8939 0.11812-1.0631 1.0276-0.57878 1.0158-0.14174-0.011811 0.43703-0.30711 3.3545-0.2008 3.579s0.25986 0.34254 0.35435-0.43704c0.094494-0.77957 0.11812-1.9844 0.31892-2.1379 0.2008-0.15356 1.4292-0.8977 1.6655-1.7481 0 0 0.03543-0.42523-0.68508-0.67328-0.72052-0.24804 1.7127-2.2915 1.7127-2.2915s3.4845 1.6064 4.3704 2.5277c0 0-0.33707 1.2262 0.08054 1.2262s0.60136 1.0858-0.31738 0.86862-1.6203-0.61806-2.1883 0.0167-0.81851 1.2361-1.1192 1.353-0.70158 0.31738-0.68488-0.53454-0.11693 0.70158-0.3675 0.66817c-0.25056-0.0334-0.15034 0.40091-1.6871 0.45102 0 0 0.90204 0.3508 0.96885 0.88534 0.06682 0.53454 0.11693 0.55124 0.11693 0.55124s1.921 0.16705 2.0045-0.3842c0.08352-0.55124 0.55124-1.3029 0.7517-1.5535 0.20045-0.25057 1.1025-1.2862 1.9544-1.1693 0 0-1.5535 0.98555-2.1716 2.3553-0.61806 1.3698 4.3932 1.0023 4.3932 1.0023s2.6727-0.70158 2.9734-1.6537 0.3675-4.6271-0.21716-5.2285c-0.89971-0.75589-2.0809-1.4646-3.5219-0.54328-1.441 0.92131-0.25986 1.3702-2.2206-0.35435-1.9608-1.7245-3.7561-2.5041-3.7561-2.5041s-2.2915 3.0947-2.3387 2.764c-0.047247-0.33073-0.56696-2.0552-0.82682-0.77957 0 0-0.75595-0.28348-0.68508 0.37797 0.070871 0.66146-1.0158-0.7087-1.0158-0.7087s0.094494 1.8899-0.37798 2.1261c0 0 1.9844-0.51971 1.252 0.54335-0.73233 1.063-1.5592 1.1339-2.8348 1.2048-1.2757 0.0709-2.1025-0.66145-2.7403-0.85044s-1.1576-0.75595-2.3269-0.0591z"/></clipPath><filter id="ak" width="1.239" height="1.294" x="-.12" y="-.147" color-interpolation-filters="sRGB"><feGaussianBlur stdDeviation=".128"/></filter><clipPath id="ba"><path fill="#b0afad" fill-rule="evenodd" d="m-16.962 206.64c-1.1694-0.69689-2.6576-1.9844-2.6576-3.9333 0-1.1694 0.75595-1.7127 0.75595-1.7127-0.05906 0.61421-0.7087 1.7954 0.12993 2.4805 0.2008 0.3071 0.43703 0.33073 1.1103 0.3071 0.67327-0.0236 0.53153 0.17718 0.53153 0.17718s0.16536-0.74414 0.33073-0.93313c0.16536-0.18899 0.86226-1.7009 0.86226-1.7009s3.3191-1.6891 3.5553-1.7954c0.23624-0.1063 1.193-0.24805 1.193-0.24805s3.39 1.193 3.5553 1.3584c0.16536 0.16536 0.37798 1.2638 0.37798 1.2638l-0.42522 1.6418-3.0829 1.1576 1.571 3.3782-3.3545 0.22443s-3.6616-0.29529-4.453-1.6655z"/></clipPath><clipPath id="bi"><g><path fill="url(#r)" d="m170.46 646.3 14.27 116.17c-2e-5 10.744 20.322 19.455 45.393 19.455s45.395-8.7107 45.395-19.455l14.143-116.17c-3e-3 8.2284-26.686 14.899-59.6 14.898-32.914 8e-5 -59.597-6.67-59.6-14.898zm119.2 0c0-0.3229-0.0558-0.64315-0.13672-0.96094 0.0869 0.31986 0.13251 0.64034 0.13672 0.96094z" color="#000" opacity=".915" transform="translate(-3.4018 -18.615) matrix(.26458 0 0 .26458 0 97)"/><path fill="#fff" fill-rule="evenodd" d="m46.505 302.14c7.684-6.0136 8.7531-2.8063 14.767-2.205 6.0136 0.60135 15.903-4.2763 15.903-4.2763l-1.0023 13.631s-28.531 2.0713-29.667-7.1495z" clip-path="url(#bl)" filter="url(#at)" opacity=".729" transform="translate(-3.4018 -18.615)"/><path fill="#a4a4a4" fill-rule="evenodd" d="m60.737 305.42c6.7486-6.3476 8.1517-7.4836 10.758-1.6704 2.6059 5.8131-10.758 1.6704-10.758 1.6704z" clip-path="url(#bj)" filter="url(#as)" opacity=".483" transform="translate(-3.4018 -18.615)"/></g></clipPath><filter id="ar" width="1.481" height="1.064" x="-.24" y="-.032" color-interpolation-filters="sRGB"><feGaussianBlur stdDeviation=".506"/></filter><clipPath id="bm"><path fill="#fff" d="m45.102 268 3.7755 30.736c-5e-6 2.8428 5.3769 5.1475 12.01 5.1475 6.6332 0 12.011-2.3047 12.011-5.1475l3.7419-30.736c-7.94e-4 2.1771-7.0606 3.9419-15.769 3.9419-8.7084 2e-5 -15.768-1.7648-15.769-3.9419zm31.538 0c0-0.0854-0.01476-0.17017-0.03617-0.25425 0.02299 0.0846 0.03506 0.16942 0.03617 0.25425z" color="#000" opacity=".691"/></clipPath><filter id="au" width="1.169" height="1.375" x="-.084" y="-.187" color-interpolation-filters="sRGB"><feGaussianBlur stdDeviation="1.079"/></filter><clipPath id="bk"><path fill="#fff" d="m45.102 268 3.7755 30.736c-5e-6 2.8428 5.3769 5.1475 12.01 5.1475 6.6332 0 12.011-2.3047 12.011-5.1475l3.7419-30.736c-7.94e-4 2.1771-7.0606 3.9419-15.769 3.9419-8.7084 2e-5 -15.768-1.7648-15.769-3.9419zm31.538 0c0-0.0854-0.01476-0.17017-0.03617-0.25425 0.02299 0.0846 0.03506 0.16942 0.03617 0.25425z" color="#000" opacity=".691"/></clipPath><filter id="d" width="1.733" height="2.181" x="-.367" y="-.591" color-interpolation-filters="sRGB"><feGaussianBlur stdDeviation="1.695"/></filter><linearGradient id="s" x1="170.46" x2="289.66" y1="704.73" y2="704.73" gradientTransform="matrix(1.0989,0,0,1.0989,-150.32,-674.15)" gradientUnits="userSpaceOnUse"><stop offset="0" stop-color="#dcdde0"/><stop offset=".254" stop-color="#e3e4e6"/><stop offset=".744" stop-color="#d8dbde"/><stop offset="1" stop-color="#e1e1e5"/></linearGradient><linearGradient id="j" x1="170.46" x2="289.66" y1="713.63" y2="713.63" gradientTransform="matrix(1.0989,0,0,1.0989,-150.32,-674.15)" gradientUnits="userSpaceOnUse" xlink:href="#b"/><pattern id="i" width="495.113" height="169.716" patternTransform="matrix(.25862 0 0 .25862 40.717 233.84)" patternUnits="userSpaceOnUse"><path fill="#fff" fill-rule="evenodd" d="m46.505 302.14c7.684-6.0136 8.7531-2.8063 14.767-2.205 6.0136 0.60135 15.903-4.2763 15.903-4.2763l-1.0023 13.631s-28.531 2.0713-29.667-7.1495z" clip-path="url(#bm)" filter="url(#au)" opacity=".729" transform="matrix(15.699 0 0 15.699 -708.04 -4600.9)"/></pattern><pattern id="h" width="301.877" height="125.415" patternTransform="matrix(.25862 0 0 .25862 87.684 245.3)" patternUnits="userSpaceOnUse"><path fill="#a4a4a4" fill-rule="evenodd" d="m60.737 305.42c6.7486-6.3476 8.1517-7.4836 10.758-1.6704 2.6059 5.8131-10.758 1.6704-10.758 1.6704z" clip-path="url(#bk)" filter="url(#d)" opacity=".483" transform="matrix(15.699 0 0 15.699 -889.65 -4645.2)"/></pattern><pattern id="g" width="301.877" height="125.415" patternTransform="matrix(.25862 0 0 .25862 87.684 245.3)" patternUnits="userSpaceOnUse"><rect width="301.88" height="125.41" fill="url(#f)"/></pattern><linearGradient id="q" x1="-8.64" x2="-5.042" y1="207.18" y2="207.18" gradientTransform="matrix(4.1648 0 0 4.1648 126.22 -812.53)" gradientUnits="userSpaceOnUse"><stop offset="0" stop-color="#99662e"/><stop offset="1" stop-color="#b67937"/></linearGradient><linearGradient id="p" x1="-7.684" x2="-4.151" y1="202.91" y2="205.26" gradientTransform="matrix(4.1648 0 0 4.1648 126.22 -812.53)" gradientUnits="userSpaceOnUse"><stop offset="0" stop-color="#77d743"/><stop offset="1" stop-color="#254a12"/></linearGradient><linearGradient id="o" x1="-9.864" x2="-9.916" y1="203.74" y2="204.85" gradientTransform="matrix(4.1648 0 0 4.1648 126.22 -812.53)" gradientUnits="userSpaceOnUse"><stop offset="0" stop-color="#3cd0f2"/><stop offset="1" stop-color="#0eacd0"/></linearGradient><linearGradient id="n" x1="-7.619" x2="-5.042" y1="205.46" y2="205.46" gradientTransform="matrix(4.1648 0 0 4.1648 126.22 -812.53)" gradientUnits="userSpaceOnUse"><stop offset="0" stop-color="#872c1f"/><stop offset="1" stop-color="#bf3f2d"/></linearGradient><linearGradient id="m" x1="-3.579" x2="-2.238" y1="206.88" y2="205.53" gradientTransform="matrix(4.1648 0 0 4.1648 126.22 -812.53)" gradientUnits="userSpaceOnUse"><stop offset="0" stop-color="#3c4533"/><stop offset=".324" stop-color="#3c4533"/><stop offset=".576" stop-color="#414a37"/><stop offset=".805" stop-color="#3c4533"/><stop offset="1" stop-color="#3c4533"/></linearGradient></defs><path fill="url(#s)" stroke-width="1.023" d="m102.5 19.716c-36.172 0-65.497 7.3315-65.497 16.374l0.11591 0.93797c1.41e-4 6.65e-4 -1.55e-4 1e-3 0 2e-3 1.9513 8.6051 30.472 15.432 65.38 15.432 34.914 8.2e-5 63.44-6.8293 65.382-15.437l0.11378-0.93581c-5e-5 -9.043-29.324-16.374-65.497-16.374z" color="#000" opacity=".542"/><g fill-rule="evenodd"><g stroke-width="59.494"><path fill="#96999f" d="m129.12 35.368 1.9923-5.3621 6.1493 4.7961 1.279 8.2891-3.0746 1.7709-10.158 10.724-5.7066-0.369 6.5428-11.462z"/><path fill="#5975b5" d="m121.62 46.654c1.2523-3.1306 0.97397-3.6176 1.6696-3.9655 0.69568-0.34776 1.1827-1.7392 1.9827-2.0175 0.80005-0.27821 0.20871-2.574 0.66091-2.8175 0.45221-0.24364 2.0871-0.31319 2.4697-1.2175 0.38263-0.90438-0.17393-1.6349-0.17393-1.6349l-6.9918 0.10454-5.0785 9.9138s3.4785 6.7136 5.4612 1.6349z"/><path fill="#39497e" d="m128.9 35.284c3.1975-2.2137 3.6895-2.5334 4.5258-0.54113 0.83628 1.9923-1.6972 6.4441-1.6972 6.4441l-5.485-0.41814s-1.0085-4.2797-0.0246-4.7224c0.98388-0.44276 2.681-0.76252 2.681-0.76252z"/><path fill="#252921" d="m124.67 35.742c2.558 0.68868 4.1076 0.02499 4.8703-0.56574 0.76249-0.59031 1.3036-4.0092 1.8447-4.1076 0.54113-0.09829-2.5088-0.91004-2.5088-0.91004z"/><path fill="#eae9e8" d="m110.88 29.329 5.6699-0.20865s8.6264 1.4958 10.609 1.9479c1.9827 0.45221 3.8611-0.45217 3.8611-0.45217l-14.053-8.9396z"/><path fill="#759d70" d="m96.336 53.984c1.3566 4.2439 7.5832 4.5221 7.6527 3.1306 0.0696-1.3914 0.20871-4.0002 0.20871-4.0002s1.2175-7.235-0.31306-7.0264c-1.5306 0.20865-7.5482 7.8964-7.5482 7.8964z"/><path fill="url(#q)" d="m92.788 58.774c3.1654 0.48698 11.479-11.027 12.175-13.67 0.69569-2.6437 0.0348-3.3393-2.748-3.2698-2.7828 0.06955-17.914 11.653-9.4265 16.94z"/><path fill="#b0afad" d="m55.574 48.07c-4.8703-2.9024-11.068-8.2645-11.068-16.381 0-4.8703 3.1483-7.133 3.1483-7.133-0.24597 2.558-2.9516 7.4774 0.54113 10.331 0.83628 1.279 1.8201 1.3774 4.6241 1.279 2.804-0.09829 2.2137 0.73791 2.2137 0.73791s0.68868-3.0992 1.3774-3.8863c0.68868-0.7871 3.5911-7.0838 3.5911-7.0838s13.823-7.0347 14.807-7.4774c0.98388-0.44271 4.9686-1.0331 4.9686-1.0331s14.119 4.9686 14.807 5.6574c0.68868 0.68868 1.5742 5.2634 1.5742 5.2634l-1.7709 6.8377-12.84 4.8211 6.5428 14.069-13.971 0.9347s-15.25-1.2298-18.546-6.9364z"/></g><path fill="#626262" stroke-width="14.285" d="m-16.913 206.41c1.186-0.3675 1.0273-0.29233 1.1359-0.70994 0.61806-1.7122 0.92709-2.205 1.2445-2.2551 0.31738-0.0501 3.0569 0.80181 3.9088 1.5535 0.85192 0.75169 1.7456 3.416 1.7456 3.416l-5.5041 0.46772s-2.8063-1.2361-2.5307-2.4722z" clip-path="url(#ax)" transform="matrix(4.1648 0 0 4.1648 126.22 -812.53)"/><path fill="#411" stroke-width="59.494" d="m65.794 42.281c1.7045 1.5305 4.1743 3.8959 4.8353 3.3741 0.6609-0.5218 5.0089-2.8176 5.0089-2.8176s6.5745 7.9655 7.7223 8.5569c1.1479 0.59135 2.4001 0.17409 2.4001 0.17409l-6.0526-11.792-6.1917-1.1827s-4.5916-0.2782-6.609 1.8783c-2.0175 2.1567-1.1131 1.8088-1.1131 1.8088z"/><path fill="#9f9f9f" stroke-width="14.285" d="m-19.867 203.53c1.3111 0.38979 2.0198 0.77957 2.445 1.1576s1.7836 1.252 1.7836 1.252l-0.86226 1.0867-3.0829-1.0394z" clip-path="url(#az)" transform="matrix(4.1648 0 0 4.1648 126.22 -812.53)"/><path fill="#606060" stroke-width="14.285" d="m-19.636 203.88c1.5452 1.6955 3.4912 2.9817 3.4912 2.9817l-0.29233 0.43432s-3.1655-0.7684-3.1989-1.3781c-0.03341-0.60971 0-2.0379 0-2.0379z" clip-path="url(#ay)" transform="matrix(4.1648 0 0 4.1648 126.22 -812.53)"/><g stroke-width="59.494"><path fill="#444342" d="m80.908 19.791c2.1645 0.98384 5.0668 15.496 5.0668 15.496l3.6403-0.88547s-2.4597-13.282-5.2638-14.315c-2.804-1.0331-3.4435-0.29528-3.4435-0.29528z"/><path fill="url(#p)" d="m82.311 33.244c3.3697-1.4266 8.6827-2.804 10.896-1.8448 0 0 2.0153-1.4209 3.7546-1.6644 1.7392-0.24364 3.3393 2.2262 3.2002 2.261-0.13914 0.03332-3.8611 6.5745-5.2526 6.4004-1.3914-0.17409-12.598-5.1522-12.598-5.1522z"/><path fill="url(#o)" d="m78.621 39.074c-2.681-3.05 1.0331-5.854 4.6733-6.2967 3.6403-0.44276 11.364 5.116 11.364 5.116s-11.044 4.7224-16.037 1.1806z"/><path fill="url(#n)" d="m94.492 49.819c3.1654 0.48698 10.122-6.8177 10.818-9.4615 0.69568-2.6437-0.31308-3.9655-3.0958-3.8959-2.7828 0.06955-7.9309 9.8788-7.7223 13.357z"/><path fill="#aa531f" d="m117.38 45.53c2.6437-3.3741 5.3221-3.0263 5.5308-3.6872 0.20871-0.6609 0.0696-1.5653-0.52176-2.4349-0.59136-0.86964 0.80005-3.1306 2.0175-3.0611 1.2175 0.06955 2.2262-2.5045 2.2262-2.5045l-4.7653-2.0871-7.8264 2.748-1.1827 5.0089 0.10436 5.4612z"/><path fill="#c1c2c9" d="m119.85 47.654c3.2698-2.6784 6.3308-2.1915 6.3308-2.1915l-5.3221 4.3134z"/><path fill="url(#m)" d="m107.52 41.906c3.6403 0.09829 5.2143-0.49194 7.674 0.49194 2.4597 0.98384 2.3121 1.7709 3.0992 2.558 0.78709 0.7871 2.0169-0.14743 2.7056 4.7716 0.68868 4.9194-13.479 2.1645-13.479 2.1645z"/><path fill="#242f65" d="m108.02 42.114c-0.0984 5.4604-0.24597 5.2143 1.3282 5.4113 1.5742 0.19658-0.24597 2.2629 0.14758 3.2468 0.39354 0.98384 1.279 0.93465 1.279 0.93465l0.54112 1.7709-4.6733-0.39357s-0.54112-0.59031-0.73791-1.0331c-0.19677-0.44271 0.0984-10.134 0.0984-10.626 0-0.4919 2.0169 0.68872 2.0169 0.68872z"/><path fill="#5975b5" d="m116.93 28.537c0.0696-1.3566 3.0263-2.748 4.4525-1.9828 1.4262 0.76527 0.69568 2.0523 2.4001 2.7828 1.7045 0.73046 6.6786 1.9479 6.1222 2.748-0.55653 0.80005-1.6696 2.8524-3.2002 2.4001-1.5306-0.45221-1.4957-1.8088-3.5133-1.8088-2.0175 0-3.5828 0.17409-3.5828 0.17409z"/><path fill="#252921" d="m116.48 34.743c0.93919 1.1827 1.774 1.2523 3.5133 0.10454 1.7392-1.1479 2.5045-2.6784 0-2.6088-2.5045 0.06955-7.7569-1.8784-7.7569-1.8784s-1.774 0.55654-1.7392 1.5653c0.0348 1.0087 1.3914 2.1219 1.3914 2.1219z"/><path fill="#3d4b6f" d="m112.06 42.864c4.6612-1.3914 2.3306-4.2439 1.8088-4.9744-0.52181-0.7305 0.55653-2.8524 2.8524-2.9219 2.2958-0.06955-1.2522-0.90442-3.3393-0.97397-2.0871-0.06955-2.9567-1.5305-2.0523-2.1219 0.90442-0.59131 2.1219-0.6609 3.1306 0.55658 1.0088 1.2174 5.183 1.2523 5.9481 0.55654 0.76527-0.69568 2.0871-1.287 2.0871-1.287s-3.4785-1.3914-4.1743-2.5045c-0.69585-1.1131-1.9479-2.3654-3.4785-1.4958-1.5306 0.86964-4.5567 1.2523-4.5567 1.2523l-3.722 6.1917 2.0523 8.07z"/><path fill="#652424" d="m107.13 42.531c-0.63949 3.5419 0.14758 9.691 0.49194 9.6418 0.34435-0.04914 1.4758 0.59031 3.0992-0.44276 5.6078-0.09829 4.1814 6.4441 4.1814 6.4441l-11.462-1.279s0.68868-14.168 1.7218-14.709c1.0331-0.54113 1.9677 0.34442 1.9677 0.34442z"/></g><g fill="#dedede" stroke-width="3.78"><path d="m-14.611 203.49c4.2995 1.6064 4.3704 4.3113 5.3035 4.3113 0.93313 0 0.83863 0.4961 1.3229-0.16536 0.48428-0.66146 1.6064-1.8308 1.7245-2.8939 0.11812-1.0631 1.0276-0.57878 1.0158-0.14174-0.011811 0.43703-0.30711 3.3545-0.2008 3.579s0.25986 0.34254 0.35435-0.43704c0.094494-0.77957 0.11812-1.9844 0.31892-2.1379 0.2008-0.15356 1.4292-0.8977 1.6655-1.7481 0 0 0.035435-0.42523-0.68508-0.67328-0.72052-0.24804 1.7127-2.2915 1.7127-2.2915s3.4845 1.6064 4.3703 2.5277c0 0-0.33707 1.2262 0.080536 1.2262 0.41761 0 0.60136 1.0858-0.31738 0.86862-0.91874-0.21716-1.6203-0.61806-2.1883 0.0167s-0.81851 1.2361-1.1192 1.353c-0.30068 0.11693-0.70158 0.31738-0.68488-0.53454 0.016704-0.85192-0.11693 0.70158-0.3675 0.66817-0.25057-0.0334-0.15034 0.40091-1.6871 0.45102 0 0 0.90204 0.3508 0.96885 0.88534 0.066817 0.53454 0.11693 0.55124 0.11693 0.55124s1.921 0.16705 2.0045-0.3842c0.083522-0.55124 0.55124-1.3029 0.7517-1.5535 0.20045-0.25057 1.1025-1.2862 1.9544-1.1693 0 0-1.5535 0.98555-2.1716 2.3553-0.61806 1.3698 4.3932 1.0023 4.3932 1.0023s2.6727-0.70158 2.9734-1.6537 0.3675-4.6271-0.21716-5.2285c-0.89971-0.75589-2.0809-1.4646-3.5219-0.54328-1.441 0.92131-0.25986 1.3702-2.2206-0.35435-1.9608-1.7245-3.7561-2.5041-3.7561-2.5041s-2.2915 3.0947-2.3387 2.764-0.56696-2.0552-0.82682-0.77957c0 0-0.75595-0.28348-0.68508 0.37797 0.070871 0.66146-1.0158-0.7087-1.0158-0.7087s0.094494 1.8899-0.37798 2.1261c0 0 1.9844-0.51971 1.252 0.54335-0.73233 1.063-1.5592 1.1339-2.8348 1.2048-1.2757 0.0709-2.1025-0.66145-2.7403-0.85044s-1.1576-0.75595-2.3269-0.0591z" transform="matrix(4.1648 0 0 4.1648 126.22 -812.53)"/><path d="m-16.962 207.73s-0.25986-1.4883 0.10631-1.9489c0 0 0.29529 0.6024 1.5473 0.90951 1.252 0.3071-0.92132 1.4647-0.92132 1.4647 2.5277-0.68507 3.2364 1.4883 1.1576 0.89769-2.0789-0.59059-1.8899-1.3229-1.8899-1.3229z" transform="matrix(4.1648 0 0 4.1648 126.22 -812.53)"/><path d="m-15.802 206.08c-0.41761-1.0691-0.3675-1.9878 1.0023-2.4555 0 0 0.0167 0.3842 0.30068 0.46772 0.28397 0.0835 0.48443 0.83522 0.90204 0.83522 0 0-0.7851 0.13363-0.86863 1.1359 0 0-0.68488 0.13364-1.3363 0.0167z" transform="matrix(4.1648 0 0 4.1648 126.22 -812.53)"/><path d="m-16.855 203.29c2.6059-1.0691 2.2885-1.2695 2.2885-1.2695s-1.9878 0.25056-0.93544-0.43432 2.9066-0.96885 3.2908-2.1214c0 0-1.2695-0.51784-5.6294 1.8876 0 0 0.31738 1.4867 0.98556 1.9377z" transform="matrix(4.1648 0 0 4.1648 126.22 -812.53)"/><path d="m-11.459 200.13c-0.21716 0.30068-0.4009 0.50113-0.33409-0.76839 0.06682-1.2695 0.71829-1.0524 1.3865-0.41762 0.66817 0.63477 1.0858 0.23387 1.5368 0.51784 0.45102 0.28397 1.3531 0.48442 1.3363 1.3196 0 0-0.81851 0.3842-1.8375-0.55124-0.41761-0.28398-1.8375-0.45102-2.088-0.10023z" transform="matrix(4.1648 0 0 4.1648 126.22 -812.53)"/></g><path fill="#a3a3a3" stroke-width="14.285" d="m-11.008 206.81c1.6203-2.5056 1.7707-2.4054 2.3386-2.1883s-0.15034 2.7562-0.88533 3.391c-0.73499 0.63477-1.4533-1.2027-1.4533-1.2027z" clip-path="url(#bh)" filter="url(#aq)" opacity=".424" transform="matrix(4.1648 0 0 4.1648 126.22 -812.53)"/><g fill="#838383"><path stroke-width="53.992" d="m-9.3043 208.22c2.4388-4.3431 3.0235-6.1472 3.2573-5.9969 0.23386 0.15034 1.3363 1.6871 1.0357 2.1549-0.30068 0.46772-0.81851 1.0858-0.88533 1.1025-0.066817 0.0167-1.3698 3.8587-1.3698 3.8587z" clip-path="url(#bg)" filter="url(#ap)" opacity=".479" transform="matrix(4.1648 0 0 4.1648 126.22 -812.53)"/><path stroke-width="3.78" d="m-6.4646 202.84c0.60136 0.96885 0.93544 1.637 1.3363 1.3865 0.4009-0.25056 0.16704-1.2862-0.35079-1.6036-0.51783-0.31738-0.85192-0.36749-0.98556 0.21716z" clip-path="url(#bf)" filter="url(#ao)" opacity=".708" transform="matrix(4.1648 0 0 4.1648 126.22 -812.53)"/><path stroke-width="3.78" d="m-4.1814 209.25c-0.035435-2.3269 0.33073-3.1419 2.3269-4.4885 1.9962-1.3465 1.2875 0.67327 1.5828 0.86226s1.0158 1.2166 1.3702 0.85045c0.35435-0.36617 1.1457-0.95676 1.441-0.85045 0.29529 0.1063 2.7876 2.7758 2.7876 2.7758l-6.7563 0.66146-2.6931 0.2008z" clip-path="url(#be)" filter="url(#an)" opacity=".648" transform="matrix(4.1648 0 0 4.1648 126.22 -812.53)"/></g><path fill="#373737" stroke-width="14.285" d="m2.386 205.86c0.49609-0.53153 0.33073-0.61421 0.92132-0.34254s0.90951 1.3347 1.3229 1.382c0.41341 0.0472 1.76-0.33073 1.9844-0.79139 0.22442-0.46066-0.23624-2.3033-0.14174-2.4568 0.094494-0.15356 1.5119-1.4056 2.1734-0.48429 0.66146 0.92132 1.8308 6.461-0.17718 6.8626-2.008 0.4016-4.9964-4.2758-6.0831-4.1696z" clip-path="url(#bd)" filter="url(#am)" opacity=".758" transform="matrix(4.1648 0 0 4.1648 126.22 -812.53)"/><path fill="#a8a8a8" stroke-width="14.285" d="m20.09 393s-6.4735 1.2943-7.2324 6.5176c-0.75893 5.2232 0.22266 6.3848 0.22266 6.3848 0.9375 1.8304 3.3926 4.9991 4.9551 4.8652 1.5625-0.13379 4.3747-0.62419 4.9551-2.3652 0.58036-1.7411 0.76032-6.2517-1.3379-7.1445-2.0982-0.89284-3.0368-1.3839-0.80469-1.25 2.2321 0.13379 3.4383 0.53736 2.6348-0.66797-0.80357-1.2054-3.3926-6.3398-3.3926-6.3398zm-1.7461 12.457c1.8794-0.0636 2.1311 2.096-0.12891 2.7656-1.6518-0.35716-2.4997-2.3208-0.26758-2.7226 0.13951-0.0251 0.27119-0.0387 0.39648-0.043z" clip-path="url(#bc)" filter="url(#al)" opacity=".585" transform="matrix(1.1019 0 0 1.1019 126.22 -408.55)"/><path fill="#676767" stroke-width="14.285" d="m5.3035 203.86c-1.76-0.2008-1.7718-1.0276-1.1576-1.382 0.61421-0.35435 1.2402-0.55515 1.7127-0.1063 0.47247 0.44884 0.73233 0.54334 0.2008 0.57877-0.53153 0.0354-0.63784 0.0118-0.62602-0.24804 0.011811-0.25986-0.38979-0.41342-0.81501-0.10631s-0.41341 0.66146 0.24805 0.69689c0.66146 0.0354 1.0394 0.37798 0.98038 0.77958s-0.54334-0.21261-0.54334-0.21261z" clip-path="url(#bb)" filter="url(#ak)" opacity=".47" transform="matrix(4.1648 0 0 4.1648 126.22 -812.53)"/><path fill="#dedede" stroke-width="14.285" d="m-19.26 204.73c-0.2067-3.1301 0.73893-3.7927 0.73893-3.7927l-0.43704-0.18308s-2.8237 3.1844-0.3019 3.9758z" clip-path="url(#ba)" transform="matrix(4.1648 0 0 4.1648 126.22 -812.53)"/><path fill="#773520" stroke-width="59.494" d="m120.86 47.195 2.9915-0.27821s7.3745-3.8959 8.7656-4.348c1.391-0.45212 2.8176-2.2958 2.8871-3.722 0.0696-1.4262-2.2958-4.4871-2.2958-4.4871s0.2087 3.8959-0.83483 4.7653c-1.0436 0.8696-2.0175 2.1914-5.6003-1.774-3.5828-3.9655-5.9135 9.8442-5.9135 9.8442z"/></g><g stroke-width="1.023"><path fill="url(#j)" d="m37.008 36.094 15.682 127.66c-2.1e-5 11.807 22.333 21.38 49.884 21.38 27.55 0 49.886-9.5724 49.886-21.38l15.541-127.66c-3e-3 9.0425-29.326 16.372-65.497 16.372-36.17 9.2e-5 -65.492-7.3299-65.497-16.372zm131 0c0-0.35485-0.0614-0.70678-0.15025-1.056 0.0954 0.3515 0.14562 0.70369 0.15025 1.056z" color="#000" opacity=".915"/><rect width="131" height="44.902" x="37.008" y="140.23" fill="url(#bo)"/><rect width="79.868" height="33.181" x="85.055" y="151.95" fill="url(#bp)"/></g><path fill="#9d9da9" fill-rule="evenodd" d="m44.938 285.23c3.4963-11.623-4.5155-41.02-4.1589-37.78z" clip-path="url(#bi)" filter="url(#ar)" opacity=".064" transform="matrix(4.1535 0 0 4.1535 -136.19 -999.72)"/><g fill-rule="evenodd" filter="url(#c)" transform="matrix(4.1647,0,0,4.1647,133.96,-803.3)"><path fill="#f2a457" fill-opacity=".268" d="m0.56696 212.66c0.51972-1.9844 2.4096-3.638 4.1577-3.7798s3.1183 3.5435 0.47247 3.827c-2.6458 0.28348-3.9215 1.6536-4.6302-0.0472z" filter="url(#ah)" opacity=".475"/><path fill="#eae9e8" d="m-18.497 207.77c-0.47247 4.016 2.008 4.205 2.008 4.205l0.66146-2.0316s-1.6773-2.764-2.6695-2.1734z" opacity=".572"/><path fill="#eae9e8" fill-opacity=".268" d="m-16.3 208.7c2.0789 1.63 2.9529 2.8584 3.9924 2.8584 1.0394 0 3.0474-0.30711 2.9293-0.4016-0.11812-0.0945-3.3545-1.9844-3.3545-1.8899s-0.37798-1.5592-0.37798-1.5592l-4.3231-2.3151z"/><path fill="#b58043" d="m-28.303 419.48s-3.0357 4.911-8.125 7.2324l0.53516 2.4102 7.4824-0.62891c2.5751-4.4575 4.5001-6.6928 5.4961-7.6855z" opacity=".356" transform="matrix(.26458 0 0 .26458 0 97)"/><path fill="#6c9781" d="m-7.5595 210.44c1.0394-1.819 1.7009-2.2915 1.7009-2.2915l0.89769 0.0945s0.30711 1.5828-0.68508 2.1261c-0.99219 0.54334-1.5592 0.47248-1.9135 0.0709z" opacity=".657"/><path fill="#b58043" d="m-3.0236 208.98s-0.8032 1.2994-2.1497 1.9136l0.14159 0.63769 1.9797-0.1664c0.68132-1.1794 1.1906-1.7708 1.4542-2.0335z" opacity=".11"/><g fill-opacity=".268"><path fill="#f2a457" d="m-17.67 218.57c0.51972-1.9844 2.4096-3.638 4.1577-3.7798s3.1183 3.5435 0.47247 3.827c-2.6458 0.28348-3.9215 1.6536-4.6302-0.0472z" filter="url(#aj)" opacity=".475"/><path fill="#57f26b" d="m-18.007 217.09c-1.1359-0.80181-2.4388-3.5079-1.0023-3.8754 1.4366-0.36749 3.8754 2.4722 1.0023 3.8754z" filter="url(#ae)" opacity=".381"/><path fill="#57f26b" d="m-5.2506 221.1c-1.1359-0.80181-2.4388-3.5079-1.0023-3.8754 1.4366-0.36749 3.8754 2.4722 1.0023 3.8754z" filter="url(#ad)" opacity=".144" transform="rotate(40.801,-5.3999,219.15)"/><path fill="#f2a457" d="m0.094494 219.33c0.51972-1.9844 2.4096-3.638 4.1577-3.7798s3.1183 3.5435 0.47247 3.827c-2.6458 0.28348-3.9215 1.6536-4.6302-0.0472z" filter="url(#ai)" opacity=".475"/></g><path fill="url(#l)" d="m-4.1427 215.58c3.2406-0.86862 5.2786-2.5725 5.7129-3.7418 0.43431-1.1693-0.83522-2.0713-0.83522-2.0713s-5.9133 3.2072-13.096 4.3598c4.5102 1.8542 4.9779 2.3219 8.2185 1.4533z"/><path fill="url(#e)" d="m1.7205 209.79s-0.4009-0.43431 0.18375-0.45101 1.4032 0.65147 1.9878 0.45101c0.58465-0.20045-2.0713 1.6203-1.9878 1.3698-0.033409-0.7684-0.18375-1.3698-0.18375-1.3698z" filter="url(#aa)"/></g><g fill-opacity=".268" filter="url(#c)" transform="matrix(4.1647,0,0,4.1647,133.96,-803.3)"><g fill-rule="evenodd"><path fill="#10d52a" d="m-5.2506 221.1c-1.1359-0.80181-2.4388-3.5079-1.0023-3.8754 1.4366-0.36749 3.8754 2.4722 1.0023 3.8754z" filter="url(#ac)" opacity=".572" transform="matrix(.56862 .49084 -.49084 .56862 102.6 102.57)"/><path fill="#f2a457" d="m-14.797 228.53c0.51972-1.9844 2.4096-3.638 4.1577-3.7798 1.7481-0.14174 3.1183 3.5435 0.47247 3.827-2.6458 0.28348-3.9215 1.6536-4.6302-0.0472z" filter="url(#ag)" opacity=".475" transform="rotate(52.102,-11.742,227.05)"/><path fill="#10d52a" d="m-5.2506 221.1c-1.1359-0.80181-2.4388-3.5079-1.0023-3.8754 1.4366-0.36749 3.8754 2.4722 1.0023 3.8754z" filter="url(#ab)" opacity=".572" transform="matrix(.56862 .49084 -.49084 .56862 96.049 108.45)"/><path fill="#f2a457" d="m-14.797 228.53c0.51972-1.9844 2.4096-3.638 4.1577-3.7798 1.7481-0.14174 3.1183 3.5435 0.47247 3.827-2.6458 0.28348-3.9215 1.6536-4.6302-0.0472z" filter="url(#af)" opacity=".475" transform="matrix(.41309 .53069 -.53069 .41309 124.49 140.63)"/></g><rect width="8.835" height="2.74" x="-10.961" y="221.07" fill="#1c1c1c" color="#000" filter="url(#z)" opacity=".436" transform="matrix(.79466 0 0 .79466 -1.3437 45.676)"/><rect width="8.835" height="2.74" x="-10.961" y="221.07" fill="#fff" color="#000" filter="url(#v)" opacity=".983" transform="matrix(.79466 0 0 .79466 -.91843 50.778)"/><rect width="8.835" height="2.74" x="-10.961" y="221.07" fill="#1c1c1c" color="#000" filter="url(#y)" opacity=".436" transform="matrix(.79466 0 0 .79466 -.72945 52.763)"/><rect width="8.835" height="2.74" x="-10.961" y="221.07" fill="#1c1c1c" color="#000" filter="url(#u)" opacity=".436" transform="matrix(.74345 .28067 -.28067 .74345 57.778 68.26)"/><path fill="#e8dd70" fill-rule="evenodd" d="m-15.025 232.84c1.3702 2.7876 3.9215 5.1027 7.3233 4.8664 3.4018-0.23624-1.1339-3.5908-1.1339-3.5908s-3.5435-3.5435-6.1894-1.2757z" filter="url(#t)"/><rect width="8.835" height="2.74" x="-10.961" y="221.07" fill="#1c1c1c" color="#000" filter="url(#x)" opacity=".436" transform="matrix(.73666 -.29803 .29803 .73666 -60.696 66.692)"/><rect width="8.835" height="2.74" x="-10.961" y="221.07" fill="#1c1c1c" color="#000" filter="url(#w)" opacity=".436" transform="matrix(.18133 -.7737 .7737 .18133 -168.34 178.51)"/></g><path fill="url(#k)" fill-rule="evenodd" d="m66.461 64.64c12.248-3.283 19.951-9.7227 21.592-14.142 1.6415-4.4194-3.1567-7.8287-3.1567-7.8287s-22.35 12.122-49.497 16.478c17.046 7.0079 18.814 8.7757 31.062 5.4927z" filter="url(#c)" opacity=".35" transform="matrix(1.1019 0 0 1.1019 40.763 20.678)"/><rect width="111.8" height="38.578" x="44.506" y="13.881" fill="none"/></svg>