<svg xmlns="http://www.w3.org/2000/svg" xmlns:svg="http://www.w3.org/2000/svg" id="svg4460" width="24" height="24" version="1.1"><metadata id="metadata4465"/><g id="layer1" transform="translate(0,-1028.3622)"><g id="building-24" display="inline" transform="translate(-630.00002,-45.999983)"><path id="path6138" fill="#fff" fill-opacity="1" fill-rule="nonzero" stroke="#fff" stroke-dasharray="none" stroke-dashoffset="0" stroke-linecap="butt" stroke-linejoin="round" stroke-miterlimit="4" stroke-opacity="1" stroke-width="2" d="m 641,1077.3622 -7.5,6.5 c -0.3561,0.3086 -0.5,0.5 -0.5,0.75 0,0.4959 0.5,0.75 1,0.75 l 1,0 0,8 c 0,0.554 0.446,1 1,1 l 6.5,0 6.5,0 c 0.554,0 1,-0.446 1,-1 l 0,-8 1,0 c 0.5,0 1,-0.2541 1,-0.75 0,-0.25 -0.13799,-0.4483 -0.5,-0.75 l -7.5,-6.5 z" color="#000" display="inline" enable-background="accumulate" opacity=".3" overflow="visible" visibility="visible" style="marker:none"/><rect id="rect5877" width="24" height="24" x="630" y="1074.362" fill="none" stroke="none" stroke-width="2" color="#000" display="inline" enable-background="accumulate" opacity=".5" overflow="visible" visibility="visible" style="marker:none"/><path id="path5881" fill="#444" fill-opacity="1" fill-rule="nonzero" stroke="none" stroke-width="1" d="m 641,1077.3622 -7.5,6.5 c -0.3561,0.3086 -0.5,0.5 -0.5,0.75 0,0.4959 0.5,0.75 1,0.75 l 1,0 0,8 c 0,0.554 0.446,1 1,1 l 6.5,0 6.5,0 c 0.554,0 1,-0.446 1,-1 l 0,-8 1,0 c 0.5,0 1,-0.2541 1,-0.75 0,-0.25 -0.13799,-0.4483 -0.5,-0.75 l -7.5,-6.5 z" color="#000" display="inline" enable-background="accumulate" overflow="visible" visibility="visible" style="marker:none"/></g></g></svg>