<svg xmlns="http://www.w3.org/2000/svg" xmlns:svg="http://www.w3.org/2000/svg" id="svg4" width="20" height="20" version="1.1"><metadata id="metadata10"/><defs id="defs8"><style id="current-color-scheme" type="text/css">.ColorScheme-Text{color:#727272}</style></defs><g id="g834" transform="translate(-1,-1.5)" style="fill:#ebebeb;fill-opacity:1"><path id="path820" d="M 4,4 C 3.446,4 3,4.446 3,5 v 2 1 9 c 0,0.554 0.446,1 1,1 h 2 c 0,0.554 0.446,1 1,1 h 1 c 0.554,0 1,-0.446 1,-1 h 4 c 0,0.554 0.446,1 1,1 h 1 c 0.554,0 1,-0.446 1,-1 h 2 c 0.554,0 1,-0.446 1,-1 V 6 C 19,5.446 18.554,5 18,5 H 10 C 10,4.446 9.554,4 9,4 Z M 4,5 H 9 V 6 7 H 4 Z m 6,1 h 8 v 11 h -2 v -1 -3 c 0,-0.554 -0.446,-1 -1,-1 H 7 c -0.554,0 -1,0.446 -1,1 v 3 1 H 4 V 8 h 5 c 0.554,0 1,-0.446 1,-1 z m -3,7 h 8 v 3 1 1 H 14 V 17 16 15 H 8 v 1 1 1 H 7 v -1 -1 z m 2,3 h 4 v 1 H 9 Z" class="ColorScheme-Text" style="color:#727272;fill:#ebebeb;fill-opacity:1"/></g></svg>