<svg xmlns="http://www.w3.org/2000/svg" xmlns:osb="http://www.openswatchbook.org/uri/2009/osb" xmlns:svg="http://www.w3.org/2000/svg" id="svg7384" width="16" height="16" version="1.1"><metadata id="metadata20854"/><defs id="defs7386"><linearGradient id="linearGradient5606" osb:paint="solid"><stop id="stop5608" offset="0" style="stop-color:#000;stop-opacity:1"/></linearGradient><linearGradient id="linearGradient4526" osb:paint="solid"><stop id="stop4528" offset="0" style="stop-color:#fff;stop-opacity:1"/></linearGradient><linearGradient id="linearGradient3600-4" osb:paint="gradient"><stop id="stop3602-7" offset="0" style="stop-color:#f4f4f4;stop-opacity:1"/><stop id="stop3604-6" offset="1" style="stop-color:#dbdbdb;stop-opacity:1"/></linearGradient></defs><g id="layer9" label="status" transform="translate(-1033.0002,67.000015)" style="display:inline"><path id="path5218-5" d="m 1041.0002,-67 c 4.4183,0 8,3.58172 8,8 0,4.41828 -3.5817,8 -8,8 -4.4183,0 -8,-3.58172 -8,-8 0,-4.41828 3.5817,-8 8,-8 z m 0,1 c -3.866,0 -7,3.13401 -7,7 0,3.86599 3.134,7 7,7 3.866,0 7,-3.13401 7,-7 0,-3.86599 -3.134,-7 -7,-7 z" style="display:inline;opacity:1;fill:gray;fill-opacity:1;stroke:none;stroke-width:4;stroke-linecap:round;stroke-linejoin:round;stroke-miterlimit:4;stroke-dasharray:none;stroke-dashoffset:0;stroke-opacity:1"/><rect id="rect1954" width="14.591" height="1.05" x="687.194" y="-778.357" transform="rotate(45.000144)" style="opacity:1;fill:gray;fill-opacity:1;stroke:none;stroke-width:.09804261;stroke-linecap:round;stroke-linejoin:round;stroke-miterlimit:4;stroke-dasharray:none;stroke-opacity:1"/></g></svg>