<svg xmlns="http://www.w3.org/2000/svg" width="16" height="16"><path style="line-height:normal;font-variant-ligatures:normal;font-variant-position:normal;font-variant-caps:normal;font-variant-numeric:normal;font-variant-alternates:normal;font-feature-settings:normal;text-indent:0;text-align:start;text-decoration-line:none;text-decoration-style:solid;text-decoration-color:#000;text-transform:none;text-orientation:mixed;shape-padding:0;isolation:auto;mix-blend-mode:normal;marker:none" fill="#fdc92b" d="M8 0L5.69 1.65l-2.833.221-.709 2.75-2.027 1.99 1.225 2.563L1.072 12l2.586 1.176 1.606 2.342L8 14.758l2.736.76 1.606-2.342L14.928 12l-.274-2.826L15.88 6.61l-2.027-1.99-.71-2.75-2.831-.22zM7 4h2v3l-.5 2h-1L7 7zm1 6a1 1 0 1 1 0 2 1 1 0 0 1 0-2z" class="warning" color="#000" font-family="sans-serif" font-weight="400" overflow="visible" white-space="normal"/></svg>