<svg xmlns="http://www.w3.org/2000/svg" xmlns:svg="http://www.w3.org/2000/svg" xmlns:xlink="http://www.w3.org/1999/xlink" id="svg17" width="32" height="32" version="1.1"><defs id="defs21"><linearGradient id="linearGradient4922" x1="70.011" x2="115" y1="-117.64" y2="-117.64" gradientTransform="translate(-21.671,-25)" gradientUnits="userSpaceOnUse"><stop id="stop1550" offset="0" stop-color="#236eb9"/><stop id="stop1552" offset="1" stop-color="#32a5f0"/></linearGradient><linearGradient id="linearGradient4924" x1="18.523" x2="30.427" y1="-27.715" y2="-27.715" gradientTransform="matrix(3.7796,0,0,3.7796,-21.671,-25)" gradientUnits="userSpaceOnUse"><stop id="stop1555" offset="0" stop-color="#2369b4"/><stop id="stop1557" offset="1" stop-color="#3296e6"/></linearGradient><linearGradient id="linearGradient4926" x1="18.523" x2="30.427" y1="-23.994" y2="-23.994" gradientTransform="matrix(3.7796,0,0,3.7796,-21.671,-25)" gradientUnits="userSpaceOnUse"><stop id="stop1560" offset="0" stop-color="#1e4b96"/><stop id="stop1562" offset="1" stop-color="#3278d7"/></linearGradient><linearGradient id="linearGradient4928" x1="70.108" x2="115" y1="-77.894" y2="-77.894" gradientTransform="translate(-21.671,-25)" gradientUnits="userSpaceOnUse"><stop id="stop1565" offset="0" stop-color="#19326e"/><stop id="stop1567" offset="1" stop-color="#285abe"/></linearGradient><linearGradient id="linearGradient3129" x1="-85" x2="-71.198" y1="103" y2="89.463" gradientTransform="translate(-46,-106)" gradientUnits="userSpaceOnUse" xlink:href="#linearGradient4922"/><linearGradient id="linearGradient3187" x1="-66.656" x2="-55.75" y1="90" y2="90" gradientTransform="translate(-46,-106)" gradientUnits="userSpaceOnUse" xlink:href="#linearGradient4928"/><filter style="color-interpolation-filters:sRGB" id="filter3203" width="1.072" height="1.072" x="-.036" y="-.036"><feGaussianBlur id="feGaussianBlur3205" stdDeviation=".24"/></filter><linearGradient id="linearGradient3180" x1="-67.406" x2="-56.031" y1="90" y2="90" gradientTransform="translate(-46,-106)" gradientUnits="userSpaceOnUse" xlink:href="#linearGradient4926"/><filter style="color-interpolation-filters:sRGB" id="filter3197" width="1.072" height="1.072" x="-.036" y="-.036"><feGaussianBlur id="feGaussianBlur3199" stdDeviation=".285"/></filter><linearGradient id="linearGradient3169" x1="-69.531" x2="-54.5" y1="90" y2="90" gradientTransform="translate(-46,-106)" gradientUnits="userSpaceOnUse" xlink:href="#linearGradient4924"/><filter style="color-interpolation-filters:sRGB" id="filter3191" width="1.072" height="1.072" x="-.036" y="-.036"><feGaussianBlur id="feGaussianBlur3193" stdDeviation=".39"/></filter><linearGradient id="linearGradient3156" x1="-85" x2="-71.198" y1="103" y2="89.463" gradientTransform="translate(-46.000005,-106)" gradientUnits="userSpaceOnUse" xlink:href="#linearGradient4922"/></defs><metadata id="metadata2"/><g id="system-suspend-3" transform="translate(35.607452)"><rect id="rect964" width="32" height="32" x="-80" y="0" rx="0" ry="0" style="opacity:0;fill:#000;fill-opacity:1;fill-rule:evenodd;stroke:none;stroke-width:2;stroke-linecap:round;stroke-linejoin:round;stroke-miterlimit:4;stroke-dasharray:none;stroke-opacity:1;paint-order:fill markers stroke"/><g id="g1432" transform="translate(-27.688682,-79.760071)"><path id="path1428" d="M -37.228467,105.17175 A 12.423848,12.423848 0 0 1 -51.014754,100.707 12.423848,12.423848 0 0 1 -51.192566,86.216862 12.423848,12.423848 0 0 1 -37.51999,81.415155" transform="matrix(-0.70710678,-0.70710678,-0.70710678,0.70710678,0,0)" style="opacity:1;fill:none;fill-opacity:1;fill-rule:evenodd;stroke:#eaeaea;stroke-width:1.15959466;stroke-linecap:round;stroke-linejoin:miter;stroke-miterlimit:4;stroke-dasharray:none;stroke-dashoffset:3;stroke-opacity:1;paint-order:stroke fill markers"/><path style="opacity:1;fill:none;fill-opacity:1;fill-rule:evenodd;stroke:#eaeaea;stroke-width:1.26629484;stroke-linecap:round;stroke-linejoin:miter;stroke-miterlimit:4;stroke-dasharray:none;stroke-dashoffset:3;stroke-opacity:1;paint-order:stroke fill markers" id="path1430" d="m -37.362245,105.17154 a 13.567029,13.567029 0 0 1 -7.157527,-11.743463 13.567029,13.567029 0 0 1 6.781811,-11.964372" transform="matrix(-0.70710678,-0.70710678,-0.70710678,0.70710678,0,0)"/></g></g><g id="system-suspend" transform="translate(80)"><rect id="rect964-2" width="32" height="32" x="-80" y="0" rx="0" ry="0" style="opacity:0;fill:#000;fill-opacity:1;fill-rule:evenodd;stroke:none;stroke-width:2;stroke-linecap:round;stroke-linejoin:round;stroke-miterlimit:4;stroke-dasharray:none;stroke-opacity:1;paint-order:fill markers stroke"/><g id="g3215" transform="translate(54.012695,32.000001)"><circle style="opacity:1;fill:url(#linearGradient3129);fill-opacity:1;stroke:none;stroke-width:.45835447;stroke-linecap:round;stroke-linejoin:round;stroke-miterlimit:4;stroke-dasharray:none;stroke-opacity:1" id="circle3127" cx="-118" cy="-16" r="13"/><circle id="circle3185" cx="-111.5" cy="-16" r="6.5" style="opacity:1;fill:url(#linearGradient3187);fill-opacity:1;stroke:none;stroke-width:.22917727;stroke-linecap:round;stroke-linejoin:round;stroke-miterlimit:4;stroke-dasharray:none;stroke-opacity:1"/><path id="path3201" d="m -113,-24 a 8,8 0 0 0 -8,8 8,8 0 0 0 8,8 8,8 0 0 0 8,-8 6.5,6.5 0 0 1 -6.5,6.5 6.5,6.5 0 0 1 -6.5,-6.5 6.5,6.5 0 0 1 6.5,-6.5 6.5,6.5 0 0 1 6.48437,6.039063 A 8,8 0 0 0 -113,-24 Z" style="opacity:.3;fill:#000;fill-opacity:1;stroke:none;stroke-width:.28206432;stroke-linecap:round;stroke-linejoin:round;stroke-miterlimit:4;stroke-dasharray:none;stroke-opacity:1;filter:url(#filter3203)"/><path style="opacity:1;fill:url(#linearGradient3180);fill-opacity:1;stroke:none;stroke-width:.28206432;stroke-linecap:round;stroke-linejoin:round;stroke-miterlimit:4;stroke-dasharray:none;stroke-opacity:1" id="circle3176" d="m -113,-24 a 8,8 0 0 0 -8,8 8,8 0 0 0 8,8 8,8 0 0 0 8,-8 6.5,6.5 0 0 1 -6.5,6.5 6.5,6.5 0 0 1 -6.5,-6.5 6.5,6.5 0 0 1 6.5,-6.5 6.5,6.5 0 0 1 6.48437,6.039063 A 8,8 0 0 0 -113,-24 Z"/><path id="path3195" d="m -114.5,-25.5 a 9.5,9.5 0 0 0 -9.5,9.5 9.5,9.5 0 0 0 9.5,9.5 9.5,9.5 0 0 0 9.46094,-8.697266 A 8,8 0 0 1 -113,-8 a 8,8 0 0 1 -8,-8 8,8 0 0 1 8,-8 8,8 0 0 1 7.98047,7.431641 A 9.5,9.5 0 0 0 -114.5,-25.5 Z" style="opacity:.3;fill:#000;fill-opacity:1;stroke:none;stroke-width:.33495137;stroke-linecap:round;stroke-linejoin:round;stroke-miterlimit:4;stroke-dasharray:none;stroke-opacity:1;filter:url(#filter3197)"/><path style="opacity:1;fill:url(#linearGradient3169);fill-opacity:1;stroke:none;stroke-width:.33495137;stroke-linecap:round;stroke-linejoin:round;stroke-miterlimit:4;stroke-dasharray:none;stroke-opacity:1" id="circle3163" d="m -114.5,-25.5 a 9.5,9.5 0 0 0 -9.5,9.5 9.5,9.5 0 0 0 9.5,9.5 9.5,9.5 0 0 0 9.46094,-8.697266 A 8,8 0 0 1 -113,-8 a 8,8 0 0 1 -8,-8 8,8 0 0 1 8,-8 8,8 0 0 1 7.98047,7.431641 A 9.5,9.5 0 0 0 -114.5,-25.5 Z"/><path id="path3189" d="m -118,-29 a 13,13 0 0 0 -13,13 13,13 0 0 0 13,13 13,13 0 0 0 12.95312,-12.046875 A 9.5,9.5 0 0 1 -114.5,-6.5 9.5,9.5 0 0 1 -124,-16 a 9.5,9.5 0 0 1 9.5,-9.5 9.5,9.5 0 0 1 9.47461,8.818359 A 13,13 0 0 0 -118,-29 Z" style="opacity:.3;fill:#000;fill-opacity:1;stroke:none;stroke-width:.45835447;stroke-linecap:round;stroke-linejoin:round;stroke-miterlimit:4;stroke-dasharray:none;stroke-opacity:1;filter:url(#filter3191)"/><path style="opacity:1;fill:url(#linearGradient3156);fill-opacity:1;stroke:none;stroke-width:.45835447;stroke-linecap:round;stroke-linejoin:round;stroke-miterlimit:4;stroke-dasharray:none;stroke-opacity:1" id="circle3097" d="m -118,-29 a 13,13 0 0 0 -13,13 13,13 0 0 0 13,13 13,13 0 0 0 12.95312,-12.046875 A 9.5,9.5 0 0 1 -114.5,-6.5 9.5,9.5 0 0 1 -124,-16 a 9.5,9.5 0 0 1 9.5,-9.5 9.5,9.5 0 0 1 9.47461,8.818359 A 13,13 0 0 0 -118,-29 Z"/></g></g></svg>