<svg xmlns="http://www.w3.org/2000/svg" xmlns:svg="http://www.w3.org/2000/svg" xmlns:xlink="http://www.w3.org/1999/xlink" id="svg23" width="32" height="32" version="1.1"><defs id="defs27"><linearGradient id="linearGradient4922" x1="70.011" x2="115" y1="-117.64" y2="-117.64" gradientTransform="translate(-21.671,-25)" gradientUnits="userSpaceOnUse"><stop id="stop1550" offset="0" stop-color="#236eb9"/><stop id="stop1552" offset="1" stop-color="#32a5f0"/></linearGradient><linearGradient id="linearGradient4928" x1="70.108" x2="115" y1="-77.894" y2="-77.894" gradientTransform="translate(-21.671,-25)" gradientUnits="userSpaceOnUse"><stop id="stop1565" offset="0" stop-color="#19326e"/><stop id="stop1567" offset="1" stop-color="#285abe"/></linearGradient><linearGradient id="linearGradient4926" x1="18.523" x2="30.427" y1="-23.994" y2="-23.994" gradientTransform="matrix(3.7796,0,0,3.7796,-21.671,-25)" gradientUnits="userSpaceOnUse"><stop id="stop1560" offset="0" stop-color="#1e4b96"/><stop id="stop1562" offset="1" stop-color="#3278d7"/></linearGradient><linearGradient id="linearGradient3584" x1="-85" x2="-71.198" y1="103" y2="89.463" gradientTransform="matrix(-1,0,0,1,-120.93554,8.06446)" gradientUnits="userSpaceOnUse" xlink:href="#linearGradient4922"/><filter style="color-interpolation-filters:sRGB" id="filter3203" width="1.072" height="1.072" x="-.036" y="-.036"><feGaussianBlur id="feGaussianBlur3205" stdDeviation=".24"/></filter><linearGradient id="linearGradient3588" x1="-67.406" x2="-56.031" y1="90" y2="90" gradientTransform="matrix(-1,0,0,1,-120.93554,8.06446)" gradientUnits="userSpaceOnUse" xlink:href="#linearGradient4926"/><filter style="color-interpolation-filters:sRGB" id="filter3197" width="1.072" height="1.072" x="-.036" y="-.036"><feGaussianBlur id="feGaussianBlur3199" stdDeviation=".285"/></filter><linearGradient id="linearGradient3590" x1="-69.531" x2="-54.5" y1="90" y2="90" gradientTransform="matrix(-1,0,0,1,-120.93554,8.06446)" gradientUnits="userSpaceOnUse" xlink:href="#linearGradient4924"/><linearGradient id="linearGradient4924" x1="18.523" x2="30.427" y1="-27.715" y2="-27.715" gradientTransform="matrix(3.7796,0,0,3.7796,-21.671,-25)" gradientUnits="userSpaceOnUse"><stop id="stop1555" offset="0" stop-color="#2369b4"/><stop id="stop1557" offset="1" stop-color="#3296e6"/></linearGradient><filter style="color-interpolation-filters:sRGB" id="filter3191" width="1.072" height="1.072" x="-.036" y="-.036"><feGaussianBlur id="feGaussianBlur3193" stdDeviation=".39"/></filter><linearGradient id="linearGradient901" x1="-85" x2="-71.198" y1="103" y2="89.463" gradientTransform="matrix(-1,0,0,1,-120.93554,8.06446)" gradientUnits="userSpaceOnUse" xlink:href="#linearGradient4922"/></defs><metadata id="metadata2"/><g id="system-suspend-hibernate-3" transform="translate(-81.118585)"><rect style="opacity:0;fill:#000;fill-opacity:1;fill-rule:evenodd;stroke:none;stroke-width:2;stroke-linecap:round;stroke-linejoin:round;stroke-miterlimit:4;stroke-dasharray:none;stroke-opacity:1;paint-order:fill markers stroke" id="rect887" width="32" height="32" x="42" y="0" rx="0" ry="0"/><g id="g1496" transform="translate(-0.99999962,38.999999)"><g id="g1465" transform="translate(95.311318,-118.76007)"><path id="path1461" d="M -37.228467,105.17175 A 12.423848,12.423848 0 0 1 -51.014754,100.707 12.423848,12.423848 0 0 1 -51.192566,86.216862 12.423848,12.423848 0 0 1 -37.51999,81.415155" transform="matrix(-0.70710678,-0.70710678,-0.70710678,0.70710678,0,0)" style="opacity:1;fill:none;fill-opacity:1;fill-rule:evenodd;stroke:#eaeaea;stroke-width:1.15959466;stroke-linecap:round;stroke-linejoin:miter;stroke-miterlimit:4;stroke-dasharray:none;stroke-dashoffset:3;stroke-opacity:1;paint-order:stroke fill markers"/><path style="opacity:1;fill:none;fill-opacity:1;fill-rule:evenodd;stroke:#eaeaea;stroke-width:1.26629484;stroke-linecap:round;stroke-linejoin:miter;stroke-miterlimit:4;stroke-dasharray:none;stroke-dashoffset:3;stroke-opacity:1;paint-order:stroke fill markers" id="path1463" d="m -37.362245,105.17154 a 13.567029,13.567029 0 0 1 -7.157527,-11.743463 13.567029,13.567029 0 0 1 6.781811,-11.964372" transform="matrix(-0.70710678,-0.70710678,-0.70710678,0.70710678,0,0)"/></g><g id="g1483" transform="translate(0,1.0000002)"><rect id="rect1469" width="10.881" height="1.042" x="53.249" y="17.157" ry=".521" transform="rotate(-45)" style="opacity:1;fill:#eaeaea;fill-opacity:1;fill-rule:evenodd;stroke:none;stroke-width:1.68331885;stroke-linecap:round;stroke-linejoin:miter;stroke-miterlimit:4;stroke-dasharray:none;stroke-dashoffset:3;stroke-opacity:1;paint-order:stroke fill markers"/><rect style="opacity:1;fill:#eaeaea;fill-opacity:1;fill-rule:evenodd;stroke:none;stroke-width:1.4142189;stroke-linecap:round;stroke-linejoin:miter;stroke-miterlimit:4;stroke-dasharray:none;stroke-dashoffset:3;stroke-opacity:1;paint-order:stroke fill markers" id="rect1471" width="8" height="1" x="50" y="-26" ry=".5"/><rect id="rect1473" width="8" height="1" x="50" y="32" ry=".5" transform="scale(1,-1)" style="opacity:1;fill:#eaeaea;fill-opacity:1;fill-rule:evenodd;stroke:none;stroke-width:1.41420281;stroke-linecap:round;stroke-linejoin:miter;stroke-miterlimit:4;stroke-dasharray:none;stroke-dashoffset:3;stroke-opacity:1;paint-order:stroke fill markers"/></g></g></g><g id="system-suspend-hibernate" transform="translate(-42)"><rect style="opacity:0;fill:#000;fill-opacity:1;fill-rule:evenodd;stroke:none;stroke-width:2;stroke-linecap:round;stroke-linejoin:round;stroke-miterlimit:4;stroke-dasharray:none;stroke-opacity:1;paint-order:fill markers stroke" id="rect887-5" width="32" height="32" x="42" y="0" rx="0" ry="0"/><g id="g3636" transform="translate(106.92285,-82.064459)"><path style="opacity:1;fill:url(#linearGradient901);fill-opacity:1;stroke:none;stroke-width:.45835447;stroke-linecap:round;stroke-linejoin:round;stroke-miterlimit:4;stroke-dasharray:none;stroke-opacity:1" id="circle3564" d="m -48.93554,85.064453 a 13,13 0 0 1 13,13 13,13 0 0 1 -13,12.999997 13,13 0 0 1 -12.966797,-12.351559 6.5,6.5 0 0 0 6.466797,5.851559 6.5,6.5 0 0 0 6.5,-6.499997 6.5,6.5 0 0 0 -6.5,-6.5 6.5,6.5 0 0 0 -6.482422,6.029297 13,13 0 0 1 12.982422,-12.529297 z"/><path style="opacity:.3;fill:#000;fill-opacity:1;stroke:none;stroke-width:.28206432;stroke-linecap:round;stroke-linejoin:round;stroke-miterlimit:4;stroke-dasharray:none;stroke-opacity:1;filter:url(#filter3203)" id="path3568" d="m -43.910153,90.06446 a 8,8 0 0 0 -8,8 8,8 0 0 0 8,8 8,8 0 0 0 8,-8 6.5,6.5 0 0 1 -6.5,6.5 6.5,6.5 0 0 1 -6.5,-6.5 6.5,6.5 0 0 1 6.5,-6.5 6.5,6.5 0 0 1 6.48437,6.039063 8,8 0 0 0 -7.98437,-7.539063 z" transform="matrix(-1,0,0,1,-97.845696,0)"/><path id="path3570" d="m -53.935543,90.06446 a 8,8 0 0 1 8,8 8,8 0 0 1 -8,8 8,8 0 0 1 -8,-8 6.5,6.5 0 0 0 6.5,6.5 6.5,6.5 0 0 0 6.5,-6.5 6.5,6.5 0 0 0 -6.5,-6.5 6.5,6.5 0 0 0 -6.48437,6.039063 8,8 0 0 1 7.98437,-7.539063 z" style="opacity:1;fill:url(#linearGradient3588);fill-opacity:1;stroke:none;stroke-width:.28206432;stroke-linecap:round;stroke-linejoin:round;stroke-miterlimit:4;stroke-dasharray:none;stroke-opacity:1"/><path style="opacity:.3;fill:#000;fill-opacity:1;stroke:none;stroke-width:.33495137;stroke-linecap:round;stroke-linejoin:round;stroke-miterlimit:4;stroke-dasharray:none;stroke-opacity:1;filter:url(#filter3197)" id="path3572" d="m -45.410153,88.56446 a 9.5,9.5 0 0 0 -9.5,9.5 9.5,9.5 0 0 0 9.5,9.5 9.5,9.5 0 0 0 9.46094,-8.697266 8,8 0 0 1 -7.96094,7.197266 8,8 0 0 1 -8,-8 8,8 0 0 1 8,-8 8,8 0 0 1 7.98047,7.431641 9.5,9.5 0 0 0 -9.48047,-8.931641 z" transform="matrix(-1,0,0,1,-97.845696,0)"/><path id="path3574" d="m -52.435543,88.56446 a 9.5,9.5 0 0 1 9.5,9.5 9.5,9.5 0 0 1 -9.5,9.5 9.5,9.5 0 0 1 -9.46094,-8.697266 8,8 0 0 0 7.96094,7.197266 8,8 0 0 0 8,-8 8,8 0 0 0 -8,-8 8,8 0 0 0 -7.98047,7.431641 9.5,9.5 0 0 1 9.48047,-8.931641 z" style="opacity:1;fill:url(#linearGradient3590);fill-opacity:1;stroke:none;stroke-width:.33495137;stroke-linecap:round;stroke-linejoin:round;stroke-miterlimit:4;stroke-dasharray:none;stroke-opacity:1"/><path style="opacity:.3;fill:#000;fill-opacity:1;stroke:none;stroke-width:.45835447;stroke-linecap:round;stroke-linejoin:round;stroke-miterlimit:4;stroke-dasharray:none;stroke-opacity:1;filter:url(#filter3191)" id="path3576" d="m -48.910153,85.06446 a 13,13 0 0 0 -13,13 13,13 0 0 0 13,13 13,13 0 0 0 12.95312,-12.046875 9.5,9.5 0 0 1 -9.45312,8.546875 9.5,9.5 0 0 1 -9.5,-9.5 9.5,9.5 0 0 1 9.5,-9.5 9.5,9.5 0 0 1 9.47461,8.818359 13,13 0 0 0 -12.97461,-12.318359 z" transform="matrix(-1,0,0,1,-97.845696,0)"/><path id="path3578" d="m -48.935543,85.06446 a 13,13 0 0 1 13,13 13,13 0 0 1 -13,13 13,13 0 0 1 -12.95312,-12.046875 9.5,9.5 0 0 0 9.45312,8.546875 9.5,9.5 0 0 0 9.5,-9.5 9.5,9.5 0 0 0 -9.5,-9.5 9.5,9.5 0 0 0 -9.47461,8.818359 13,13 0 0 1 12.97461,-12.318359 z" style="opacity:1;fill:url(#linearGradient3584);fill-opacity:1;stroke:none;stroke-width:.45835447;stroke-linecap:round;stroke-linejoin:round;stroke-miterlimit:4;stroke-dasharray:none;stroke-opacity:1"/></g></g></svg>