<svg xmlns="http://www.w3.org/2000/svg" xmlns:svg="http://www.w3.org/2000/svg" xmlns:xlink="http://www.w3.org/1999/xlink" id="svg19" width="32" height="32" version="1.1"><defs id="defs23"><linearGradient id="linearGradient4928" x1="70.108" x2="115" y1="-77.894" y2="-77.894" gradientTransform="translate(-21.671,-25)" gradientUnits="userSpaceOnUse"><stop id="stop1565" offset="0" stop-color="#19326e"/><stop id="stop1567" offset="1" stop-color="#285abe"/></linearGradient><linearGradient id="linearGradient4926" x1="18.523" x2="30.427" y1="-23.994" y2="-23.994" gradientTransform="matrix(3.7796,0,0,3.7796,-21.671,-25)" gradientUnits="userSpaceOnUse"><stop id="stop1560" offset="0" stop-color="#1e4b96"/><stop id="stop1562" offset="1" stop-color="#3278d7"/></linearGradient><linearGradient id="linearGradient4924" x1="18.523" x2="30.427" y1="-27.715" y2="-27.715" gradientTransform="matrix(3.7796,0,0,3.7796,-21.671,-25)" gradientUnits="userSpaceOnUse"><stop id="stop1555" offset="0" stop-color="#2369b4"/><stop id="stop1557" offset="1" stop-color="#3296e6"/></linearGradient><linearGradient id="linearGradient3065" x1="13.549" x2="29.071" y1="-57.734" y2="-57.734" gradientTransform="matrix(0.89209638,0,0,0.89209638,-146.4672,93.504127)" gradientUnits="userSpaceOnUse" xlink:href="#linearGradient4924"/><filter style="color-interpolation-filters:sRGB" id="filter3241" width="1.078" height="1.067" x="-.039" y="-.033"><feGaussianBlur id="feGaussianBlur3243" stdDeviation=".242"/></filter><linearGradient id="linearGradient3063" x1="11.196" x2="31.425" y1="-57.734" y2="-57.734" gradientTransform="matrix(0.97120189,0,0,0.97120189,-148.15297,98.071188)" gradientUnits="userSpaceOnUse" xlink:href="#linearGradient4926"/><filter style="color-interpolation-filters:sRGB" id="filter3251" width="1.078" height="1.067" x="-.039" y="-.033"><feGaussianBlur id="feGaussianBlur3253" stdDeviation=".32"/></filter><linearGradient id="linearGradient3061" x1="8.301" x2="34.32" y1="-57.734" y2="-57.734" gradientTransform="translate(-148.76666,99.733813)" gradientUnits="userSpaceOnUse" xlink:href="#linearGradient4928"/></defs><metadata id="metadata2"/><g id="system-reboot-1" transform="translate(-6.4053807)"><rect style="opacity:0;fill:#000;fill-opacity:1;fill-rule:evenodd;stroke:none;stroke-width:2;stroke-linecap:round;stroke-linejoin:round;stroke-miterlimit:4;stroke-dasharray:none;stroke-opacity:1;paint-order:fill markers stroke" id="rect1129-7" width="32" height="32" x="-40" y="0" rx="0" ry="0"/><g id="g1376" transform="translate(-1.0005689,-63.999453)"><rect id="rect1370" width="6" height="1" x="70.999" y="-35.999" ry=".5" transform="matrix(0,1,1,0,0,0)" style="opacity:1;fill:#eaeaea;fill-opacity:1;fill-rule:evenodd;stroke:none;stroke-width:1.2247448;stroke-linecap:round;stroke-linejoin:miter;stroke-miterlimit:4;stroke-dasharray:none;stroke-dashoffset:3;stroke-opacity:1;paint-order:stroke fill markers"/><path style="opacity:1;fill:none;fill-opacity:1;fill-rule:evenodd;stroke:#eaeaea;stroke-width:1.00004983;stroke-linecap:round;stroke-linejoin:miter;stroke-miterlimit:4;stroke-dasharray:none;stroke-dashoffset:3;stroke-opacity:1;paint-order:stroke fill markers" id="path1372" d="m -78.767921,29.304807 a 12.499453,12.499453 0 0 1 16.476234,4.281307 12.499453,12.499453 0 0 1 -3.074306,16.743493 12.499453,12.499453 0 0 1 -16.922451,-1.851093 12.499453,12.499453 0 0 1 0.618117,-17.012167" transform="rotate(-45)"/><rect style="opacity:1;fill:#eaeaea;fill-opacity:1;fill-rule:evenodd;stroke:none;stroke-width:1.2247448;stroke-linecap:round;stroke-linejoin:miter;stroke-miterlimit:4;stroke-dasharray:none;stroke-dashoffset:3;stroke-opacity:1;paint-order:stroke fill markers" id="rect1374" width="6" height="1" x="29.999" y="75.999" ry=".5" transform="scale(-1,1)"/></g></g><g id="system-reboot" transform="translate(40)"><rect style="opacity:0;fill:#000;fill-opacity:1;fill-rule:evenodd;stroke:none;stroke-width:2;stroke-linecap:round;stroke-linejoin:round;stroke-miterlimit:4;stroke-dasharray:none;stroke-opacity:1;paint-order:fill markers stroke" id="rect1129-7-1" width="32" height="32" x="-40" y="0" rx="0" ry="0"/><g id="g3666" transform="translate(103.45572,-25.999417)"><path id="path3053" d="m -121.33103,42.000004 a 6.1252747,6.1252747 0 0 1 -3.78124,5.659016 6.1252747,6.1252747 0 0 1 -6.67526,-1.327793 6.1252747,6.1252747 0 0 1 -1.32779,-6.675264 6.1252747,6.1252747 0 0 1 5.65901,-3.781234" style="opacity:1;fill:none;fill-opacity:1;fill-rule:evenodd;stroke:url(#linearGradient3065);stroke-width:2.66822529;stroke-linecap:round;stroke-linejoin:miter;stroke-miterlimit:4;stroke-dasharray:none;stroke-dashoffset:3;stroke-opacity:1;paint-order:stroke fill markers"/><path id="path3235" d="m -118.76545,42 a 8.690856,8.690856 0 0 1 -5.36501,8.029304 8.690856,8.690856 0 0 1 -9.47121,-1.883941 8.690856,8.690856 0 0 1 -1.88394,-9.47121 8.690856,8.690856 0 0 1 8.0293,-5.365009" style="opacity:.3;fill:none;fill-opacity:1;fill-rule:evenodd;stroke:#000;stroke-width:2.91360569;stroke-linecap:round;stroke-linejoin:miter;stroke-miterlimit:4;stroke-dasharray:none;stroke-dashoffset:3;stroke-opacity:1;paint-order:stroke fill markers;filter:url(#filter3241)"/><path style="opacity:1;fill:none;fill-opacity:1;fill-rule:evenodd;stroke:url(#linearGradient3063);stroke-width:2.91360569;stroke-linecap:round;stroke-linejoin:miter;stroke-miterlimit:4;stroke-dasharray:none;stroke-dashoffset:3;stroke-opacity:1;paint-order:stroke fill markers" id="path3051" d="m -118.76545,42.000004 a 8.690856,8.690856 0 0 1 -5.36501,8.029304 8.690856,8.690856 0 0 1 -9.47121,-1.883941 8.690856,8.690856 0 0 1 -1.88394,-9.47121 8.690856,8.690856 0 0 1 8.0293,-5.365009"/><path style="opacity:.3;fill:none;fill-opacity:1;fill-rule:evenodd;stroke:#000;stroke-width:2.9996829;stroke-linecap:round;stroke-linejoin:miter;stroke-miterlimit:4;stroke-dasharray:none;stroke-dashoffset:3;stroke-opacity:1;paint-order:stroke fill markers;filter:url(#filter3251)" id="path3245" d="m -115.94672,42 a 11.509583,11.509583 0 0 1 -7.10506,10.633469 11.509583,11.509583 0 0 1 -12.54303,-2.494965 11.509583,11.509583 0 0 1 -2.49496,-12.543031 11.509583,11.509583 0 0 1 10.63346,-7.105056"/><path id="path3049" d="m -115.94672,42.000004 a 11.509583,11.509583 0 0 1 -7.10506,10.633468 11.509583,11.509583 0 0 1 -12.54303,-2.494964 11.509583,11.509583 0 0 1 -2.49496,-12.543031 11.509583,11.509583 0 0 1 10.63346,-7.105057" style="opacity:1;fill:none;fill-opacity:1;fill-rule:evenodd;stroke:url(#linearGradient3061);stroke-width:2.9996829;stroke-linecap:round;stroke-linejoin:miter;stroke-miterlimit:4;stroke-dasharray:none;stroke-dashoffset:3;stroke-opacity:1;paint-order:stroke fill markers"/></g></g></svg>