<svg xmlns="http://www.w3.org/2000/svg" xmlns:svg="http://www.w3.org/2000/svg" xmlns:xlink="http://www.w3.org/1999/xlink" id="svg12" width="32" height="32" version="1.1"><defs id="defs16"><linearGradient id="linearGradient10100" x1="12.5" x2="51.5" y1="59.5" y2="34.5" gradientTransform="matrix(0.56410243,0,0,0.56000046,184.94875,-6.3200154)" gradientUnits="userSpaceOnUse" xlink:href="#linearGradient4928"/><linearGradient id="linearGradient4928" x1="70.108" x2="115" y1="-77.894" y2="-77.894" gradientTransform="translate(-21.671,-25)" gradientUnits="userSpaceOnUse"><stop id="stop1565" offset="0" stop-color="#19326e"/><stop id="stop1567" offset="1" stop-color="#285abe"/></linearGradient><linearGradient id="linearGradient10102" x1="21" x2="43" y1="32.5" y2="10.5" gradientTransform="matrix(0.54545454,0,0,0.54545454,185.54545,-5.7272725)" gradientUnits="userSpaceOnUse" xlink:href="#linearGradient4924"/><linearGradient id="linearGradient4924" x1="18.523" x2="30.427" y1="-27.715" y2="-27.715" gradientTransform="matrix(3.7796,0,0,3.7796,-21.671,-25)" gradientUnits="userSpaceOnUse"><stop id="stop1555" offset="0" stop-color="#2369b4"/><stop id="stop1557" offset="1" stop-color="#3296e6"/></linearGradient></defs><metadata id="metadata2"/><g id="system-switch-user-3" transform="translate(-205.30584)"><rect id="rect956" width="32" height="32" x="163.215" y="0" rx="0" ry="0" style="opacity:0;fill:#000;fill-opacity:1;fill-rule:evenodd;stroke:none;stroke-width:2;stroke-linecap:round;stroke-linejoin:round;stroke-miterlimit:4;stroke-dasharray:none;stroke-opacity:1;paint-order:fill markers stroke"/><g id="g1774" transform="translate(-2.2922849e-6,-0.5000069)"><rect style="opacity:1;fill:#eaeaea;fill-opacity:1;stroke:none;stroke-width:.93094933;stroke-miterlimit:4;stroke-dasharray:none;stroke-opacity:1" id="rect1715" width="26" height="1" x="166.215" y="13" ry="0"/><rect style="opacity:1;fill:#eaeaea;fill-opacity:1;fill-rule:evenodd;stroke:none;stroke-width:1.41421354;stroke-linecap:round;stroke-linejoin:miter;stroke-miterlimit:4;stroke-dasharray:none;stroke-dashoffset:3;stroke-opacity:1;paint-order:stroke fill markers" id="rect1725" width="8" height="1" x="137.816" y="-127.017" rx="0" ry="0" transform="rotate(45)"/><rect id="rect1747" width="26" height="1" x="166.215" y="-20" ry="0" transform="scale(1,-1)" style="opacity:1;fill:#eaeaea;fill-opacity:1;stroke:none;stroke-width:.93094933;stroke-miterlimit:4;stroke-dasharray:none;stroke-opacity:1"/><rect style="opacity:1;fill:#eaeaea;fill-opacity:1;fill-rule:evenodd;stroke:none;stroke-width:1.41421354;stroke-linecap:round;stroke-linejoin:miter;stroke-miterlimit:4;stroke-dasharray:none;stroke-dashoffset:3;stroke-opacity:1;paint-order:stroke fill markers" id="rect1749" width="8" height="1" x="130.967" y="-104.097" ry="0" transform="rotate(45)"/></g></g><g id="system-switch-user" transform="translate(-163.21501)"><rect id="rect956-3" width="32" height="32" x="163.215" y="0" rx="0" ry="0" style="opacity:0;fill:#000;fill-opacity:1;fill-rule:evenodd;stroke:none;stroke-width:2;stroke-linecap:round;stroke-linejoin:round;stroke-miterlimit:4;stroke-dasharray:none;stroke-opacity:1;paint-order:fill markers stroke"/><g id="g10198" transform="translate(-24,2)"><path id="path10064" d="m 192.00003,23.920009 v 1.960001 c 0,0.310241 0.1255,0.590521 0.32942,0.792961 C 192.53337,26.875411 192.81572,27 193.12822,27 h 19.74359 c 0.31251,0 0.59484,-0.124589 0.79877,-0.327029 C 213.8745,26.470531 214,26.19024 214,25.88001 V 23.920009 C 214,17.870324 209.094,13 203,13 c -6.094,0 -11,4.870324 -11,10.920009 z" style="fill:url(#linearGradient10100);fill-opacity:1;stroke-width:.56204766"/><circle id="circle10066" cx="203" cy="6" r="6" style="fill:url(#linearGradient10102);fill-opacity:1;stroke-width:.54545456"/></g></g></svg>