<svg xmlns="http://www.w3.org/2000/svg" width="22" height="22" version="1.1"><defs><style id="current-color-scheme" type="text/css">.ColorScheme-Text{color:#dfdfdf}</style></defs><g><path style="fill:currentColor" d="m217 820.36s2 0 2 2h-14c0-2 1.9688-2 1.9688-2zm2 8c0 2-2 2-2 2h-1l-2 3-2-3h-5c-1.108 0-2-0.892-2-2z" class="ColorScheme-Text" opacity=".3" transform="translate(-201 -815.36)"/><path style="fill:currentColor" d="m207 823.36c-1.108 0-2 0.892-2 2s0.892 2 2 2 2-0.892 2-2-0.892-2-2-2zm5 0c-1.108 0-2 0.892-2 2s0.892 2 2 2 2-0.892 2-2-0.892-2-2-2zm5 0c-1.108 0-2 0.892-2 2s0.892 2 2 2 2-0.892 2-2-0.892-2-2-2z" class="ColorScheme-Text" transform="translate(-201 -815.36)"/></g></svg>