<svg xmlns="http://www.w3.org/2000/svg" xmlns:svg="http://www.w3.org/2000/svg" xmlns:xlink="http://www.w3.org/1999/xlink" id="svg11" width="22" height="22" version="1.1"><metadata id="metadata15"/><defs id="defs3"><style id="current-color-scheme" type="text/css">.ColorScheme-Text{color:#dfdfdf}</style><linearGradient id="linearGradient890" x1="0" x2="16" y1="8" y2="8" gradientTransform="translate(3.00002,2.9999999)" gradientUnits="userSpaceOnUse" xlink:href="#linearGradient992"/><linearGradient id="linearGradient992" x1="13.152" x2="20.621" y1="9.126" y2="9.126" gradientTransform="matrix(0.85495515,0,0,0.85495515,-2.1299959,2.6174204)" gradientUnits="userSpaceOnUse"><stop id="stop818" offset="0" stop-color="#fafafa"/><stop id="stop820" offset="1" stop-color="#d4d4d4"/></linearGradient></defs><path style="color:#dfdfdf;fill:url(#linearGradient890);fill-opacity:1" id="path5" d="m 11.02082,2.9999999 a 0.99921,1.0001 0 1 0 0,2 c 0,0 0.2854,0.013 0.5425,0.1426 0.2571,0.1295 0.4429,0.1884 0.4429,0.8574 0,0.669 -0.1858,0.7279 -0.4429,0.8574 -0.2571,0.1296 -0.5425,0.1426 -0.5425,0.1426 h -7.0075 a 0.99921,1.0001 0 1 0 0,2.0000002 h 7.0075 c 0,0 0.707,0.013 1.4421,-0.3574 0.7351,-0.3705002 1.5411,-1.3116002 1.5411,-2.6426002 0,-1.331 -0.806,-2.27215 -1.5411,-2.64258 -0.7351,-0.37043 -1.4421,-0.35742 -1.4421,-0.35742 z m 4.9952,3 a 0.99921,1.0001 0 1 0 0,2 c 0,0 0.286,0.013 0.543,0.1426 0.257,0.1295 0.443,0.1884 0.443,0.8574002 0,0.669 -0.186,0.7279 -0.443,0.8574 C 16.30202,9.9870001 16.01602,10 16.01602,10 h -7.9926 a 0.99921,1.0001 0 1 0 0,2 h 7.9926 c 0,0 0.707,0.013 1.442,-0.3574 0.735,-0.3705 1.542,-1.3116 1.542,-2.6425999 0,-1.3310002 -0.807,-2.2721002 -1.542,-2.6426002 -0.735,-0.3704 -1.442,-0.3574 -1.442,-0.3574 z M 4.01332,13 a 0.99921,1.0001 0 1 0 0,2 h 7.0075 c 0,0 0.2854,0.013 0.5425,0.143 0.2571,0.129 0.4429,0.188 0.4429,0.857 0,0.669 -0.1858,0.728 -0.4429,0.857 -0.2571,0.13 -0.5425,0.143 -0.5425,0.143 a 0.99921,1.0001 0 1 0 0,2 c 0,0 0.707,0.013 1.4421,-0.357 0.7351,-0.371 1.5411,-1.312 1.5411,-2.643 0,-1.331 -0.806,-2.272 -1.5411,-2.643 C 11.72782,12.987 11.02082,13 11.02082,13 Z" class="ColorScheme-Text"/></svg>