<svg xmlns="http://www.w3.org/2000/svg" xmlns:svg="http://www.w3.org/2000/svg" xmlns:xlink="http://www.w3.org/1999/xlink" id="svg9" width="22" height="22" version="1.1"><metadata id="metadata13"/><defs id="defs3"><style id="current-color-scheme" type="text/css"/><filter id="filter1012" width="1.096" height="1.153" x="-.048" y="-.076" style="color-interpolation-filters:sRGB"><feGaussianBlur id="feGaussianBlur823" stdDeviation=".188"/></filter><linearGradient id="linearGradient900" x1="13.152" x2="20.621" y1="9.126" y2="9.126" gradientTransform="matrix(0.85495515,0,0,0.85495515,-2.1299959,2.6174204)" gradientUnits="userSpaceOnUse" xlink:href="#linearGradient992"/><linearGradient id="linearGradient992" x1="13.152" x2="20.621" y1="9.126" y2="9.126" gradientTransform="matrix(0.85495515,0,0,0.85495515,-2.1299959,2.6174204)" gradientUnits="userSpaceOnUse"><stop id="stop818" offset="0" stop-color="#fafafa"/><stop id="stop820" offset="1" stop-color="#d4d4d4"/></linearGradient><filter id="filter1022" width="1.098" height="1.155" x="-.049" y="-.078" style="color-interpolation-filters:sRGB"><feGaussianBlur id="feGaussianBlur1024" stdDeviation=".21"/></filter><linearGradient id="linearGradient896" x1="13.152" x2="20.621" y1="9.126" y2="9.126" gradientTransform="matrix(1.10014,0,0,1.10014,-7.6266213,0.93467994)" gradientUnits="userSpaceOnUse" xlink:href="#linearGradient992"/></defs><g id="g1031" transform="translate(3.0000004,3.0000002)"><g id="g850" transform="matrix(1.7805212,0,0,1.7805212,-11.987719,-12.429355)"><path style="opacity:.3;fill-rule:evenodd;filter:url(#filter1012)" id="path853" d="m 15.187,6.176 a 2.296,2.3606 0 0 1 2.0957,1.4016 2.296,2.3606 0 0 1 0.9664,-0.22286 2.296,2.3606 0 0 1 2.296,2.3606 2.296,2.3606 0 0 1 -2.296,2.3606 2.296,2.3606 0 0 1 -7.47e-4,0 h -5.3574 a 1.721,1.7695 0 0 1 -1.7205,-1.7697 1.721,1.7695 0 0 1 1.7205,-1.7689 2.296,2.3606 0 0 0 0,-7.6e-4 2.296,2.3606 0 0 1 0,-0.001 2.296,2.3606 0 0 1 2.296,-2.3591 z" transform="matrix(0.71074986,0,0,0.82582683,-0.66762934,2.9691404)"/><path style="fill:url(#linearGradient900);fill-rule:evenodd;stroke-width:.85495514" id="path855" d="M 10.919065,7.8976234 A 1.962977,2.0182071 0 0 1 12.710794,9.0959285 1.962977,2.0182071 0 0 1 13.537023,8.9053932 1.962977,2.0182071 0 0 1 15.5,10.9236 a 1.962977,2.0182071 0 0 1 -1.962977,2.018207 1.962977,2.0182071 0 0 1 -6.39e-4,0 H 8.9560476 a 1.4713778,1.5128431 0 0 1 -1.4709503,-1.513014 1.4713778,1.5128431 0 0 1 1.4709503,-1.5123298 1.962977,2.0182071 0 0 0 0,-6.498e-4 1.962977,2.0182071 0 0 1 0,-8.549e-4 1.962977,2.0182071 0 0 1 1.9629774,-2.0169247 z"/></g><path id="path934" d="m 9.1646624,7.7291448 a 2.5259215,2.5969906 0 0 1 2.3055626,1.5419563 2.5259215,2.5969906 0 0 1 1.063176,-0.2451772 2.5259215,2.5969906 0 0 1 2.525921,2.5969901 2.5259215,2.5969906 0 0 1 -2.525921,2.59699 2.5259215,2.5969906 0 0 1 -8.23e-4,0 H 6.6386889 a 1.893341,1.9466978 0 0 1 -1.8927909,-1.946918 1.893341,1.9466978 0 0 1 1.8927909,-1.946037 2.5259215,2.5969906 0 0 0 0,-8.36e-4 2.5259215,2.5969906 0 0 1 0,-0.0011 2.5259215,2.5969906 0 0 1 2.525922,-2.5953401 z" transform="matrix(1.0343111,0,0,1.0343111,-0.53399839,-0.50519707)" style="opacity:.3;fill:#000;fill-opacity:1;fill-rule:evenodd;stroke-width:1.10013998;filter:url(#filter1022)"/><path style="fill:url(#linearGradient896);fill-rule:evenodd;stroke-width:1.10013998" id="path855-0" d="m 9.1646624,7.7291448 a 2.5259215,2.5969906 0 0 1 2.3055626,1.5419563 2.5259215,2.5969906 0 0 1 1.063176,-0.2451772 2.5259215,2.5969906 0 0 1 2.525921,2.5969901 2.5259215,2.5969906 0 0 1 -2.525921,2.59699 2.5259215,2.5969906 0 0 1 -8.23e-4,0 H 6.6386889 a 1.893341,1.9466978 0 0 1 -1.8927909,-1.946918 1.893341,1.9466978 0 0 1 1.8927909,-1.946037 2.5259215,2.5969906 0 0 0 0,-8.36e-4 2.5259215,2.5969906 0 0 1 0,-0.0011 2.5259215,2.5969906 0 0 1 2.525922,-2.5953401 z"/></g></svg>