<svg xmlns="http://www.w3.org/2000/svg" xmlns:svg="http://www.w3.org/2000/svg" xmlns:xlink="http://www.w3.org/1999/xlink" id="svg2" version="1.1" viewBox="0 0 22 22"><metadata id="metadata10"/><defs id="defs3051"><linearGradient id="linearGradient4153"><stop style="stop-color:#fff;stop-opacity:.45882353" id="stop4155" offset="0"/><stop style="stop-color:#fff;stop-opacity:.05294118" id="stop4157" offset="1"/></linearGradient><style id="current-color-scheme" type="text/css">.ColorScheme-Text{color:#5d656b}</style><linearGradient id="linearGradient4159" x1="8.686" x2="12.661" y1="9.229" y2="13.144" gradientUnits="userSpaceOnUse" xlink:href="#linearGradient4153"/></defs><path style="fill:currentColor;fill-opacity:1;stroke:none" id="path6" d="m 15.40625,3 -4,4 L 10.3125,8.09375 7,11.375 7,11.40625 6.3125,12.09375 3,15.375 3,17 l 2,2 1.625,0 3.96875,-4 1.125,-1.125 L 15,10.59375 15.71875,9.875 19,6.59375 19,5 17,3 15.40625,3 Z" class="ColorScheme-Text"/><path style="color:#5d656b;fill:url(#linearGradient4159);fill-opacity:1;stroke:none" id="path6-3" d="m 15.40625,3 -4,4 L 10.3125,8.09375 7,11.375 7,11.40625 6.3125,12.09375 3,15.375 3,17 l 2,2 1.625,0 3.96875,-4 1.125,-1.125 L 15,10.59375 15.71875,9.875 19,6.59375 19,5 17,3 15.40625,3 Z"/></svg>