<svg xmlns="http://www.w3.org/2000/svg" xmlns:svg="http://www.w3.org/2000/svg" id="svg2" version="1.1" viewBox="0 0 22 22"><metadata id="metadata10"/><defs id="defs3051"><style id="current-color-scheme" type="text/css">.ColorScheme-Text{color:#5d656b}</style></defs><path style="color:#5d656b;fill:currentColor;fill-opacity:1;stroke:none" id="path6" d="m 19,9 -2,-3 -2,3 4,0 m 0,4 -4,0 2,3 2,-3 M 16,6 14,6 14,3 7,3 7,6 3,6 l 0,1 4,0 0,3 7,0 0,-3 2,0 0,-1 m 0,9 -2,0 0,-3 -9,0 0,3 -2,0 0,1 2,0 0,3 9,0 0,-3 2,0 0,-1 M 13,4 13,9 8,9 8,4 13,4 m 0,9 0,5 -7,0 0,-5 7,0" class="ColorScheme-Text"/></svg>