<svg xmlns="http://www.w3.org/2000/svg" id="svg3521" width="22" height="22" version="1.1" viewBox="0 0 22 22"><defs id="defs4339"><style id="current-color-scheme" type="text/css">.ColorScheme-Text{color:#5d656b}</style></defs><metadata id="metadata3526"/><g id="layer1" transform="translate(0 -1030.4)"><path id="rect4298" d="m8 4v2 8h1v-8h7v8h1v-8-2h-9zm-2.9141 10.301l-0.707 0.707 1.4141 1.414-1.4141 1.414 0.707 0.707 1.4141-1.414 1.4141 1.414 0.707-0.707-1.4141-1.414 1.4141-1.414-0.707-0.707-1.4141 1.414-1.4141-1.414zm8.0001 0l-0.707 0.707 1.414 1.414-1.414 1.414 0.707 0.707 1.414-1.414 1.414 1.414 0.707-0.707-1.414-1.414 1.414-1.414-0.707-0.707-1.414 1.414-1.414-1.414z" class="ColorScheme-Text" transform="translate(0,1030.4)" style="fill:currentColor"/></g></svg>