<svg xmlns="http://www.w3.org/2000/svg" xmlns:osb="http://www.openswatchbook.org/uri/2009/osb" xmlns:svg="http://www.w3.org/2000/svg" id="svg7384" width="16" height="16" version="1.1"><metadata id="metadata20854"/><defs id="defs7386"><linearGradient id="linearGradient5606" osb:paint="solid"><stop id="stop5608" offset="0" style="stop-color:#000;stop-opacity:1"/></linearGradient><linearGradient id="linearGradient4526" osb:paint="solid"><stop id="stop4528" offset="0" style="stop-color:#fff;stop-opacity:1"/></linearGradient><linearGradient id="linearGradient3600-4" osb:paint="gradient"><stop id="stop3602-7" offset="0" style="stop-color:#f4f4f4;stop-opacity:1"/><stop id="stop3604-6" offset="1" style="stop-color:#dbdbdb;stop-opacity:1"/></linearGradient></defs><g id="layer3" transform="translate(-552.00046,-460.00005)" style="display:inline"><path id="path3908" d="m 564.44852,460.0906 c 0.39933,0 0.78638,0.0916 1.14329,0.21572 l -1.88489,1.87971 c -0.38734,0.38627 -0.38734,1.00037 0,1.38667 l 0.7107,0.70874 c 0.38734,0.38628 1.00314,0.38628 1.39049,0 l 1.88488,-1.87971 c 0.12444,0.35591 0.2163,0.74191 0.2163,1.14015 0,1.90608 -1.54944,3.45126 -3.46077,3.45126 -0.39933,0 -0.78639,-0.0916 -1.14329,-0.2157 l -1.17419,1.17097 c -0.0206,-2.6e-4 -0.0412,-2.6e-4 -0.0618,0 l -2.07029,-2.0646 1.20509,-1.20178 c -0.12444,-0.35592 -0.2163,-0.74191 -0.2163,-1.14015 0,-1.90609 1.54944,-3.45128 3.46077,-3.45128 z m -2.55074,3.88862 2.07028,2.0646 c -0.0109,0.0306 -0.0212,0.0614 -0.0309,0.0924 l -5.14329,5.14015 c 0.12444,0.35596 0.21629,0.74196 0.21629,1.14019 0,1.90609 -1.54943,3.45129 -3.46076,3.45129 -0.43346,0 -0.85361,-0.10141 -1.23599,-0.24653 l 2.00848,-2.00297 c 0.38735,-0.38629 0.38735,-1.03119 0,-1.41749 l -0.67979,-0.67792 c -0.19368,-0.19315 -0.45794,-0.30816 -0.7107,-0.30816 -0.25275,0 -0.51702,0.11501 -0.71069,0.30816 l -1.94668,1.94133 c -0.10485,-0.32958 -0.1854,-0.68351 -0.1854,-1.04771 0,-1.90608 1.54944,-3.45126 3.46077,-3.45126 0.39933,0 0.78638,0.0916 1.14329,0.2157 l 5.20509,-5.2018 z" style="color:#000;font-style:normal;font-variant:normal;font-weight:400;font-stretch:normal;font-size:medium;line-height:normal;font-family:Sans;-inkscape-font-specification:Sans;text-indent:0;text-align:start;text-decoration:none;text-decoration-line:none;letter-spacing:normal;word-spacing:normal;text-transform:none;writing-mode:lr-tb;direction:ltr;text-anchor:start;display:inline;overflow:visible;visibility:visible;fill:gray;fill-opacity:1;fill-rule:nonzero;stroke:none;stroke-width:2.99539447;marker:none;enable-background:accumulate"/></g></svg>