<svg xmlns="http://www.w3.org/2000/svg" xmlns:osb="http://www.openswatchbook.org/uri/2009/osb" xmlns:svg="http://www.w3.org/2000/svg" id="svg7384" width="16" height="16" version="1.1"><metadata id="metadata20854"/><defs id="defs7386"><linearGradient id="linearGradient5606" osb:paint="solid"><stop id="stop5608" offset="0" style="stop-color:#000;stop-opacity:1"/></linearGradient><linearGradient id="linearGradient4526" osb:paint="solid"><stop id="stop4528" offset="0" style="stop-color:#fff;stop-opacity:1"/></linearGradient><linearGradient id="linearGradient3600-4" osb:paint="gradient"><stop id="stop3602-7" offset="0" style="stop-color:#f4f4f4;stop-opacity:1"/><stop id="stop3604-6" offset="1" style="stop-color:#dbdbdb;stop-opacity:1"/></linearGradient></defs><g id="layer3" transform="translate(-592,-460)" style="display:inline"><path id="path4876" d="m 597.99994,463.99997 -4,8 v 0.55078 c 3.5e-4,1.35279 0.89568,2.44922 2,2.44922 h 8 c 1.10432,0 1.99965,-1.09643 2,-2.44922 v -0.55078 l -4,-8 h -1 l 0.3418,1.00586 v 0 c 0.62839,1.25663 1.25637,2.5129 1.88476,3.76953 0.56784,1.17893 1.21237,2.33909 1.73242,3.5293 0.0359,0.61876 -0.15521,1.46668 -0.83203,1.63672 -2.7251,0.0657 -5.48611,0.0535 -8.17968,0.0117 -0.72645,-0.13044 -0.95349,-1.0129 -0.92579,-1.65039 0.57553,-1.29695 1.27241,-2.56366 1.89454,-3.84961 0.57459,-1.14901 1.15003,-2.29825 1.7246,-3.44726 l -0.0156,-0.006 0.375,-1 z" style="opacity:1;fill:gray;fill-opacity:1;stroke:none;stroke-width:1;stroke-linejoin:bevel;stroke-miterlimit:4;stroke-dasharray:none;stroke-dashoffset:0;stroke-opacity:1"/><path id="rect4904" d="m 597.99994,461.99997 v 3 h 0.625 l 0.375,-0.75 v -2.25 z" style="opacity:1;fill:gray;fill-opacity:1;stroke:none;stroke-width:1;stroke-linejoin:bevel;stroke-miterlimit:4;stroke-dasharray:none;stroke-dashoffset:0;stroke-opacity:1"/><rect id="rect4911" width="6" height="1" x="597" y="461" rx=".5" ry=".5" style="opacity:1;fill:gray;fill-opacity:1;stroke:none;stroke-width:1;stroke-linejoin:bevel;stroke-miterlimit:4;stroke-dasharray:none;stroke-dashoffset:0;stroke-opacity:1"/><path id="rect4904-2" d="m 601.99994,461.99997 v 3 h -0.625 l -0.375,-0.75 v -2.25 z" style="display:inline;opacity:1;fill:gray;fill-opacity:1;stroke:none;stroke-width:1;stroke-linejoin:bevel;stroke-miterlimit:4;stroke-dasharray:none;stroke-dashoffset:0;stroke-opacity:1"/><path id="path4961" d="m 597.2396,470.1048 c -0.39616,0.81476 -0.8234,1.61568 -1.1814,2.44824 0.0157,0.22101 0.0951,0.42162 0.36097,0.34558 2.24872,0.0833 4.5576,0.0452 6.81005,0.0165 0.22666,-0.0498 0.70118,0.13229 0.68872,-0.26758 0.004,-0.40578 -0.34814,-0.75739 -0.48025,-1.14216 -0.58319,-1.17243 -1.16627,-2.34491 -1.74936,-3.51738 -1.132,0 -2.264,0 -3.396,0 -0.35091,0.70561 -0.70182,1.41121 -1.05273,2.11682 z" style="opacity:.5;fill:gray;fill-opacity:1;stroke:none;stroke-width:1;stroke-linejoin:bevel;stroke-miterlimit:4;stroke-dasharray:none;stroke-dashoffset:0;stroke-opacity:1"/></g></svg>