<svg xmlns="http://www.w3.org/2000/svg" xmlns:osb="http://www.openswatchbook.org/uri/2009/osb" xmlns:svg="http://www.w3.org/2000/svg" id="svg7384" width="16" height="16" version="1.1"><metadata id="metadata20854"/><defs id="defs7386"><linearGradient id="linearGradient5606" osb:paint="solid"><stop id="stop5608" offset="0" style="stop-color:#000;stop-opacity:1"/></linearGradient><linearGradient id="linearGradient4526" osb:paint="solid"><stop id="stop4528" offset="0" style="stop-color:#fff;stop-opacity:1"/></linearGradient><linearGradient id="linearGradient3600-4" osb:paint="gradient"><stop id="stop3602-7" offset="0" style="stop-color:#f4f4f4;stop-opacity:1"/><stop id="stop3604-6" offset="1" style="stop-color:#dbdbdb;stop-opacity:1"/></linearGradient></defs><g id="layer3" transform="translate(-572,-460)" style="display:inline"><path id="path2428-2" d="m 583,476 -0.47852,-0.92188 c -0.51103,-0.98528 -0.88042,-1.94206 -1.12695,-2.66601 -0.24655,-0.72395 -0.35422,-1.1466 -0.38281,-1.27149 L 581,471.08398 V 461 c 0,0 0,-1 1,-1 h 2 c 0,0 1,0 1,1 v 10.08398 l -0.0117,0.0566 c -0.0281,0.12211 -0.13628,0.54745 -0.38281,1.27149 -0.24654,0.72403 -0.6165,1.68142 -1.12695,2.66601 z m -0.20898,-3.04297 h 0.41601 c 0.13936,-0.31482 0.29412,-0.64939 0.37695,-0.89258 C 583.8091,471.40325 584.00085,470.99332 584,471 h -2 c -0.002,-0.009 0.18894,0.40341 0.41406,1.06445 0.0829,0.24312 0.2376,0.57775 0.37696,0.89258 z M 582,463 h 2 v -2 h -2 z" style="font-style:normal;font-variant:normal;font-weight:400;font-stretch:normal;font-size:15px;line-height:125%;font-family:Ubuntu;-inkscape-font-specification:Ubuntu;text-align:center;letter-spacing:0;word-spacing:0;writing-mode:lr-tb;text-anchor:middle;fill:gray;fill-opacity:1;stroke:none;stroke-width:.26892218"/><path id="rect2452-6" d="m 575,460 v 0.5 14.5 h 5 v -12 -1 -2 z m 1,1 h 3 v 1 h -1 v 1 h 1 v 1 h -1 v 1 h 1 v 1 h -1 v 1 h 1 v 1 h -1 v 1 h 1 v 1 h -1 v 1 h 1 v 1 h -1 v 1 h 1 v 1 h -3 z" style="color:#000;font-style:normal;font-variant:normal;font-weight:400;font-stretch:normal;font-size:medium;line-height:normal;font-family:sans-serif;font-variant-ligatures:normal;font-variant-position:normal;font-variant-caps:normal;font-variant-numeric:normal;font-variant-alternates:normal;font-feature-settings:normal;text-indent:0;text-align:start;text-decoration:none;text-decoration-line:none;text-decoration-style:solid;text-decoration-color:#000;letter-spacing:normal;word-spacing:normal;text-transform:none;writing-mode:lr-tb;direction:ltr;text-orientation:mixed;dominant-baseline:auto;baseline-shift:baseline;text-anchor:start;white-space:normal;shape-padding:0;clip-rule:nonzero;display:inline;overflow:visible;visibility:visible;opacity:1;isolation:auto;mix-blend-mode:normal;color-interpolation:sRGB;color-interpolation-filters:linearRGB;solid-color:#000;solid-opacity:1;vector-effect:none;fill:gray;fill-opacity:1;fill-rule:nonzero;stroke:none;stroke-width:1;stroke-linecap:butt;stroke-linejoin:miter;stroke-miterlimit:4;stroke-dasharray:none;stroke-dashoffset:1;stroke-opacity:1;color-rendering:auto;image-rendering:auto;shape-rendering:auto;text-rendering:auto;enable-background:accumulate"/></g></svg>