<svg xmlns="http://www.w3.org/2000/svg" id="svg7384" width="16.031" height="16.031" version="1.1"><metadata id="metadata90"/><title id="title9167">Gnome Symbolic Icon Theme</title><g id="layer14" transform="translate(-581 -301)"><path id="path3908-61" fill="#bebebe" d="m-174-39.984a2.0156 2.0156 0 1 1 -4.0312 0 2.0156 2.0156 0 1 1 4.0312 0z" color="#000" enable-background="new" transform="translate(759.03 343.03)"/><path id="path3910-1" fill="#bebebe" d="m-174-39.984a2.0156 2.0156 0 1 1 -4.0312 0 2.0156 2.0156 0 1 1 4.0312 0z" color="#000" enable-background="new" transform="translate(759.03 354.97)"/><path id="path3912" fill="#bebebe" d="m-174-39.984a2.0156 2.0156 0 1 1 -4.0312 0 2.0156 2.0156 0 1 1 4.0312 0z" color="#000" enable-background="new" transform="translate(771.03 354.97)"/><path id="path3914" fill="#bebebe" d="m-174-39.984a2.0156 2.0156 0 1 1 -4.0312 0 2.0156 2.0156 0 1 1 4.0312 0z" color="#000" enable-background="new" transform="translate(771.03 343)"/><path style="block-progression:tb;text-indent:0;text-transform:none" id="rect3916" fill="#bebebe" d="m582.06 302.06v1 11.969 1h1 11.969 1v-1-11.969-1h-1-11.969-1zm2 2h9.9688v9.9688h-9.9688v-9.9688z" color="#000" enable-background="new"/><path style="block-progression:tb;text-indent:0;text-transform:none" id="rect3918" fill="#bebebe" d="m585.97 306.03v0.5 5 0.5h0.5 5.0625 0.5v-0.5-5-0.5h-0.5-5.0625-0.5zm1 1h4.0625v4h-4.0625v-4z" color="#000" enable-background="new"/><path id="path3937" fill="#bebebe" d="m-166.5-31.766a1.2656 1.2656 0 1 1 -2.5312 0 1.2656 1.2656 0 1 1 2.5312 0z" color="#000" enable-background="new" transform="matrix(1.1975 0 0 1.1975 792.42 349.56)"/><path id="path3939" fill="#bebebe" d="m-166.5-31.766a1.2656 1.2656 0 1 1 -2.5312 0 1.2656 1.2656 0 1 1 2.5312 0z" color="#000" enable-background="new" transform="matrix(1.1975 0 0 1.1975 787.42 349.56)"/><path id="path3941" fill="#bebebe" d="m-166.5-31.766a1.2656 1.2656 0 1 1 -2.5312 0 1.2656 1.2656 0 1 1 2.5312 0z" color="#000" enable-background="new" transform="matrix(1.1975 0 0 1.1975 787.42 344.59)"/><path id="path3943" fill="#bebebe" d="m-166.5-31.766a1.2656 1.2656 0 1 1 -2.5312 0 1.2656 1.2656 0 1 1 2.5312 0z" color="#000" enable-background="new" transform="matrix(1.1975 0 0 1.1975 792.48 344.59)"/><path style="block-progression:tb;text-indent:0;text-transform:none" id="path3945" fill="#bebebe" d="m591.88 311.22-0.6875 0.6875 3.4062 3.4375 0.71875-0.71875-3.4375-3.4062z" color="#000" enable-background="new"/><path style="block-progression:tb;text-indent:0;text-transform:none" id="path3949" fill="#bebebe" d="m586.59 311.22-3.4062 3.4062 0.6875 0.71875 3.4375-3.4375-0.71875-0.6875z" color="#000" enable-background="new"/><path style="block-progression:tb;text-indent:0;text-transform:none" id="path3953" fill="#bebebe" d="m594.59 303.22-3.4062 3.4062 0.6875 0.71875 3.4375-3.4375-0.71875-0.6875z" color="#000" enable-background="new"/><path style="block-progression:tb;text-indent:0;text-transform:none" id="path3955" fill="#bebebe" d="m583.88 303.22-0.6875 0.6875 3.4062 3.4375 0.71875-0.71875-3.4375-3.4062z" color="#000" enable-background="new"/></g></svg>