<svg xmlns="http://www.w3.org/2000/svg" width="64" height="64" version="1.1"><g fill-rule="evenodd"><path fill="#f4f4f4" stroke="#000" stroke-width="1" d="m13 4c-2.77 0-5 2.23-5 5v46c0 2.77 2.23 5 5 5h38c2.77 0 5-2.23 5-5v-39l-12-12z" opacity=".25" transform="scale(3.7796) scale(.26458)" style="paint-order:stroke fill markers"/><path fill="#f4f4f4" d="m13 4c-2.77 0-5 2.23-5 5v46c0 2.77 2.23 5 5 5h38c2.77 0 5-2.23 5-5v-39l-12-12z" transform="scale(3.7796) scale(.26458)" style="paint-order:stroke fill markers"/><path fill="#bbb" d="m14.816 4.2332-3.1749-3.1749v1.852c0 0.73288 0.59001 1.3229 1.3229 1.3229z" transform="scale(3.7796)" style="paint-order:stroke fill markers"/></g><g transform="translate(0,6)"><rect width="30" height="5" x="17" y="19" fill="#4f6596" fill-opacity=".267" rx="1" ry="1" style="paint-order:markers stroke fill"/><rect width="28" height="3" x="18" y="20" fill="#f2f2f2" rx="0" ry="0" style="paint-order:markers stroke fill"/><rect width="30" height="5" x="17" y="26" fill="#4f6596" fill-opacity=".267" rx="1" ry="1" style="paint-order:markers stroke fill"/><rect width="28" height="3" x="18" y="27" fill="#f2f2f2" rx="0" ry="0" style="paint-order:markers stroke fill"/><rect width="30" height="5" x="17" y="33" fill="#4f6596" fill-opacity=".267" rx="1" ry="1" style="paint-order:markers stroke fill"/><rect width="28" height="3" x="18" y="34" fill="#f2f2f2" rx="0" ry="0" style="paint-order:markers stroke fill"/><rect width="30" height="5" x="17" y="40" fill="#4f6596" fill-opacity=".267" rx="1" ry="1" style="paint-order:markers stroke fill"/><rect width="28" height="3" x="18" y="41" fill="#f2f2f2" rx="0" ry="0" style="paint-order:markers stroke fill"/></g></svg>