<svg xmlns="http://www.w3.org/2000/svg" width="64" height="64" version="1.1" viewBox="0 0 16.933 16.933"><g fill-rule="evenodd"><path fill="#f4f4f4" stroke="#000" stroke-width="1" d="m13 4c-2.77 0-5 2.23-5 5v46c0 2.77 2.23 5 5 5h38c2.77 0 5-2.23 5-5v-39l-12-12h-31z" opacity=".25" transform="scale(.26458)" style="paint-order:stroke fill markers"/><path fill="#f4f4f4" d="m13 4c-2.77 0-5 2.23-5 5v46c0 2.77 2.23 5 5 5h38c2.77 0 5-2.23 5-5v-39l-12-12h-31z" transform="scale(.26458)" style="paint-order:stroke fill markers"/><path fill="#bbb" d="m14.816 4.2332-3.1749-3.1749v1.852c0 0.73288 0.59001 1.3229 1.3229 1.3229z" style="paint-order:stroke fill markers"/></g><path fill="#999" d="m4.8082 5.1476-0.1698 0.51082 1.7237 0.69142-1.7237 0.69142 0.1698 0.51082 2.2177-0.93909v-0.5263zm2.2146 3.1062v0.52114h2.6389v-0.52114z" enable-background="new"/></svg>