<svg xmlns="http://www.w3.org/2000/svg" xmlns:xlink="http://www.w3.org/1999/xlink" width="64" height="64" version="1.1" viewBox="0 0 16.933 16.933"><g fill-rule="evenodd"><path fill="#f4f4f4" stroke="#000" stroke-width="1" d="m13 4c-2.77 0-5 2.23-5 5v46c0 2.77 2.23 5 5 5h38c2.77 0 5-2.23 5-5v-39l-12-12h-31z" opacity=".25" transform="scale(.26458)" style="paint-order:stroke fill markers"/><path fill="#f4f4f4" d="m13 4c-2.77 0-5 2.23-5 5v46c0 2.77 2.23 5 5 5h38c2.77 0 5-2.23 5-5v-39l-12-12h-31z" transform="scale(.26458)" style="paint-order:stroke fill markers"/><path fill="#bbb" d="m14.816 4.2332-3.1749-3.1749v1.852c0 0.73288 0.59001 1.3229 1.3229 1.3229z" style="paint-order:stroke fill markers"/></g><path fill="#c8c4b7" stroke-width=".132" d="m4.4314 4.6853 4.3741 4.3741v-2.7971zm5.0362 1.5966 3.034 1.3638-0.6679-1.3638zm-0.39338 0.09999v2.5419l1.8243-1.7127zm-1.3036 2.0513-2.0213 3.8145 2.9321-2.9322z" enable-background="new"/></svg>