<svg xmlns="http://www.w3.org/2000/svg" width="64" height="64" version="1.1" viewBox="0 0 16.933 16.933"><g fill-rule="evenodd"><path fill="#f4f4f4" stroke="#000" stroke-width="1" d="m13 4c-2.77 0-5 2.23-5 5v46c0 2.77 2.23 5 5 5h38c2.77 0 5-2.23 5-5v-39l-12-12h-31z" opacity=".25" transform="scale(.26458)" style="paint-order:stroke fill markers"/><path fill="#f4f4f4" d="m13 4c-2.77 0-5 2.23-5 5v46c0 2.77 2.23 5 5 5h38c2.77 0 5-2.23 5-5v-39l-12-12h-31z" transform="scale(.26458)" style="paint-order:stroke fill markers"/><path fill="#bbb" d="m14.816 4.2332-3.1749-3.1749v1.852c0 0.73288 0.59001 1.3229 1.3229 1.3229z" style="paint-order:stroke fill markers"/></g><path fill="#666" d="m7.2918 9.523h2.675l-0.66084-3.5598zm-2.5294 2.6476 0.09678-0.52597h0.63388l3.8807-6.8822h0.81292l1.2774 6.8822h0.70646l-0.09678 0.52597h-2.6275l0.09678-0.52597h0.80324l-0.2924-1.5907h-3.0621l-0.89391 1.5907h0.79356l-0.09678 0.52597z" enable-background="new"/></svg>