<svg xmlns="http://www.w3.org/2000/svg" width="64" height="64" version="1.1" viewBox="0 0 16.933 16.933"><g fill-rule="evenodd"><path fill="#f4f4f4" stroke="#000" stroke-width="1" d="m13 4c-2.77 0-5 2.23-5 5v46c0 2.77 2.23 5 5 5h38c2.77 0 5-2.23 5-5v-39l-12-12h-31z" opacity=".25" transform="scale(.26458)" style="paint-order:stroke fill markers"/><path fill="#f4f4f4" d="m13 4c-2.77 0-5 2.23-5 5v46c0 2.77 2.23 5 5 5h38c2.77 0 5-2.23 5-5v-39l-12-12h-31z" transform="scale(.26458)" style="paint-order:stroke fill markers"/><path fill="#bbb" d="m14.816 4.2332-3.1749-3.1749v1.852c0 0.73288 0.59001 1.3229 1.3229 1.3229z" style="paint-order:stroke fill markers"/></g><g stroke-width="4" transform="matrix(.066145 0 0 .066145 -1.5875 -1.852)"><path fill="none" stroke="#f34f17" d="m113.55 134.64 76.856 42.408"/><path fill="#8f76e4" fill-opacity=".251" fill-rule="evenodd" stroke="#8c59d9" d="m120 212c52 24 76-32 32-56s-20-80 32-56"/><circle cx="108" cy="132" r="6" fill="none" stroke="#f34f17" stroke-dashoffset="1" stroke-linejoin="round"/><circle cx="196" cy="180" r="6" fill="none" stroke="#f34f17" stroke-dashoffset="1" stroke-linejoin="round"/><g fill="#fff" stroke="#8f76e4" stroke-dashoffset="1"><rect width="12" height="12" x="178" y="94"/><rect width="12" height="12" x="146" y="150"/><rect width="12" height="12" x="114" y="206"/></g></g></svg>