<svg xmlns="http://www.w3.org/2000/svg" width="64" height="64" version="1.1" viewBox="0 0 16.933 16.933"><path fill="#eca973" fill-rule="evenodd" stroke-width="1" d="m3.4395 1.0587c-0.73288 0-1.3229 0.58999-1.3229 1.3229v12.171c0 0.73286 0.59001 1.3229 1.3229 1.3229h10.054c0.73288 0 1.3229-0.58999 1.3229-1.3229v-10.319l-3.1749-3.1748z" style="paint-order:stroke fill markers"/><path fill="#fff" fill-rule="evenodd" d="m14.816 4.2332-3.1749-3.1749v1.852c0 0.73288 0.59001 1.3229 1.3229 1.3229z" opacity=".35" style="paint-order:stroke fill markers"/><g transform="translate(-17.999 -.64507)"><rect width="1.058" height="14.816" x="25.944" y="1.703" fill="#fff" color="#000" opacity=".25"/><rect width="3.439" height="2.117" x="21.71" y="12.287" fill="#f9f9f9" color="#000" opacity=".35"/><path d="m21.975 12.816v1.0583h0.52916v-1.0583zm0.79374 0v1.0583h0.26458v-1.0583zm0.52916 0v1.0583h0.52916v-1.0583zm0.79373 0v1.0583h0.26458v-1.0583zm0.52916 0v1.0583h0.26458v-1.0583z" color="#000" opacity=".35"/></g><rect width=".537" height="14.816" x="8.466" y="1.058" fill="#fff" color="#000" opacity=".25"/><path fill="#d78a4d" d="m10.054 11.641v0.26458h3.1749v-0.26458zm0 0.52916v0.26458h2.6458v-0.26458zm0 0.52916v0.26458h3.1749v-0.26458zm0 0.52916v0.26458h2.1166v-0.26458z" color="#000"/></svg>