<svg xmlns="http://www.w3.org/2000/svg" width="64" height="64" version="1.1" viewBox="0 0 16.933 16.933"><g fill-rule="evenodd"><path fill="#f4f4f4" stroke="#000" stroke-width="1" d="m13 4c-2.77 0-5 2.23-5 5v46c0 2.77 2.23 5 5 5h38c2.77 0 5-2.23 5-5v-39l-12-12h-31z" opacity=".25" transform="scale(.26458)" style="paint-order:stroke fill markers"/><path fill="#f4f4f4" d="m13 4c-2.77 0-5 2.23-5 5v46c0 2.77 2.23 5 5 5h38c2.77 0 5-2.23 5-5v-39l-12-12h-31z" transform="scale(.26458)" style="paint-order:stroke fill markers"/><path fill="#bbb" d="m14.816 4.2332-3.1749-3.1749v1.852c0 0.73288 0.59001 1.3229 1.3229 1.3229z" style="paint-order:stroke fill markers"/></g><g fill="none" stroke="#999" stroke-width=".529" transform="translate(-19.843 2.3149)"><ellipse cx="28.31" cy="3.77" stroke-dashoffset="1" stroke-linejoin="round" enable-background="new" rx="3.439" ry="1.323"/><path d="m24.87 3.7041v4.8286" enable-background="new"/><g stroke-dashoffset="1" stroke-linejoin="round"><path d="m31.749 5.3573a3.4395 1.3229 0 0 1-1.7198 1.1457 3.4395 1.3229 0 0 1-3.4395 0 3.4395 1.3229 0 0 1-1.7198-1.1457" enable-background="new"/><path d="m31.749 6.9448a3.4395 1.3229 0 0 1-1.7198 1.1457 3.4395 1.3229 0 0 1-3.4395 0 3.4395 1.3229 0 0 1-1.7198-1.1457" enable-background="new"/><path d="m31.749 8.5323a3.4395 1.3229 0 0 1-1.7198 1.1457 3.4395 1.3229 0 0 1-3.4395 0 3.4395 1.3229 0 0 1-1.7198-1.1457" enable-background="new"/></g><path d="m31.749 3.7041v4.8286" enable-background="new"/></g></svg>