<svg xmlns="http://www.w3.org/2000/svg" width="64" height="64" version="1.1" viewBox="0 0 16.933 16.933"><g fill-rule="evenodd"><path fill="#f4f4f4" stroke="#000" stroke-width="1" d="m13 4c-2.77 0-5 2.23-5 5v46c0 2.77 2.23 5 5 5h38c2.77 0 5-2.23 5-5v-39l-12-12h-31z" opacity=".25" transform="scale(.26458)" style="paint-order:stroke fill markers"/><path fill="#f4f4f4" d="m13 4c-2.77 0-5 2.23-5 5v46c0 2.77 2.23 5 5 5h38c2.77 0 5-2.23 5-5v-39l-12-12h-31z" transform="scale(.26458)" style="paint-order:stroke fill markers"/><path fill="#bbb" d="m14.816 4.2332-3.1749-3.1749v1.852c0 0.73288 0.59001 1.3229 1.3229 1.3229z" style="paint-order:stroke fill markers"/></g><g transform="matrix(.0080193 0 0 .0080193 4.6685 4.6699)"><path fill="none" stroke="#888" stroke-dasharray="62.038" stroke-width="16.496" d="m877.79 267.49c49.976 98.079 62.591 210.98 35.499 317.67-27.092 106.69-92.043 199.88-182.74 262.21-90.699 62.331-200.95 89.542-310.24 76.578-109.28-12.964-210.14-65.22-283.79-147.02-152.35-169.2-155.81-425.03-7.9832-598.14 141.02-165.14 378.02-206.18 565.33-101.96 9.0451 5.0327 17.974 10.404 26.771 16.117"/><circle cx="473.6" cy="473.46" r="362.92" fill="#1a7fd4"/><circle cx="622.07" cy="324.99" r="82.482" fill="#fff"/><circle cx="820.02" cy="127.04" r="82.482" fill="#1a7fd4"/></g></svg>