<svg xmlns="http://www.w3.org/2000/svg" width="64" height="64" version="1.1"><g fill-rule="evenodd"><path fill="#90d344" stroke-width="3.78" d="m13 4c-2.77 0-5 2.2299-5 5v46.002c0 2.7698 2.23 5 5 5h38c2.77 0 5-2.2299 5-5v-39.002l-12-11.999z" style="paint-order:stroke fill markers"/><path fill="#fff" stroke-width="3.78" d="m55.999 16-12-12v6.9998c0 2.77 2.23 5 5 5z" opacity=".35" style="paint-order:stroke fill markers"/><path fill="#fff" d="m18 21c-0.554 0-1 0.446-1 1v20c0 0.554 0.446 1 1 1h28c0.554 0 1-0.446 1-1v-20c0-0.554-0.446-1-1-1zm20 1a1 1 0 0 1 1 1 1 1 0 0 1-1 1 1 1 0 0 1-1-1 1 1 0 0 1 1-1zm3 0a1 1 0 0 1 1 1 1 1 0 0 1-1 1 1 1 0 0 1-1-1 1 1 0 0 1 1-1zm3 0a1 1 0 0 1 1 1 1 1 0 0 1-1 1 1 1 0 0 1-1-1 1 1 0 0 1 1-1zm-26 3h6v17h-6zm7 0h21v17h-21z" style="paint-order:fill markers stroke"/></g></svg>