<svg xmlns="http://www.w3.org/2000/svg" width="64" height="64" version="1.1" viewBox="0 0 16.933 16.933"><path fill="#9550b2" fill-rule="evenodd" stroke-width="1" d="m3.4395 1.0587c-0.73288 0-1.3229 0.58999-1.3229 1.3229v12.171c0 0.73286 0.59001 1.3229 1.3229 1.3229h10.054c0.73288 0 1.3229-0.58999 1.3229-1.3229v-10.319l-3.1749-3.1748z" style="paint-order:stroke fill markers"/><path fill="#fff" fill-rule="evenodd" d="m14.816 4.2332-3.1749-3.1749v1.852c0 0.73288 0.59001 1.3229 1.3229 1.3229z" opacity=".35" style="paint-order:stroke fill markers"/><rect width="1.058" height="14.816" x="7.945" y="1.058" fill="#fff" color="#000" opacity=".25"/><rect width="3.439" height="2.117" x="3.711" y="11.642" fill="#f9f9f9" color="#000" opacity=".35"/><path d="m3.976 12.171v1.0583h0.52916v-1.0583zm0.79374 0v1.0583h0.26458v-1.0583zm0.52916 0v1.0583h0.52916v-1.0583zm0.79373 0v1.0583h0.26458v-1.0583zm0.52916 0v1.0583h0.26458v-1.0583z" color="#000" opacity=".35"/><rect width=".537" height="14.816" x="8.466" y="1.058" fill="#fff" color="#000" opacity=".25"/><path fill="#fff" d="m39 40c-1.108 0-2 0.892-2 2v12c0 1.108 0.892 2 2 2h12c1.108 0 2-0.892 2-2v-12c0-1.108-0.892-2-2-2h-12zm0 2h12v2h-12v-2zm0 4h9v3h-9v-3zm10 0h2v3h-2v-3zm-10 5h9v3h-9v-3zm10 0h2v3h-2v-3z" opacity=".5" transform="scale(.26458)" style="paint-order:fill markers stroke"/></svg>