<svg xmlns="http://www.w3.org/2000/svg" width="64" height="64" version="1.1" viewBox="0 0 16.933 16.933"><g fill-rule="evenodd"><path fill="#f4f4f4" stroke="#000" stroke-width="1" d="m13 4c-2.77 0-5 2.23-5 5v46c0 2.77 2.23 5 5 5h38c2.77 0 5-2.23 5-5v-39l-12-12h-31z" opacity=".25" transform="scale(.26458)" style="paint-order:stroke fill markers"/><path fill="#f4f4f4" d="m13 4c-2.77 0-5 2.23-5 5v46c0 2.77 2.23 5 5 5h38c2.77 0 5-2.23 5-5v-39l-12-12h-31z" transform="scale(.26458)" style="paint-order:stroke fill markers"/><path fill="#bbb" d="m14.816 4.2332-3.1749-3.1749v1.852c0 0.73288 0.59001 1.3229 1.3229 1.3229z" style="paint-order:stroke fill markers"/></g><g transform="translate(-16.668 .26458)"><rect width="7.937" height="4.762" x="21.034" y="6.482" fill="#fff" enable-background="new"/><path fill="#46a926" d="m20.902 4.7624v6.6145h3.9687v-0.26458h-1.0583v-1.3229h1.0583v-0.26458h-1.0583v-1.3229h5.2916v-0.26458l-5.2916 0.01169v-1.3346h2.3812v1.887h0.26458v-1.887h2.3812v1.9843h0.26458v-3.8364zm0.26458 0.26458h2.3812v1.3229h-2.3812zm2.6458 0h2.3812v1.3229h-2.3812zm2.6458 0h2.3812v1.3229h-2.3812zm-5.2916 1.5875h2.3812v1.3346l-2.3812-0.01169zm0 1.5875h2.3812v1.3229h-2.3812zm0 1.5875h2.3812v1.3229l-2.3812-0.01561z" color="#000" enable-background="new"/><path fill="#46a926" d="m21.034 4.8947h7.9373v1.5875h-7.9373z" color="#000" enable-background="new" opacity=".35"/><g transform="matrix(.066145 0 0 .066145 14.552 -1.5875)"><rect width="80" height="64" x="140" y="148" fill="#fff" stroke="#b3b3b3" stroke-linecap="round" stroke-width="8"/><rect width="80" height="64" x="140" y="148" fill="#fff"/><g><rect width="16" height="40" x="148" y="164" fill="#2daaaa" color="#000"/><rect width="16" height="48" x="172" y="156" fill="#fdc92b" color="#000"/><rect width="16" height="24" x="196" y="180" fill="#f34f17" color="#000"/></g></g></g></svg>