<svg xmlns="http://www.w3.org/2000/svg" xmlns:svg="http://www.w3.org/2000/svg" id="svg2" version="1.1" viewBox="0 0 24 24"><metadata id="metadata10"/><defs id="defs3051"><style id="current-color-scheme" type="text/css">.ColorScheme-Text{color:#5d656b}</style></defs><path style="color:#5d656b;fill:currentColor;fill-opacity:1;stroke:none" id="path6" d="m 20,10 -2,-3 -2,3 4,0 z m 0,4 -4,0 2,3 2,-3 z M 17,7 15,7 15,4 8,4 8,7 4,7 l 0,1 4,0 0,3 7,0 0,-3 2,0 0,-1 z m 0,9 -2,0 0,-3 -9,0 0,3 -2,0 0,1 2,0 0,3 9,0 0,-3 2,0 0,-1 z m -3,-11 0,5 -5,0 0,-5 5,0 z m 0,9 0,5 -7,0 0,-5 7,0 z" class="ColorScheme-Text"/></svg>