<svg xmlns="http://www.w3.org/2000/svg" xmlns:svg="http://www.w3.org/2000/svg" id="svg7384" width="16" height="16" version="1.1"><metadata id="metadata90"/><title id="title9167">Gnome Symbolic Icon Theme</title><g id="g3340" transform="translate(-0.16651,0.1106)"><path style="text-indent:0;text-transform:none;block-progression:tb" id="path27918" fill="#bebebe" d="m 9.51426,1.03 c 3.0289,0 5.5107,2.479 5.5107,5.5045 0,3.0254 -2.4819,5.5045 -5.5107,5.5045 -3.0288,0 -5.5107,-2.479 -5.5107,-5.5045 0,-3.0254 2.4819,-5.5045 5.5107,-5.5045 z m 0,2.0089 c -1.9474,0 -3.4995,1.5504 -3.4995,3.4955 0,1.9451 1.5522,3.4955 3.4995,3.4955 1.9474,0 3.4995,-1.5504 3.4995,-3.4955 0,-1.9452 -1.5522,-3.4955 -3.4995,-3.4955 z" color="#000" enable-background="new"/><path style="text-indent:0;text-transform:none;block-progression:tb" id="path27941" fill="#bebebe" d="m 6.21426,9.03 c 0.8119282,0.1472626 1.1062407,1.158991 0.5,1.7188 l -4,4 c -1.4062,-1.4375 0,0 -1.4062,-1.4375 l 4,-4 c 0.2365992,-0.2409961 0.5788472,-0.3463031 0.91,-0.28 z" color="#000" enable-background="new"/></g></svg>