<svg xmlns="http://www.w3.org/2000/svg" xmlns:svg="http://www.w3.org/2000/svg" id="svg10" width="16" height="16" version="1.1"><metadata id="metadata16"/><defs id="defs14"><style id="current-color-scheme" type="text/css">.ColorScheme-Text{color:#727272}</style></defs><path id="path826" d="m 1.5,3.125 v 9.75 h 13 v -9.75 z m 0.8125,0.8125 h 11.375 V 9.955078 L 11.256348,7.4191892 8.6887205,9.9868159 5.5878909,6.6162109 2.3125,9.5885008 Z M 10.4375,4.75 A 0.81249999,0.81249999 0 0 0 9.625,5.5625 0.81249999,0.81249999 0 0 0 10.4375,6.375 0.81249999,0.81249999 0 0 0 11.25,5.5625 0.81249999,0.81249999 0 0 0 10.4375,4.75 Z M 5.5371091,7.758789 9.4948728,12.0625 H 2.3125 V 10.686646 Z M 11.243653,8.5808108 13.6875,11.129394 V 12.0625 H 10.597779 L 9.2393801,10.585083 Z" class="ColorScheme-Text" style="color:#727272;fill:#ebebeb;fill-opacity:1;stroke-width:.8125"/></svg>