<svg xmlns="http://www.w3.org/2000/svg" xmlns:xlink="http://www.w3.org/1999/xlink" width="64" height="64" version="1.1" viewBox="0 0 16.933 16.933"><defs><linearGradient id="linearGradient924" x1="24.209" x2="28.707" y1="41.274" y2="45.772" gradientUnits="userSpaceOnUse"><stop offset="0" stop-color="#d278e6"/><stop offset="1" stop-color="#28c8ff"/></linearGradient><linearGradient id="linearGradient963" x1="24.022" x2="32.187" y1="37.479" y2="47.534" gradientUnits="userSpaceOnUse"><stop offset="0" stop-color="#919ba5"/><stop offset="1" stop-color="#646e78"/></linearGradient><filter id="filter967" width="1.168" height="1.168" x="-.084" y="-.084" color-interpolation-filters="sRGB"><feGaussianBlur stdDeviation=".306"/></filter></defs><metadata/><circle cx="-306.88" cy="-327.42" r="0" fill="#5e4aa6" stroke-width=".265"/><g transform="matrix(.92308 0 0 .92308 -15.956 -30.977)"><rect width="3.704" height="2.117" x="18.785" y="37.041" fill="#0071d6" ry=".529"/><g fill="url(#linearGradient963)"><path d="m25.135 35.983h2.6487c0.47712 0 0.6278 0.29174 0.79976 0.52916l1.5785 2.1794c0.17196 0.23742-0.236 0.52916-0.52916 0.52916h-6.3499c-0.29315 0-0.7016-0.29208-0.52916-0.52916l1.5852-2.1794c0.17244-0.23707 0.32273-0.52916 0.79598-0.52916z"/><rect width="17.198" height="11.379" x="17.859" y="38.099" ry=".529"/></g><circle cx="26.458" cy="43.523" r="4.365" filter="url(#filter967)" opacity=".6"/><circle cx="26.458" cy="43.523" r="4.365" fill="#fff"/><circle cx="26.458" cy="43.523" r="3.307" fill="url(#linearGradient924)"/><circle cx="33.205" cy="40.084" r=".661" fill="#b9c3cd" stroke-width="2.828"/><path fill="#41464b" d="m67.5 184v1.0098c0 1.108 0.892 2 2 2h61c1.108 0 2-0.89201 2-2v-1.0098z" transform="scale(.26458)"/></g></svg>