<svg xmlns="http://www.w3.org/2000/svg" width="64" height="64" version="1.1"><metadata/><defs><linearGradient id="b" x1="32" x2="32" y1="2" y2="62" gradientUnits="userSpaceOnUse"><stop offset="0" stop-color="#323c41"/><stop offset="1" stop-color="#0f4d3e"/></linearGradient><linearGradient id="e" x1="24.705" x2="25.061" y1="43.939" y2="4.405" gradientTransform="translate(8.5029 9.2229)" gradientUnits="userSpaceOnUse"><stop offset="0" stop-color="#14cd46"/><stop offset="1" stop-color="#5adc19"/></linearGradient><linearGradient id="d" x1="31" x2="31" y1="34" y2="24" gradientTransform="translate(8.5029 9.2229)" gradientUnits="userSpaceOnUse"><stop offset="0" stop-color="#323232"/><stop offset="1" stop-color="#3c503c"/></linearGradient><linearGradient id="c" x1="18" x2="18" y1="34" y2="24" gradientTransform="translate(8.5029 9.2229)" gradientUnits="userSpaceOnUse"><stop offset="0" stop-color="#323232"/><stop offset="1" stop-color="#3c503c"/></linearGradient><filter id="f" width="1.135" height="1.108" x="-.068" y="-.054" color-interpolation-filters="sRGB"><feGaussianBlur stdDeviation=".9"/></filter></defs><circle cx="32" cy="32" r="30" fill="url(#b)" style="paint-order:stroke markers fill"/><g filter="url(#f)" opacity=".5" transform="translate(-.50294 -1.2229)"><path d="m16.503 28.701c0 10.29 8.4961 24.521 16 24.521 7.0642 0 16-14.232 16-24.521 0-10.29-7.1634-15.479-16-15.479s-16 5.1888-16 15.479z"/><path d="m36.885 35.605c2.0206-2.0206 4.8396-2.7554 7.4415-2.2055 0.54985 2.6018-0.18496 5.4209-2.2055 7.4414-2.0206 2.0206-4.8396 2.7554-7.4414 2.2055-0.54992-2.6019 0.18495-5.4209 2.2055-7.4414z"/><path d="m20.679 33.536c2.6018-0.54222 5.4209 0.18239 7.4414 2.1749 2.0206 1.9925 2.7554 4.7724 2.2055 7.3381-2.6018 0.54222-5.4209-0.18238-7.4415-2.1749-2.0206-1.9926-2.7554-4.7724-2.2055-7.3381z"/></g><g><path fill="url(#e)" d="m16.503 28.701c0 10.29 8.4961 24.521 16 24.521 7.0642 0 16-14.232 16-24.521 0-10.29-7.1634-15.479-16-15.479s-16 5.1888-16 15.479z" transform="translate(-.50294 -1.2229)"/><path fill="url(#d)" d="m36.885 35.605c2.0206-2.0206 4.8396-2.7554 7.4415-2.2055 0.54985 2.6018-0.18496 5.4209-2.2055 7.4414-2.0206 2.0206-4.8396 2.7554-7.4414 2.2055-0.54992-2.6019 0.18495-5.4209 2.2055-7.4414z" transform="translate(-.50294 -1.2229)"/><path fill="url(#c)" d="m20.679 33.536c2.6018-0.54222 5.4209 0.18239 7.4414 2.1749 2.0206 1.9925 2.7554 4.7724 2.2055 7.3381-2.6018 0.54222-5.4209-0.18238-7.4415-2.1749-2.0206-1.9926-2.7554-4.7724-2.2055-7.3381z" transform="translate(-.50294 -1.2229)"/></g></svg>