<svg xmlns="http://www.w3.org/2000/svg" xmlns:xlink="http://www.w3.org/1999/xlink" width="64" height="64" version="1.1" viewBox="0 0 16.933 16.933"><metadata/><defs><style type="text/css"/><style type="text/css"/><style type="text/css"/><style type="text/css"/><style type="text/css"/><style type="text/css"/><style type="text/css"/><style type="text/css"/><style type="text/css"/><style type="text/css"/><linearGradient id="linearGradient2719" x1="-26.707" x2="-26.707" y1="18.671" y2="15.934" gradientTransform="translate(6.0629)" gradientUnits="userSpaceOnUse"><stop offset="0" stop-color="#232220"/><stop offset="1" stop-color="#656b70"/></linearGradient><linearGradient id="linearGradient2733" x1="-20.825" x2="-20.825" y1="5.166" y2="15.875" gradientTransform="translate(.07175)" gradientUnits="userSpaceOnUse"><stop offset="0" stop-color="#fafafa"/><stop offset="1" stop-color="#f0f0f0"/></linearGradient><radialGradient id="radialGradient2747" cx="-12.56" cy="-2.115" r="7.937" gradientTransform="matrix(.91667 0 0 .91667 19.979 -10.258)" gradientUnits="userSpaceOnUse"><stop offset="0" stop-color="#32e6e6"/><stop offset="1" stop-color="#0078d4"/></radialGradient><filter id="filter2765" width="1.092" height="1.059" x="-.046" y="-.03" color-interpolation-filters="sRGB"><feGaussianBlur stdDeviation=".166"/></filter></defs><style type="text/css"/><style type="text/css"/><style type="text/css"/><style type="text/css"/><g transform="translate(-2.8229e-7 19.87)"><circle cx="8.466" cy="-12.197" r="7.276" fill="url(#radialGradient2747)"/><g filter="url(#filter2765)" opacity=".3" transform="translate(29.2 -22.403)"><path stroke-width=".014" d="m-16.383 9.5579c0-2.4018-1.9472-4.3693-4.3504-4.3693-2.4032 0-4.3504 1.9675-4.3504 4.3693 0 0.95126 0.50472 2.1786 1.3153 3.0838 0.80377 0.89714 1.0507 1.5701 1.0507 2.7744v0.47225h4.1392v-0.46819c0-1.2043 0.07655-1.8746 0.87626-2.7744 0.81324-0.91473 1.3193-2.2516 1.3193-3.0879z" p-id="26402"/><path d="m-22.717 15.888v0.99389s0.23385 1.6108 2.073 1.7884c1.8396-0.1522 2.0662-1.7884 2.0662-1.7884v-0.99389z"/></g><g><path fill="url(#linearGradient2733)" stroke-width=".014" d="m-16.383 9.5579c0-2.4018-1.9472-4.3693-4.3504-4.3693-2.4032 0-4.3504 1.9675-4.3504 4.3693 0 0.95126 0.50472 2.1786 1.3153 3.0838 0.80377 0.89714 1.0507 1.5701 1.0507 2.7744v0.47225h4.1392v-0.46819c0-1.2043 0.07655-1.8746 0.87626-2.7744 0.81324-0.91473 1.3193-2.2516 1.3193-3.0879z" p-id="26402" transform="translate(29.2 -22.403)"/><path fill="url(#linearGradient2719)" d="m-22.717 15.888v0.99389s0.23385 1.6108 2.073 1.7884c1.8396-0.1522 2.0662-1.7884 2.0662-1.7884v-0.99389z" transform="translate(29.2 -22.403)"/></g></g></svg>