<svg xmlns="http://www.w3.org/2000/svg" width="64" height="64" version="1.1" viewBox="0 0 64 64"><metadata/><defs><linearGradient id="linearGradient873" x1="-48.646" x2="-32.772" y1="-6.301" y2="9.574" gradientTransform="translate(1.0224 -.57831)" gradientUnits="userSpaceOnUse"><stop offset="0" stop-color="#28afea"/><stop offset="1" stop-color="#838be4"/></linearGradient></defs><filter id="b" width="1.024" height="1.024" x="-.012" y="-.012" color-interpolation-filters="sRGB"><feGaussianBlur stdDeviation=".475"/></filter><g fill="#5e4aa6" stroke-width=".265" transform="matrix(3.7796 0 0 3.7796 -151.13 -27.199)"><circle cx="-330.35" cy="-328.38" r="0"/><circle cx="-312.11" cy="-326.25" r="0"/><circle cx="-306.02" cy="-333.07" r="0"/><circle cx="-308.84" cy="-326.01" r="0"/></g><g transform="matrix(3.7796 0 0 3.7796 182 27.999)"><rect width="15.875" height="15.875" x="-47.624" y="-6.879" fill="url(#linearGradient873)" ry=".794"/><path fill="#406ccd" d="m-138.37 1.3379c-1.446 0-2.892 0.55411-4 1.6621l-31 31h50.373c1.662 0 3-1.338 3-3v-13.627l-14.373-14.373c-1.108-1.108-2.554-1.6621-4-1.6621z" transform="scale(.26458)"/><path fill="#13427e" d="m-158-4.3535c-1.0181 0-2.0363 0.38982-2.8164 1.1699l-19.184 19.184v15c0 1.662 1.338 3 3 3h54c1.3602 0 2.491-0.90221 2.8613-2.1387l-35.045-35.045c-0.7801-0.7801-1.7983-1.1699-2.8164-1.1699z" transform="scale(.26458)"/><circle cx="-37.041" cy="-2.91" r="1.323" fill="#fff"/></g></svg>