<svg xmlns="http://www.w3.org/2000/svg" xmlns:xlink="http://www.w3.org/1999/xlink" width="64" height="64" version="1.1" viewBox="0 0 16.933 16.933"><metadata/><defs><style type="text/css"/><style type="text/css"/><linearGradient id="linearGradient3490" x1="19.843" x2="33.837" y1="-82.284" y2="-72.245" gradientTransform="matrix(.83332 0 0 .83332 -14.904 74.081)" gradientUnits="userSpaceOnUse"><stop offset="0" stop-color="#0c35f9"/><stop offset="1" stop-color="#2acbd7"/></linearGradient><style type="text/css"/><linearGradient id="linearGradient984" x1="19.843" x2="33.837" y1="-82.284" y2="-72.245" gradientTransform="matrix(.83332 0 0 .83332 -11.678 70.587)" gradientUnits="userSpaceOnUse" xlink:href="#linearGradient3490"/><linearGradient id="linearGradient986" x1="19.843" x2="33.837" y1="-82.284" y2="-72.245" gradientTransform="matrix(.83332 0 0 .83332 -13.581 73.066)" gradientUnits="userSpaceOnUse" xlink:href="#linearGradient3490"/><filter id="filter994" width="1.064" height="1.083" x="-.032" y="-.041" color-interpolation-filters="sRGB"><feGaussianBlur stdDeviation=".175"/></filter><style type="text/css"/><style type="text/css"/><style type="text/css"/><linearGradient id="linearGradient1001" x1="16.821" x2="18.42" y1="-18.285" y2="-18.285" gradientTransform="translate(-4.9974)" gradientUnits="userSpaceOnUse"><stop offset="0" stop-color="#b2b5b0"/><stop offset="1" stop-color="#9d9a9c"/></linearGradient><style type="text/css"/><linearGradient id="linearGradient1391" x1="4.307" x2="10.24" y1="9.052" y2="9.052" gradientTransform="matrix(-.83333 0 0 .83333 15.363 .20558)" gradientUnits="userSpaceOnUse"><stop offset="0" stop-color="#232220"/><stop offset="1" stop-color="#4c4b4b"/></linearGradient><filter id="filter1428" width="1.06" height="1.089" x="-.03" y="-.044" color-interpolation-filters="sRGB"><feGaussianBlur stdDeviation=".12"/></filter><linearGradient id="linearGradient1440" x1="8.245" x2="8.829" y1="10.045" y2="10.045" gradientUnits="userSpaceOnUse" xlink:href="#linearGradient1001"/><linearGradient id="linearGradient1456" x1="134.9" x2="875.38" y1="874.55" y2="133.73" gradientUnits="userSpaceOnUse" xlink:href="#linearGradient1001"/></defs><rect width="13.229" height="10.142" x="3.755" y=".916" fill="url(#linearGradient984)" stroke-width=".833" ry=".661" transform="rotate(15)"/><g fill="#5e4aa6" stroke-width=".265" transform="translate(-.0272 .0065001)"><circle cx="-330.35" cy="-328.38" r="0"/><circle cx="-312.11" cy="-326.25" r="0"/><circle cx="-306.02" cy="-333.07" r="0"/><circle cx="-308.84" cy="-326.01" r="0"/></g><style type="text/css"/><circle cx="-330.49" cy="-328.74" r="0" fill="#5e4aa6" stroke-width=".265"/><style type="text/css"/><rect width="13.229" height="10.142" x="1.852" y="3.395" stroke-width=".833" filter="url(#filter994)" opacity=".3" ry=".661"/><rect width="13.229" height="10.142" x="1.852" y="3.395" fill="url(#linearGradient986)" stroke-width=".833" ry=".661"/><g fill="#eaeaea" transform="translate(0 .013214)"><rect width="13.229" height=".132" x="1.852" y="4.646" ry="0"/><rect width="13.229" height=".132" x="1.852" y="12.129" ry="0"/></g><g fill="#eaeaea" transform="matrix(1 0 0 .76668 0 1.9754)"><rect width="13.229" height=".132" x="-15.081" y="3.238" ry="0" transform="rotate(-90)"/><rect width="13.229" height=".132" x="-15.081" y="13.563" ry="0" transform="rotate(-90)"/></g><style type="text/css"/><style type="text/css"/><g filter="url(#filter1428)" opacity=".3" transform="matrix(1.0254 0 0 1.0254 -.21649 -.21595)"><g><path stroke-width="1.018" d="m130.72 736.4 608.78-608.77 140.07 140.07-608.77 608.77z" p-id="24015" transform="matrix(.0085714 0 0 .0085714 2.6333 4.234)"/><path d="m144.14 724.34 583.31-583.31 119.48 119.47-583.32 583.32z" p-id="24017" transform="matrix(.0085714 0 0 .0085714 2.6333 4.234)"/><path d="m645.15 221.59 94.413 94.413a10.24 10.24 0 0 1 0 14.029 10.24 10.24 0 0 1-14.131 0l-94.31-94.515zm-118.58 118.68 94.31 94.31a10.24 10.24 0 0 1-14.131 14.131l-94.31-94.31zm-120.73 120.52 65.434 65.331a10.24 10.24 0 0 1 0 14.029 10.24 10.24 0 0 1-14.131 0l-65.331-65.331zm90.931 90.931a10.24 10.24 0 0 1-14.029 14.029 10.24 10.24 0 0 1 14.029-14.029zm-207.56 25.907 94.31 94.31a10.24 10.24 0 1 1-13.517 14.131l-94.31-94.31zm296.96-296.96 43.622 43.622a10.24 10.24 0 0 1-14.029 14.336l-43.622-43.622zm-118.99 118.68 43.725 43.622a10.24 10.24 0 0 1-14.131 14.029l-43.622-43.315zm-118.68 118.89 43.725 43.725a10.24 10.24 0 0 1 0 14.029 10.24 10.24 0 0 1-14.131 0l-43.622-43.52zm-118.58 118.68 43.622 43.622a10.24 10.24 0 1 1-14.131 14.131l-43.622-43.622z" p-id="24019" transform="matrix(.0085714 0 0 .0085714 2.6333 4.234)"/></g><g stroke-width=".007"><path d="m11.612 5.4224c-0.21614-0.21606-0.56656-0.21606-0.78276 0l-3.9987 4.3392 0.4765 0.47643 4.3051-4.0327c0.21606-0.21627 0.21606-0.56677-6.9e-5 -0.7829z" p-id="34455" transform="translate(1.522)"/><path d="m5.1593 11.526c0.31393 0.31386 0.82832 0.02577 0.82832 0.02577 0.45867-0.20374 0.8217-0.74271 1.1021-1.2233l-0.36645-0.36651z" p-id="34456" transform="translate(1.522)"/></g></g><g><g><path fill="url(#linearGradient1456)" stroke-width="1.018" d="m130.72 736.4 608.78-608.77 140.07 140.07-608.77 608.77z" p-id="24015" transform="matrix(.0085714 0 0 .0085714 2.6333 4.234)"/><path fill="#f0f0f0" d="m144.14 724.34 583.31-583.31 119.48 119.47-583.32 583.32z" p-id="24017" transform="matrix(.0085714 0 0 .0085714 2.6333 4.234)"/><path fill="#323232" d="m645.15 221.59 94.413 94.413a10.24 10.24 0 0 1 0 14.029 10.24 10.24 0 0 1-14.131 0l-94.31-94.515zm-118.58 118.68 94.31 94.31a10.24 10.24 0 0 1-14.131 14.131l-94.31-94.31zm-120.73 120.52 65.434 65.331a10.24 10.24 0 0 1 0 14.029 10.24 10.24 0 0 1-14.131 0l-65.331-65.331zm90.931 90.931a10.24 10.24 0 0 1-14.029 14.029 10.24 10.24 0 0 1 14.029-14.029zm-207.56 25.907 94.31 94.31a10.24 10.24 0 1 1-13.517 14.131l-94.31-94.31zm296.96-296.96 43.622 43.622a10.24 10.24 0 0 1-14.029 14.336l-43.622-43.622zm-118.99 118.68 43.725 43.622a10.24 10.24 0 0 1-14.131 14.029l-43.622-43.315zm-118.68 118.89 43.725 43.725a10.24 10.24 0 0 1 0 14.029 10.24 10.24 0 0 1-14.131 0l-43.622-43.52zm-118.58 118.68 43.622 43.622a10.24 10.24 0 1 1-14.131 14.131l-43.622-43.622z" p-id="24019" transform="matrix(.0085714 0 0 .0085714 2.6333 4.234)"/></g><g stroke-width=".007"><path fill="url(#linearGradient1391)" d="m11.612 5.4224c-0.21614-0.21606-0.56656-0.21606-0.78276 0l-3.9987 4.3392 0.4765 0.47643 4.3051-4.0327c0.21606-0.21627 0.21606-0.56677-6.9e-5 -0.7829z" p-id="34455" transform="translate(1.522)"/><path fill="#f0f0f0" d="m5.1593 11.526c0.31393 0.31386 0.82832 0.02577 0.82832 0.02577 0.45867-0.20374 0.8217-0.74271 1.1021-1.2233l-0.36645-0.36651z" p-id="34456" transform="translate(1.522)"/></g></g><path fill="url(#linearGradient1440)" d="m8.3522 9.7616-0.10685 0.2004 0.36645 0.36651 0.2169-0.090479z"/></svg>