<svg xmlns="http://www.w3.org/2000/svg" xmlns:xlink="http://www.w3.org/1999/xlink" width="64" height="64" version="1.1" viewBox="0 0 16.933 16.933"><defs><linearGradient id="linearGradient1107"><stop offset="0" stop-color="#505050"/><stop offset="1" stop-color="#0a0a0a"/></linearGradient><style type="text/css"/><linearGradient id="linearGradient1034" x1="-71.993" x2="-73.616" y1="2.55" y2="13.762" gradientTransform="translate(78.585 .33847)" gradientUnits="userSpaceOnUse"><stop offset="0" stop-color="#32d2ff"/><stop offset="1" stop-color="#32b4ff"/></linearGradient><linearGradient id="linearGradient1042" x1="-74.394" x2="-75.461" y1="-16.69" y2="-4.475" gradientTransform="translate(75.82 20.666)" gradientUnits="userSpaceOnUse"><stop offset="0" stop-color="#0073d2"/><stop offset="1" stop-color="#143c73"/></linearGradient><linearGradient id="linearGradient1050" x1="-66.237" x2="-59.585" y1="21.255" y2="31.868" gradientTransform="translate(75.995 -20.012)" gradientUnits="userSpaceOnUse"><stop offset="0" stop-color="#fff"/><stop offset="1" stop-color="#d2d2d2"/></linearGradient><filter id="filter1058" width="1.185" height="1.154" x="-.093" y="-.077" color-interpolation-filters="sRGB"><feGaussianBlur stdDeviation=".462"/></filter><filter id="filter1072" width="1.199" height="1.145" x="-.1" y="-.073" color-interpolation-filters="sRGB"><feGaussianBlur stdDeviation=".384"/></filter><style type="text/css"/><linearGradient id="linearGradient1109" x1="720.94" x2="626.77" y1="456.88" y2="819.08" gradientUnits="userSpaceOnUse" xlink:href="#linearGradient1107"/></defs><metadata/><g fill="#5e4aa6" stroke-width=".265" transform="translate(-21.834 .89695)"><circle cx="-330.35" cy="-328.38" r="0"/><circle cx="-312.11" cy="-326.25" r="0"/><circle cx="-306.02" cy="-333.07" r="0"/><circle cx="-308.84" cy="-326.01" r="0"/></g><g fill="#5e4aa6" stroke-width=".265" transform="translate(21.668 -4.305)"><circle cx="-322.63" cy="-345.67" r="0"/><circle cx="-31.726" cy="-10.849" r="0" fill-rule="evenodd"/><circle cx="-306.92" cy="-328.72" r="0"/></g><g transform="matrix(1.0007 0 0 1.0007 -.0061441 -.0061433)"><rect width="9.26" height="12.7" x="-.549" y="3.657" fill="url(#linearGradient1042)" ry=".529" transform="rotate(-15)"/><rect width="9.26" height="12.7" x="-74.876" y="1.058" filter="url(#filter1072)" opacity=".35" ry=".529" transform="matrix(.9251 0 0 .93596 72.911 .87055)"/><rect width="9.26" height="12.7" x="3.71" y="1.397" fill="url(#linearGradient1034)" ry=".529"/><rect width="9.26" height="12.7" x="-68.454" y="19.315" filter="url(#filter1058)" opacity=".35" ry=".529" transform="matrix(.89273 .23918 -.23921 .89264 72.864 .82253)"/><rect width="9.26" height="12.7" x="7.541" y="-.697" fill="url(#linearGradient1050)" ry=".529" transform="rotate(15)"/><g fill="url(#linearGradient1109)"><g><path fill="url(#linearGradient1109)" d="m661.97 695.62c-10.095 69.016 40.25 98.339 85.808 136.07-78.332-20.68-151.26-39.869-224.19-59.058 26.69-6.6408 53.886-9.4823 78.868-20.82 25.083-11.438 47.761-25.273 53.214-56.081-10.405-3.1841-13.793 4.5211-18.888 8.0288-41.955 29.464-96.161 25.347-128.32-10.104-31.954-35.251-31.133-87.053 2.1071-126.3 19.365-22.93 43.439-40.166 69.216-54.906 40.265-22.962 82.737-41.026 126.61-56.093 11.594-4.0177 19.795-3.5302 28.209 5.8569 41.771 46.436 80.245 95.178 105.13 153.04 10.838 25.083 16.878 50.974 14.721 79.178-3.1368 41.405-42.09 71.864-75.481 77.815-39.589 6.9605-82.926-17.173-101.18-54.546-3.511-7.1946-4.3249-16.293-15.834-22.076z" p-id="5540" transform="matrix(.014007 0 0 .014007 .73052 .065283)"/></g><g><path fill="url(#linearGradient1109)" d="m661.97 695.62c-10.095 69.016 40.25 98.339 85.808 136.07-78.332-20.68-151.26-39.869-224.19-59.058 26.69-6.6408 53.886-9.4823 78.868-20.82 25.083-11.438 47.761-25.273 53.214-56.081-10.405-3.1841-13.793 4.5211-18.888 8.0288-41.955 29.464-96.161 25.347-128.32-10.104-31.954-35.251-31.133-87.053 2.1071-126.3 19.365-22.93 43.439-40.166 69.216-54.906 40.265-22.962 82.737-41.026 126.61-56.093 11.594-4.0177 19.795-3.5302 28.209 5.8569 41.771 46.436 80.245 95.178 105.13 153.04 10.838 25.083 16.878 50.974 14.721 79.178-3.1368 41.405-42.09 71.864-75.481 77.815-39.589 6.9605-82.926-17.173-101.18-54.546-3.511-7.1946-4.3249-16.293-15.834-22.076z" p-id="5540" transform="matrix(.003992 0 0 .003992 5.7977 .37829)"/></g><g><path fill="url(#linearGradient1109)" d="m661.97 695.62c-10.095 69.016 40.25 98.339 85.808 136.07-78.332-20.68-151.26-39.869-224.19-59.058 26.69-6.6408 53.886-9.4823 78.868-20.82 25.083-11.438 47.761-25.273 53.214-56.081-10.405-3.1841-13.793 4.5211-18.888 8.0288-41.955 29.464-96.161 25.347-128.32-10.104-31.954-35.251-31.133-87.053 2.1071-126.3 19.365-22.93 43.439-40.166 69.216-54.906 40.265-22.962 82.737-41.026 126.61-56.093 11.594-4.0177 19.795-3.5302 28.209 5.8569 41.771 46.436 80.245 95.178 105.13 153.04 10.838 25.083 16.878 50.974 14.721 79.178-3.1368 41.405-42.09 71.864-75.481 77.815-39.589 6.9605-82.926-17.173-101.18-54.546-3.511-7.1946-4.3249-16.293-15.834-22.076z" p-id="5540" transform="matrix(.003992 0 0 .003992 9.5018 11.835)"/></g></g></g></svg>