<svg xmlns="http://www.w3.org/2000/svg" xmlns:xlink="http://www.w3.org/1999/xlink" width="64" height="64" version="1.1"><metadata/><defs><linearGradient id="e" x2="0" y1="505.8" y2="541.8" gradientTransform="translate(-384.57,504.56)" gradientUnits="userSpaceOnUse"><stop offset="0" stop-color="#fffcde"/><stop offset="1" stop-color="#fafac5"/></linearGradient><linearGradient id="b" x2="0" y1="542.8" y2="503.8" gradientTransform="translate(-384.57,504.56)" gradientUnits="userSpaceOnUse"><stop offset="0" stop-color="#f39c12"/><stop offset="1" stop-color="#f5ab35"/></linearGradient><radialGradient id="a" cx="24" cy="1028.4" r="16" gradientTransform="matrix(1.231 .00334 -.00334 1.2313 -2.11 -237.92)" gradientUnits="userSpaceOnUse"><stop offset="0" stop-color="#f47750"/><stop offset="1" stop-color="#fdbc4b"/></radialGradient><filter id="d" width="1.072" height="1.072" x="-.036" y="-.036" color-interpolation-filters="sRGB"><feGaussianBlur stdDeviation=".54"/></filter><linearGradient id="i" x1="400.4" x2="400.4" y1="545.62" y2="517.62" gradientTransform="matrix(1.5862 0 0 1.5862 -745.73 -676.08)" gradientUnits="userSpaceOnUse"><stop offset="0" stop-color="#d3d3d3"/><stop offset="1" stop-color="#fcf9f9"/></linearGradient><linearGradient id="f" x1="400.4" x2="400.4" y1="545.62" y2="517.62" gradientTransform="matrix(1.6382 0 0 1.6382 -820.38 -681.6)" gradientUnits="userSpaceOnUse"><stop offset="0" stop-color="#8d3aff"/><stop offset="1" stop-color="#ff3680"/></linearGradient><linearGradient id="linearGradient907" x1="33.585" x2="98.141" y1="27.308" y2="115.06" gradientTransform="matrix(.34992 0 0 .34992 -112.28 31.467)" gradientUnits="userSpaceOnUse"><stop offset="0" stop-color="#8f62bc"/><stop offset="1" stop-color="#f7904e"/></linearGradient><linearGradient id="i-1" x1="400.4" x2="400.4" y1="545.62" y2="517.62" gradientTransform="matrix(1.5862 0 0 1.5862 -703.99 -783.32)" gradientUnits="userSpaceOnUse"><stop offset="0" stop-color="#d3d3d3"/><stop offset="1" stop-color="#fcf9f9"/></linearGradient><linearGradient id="f-2" x1="400.4" x2="400.4" y1="545.62" y2="517.62" gradientTransform="matrix(1.6382 0 0 1.6382 -778.62 -788.83)" gradientUnits="userSpaceOnUse"><stop offset="0" stop-color="#8d3aff"/><stop offset="1" stop-color="#ff3680"/></linearGradient><linearGradient id="linearGradient1634-7" x1="-54.828" x2="-63.444" y1="-1.729" y2="-11.074" gradientTransform="matrix(4.1232 0 0 4.1232 157.29 80.025)" gradientUnits="userSpaceOnUse"><stop offset="0" stop-color="#8f62bc"/><stop offset="1" stop-color="#f7904e"/></linearGradient><linearGradient id="i-3" x1="400.4" x2="400.4" y1="545.62" y2="517.62" gradientTransform="matrix(1.5862 0 0 1.5862 -773.39 -652.62)" gradientUnits="userSpaceOnUse"><stop offset="0" stop-color="#d3d3d3"/><stop offset="1" stop-color="#fcf9f9"/></linearGradient><linearGradient id="f-6" x1="400.4" x2="400.4" y1="545.62" y2="517.62" gradientTransform="matrix(1.6382 0 0 1.6382 -848.04 -658.14)" gradientUnits="userSpaceOnUse"><stop offset="0" stop-color="#8d3aff"/><stop offset="1" stop-color="#ff3680"/></linearGradient><linearGradient id="linearGradient987-0" x1="-54.828" x2="-63.444" y1="-1.729" y2="-11.074" gradientTransform="matrix(3.4523 0 0 3.4523 117.66 75.633)" gradientUnits="userSpaceOnUse"><stop offset="0" stop-color="#232223"/><stop offset="1" stop-color="#49484d"/></linearGradient></defs><g stroke-linejoin="round"><g stroke-width=".333" transform="matrix(1.5 0 0 1.5 83.058 -1510.5)"><circle cx="24" cy="1028.4" r="20" fill="url(#b)" stroke-width=".333"/></g><g stroke-width="1.333" transform="matrix(1.5 0 0 1.5 83.058 -1510.5)"><circle cx="24" cy="1028.4" r="18" stroke-linecap="round" filter="url(#d)" opacity=".15"/><circle cx="24" cy="1028.4" r="18" fill="url(#e)" stroke-linecap="round"/><path fill="url(#a)" d="m24 1012.4c-3 0-5 2-5 2s1.193 4.052 2 6c0.856 2.066 3 6 3 6s2.144-3.934 3-6c0.807-1.948 2-6 2-6s-2-2-5-2m-6.363 2.564s-2.83 0-4.951 2.121-2.121 4.951-2.121 4.951 3.71 2.02 5.658 2.828c2.066 0.856 6.363 2.121 6.363 2.121s-1.265-4.297-2.121-6.363c-0.807-1.948-2.828-5.658-2.828-5.658m12.727 0s-2.02 3.71-2.828 5.658c-0.856 2.066-2.121 6.363-2.121 6.363s4.297-1.265 6.363-2.121c1.948-0.807 5.658-2.828 5.658-2.828s0-2.83-2.121-4.951-4.951-2.121-4.951-2.121m-20.363 8.436s-2 2-2 5 2 5 2 5 4.052-1.193 6-2c2.066-0.856 6-3 6-3s-3.934-2.144-6-3c-1.948-0.807-6-2-6-2m28 0s-4.052 1.193-6 2c-2.066 0.856-6 3-6 3s3.934 2.144 6 3c1.948 0.807 6 2 6 2s2-2 2-5-2-5-2-5m-15.414 6.414s-4.297 1.265-6.363 2.121c-1.948 0.807-5.658 2.828-5.658 2.828s0 2.83 2.121 4.951 4.951 2.121 4.951 2.121 2.02-3.71 2.828-5.658c0.856-2.066 2.121-6.363 2.121-6.363m2.828 0s1.265 4.297 2.121 6.363c0.807 1.948 2.828 5.658 2.828 5.658s2.83 0 4.951-2.121 2.121-4.951 2.121-4.951-3.71-2.02-5.658-2.828c-2.066-0.856-6.363-2.121-6.363-2.121m-1.414 0.586s-2.144 3.934-3 6c-0.807 1.948-2 6-2 6s2 2 5 2 5-2 5-2-1.193-4.052-2-6c-0.856-2.066-3-6-3-6"/></g></g><g fill="#5e4aa6" stroke-width=".265" transform="matrix(3.7796 0 0 3.7796 -173.1 .947)"><circle cx="-330.35" cy="-328.38" r="0"/><circle cx="-312.11" cy="-326.25" r="0"/><circle cx="-306.02" cy="-333.07" r="0"/><circle cx="-308.84" cy="-326.01" r="0"/></g><circle cx="-110.36" cy="167.47" r="0" fill="url(#i)" image-rendering="optimizeSpeed"/><circle cx="-164.15" cy="189.63" r="0" fill="none" stroke="url(#f)" stroke-width="2.13" image-rendering="optimizeSpeed"/><circle cx="-68.598" cy="60.222" r="0" fill="url(#i-1)" image-rendering="optimizeSpeed"/><circle cx="-122.39" cy="82.378" r="0" fill="none" stroke="url(#f-2)" stroke-width="2.13" image-rendering="optimizeSpeed"/><g fill="#5e4aa6"><circle cx="-1449.4" cy="-1216.7" r="0" image-rendering="optimizeSpeed"/><circle cx="-1380.4" cy="-1208.7" r="0" image-rendering="optimizeSpeed"/><circle cx="-1357.4" cy="-1234.5" r="0" image-rendering="optimizeSpeed"/><circle cx="-1368.1" cy="-1207.8" r="0" image-rendering="optimizeSpeed"/></g><circle cx="-138.02" cy="190.93" r="0" fill="url(#i-3)" image-rendering="optimizeSpeed"/><circle cx="-191.81" cy="213.09" r="0" fill="none" stroke="url(#f-6)" stroke-width="2.13" image-rendering="optimizeSpeed"/><g><path fill="url(#linearGradient1634-7)" stroke-width=".117" d="m-56.238 53.016c0 3.5964-0.63304 7.0444-1.7939 10.24-0.80694 2.2212-1.8686 4.3212-3.1519 6.2636-0.53754 0.8167-1.1155 1.6054-1.729 2.3633-1.9641 2.4257-4.2982 4.5382-6.9182 6.2526-0.96493 0.63184-1.9678 1.2098-3.0061 1.7277-4.0321 2.0179-8.5838 3.1529-13.401 3.1529-4.8171 0-9.3689-1.1351-13.401-3.153-1.0384-0.51799-2.0425-1.0959-3.0074-1.7277-2.6535-1.7376-5.0155-3.8832-6.9953-6.349-0.61464-0.76408-1.1914-1.56-1.729-2.3841-1.249-1.9102-2.2836-3.9712-3.0746-6.1494-1.1607-3.1948-1.7927-6.6415-1.7927-10.237 0-16.569 13.432-30 30-30 8.317 0 15.843 3.3845 21.277 8.8503 1.5661 1.5746 2.9584 3.3233 4.1436 5.214 1.1205 1.7805 2.0571 3.6881 2.7857 5.6951 1.161 3.196 1.794 6.6442 1.794 10.24z" image-rendering="optimizeSpeed" transform="translate(118.24 -21.017)"/><path fill="url(#linearGradient987-0)" stroke-width=".098" d="m-86.237 27.902c-13.873 0-25.119 11.246-25.119 25.119 0 3.0101 0.53009 5.8953 1.502 8.5704 0.66229 1.8238 1.5284 3.5491 2.5742 5.1484 0.45008 0.68994 0.93263 1.3563 1.4473 1.9961 1.6578 2.0646 3.6357 3.8616 5.8574 5.3164 0.80792 0.52897 1.6481 1.0136 2.5176 1.4473 3.376 1.6896 7.1873 2.6387 11.221 2.6387 4.0334 0 7.8448-0.94915 11.221-2.6387 0.86937-0.43362 1.7097-0.91823 2.5176-1.4473 2.194-1.4355 4.1465-3.2034 5.791-5.2344 0.51367-0.63461 0.99915-1.2947 1.4492-1.9785 1.0745-1.6264 1.963-3.3863 2.6387-5.2461 0.97201-2.6759 1.502-5.563 1.502-8.5743 0-3.0111-0.52985-5.8983-1.502-8.5743-0.56324-1.5515-1.3081-3.011-2.1523-4.4024l-6.002 4.1348-2.5977-3.7676 5.8164-4.0078 4.0039-2.7578c-0.491-0.57438-0.87571-1.238-1.4082-1.7734-0.82782-0.83264-1.7907-1.5166-2.7109-2.248l-4.1328 2.8477c-4.0846-2.8742-9.0594-4.5684-14.434-4.5684z" image-rendering="optimizeSpeed" transform="translate(118.24 -21.017)"/><path fill="url(#linearGradient907)" d="m-77.379 40.444c-0.0645-0.0053-0.13103-0.0015-0.19889 0.01298l-14.744 3.1493c-0.54288 0.11596-1.0737 0.6614-1.0737 1.2165v2.5766l-0.0615 15.338c-1.2812 0.98632-4.1812 0.61209-5.7738 2.0251-1.491 1.7106-1.5157 4.4887 0.4128 5.62 2.5044 1.4153 7.2282 0.26045 6.9971-4.3016l0.1736-15.587 13.245-2.239 0.0226 11.178c-1.3208 0.90868-4.1275 0.58255-5.6856 1.9649-1.491 1.7106-1.5157 4.488 0.41281 5.6193 2.5043 1.4153 7.2282 0.26045 6.9971-4.3016l0.03-15.314c0.0297-0.08974 0.0499-0.18477 0.0499-0.2891v-5.6542c0-0.48574-0.35147-0.97727-0.80304-1.0149z" transform="translate(118.24 -21.017)" style="paint-order:fill markers stroke"/></g></svg>