<svg xmlns="http://www.w3.org/2000/svg" xmlns:xlink="http://www.w3.org/1999/xlink" width="64" height="64" version="1.1" viewBox="0 0 16.933 16.933"><metadata/><defs><linearGradient id="linearGradient3490" x1="19.843" x2="33.837" y1="-82.284" y2="-72.245" gradientUnits="userSpaceOnUse"><stop offset="0" stop-color="#0c35f9"/><stop offset="1" stop-color="#2acbd7"/></linearGradient><style type="text/css"/></defs><style type="text/css"/><g transform="translate(-17.991 86.924)"><rect width="15.875" height="12.171" x="18.52" y="-83.607" fill="url(#linearGradient3490)" ry=".794"/><g><path fill="#fffffe" d="m20.117-78.18c0.34736 0.0761 1.7426-1.1289 2.6304 0.02537 0.88786 1.1542 1.5855 2.1055 2.7651 2.4353 1.1796 0.32978 2.4987-0.35515 2.8919-1.2176 0.3932-0.86249-0.3932-0.44393-0.55808-0.34246-0.16489 0.10147-1.3698 1.002-2.2577 0.02537-0.88786-0.97664-2.576-3.2201-4.0473-2.6494-1.4713 0.57077-2.1686 1.5684-1.4243 1.7234z" transform="translate(-.23267)"/><g><path fill="#191919" stroke-width=".035" d="m108.64-291.54-1.3125-0.83984-0.0527 0.87695c-0.0246 0.37084 0.38746 0.6095 0.69727 0.4043z" transform="translate(-.23267) translate(0 -.37417) scale(.26458)"/><path fill="#cdcdcd" stroke-width=".035" d="m107.76-299.67-0.43945 7.293 1.3125 0.83984 6.166-4.0703z" transform="translate(-.23267) translate(0 -.37417) scale(.26458)"/><path fill="#323232" stroke-width=".009" d="m32.622-85.096c-0.4158-0.05172-0.84179 0.14399-1.0645 0.52967l-3.0463 5.2771 1.8619 1.0748 3.0473-5.2766c0.29701-0.51432 0.12069-1.1718-0.39377-1.4686-0.12854-0.07428-0.26602-0.11918-0.40462-0.13642z" transform="translate(-.23267) translate(0 -.37417)"/></g></g></g></svg>