<svg xmlns="http://www.w3.org/2000/svg" xmlns:svg="http://www.w3.org/2000/svg" id="svg74" width="64" height="64" version="1.1" viewBox="0 0 16.933 16.933"><defs id="defs24"><linearGradient id="linearGradient1058" x1="-184.75" x2="-170.19" y1="-8.541" y2="-15.811" gradientTransform="matrix(4.1232 0 0 4.1232 763.74 67.216)" gradientUnits="userSpaceOnUse"><stop id="stop2" offset="0" stop-color="#505f64"/><stop id="stop4" offset="1" stop-color="#647378"/></linearGradient><filter id="filter1255" width="1.12" height="1.12" x="-.06" y="-.06" color-interpolation-filters="sRGB"><feGaussianBlur id="feGaussianBlur7" stdDeviation=".065"/></filter><filter id="filter1269" width="1.12" height="1.12" x="-.06" y="-.06" color-interpolation-filters="sRGB"><feGaussianBlur id="feGaussianBlur10" stdDeviation=".082"/></filter><filter id="filter1287" width="1.104" height="1.142" x="-.052" y="-.071" color-interpolation-filters="sRGB"><feGaussianBlur id="feGaussianBlur13" stdDeviation=".071"/></filter><filter id="filter959" width="1.074" height="1.284" x="-.037" y="-.142" color-interpolation-filters="sRGB"><feGaussianBlur id="feGaussianBlur16" stdDeviation=".051"/></filter><linearGradient id="linearGradient1035" x1="99.036" x2="99.036" y1="100.29" y2="199.84" gradientTransform="matrix(.3 0 0 .3 2.0001 2)" gradientUnits="userSpaceOnUse"><stop id="stop19" offset="0" stop-color="#4bd2f5"/><stop id="stop21" offset="1" stop-color="#5587ff"/></linearGradient><linearGradient id="linearGradient944" x1="-39" x2="-5" y1="11" y2="11" gradientTransform="translate(54,1)" gradientUnits="userSpaceOnUse"><stop id="stop888" offset="0" stop-color="#4ae7fb"/><stop id="stop890" offset="1" stop-color="#30bcf1"/></linearGradient><filter id="filter1030" width="1.11" height="1.373" x="-.055" y="-.187" color-interpolation-filters="sRGB"><feGaussianBlur id="feGaussianBlur893" stdDeviation=".778"/></filter><linearGradient id="linearGradient860" x1="43.381" x2="9.5" y1="46.814" y2="2" gradientUnits="userSpaceOnUse"><stop id="stop896" offset="0" stop-color="#7e8790"/><stop id="stop898" offset="1" stop-color="#99abbd"/></linearGradient></defs><metadata id="metadata26"/><g id="g957" transform="scale(0.26457812)"><rect id="rect906" width="45" height="60" x="9.5" y="2" ry="2" style="fill:url(#linearGradient860)"/><rect id="rect908" width="34" height="10" x="-35.875" y="6" ry="1" transform="matrix(0.98917,0,0,0.95361,50.469,1.8196)" style="opacity:.6;filter:url(#filter1030)"/><rect id="rect910" width="34" height="10" x="15" y="7" ry="1" style="fill:url(#linearGradient944)"/><g id="g930" transform="translate(50.875,1)"><rect id="rect912" width="10" height="10" x="-35.875" y="22.738" ry="1" style="fill:#cbd2da"/><rect id="rect914" width="10" height="22" x="-11.875" y="34.898" ry="1" style="fill:#134584"/><g id="g928" style="fill:#cbd2da"><rect id="rect916" width="10" height="10" x="-23.875" y="22.738" ry="1"/><rect id="rect918" width="10" height="10" x="-11.875" y="22.738" ry="1"/><rect id="rect920" width="10" height="10" x="-35.875" y="34.898" ry="1"/><rect id="rect922" width="10" height="10" x="-35.875" y="46.898" ry="1"/><rect id="rect924" width="10" height="10" x="-23.875" y="34.898" ry="1"/><rect id="rect926" width="10" height="10" x="-23.875" y="46.898" ry="1"/></g></g></g></svg>