<svg xmlns="http://www.w3.org/2000/svg" width="64" height="64" version="1.1" viewBox="0 0 64 64"><metadata/><defs><linearGradient id="linearGradient944" x1="-39" x2="-5" y1="11" y2="11" gradientTransform="translate(54 1)" gradientUnits="userSpaceOnUse"><stop offset="0" stop-color="#4ae7fb"/><stop offset="1" stop-color="#30bcf1"/></linearGradient><filter id="filter1030" width="1.11" height="1.373" x="-.055" y="-.187" color-interpolation-filters="sRGB"><feGaussianBlur stdDeviation=".778"/></filter><linearGradient id="linearGradient860" x1="43.381" x2="9.5" y1="46.814" y2="2" gradientUnits="userSpaceOnUse"><stop offset="0" stop-color="#7e8790"/><stop offset="1" stop-color="#99abbd"/></linearGradient></defs><filter id="d" width="1.021" height="1.018" x="-.01" y="-.009" color-interpolation-filters="sRGB"><feGaussianBlur stdDeviation="1.734"/></filter><rect width="45" height="60" x="9.5" y="2" fill="url(#linearGradient860)" ry="2"/><rect width="34" height="10" x="-35.875" y="6" filter="url(#filter1030)" opacity=".6" ry="1" transform="matrix(.98917 0 0 .95361 50.469 1.8196)"/><rect width="34" height="10" x="15" y="7" fill="url(#linearGradient944)" ry="1"/><g transform="translate(50.875 1)"><rect width="10" height="10" x="-35.875" y="22.738" fill="#cbd2da" ry="1"/><rect width="10" height="22" x="-11.875" y="34.898" fill="#134584" ry="1"/><g fill="#cbd2da"><rect width="10" height="10" x="-23.875" y="22.738" ry="1"/><rect width="10" height="10" x="-11.875" y="22.738" ry="1"/><rect width="10" height="10" x="-35.875" y="34.898" ry="1"/><rect width="10" height="10" x="-35.875" y="46.898" ry="1"/><rect width="10" height="10" x="-23.875" y="34.898" ry="1"/><rect width="10" height="10" x="-23.875" y="46.898" ry="1"/></g></g></svg>