<svg xmlns="http://www.w3.org/2000/svg" width="64" height="64" version="1.1" viewBox="0 0 64 64"><metadata/><defs><linearGradient id="linearGradient1116" x1="127.53" x2="169.73" y1="-14.592" y2="-14.592" gradientTransform="translate(-108.68 56.078)" gradientUnits="userSpaceOnUse"><stop offset="0" stop-color="#2db4f5"/><stop offset="1" stop-color="#1e96e6"/></linearGradient><linearGradient id="linearGradient1124" x1="110.68" x2="148.88" y1="-23.382" y2="-23.382" gradientTransform="translate(-108.68 56.078)" gradientUnits="userSpaceOnUse"><stop offset="0" stop-color="#1982dc"/><stop offset="1" stop-color="#1987d7"/></linearGradient><linearGradient id="linearGradient1132" x1="131.56" x2="159.67" y1="-33.473" y2="-33.473" gradientTransform="matrix(1.1812 0 0 1.1812 -137.61 61.126)" gradientUnits="userSpaceOnUse"><stop offset="0" stop-color="#0573c3"/><stop offset="1" stop-color="#0564be"/></linearGradient><linearGradient id="linearGradient1140" x1="148.88" x2="170.68" y1="-19.898" y2="-19.898" gradientTransform="translate(-108.68 56.078)" gradientUnits="userSpaceOnUse"><stop offset="0" stop-color="#1496e6"/><stop offset="1" stop-color="#0a78dc"/></linearGradient></defs><g fill="#5e4aa6"><g stroke-width=".265" transform="matrix(3.7796 0 0 3.7796 -71.985 -28.735)"><circle cx="-330.35" cy="-328.38" r="0"/><circle cx="-312.11" cy="-326.25" r="0"/><circle cx="-306.02" cy="-333.07" r="0"/><circle cx="-308.84" cy="-326.01" r="0"/></g><circle cx="-1328.7" cy="-1277.1" r="0"/><circle cx="-229.1" cy="-11.553" r="0" fill-rule="evenodd"/></g><g fill-rule="evenodd"><path fill="url(#linearGradient1140)" stroke-width="6.4" d="m50.99 28.233-10.787 3.8594 20.846 12.035a11.015 11.325 0 0 0 0.95312-4.5723 11.015 11.325 0 0 0-11.012-11.322z"/><path fill="url(#linearGradient1132)" stroke-width="7.56" d="m33.629 10.383a17.357 17.845 0 0 0-15.842 10.596l20.46 11.814 12.741-4.5587a17.357 17.845 0 0 1 0-0.0046 17.357 17.845 0 0 0 0-0.0092 17.357 17.845 0 0 0-17.357-17.833z"/><path fill="url(#linearGradient1124)" stroke-width="6.4" d="m40.203 32.092-17.322-10.002a14.695 15.108 0 0 0-6.1856-1.4258 14.695 15.108 0 0 0-14.695 15.107 14.695 15.108 0 0 0 2.8809 8.957z"/><path fill="url(#linearGradient1116)" stroke-width="6.4" d="m40.203 32.092-35.322 12.637a14.695 15.108 0 0 0 11.814 6.1523 14.695 15.108 0 0 0 0.0059 0h34.289a11.015 11.325 0 0 0 10.059-6.7539z"/></g></svg>