<svg xmlns="http://www.w3.org/2000/svg" width="64" height="64" version="1.1"><metadata/><defs><linearGradient id="b" x1="399.57" x2="399.57" y1="545.8" y2="517.8" gradientTransform="matrix(2.1429 0 0 2.1429 -826.36 -1107.5)" gradientUnits="userSpaceOnUse"><stop offset="0" stop-color="#3889e9"/><stop offset="1" stop-color="#5ea5fb"/></linearGradient><linearGradient id="linearGradient873" x1="-45.602" x2="-33.697" y1="-2.174" y2="6.046" gradientTransform="matrix(3.7796 0 0 3.7796 200.68 -37.364)" gradientUnits="userSpaceOnUse"><stop offset="0" stop-color="#28afea"/><stop offset="1" stop-color="#838be4"/></linearGradient></defs><circle cx="32.02" cy="32.044" r="0" fill="url(#b)" stroke-width="1.571"/><circle cx="-1019.3" cy="-1202" r="0" fill="#5e4aa6"/><g><g transform="matrix(.93844 0 0 .89815 -1.0564 48.981) matrix(1.0655 0 0 .83503 -14.661 7.1279)"><rect width="60.001" height="60.001" x="16.818" y="-61.178" fill="url(#linearGradient873)" stroke-width="3.78" ry="3"/><path fill="#406ccd" d="m58.447-33.84c-1.446 0-2.892 0.55411-4 1.6621l-31 31h50.373c1.662 0 3-1.338 3-3v-13.627l-14.373-14.373c-1.108-1.108-2.554-1.6621-4-1.6621z"/><path fill="#13427e" d="m38.817-39.532c-1.0181 0-2.0363 0.38982-2.8164 1.1699l-19.184 19.184v15c0 1.662 1.338 3 3 3h54c1.3602 0 2.491-0.90222 2.8613-2.1387l-35.045-35.045c-0.7801-0.7801-1.7983-1.1699-2.8164-1.1699z"/></g></g><g fill="#fff"><g transform="translate(.5 -.83333) translate(-121 .33333)"><rect width="7" height="7" x="126" y="13" ry="1"/><rect width="7" height="7" x="126" y="23.667" ry="1"/><rect width="7" height="7" x="126" y="34.333" ry="1"/><rect width="7" height="7" x="126" y="45" ry="1"/></g><g transform="translate(.5 -.83333) translate(-75 .33333)"><rect width="7" height="7" x="126" y="13" ry="1"/><rect width="7" height="7" x="126" y="23.667" ry="1"/><rect width="7" height="7" x="126" y="34.333" ry="1"/><rect width="7" height="7" x="126" y="45" ry="1"/></g></g></svg>