<svg xmlns="http://www.w3.org/2000/svg" xmlns:xlink="http://www.w3.org/1999/xlink" width="64" height="64" version="1.1" viewBox="0 0 16.933 16.933"><defs><linearGradient id="linearGradient1410" x1="-38.419" x2="-37.57" y1="25.799" y2="22.519" gradientTransform="matrix(.85105 0 0 .85105 42.135 -5.9007)" gradientUnits="userSpaceOnUse"><stop offset="0" stop-color="#4b91e6"/><stop offset="1" stop-color="#2d64b9"/></linearGradient><linearGradient id="linearGradient868" x1="2.152" x2="10.691" y1="1.363" y2="12.018" gradientUnits="userSpaceOnUse"><stop offset="0" stop-color="#2d64b9"/><stop offset="1" stop-color="#5096e6"/></linearGradient></defs><metadata/><path fill="#f0f0f5" stroke-width=".851" d="m9.4384 16.056h5.1169c0.57229 0 1.0331-0.46033 1.0331-1.0326v-10.319c0-0.57229-0.46077-1.0331-1.0331-1.0331h-9.2628z"/><text x="8.001" y="12.143" fill="#2d64b9" stroke-width=".161" font-family="AkrutiMal1" font-size="6.448" style="font-feature-settings:normal;font-variant-caps:normal;font-variant-ligatures:normal;font-variant-numeric:normal;line-height:1.25" font-weight="bold" letter-spacing="0" word-spacing="0" xml:space="preserve"><tspan x="8.001" y="12.143" fill="#2d64b9" stroke-width=".161" font-family="AkrutiMal1" font-size="6.448" font-weight="bold" style="font-feature-settings:normal;font-variant-caps:normal;font-variant-ligatures:normal;font-variant-numeric:normal">文</tspan></text><path fill="url(#linearGradient868)" stroke-width=".851" d="m7.7994 0.89702h-5.1169c-0.57229 0-1.0331 0.46033-1.0331 1.0326v10.319c0 0.57229 0.46077 1.0331 1.0331 1.0331h9.2628z"/><path fill="url(#linearGradient1410)" d="m8.5126 13.281h3.4327l-2.4935 2.7742z"/><path fill="#fafafa" stroke-width=".864" d="m7.3769 9.7594-0.38497-1.2653h-1.9401l-0.38614 1.2664h-1.2147l1.8779-5.3426h1.3791l1.8849 5.3426h-1.2159m-0.65491-2.2124c-0.3568-1.1479-0.5575-1.7957-0.60327-1.9483-0.035251-0.11756-0.066956-0.23616-0.095071-0.35563-0.07981 0.31103-0.30985 1.0786-0.68778 2.304h1.3861" font-size="24" font-weight="700" letter-spacing="0" word-spacing="0"/></svg>