<svg xmlns="http://www.w3.org/2000/svg" xmlns:xlink="http://www.w3.org/1999/xlink" id="Flamingo" width="64" height="64" enable-background="new 0 0 1024 1024" image-rendering="optimizeSpeed" version="1.1" viewBox="0 0 64 64"><metadata/><defs><style type="text/css"/><style type="text/css"/><filter id="filter926" width="1.24" height="1.24" x="-.12" y="-.12" color-interpolation-filters="sRGB"><feGaussianBlur stdDeviation="1.078"/></filter><linearGradient id="linearGradient947" x1="327.23" x2="694.26" y1="243.81" y2="644.29" gradientTransform="matrix(.081878 0 0 .081878 -10.969 -8.4803)" gradientUnits="userSpaceOnUse"><stop offset="0" stop-color="#d63902"/><stop offset="1" stop-color="#b83b1a"/></linearGradient><linearGradient id="linearGradient972" x1="521.49" x2="521.49" y1="858.73" y2="631.85" gradientTransform="matrix(.082753 0 0 .082753 -11.428 -9.2332)" gradientUnits="userSpaceOnUse"><stop offset="0" stop-color="#d24314"/><stop offset="1" stop-color="#e85512"/></linearGradient><filter id="filter876" width="1.147" height="1.203" x="-.074" y="-.101" color-interpolation-filters="sRGB"><feGaussianBlur stdDeviation=".804"/></filter></defs><path fill="url(#linearGradient947)" stroke-width=".082" d="m32 2c-6.2882 0-12.926 2.4451-18.166 7.3359-10.131 10.131-10.131 26.201 0 36.332l5.0703 5.0703a14.915 14.915 0 0 1 0.0059-0.01172 14.915 14.915 0 0 1 0.7793-1.2715 14.915 14.915 0 0 1 0.90234-1.1875 14.915 14.915 0 0 1 1.0176-1.0898 14.915 14.915 0 0 1 1.1191-0.98438 14.915 14.915 0 0 1 1.2129-0.86719 14.915 14.915 0 0 1 1.293-0.74219 14.915 14.915 0 0 1 1.3613-0.60938 14.915 14.915 0 0 1 1.4141-0.46875 14.915 14.915 0 0 1 1.4551-0.32617 14.915 14.915 0 0 1 1.4805-0.17969 14.915 14.915 0 0 1 1.0547-0.03906 14.915 14.915 0 0 1 1.4883 0.07617 14.915 14.915 0 0 1 1.4746 0.22266 14.915 14.915 0 0 1 1.4453 0.36719 14.915 14.915 0 0 1 1.4004 0.51172 14.915 14.915 0 0 1 1.3418 0.64844 14.915 14.915 0 0 1 1.2715 0.7793 14.915 14.915 0 0 1 1.1875 0.90234 14.915 14.915 0 0 1 1.0898 1.0176 14.915 14.915 0 0 1 0.98438 1.1191 14.915 14.915 0 0 1 0.86719 1.2129 14.915 14.915 0 0 1 0.53516 0.92969l5.0801-5.0801c10.131-9.7817 10.131-26.201 0-36.332-4.8908-4.8908-11.528-7.3359-18.166-7.3359z"/><circle cx="32" cy="27.051" r="10.78" filter="url(#filter926)" opacity=".6" transform="matrix(1.0609,0,0,1.0609,-1.9477,-1.6464)"/><circle cx="32" cy="27.051" r="11.436" fill="#fff"/><path stroke-width=".082" d="m45.086 50.748a14.915 14.915 0 0 0-0.53516-0.92969 14.915 14.915 0 0 0-0.86719-1.2129 14.915 14.915 0 0 0-0.98438-1.1191 14.915 14.915 0 0 0-1.0898-1.0176 14.915 14.915 0 0 0-1.1875-0.90234 14.915 14.915 0 0 0-1.2715-0.7793 14.915 14.915 0 0 0-1.3418-0.64844 14.915 14.915 0 0 0-1.4004-0.51172 14.915 14.915 0 0 0-1.4453-0.36719 14.915 14.915 0 0 0-1.4746-0.22266 14.915 14.915 0 0 0-1.4883-0.07617 14.915 14.915 0 0 0-1.0547 0.03906 14.915 14.915 0 0 0-1.4805 0.17969 14.915 14.915 0 0 0-1.4551 0.32617 14.915 14.915 0 0 0-1.4141 0.46875 14.915 14.915 0 0 0-1.3613 0.60938 14.915 14.915 0 0 0-1.293 0.74219 14.915 14.915 0 0 0-1.2129 0.86719 14.915 14.915 0 0 0-1.1191 0.98438 14.915 14.915 0 0 0-1.0176 1.0898 14.915 14.915 0 0 0-0.90234 1.1875 14.915 14.915 0 0 0-0.7793 1.2715 14.915 14.915 0 0 0-0.0059 0.01172l9.9512 9.9512c1.7467 1.7467 4.5423 1.7467 6.2891 0z" filter="url(#filter876)" opacity=".2" transform="matrix(1.0161 0 0 .86257 -.51669 5.7025)"/><path fill="url(#linearGradient972)" stroke-width=".083" d="m45.226 50.628a15.074 15.074 0 0 0-0.54088-0.93962 15.074 15.074 0 0 0-0.87645-1.2259 15.074 15.074 0 0 0-0.9949-1.1311 15.074 15.074 0 0 0-1.1014-1.0285 15.074 15.074 0 0 0-1.2002-0.91198 15.074 15.074 0 0 0-1.2851-0.78763 15.074 15.074 0 0 0-1.3561-0.65537 15.074 15.074 0 0 0-1.4154-0.51719 15.074 15.074 0 0 0-1.4607-0.37111 15.074 15.074 0 0 0-1.4904-0.22504 15.074 15.074 0 0 0-1.5042-0.07698 15.074 15.074 0 0 0-1.066 0.03948 15.074 15.074 0 0 0-1.4963 0.18161 15.074 15.074 0 0 0-1.4706 0.32966 15.074 15.074 0 0 0-1.4292 0.47376 15.074 15.074 0 0 0-1.3758 0.61589 15.074 15.074 0 0 0-1.3068 0.75012 15.074 15.074 0 0 0-1.2259 0.87645 15.074 15.074 0 0 0-1.1311 0.9949 15.074 15.074 0 0 0-1.0285 1.1014 15.074 15.074 0 0 0-0.91198 1.2002 15.074 15.074 0 0 0-0.78763 1.2851 15.074 15.074 0 0 0-6e-3 0.01185l10.058 10.058c1.7654 1.7654 4.5908 1.7654 6.3563 0l10.048-10.048z"/></svg>