<svg xmlns="http://www.w3.org/2000/svg" xmlns:xlink="http://www.w3.org/1999/xlink" width="64" height="64" version="1.1" viewBox="0 0 16.933 16.933"><defs><linearGradient id="linearGradient901" x1="-13.442" x2="-1.15" y1="-23.313" y2="-11.213" gradientTransform="translate(-2.2886 -.26636)" gradientUnits="userSpaceOnUse"><stop offset="0" stop-color="#3cdcff"/><stop offset="1" stop-color="#1287e1"/></linearGradient><linearGradient id="linearGradient917" x1="-14.789" x2="-14.789" y1="-19.165" y2="-16.374" gradientUnits="userSpaceOnUse"><stop offset="0" stop-color="#ffdf00"/><stop offset="1" stop-color="#f6a70f"/></linearGradient><linearGradient id="linearGradient925" x1="-13.216" x2="-13.216" y1="-22.361" y2="-19.647" gradientUnits="userSpaceOnUse"><stop offset="0" stop-color="#e95182"/><stop offset="1" stop-color="#cd3768"/></linearGradient><linearGradient id="linearGradient933" x1="-9.69" x2="-9.69" y1="-23.756" y2="-20.941" gradientUnits="userSpaceOnUse"><stop offset="0" stop-color="#835ec0"/><stop offset="1" stop-color="#634593"/></linearGradient><filter id="filter957" width="1.48" height="1.48" x="-.24" y="-.24" color-interpolation-filters="sRGB"><feGaussianBlur stdDeviation=".269"/></filter><filter id="filter967" width="1.48" height="1.48" x="-.24" y="-.24" color-interpolation-filters="sRGB"><feGaussianBlur stdDeviation=".269"/></filter><filter id="filter981" width="1.48" height="1.48" x="-.24" y="-.24" color-interpolation-filters="sRGB"><feGaussianBlur stdDeviation=".269"/></filter><linearGradient id="linearGradient1001" x1="16.821" x2="18.42" y1="-18.285" y2="-18.285" gradientTransform="translate(-4.9974)" gradientUnits="userSpaceOnUse"><stop offset="0" stop-color="#b2b5b0"/><stop offset="1" stop-color="#9d9a9c"/></linearGradient><linearGradient id="linearGradient1009" x1="17.668" x2="17.668" y1="-17.83" y2="-10.26" gradientTransform="translate(-4.9974)" gradientUnits="userSpaceOnUse"><stop offset="0" stop-color="#232220"/><stop offset="1" stop-color="#4c4b4b"/></linearGradient><filter id="filter1050" width="1.387" height="1.128" x="-.194" y="-.064" color-interpolation-filters="sRGB"><feGaussianBlur stdDeviation=".287"/></filter></defs><metadata/><g><g transform="matrix(1.0421 0 0 1.0421 17.121 26.673) translate(1.6861)"><path fill="url(#linearGradient901)" d="m-12.403-15.358s-1.661 1.8312-2.1435 1.9731c-0.30494 0.11659-1.139 0.38566-1.8117-0.43947s-1.9731-5.3633 2.3857-9.4531c4.3588-4.0898 12.718-2.0628 10.78 5.7579 0 0-1.0224 5.4171-6.9598 6.5831 0 0-1.4375 0.33325-1.7166-1.3917s1.8885-1.9572 0.796-3.1362c0 0-0.55655-0.66053-1.3306 0.10637z"/><circle cx="-14.877" cy="-17.769" r="1.345" filter="url(#filter957)" opacity=".3" transform="matrix(.92358 0 0 .92562 -1.137 -1.1695)"/><circle cx="-14.877" cy="-17.769" r="1.345" fill="url(#linearGradient917)"/><circle cx="-13.241" cy="-21.016" r="1.345" filter="url(#filter967)" opacity=".3" transform="matrix(.90032 0 0 .96771 -1.3199 -.58977)"/><circle cx="-13.241" cy="-21.016" r="1.345" fill="url(#linearGradient925)"/><circle cx="-9.715" cy="-22.373" r="1.345" filter="url(#filter981)" opacity=".3" transform="matrix(.87047 0 0 .9668 -1.2584 -.64132)"/><circle cx="-9.715" cy="-22.373" r="1.345" fill="url(#linearGradient933)"/><circle cx="-9.423" cy="-17.084" r=".977" fill="#f0f0f0"/></g><g filter="url(#filter1050)" opacity=".3" transform="matrix(1.0421 0 0 1.0421 17.121 26.673) translate(-16.861)"><path d="m11.824-18.763s-0.90954-1.5501-0.94759-1.6706c-0.03805-0.1205-0.01902-0.43125 0.1522-0.53272 0.17123-0.10147 0.23465-0.10147 0.30441-0.10147h2.5558s0.22831 0 0.31075 0.0761c0.08244 0.0761 0.28538 0.29173 0.18391 0.51369s-0.95762 1.7123-0.95762 1.7123z"/><rect width="1.599" height=".955" x="11.824" y="-18.763" opacity="1"/><path d="m11.824-17.808 0.29868 6.9633v0.0015a0.50561 0.50561 0 0 0-0.0026 0.04909 0.50561 0.50561 0 0 0 0.50539 0.5059 0.50561 0.50561 0 0 0 0.49815-0.42064h0.0047l0.29455-7.0992z" opacity="1"/></g><g transform="matrix(1.0421 0 0 1.0421 17.121 26.673) translate(-16.861)"><path fill="#f0f0f0" d="m11.824-18.763s-0.90954-1.5501-0.94759-1.6706c-0.03805-0.1205-0.01902-0.43125 0.1522-0.53272 0.17123-0.10147 0.23465-0.10147 0.30441-0.10147h2.5558s0.22831 0 0.31075 0.0761c0.08244 0.0761 0.28538 0.29173 0.18391 0.51369s-0.95762 1.7123-0.95762 1.7123z"/><rect width="1.599" height=".955" x="11.824" y="-18.763" fill="url(#linearGradient1001)"/><path fill="url(#linearGradient1009)" d="m11.824-17.808 0.29868 6.9633v0.0015a0.50561 0.50561 0 0 0-0.0026 0.04909 0.50561 0.50561 0 0 0 0.50539 0.5059 0.50561 0.50561 0 0 0 0.49815-0.42064h0.0047l0.29455-7.0992z"/></g></g></svg>