<svg xmlns="http://www.w3.org/2000/svg" width="64" height="64" version="1.1"><metadata/><defs><linearGradient id="e" x1="17.187" x2="17.187" y1="46.737" y2="199.98" gradientTransform="matrix(.3 0 0 .3 2 2.0064)" gradientUnits="userSpaceOnUse"><stop offset="0" stop-color="#35C130"/><stop offset=".348" stop-color="#34BD30"/><stop offset=".681" stop-color="#31B231"/><stop offset="1" stop-color="#2C9F32"/></linearGradient><linearGradient id="d" x1="95.97" x2="95.97" y1="2.292" y2="198.44" gradientTransform="matrix(1.7191,0,0,1.7191,340.09,368.45)" gradientUnits="userSpaceOnUse"><stop offset="0" stop-color="#47B9FF"/><stop offset="1" stop-color="#3D8AFF"/></linearGradient><linearGradient id="c" x1="114.75" x2="114.75" y1="56.681" y2="188.93" gradientTransform="matrix(.32519 0 0 .32519 -.48672 -.54406)" gradientUnits="userSpaceOnUse"><stop offset="0" stop-color="#ffce00"/><stop offset="1" stop-color="#e6bc00"/></linearGradient><linearGradient id="b" x1="103.67" x2="103.67" y1="-4.662" y2="206.5" gradientTransform="matrix(2.1699,0,0,2.1699,295.01,323.37)" gradientUnits="userSpaceOnUse"><stop offset="0" stop-color="#fff"/><stop offset="1" stop-color="#d7d7d7"/></linearGradient><filter id="g" width="1.072" height="1.072" x="-.036" y="-.036" color-interpolation-filters="sRGB"><feGaussianBlur stdDeviation="6.51"/></filter><linearGradient id="a" x1="97.425" x2="97.425" y1="-9.007" y2="209.87" gradientTransform="matrix(4.705,0,0,4.705,41,42)" gradientUnits="userSpaceOnUse"><stop offset="0" stop-color="#F6503B"/><stop offset=".217" stop-color="#F24735"/><stop offset=".572" stop-color="#E62F25"/><stop offset="1" stop-color="#D4090D"/></linearGradient></defs><g transform="translate(-1.9073e-6 -.006453)"><circle cx="32" cy="32.006" r="30" fill="url(#e)" stroke-width="1" color="#000"/><path fill="url(#c)" stroke-width="1" d="m51.25 9.0037c-6.1674 1.4686-35.335 8.7003-19.138 10.451 18.048 1.9511 11.178 20.243 11.178 20.243l-13.215 22.213a30 30 0 0 0 1.9236 0.09627 30 30 0 0 0 30-30 30 30 0 0 0-10.75-23.003z"/><g stroke-width="15.683" transform="matrix(.063762 0 0 .063762 -.61424 -2.48)"><path fill="url(#a)" d="m511.5 42a470.5 470.5 0 0 0-394.45 214.82l210.35 353.84s-5.6338-170.45 8.4531-187.36c14.087-16.904 83.113-81.703 83.113-81.703l94.381-28.174-5.1055-18.312 418.71-2.7539a470.5 470.5 0 0 0-415.46-250.36z" color="#000" transform="translate(0,28.362)"/><circle cx="512" cy="550.36" r="216.99" fill="#111" color="#000" filter="url(#g)" opacity=".2"/><circle cx="512" cy="540.36" r="216.99" fill="url(#b)" color="#000"/><circle cx="512" cy="540.36" r="171.91" fill="url(#d)" color="#000"/></g></g><g fill="#5e4aa6" stroke-width=".265" transform="matrix(3.7796 0 0 3.7796 71.49 11.957)"><circle cx="-330.35" cy="-328.38" r="0"/><circle cx="-312.11" cy="-326.25" r="0"/><circle cx="-306.02" cy="-333.07" r="0"/><circle cx="-308.84" cy="-326.01" r="0"/></g></svg>