<svg xmlns="http://www.w3.org/2000/svg" xmlns:osb="http://www.openswatchbook.org/uri/2009/osb" xmlns:xlink="http://www.w3.org/1999/xlink" id="Calculator" width="64" height="64" enable-background="new 0 0 1024 1024" image-rendering="optimizeSpeed" version="1.1" viewBox="0 0 64 64"><metadata/><defs><linearGradient id="i" x1="400.4" x2="400.4" y1="545.62" y2="517.62" gradientTransform="matrix(.41967 0 0 .41967 -173.34 -178.23)" gradientUnits="userSpaceOnUse"><stop offset="0" stop-color="#d3d3d3"/><stop offset="1" stop-color="#fcf9f9"/></linearGradient><linearGradient id="f-6" x1="400.4" x2="400.4" y1="545.62" y2="517.62" gradientTransform="matrix(.43343 0 0 .43343 -193.09 -179.69)" gradientUnits="userSpaceOnUse"><stop offset="0" stop-color="#8d3aff"/><stop offset="1" stop-color="#ff3680"/></linearGradient><linearGradient id="linearGradient967" x1="400.4" x2="400.4" y1="545.62" y2="517.62" gradientTransform="matrix(1.5862 0 0 1.5862 -655.16 -673.64)" gradientUnits="userSpaceOnUse" xlink:href="#i"/><linearGradient id="linearGradient969" x1="400.4" x2="400.4" y1="545.62" y2="517.62" gradientTransform="matrix(1.6382 0 0 1.6382 -729.8 -679.16)" gradientUnits="userSpaceOnUse" xlink:href="#f-6"/><linearGradient id="linearGradient4338" x1="-8.433" x2="1.774" y1="59.166" y2="68.565" gradientTransform="matrix(.57238 .000555 -.00055212 .57541 -22.308 -282.31)" gradientUnits="userSpaceOnUse"><stop offset="0" stop-color="#30c8f1"/><stop offset="1" stop-color="#1283e2"/></linearGradient><linearGradient id="linearGradient1202" x1="41.228" x2="9.971" y1="48.276" y2="17.595" gradientTransform="matrix(1.5899 0 0 1.5899 -8.5488 -100.71)" gradientUnits="userSpaceOnUse"><stop offset="0" stop-color="#232223"/><stop offset="1" stop-color="#49484d"/></linearGradient><style type="text/css"/><linearGradient id="linearGradient1047" x1="19.332" x2="33.837" y1="-82.95" y2="-72.093" gradientTransform="matrix(3.1496 0 0 2.9579 -48.111 259.59)" gradientUnits="userSpaceOnUse" xlink:href="#linearGradient1202"/><linearGradient id="linearGradient1099" x1="1.999" x2="62.001" y1="32" y2="32" gradientUnits="userSpaceOnUse" xlink:href="#linearGradient1202"/><linearGradient id="linearGradient3918" x1="6.5" x2="57.5" y1="32" y2="32" gradientUnits="userSpaceOnUse"><stop offset="0" stop-color="#cecece"/><stop offset="1" stop-color="#d0d0d0"/></linearGradient><linearGradient id="linearGradient3945" x1="41.228" x2="9.971" y1="48.276" y2="17.595" gradientTransform="matrix(1.5899 0 0 1.5899 -8.5488 -100.71)" gradientUnits="userSpaceOnUse" xlink:href="#linearGradient1202"/></defs><g fill="#5e4aa6" stroke-width=".265" transform="matrix(3.7796 0 0 3.7796 -82.524 3.3901)"><circle cx="-330.35" cy="-328.38" r="0"/><circle cx="-312.11" cy="-326.25" r="0"/><circle cx="-306.02" cy="-333.07" r="0"/><circle cx="-308.84" cy="-326.01" r="0"/></g><circle cx="-19.785" cy="169.92" r="0" fill="url(#linearGradient967)" image-rendering="optimizeSpeed"/><circle cx="-73.574" cy="192.07" r="0" fill="none" stroke="url(#linearGradient969)" stroke-width="2.13" image-rendering="optimizeSpeed"/><g fill="#5e4aa6" stroke-width=".265" transform="matrix(3.7796 0 0 3.7796 -82.525 3.3877)"><circle cx="-330.35" cy="-328.38" r="0"/><circle cx="-312.11" cy="-326.25" r="0"/><circle cx="-306.02" cy="-333.07" r="0"/><circle cx="-308.84" cy="-326.01" r="0"/></g><circle cx="-19.786" cy="169.91" r="0" fill="url(#linearGradient967)" image-rendering="optimizeSpeed"/><circle cx="-73.575" cy="192.07" r="0" fill="none" stroke="url(#linearGradient969)" stroke-width="2.13" image-rendering="optimizeSpeed"/><g transform="translate(-91.661 81.085)"><path fill="url(#linearGradient4338)" stroke-width=".117" d="m62-48.348c0 3.5964-0.63305 7.0444-1.794 10.24-0.80694 2.2212-1.8686 4.3212-3.1519 6.2636-0.53754 0.8167-1.1155 1.6054-1.729 2.3633-1.9641 2.4257-4.2982 4.5382-6.9182 6.2526-0.96493 0.63184-1.9678 1.2098-3.0061 1.7277-4.0321 2.0179-8.5839 3.1529-13.401 3.1529s-9.3689-1.1351-13.401-3.153c-1.0384-0.518-2.0425-1.0959-3.0074-1.7277-2.6535-1.7376-5.0155-3.8832-6.9953-6.349-0.61464-0.76408-1.1914-1.56-1.729-2.3841-1.249-1.9102-2.2836-3.9712-3.0746-6.1494-1.1607-3.1948-1.7927-6.6415-1.7927-10.237 0-16.569 13.432-30 30-30 8.317 0 15.843 3.3845 21.277 8.8503 1.5661 1.5746 2.9584 3.3233 4.1436 5.214 1.1205 1.7805 2.0571 3.6881 2.7857 5.6951 1.161 3.196 1.794 6.6442 1.794 10.24z"/><circle cx="32" cy="-48.347" r="25" fill="url(#linearGradient3945)"/><g transform="matrix(.93747 0 0 .93747 2.001 -78.346)"><rect width="1.6" height="12.8" x="16.001" y="16.001" fill="#d5d5d5" stroke-width=".1"/><g fill="#066dd7" stroke-width=".063" transform="matrix(1.6,0,0,1.6,-621.71,-809.28)"><rect width="1" height="8" x="400.57" y="515.8"/><rect width="1" height="8" x="402.57" y="515.8"/></g><rect width="1.6" height="12.8" x="-47.999" y="15.999" fill="#d5d5d5" stroke-width=".1" transform="scale(-1,1)"/><g fill="#42daf9" stroke-width=".063" transform="matrix(-1.6,0,0,1.6,-621.71,-809.28)"><rect width="1" height="8" x="-416.57" y="515.8"/><rect width="1" height="8" x="-414.57" y="515.8"/></g><rect width="1.6" height="12.8" x="16.001" y="35.201" fill="#d5d5d5" stroke-width=".1"/><g fill="#1692d6" stroke-width=".063" transform="matrix(1.6,0,0,1.6,-621.71,-809.28)"><rect width="1" height="8" x="400.57" y="527.8"/><rect width="1" height="8" x="402.57" y="527.8"/></g><rect width="1.6" height="12.8" x="-47.999" y="35.199" fill="#d5d5d5" stroke-width=".1" transform="scale(-1,1)"/><g fill="#27b5f8" stroke-width=".063" transform="matrix(-1.6,0,0,1.6,-621.71,-809.28)"><rect width="1" height="8" x="-416.57" y="527.8"/><rect width="1" height="8" x="-414.57" y="527.8"/></g><g fill="#1283e2" stroke-width=".063" transform="matrix(1.6,0,0,1.6,-621.71,-809.28)"><rect width="1" height="4" x="404.57" y="523.8"/><rect width="1" height="4" x="408.57" y="523.8"/><rect width="1" height="4" x="412.57" y="523.8"/></g></g></g><style type="text/css"/><circle cx="-1167.8" cy="-1231.1" r="0" fill="#5e4aa6"/><rect width="60.001" height="46.002" x="1.999" y="8.999" fill="url(#linearGradient1099)" stroke-width="3.78" ry="3"/><rect width="50" height="36" x="7" y="14" fill="url(#linearGradient1047)" stroke="url(#linearGradient3918)" ry="1.096"/><g fill="none" stroke="#42d2b2" stroke-width=".358"><path d="m75.234-29.454-0.12281 87.15" transform="matrix(.48175 0 0 .40166 -27.998 26.322)"/><path d="m87.253-29.454-0.12281 87.15" transform="matrix(.48175 0 0 .40166 -27.998 26.322)"/><path d="m99.533-29.454-0.12282 87.15" transform="matrix(.48175 0 0 .40166 -27.998 26.322)"/><path d="m111.78-29.454-0.12283 87.15" transform="matrix(.48175 0 0 .40166 -27.998 26.322)"/><path d="m123.94-29.454-0.1228 87.15" transform="matrix(.48175 0 0 .40166 -27.998 26.322)"/><path d="m136.22-29.454-0.12279 87.15" transform="matrix(.48175 0 0 .40166 -27.998 26.322)"/><path d="m148.55-29.454-0.1228 87.15" transform="matrix(.48175 0 0 .40166 -27.998 26.322)"/><path d="m160.62-29.454-0.1228 87.15" transform="matrix(.48175 0 0 .40166 -27.998 26.322)"/><path d="m172.87-29.454-0.1228 87.15" transform="matrix(.48175 0 0 .40166 -27.998 26.322)"/><path d="m73.668-22.376h101.67" transform="matrix(.48175 0 0 .40166 -27.998 26.322)"/><path d="m73.668-10.172h101.67" transform="matrix(.48175 0 0 .40166 -27.998 26.322)"/><path d="m73.668 2.0492h101.67" transform="matrix(.48175 0 0 .40166 -27.998 26.322)"/><path d="m73.668 14.222h101.67" transform="matrix(.48175 0 0 .40166 -27.998 26.322)"/><path d="m73.668 26.412h101.67" transform="matrix(.48175 0 0 .40166 -27.998 26.322)"/><path d="m73.668 38.608h101.67" transform="matrix(.48175 0 0 .40166 -27.998 26.322)"/><path d="m73.668 50.829h101.67" transform="matrix(.48175 0 0 .40166 -27.998 26.322)"/></g><rect width="1.5" height="12" x="17.001" y="17.001" fill="#d5d5d5" stroke-width=".094"/><g fill="#00e6b5" stroke-width=".063" transform="matrix(1.5 0 0 1.5 -580.83 -756.67)"><rect width="1" height="8" x="400.57" y="515.8"/><rect width="1" height="8" x="402.57" y="515.8"/></g><rect width="1.5" height="12" x="-46.999" y="17" fill="#d5d5d5" stroke-width=".094" transform="scale(-1,1)"/><g fill="#00e6b5" stroke-width=".063" transform="matrix(-1.5 0 0 1.5 -580.83 -756.67)"><rect width="1" height="8" x="-416.57" y="515.8"/><rect width="1" height="8" x="-414.57" y="515.8"/></g><rect width="1.5" height="12" x="17.001" y="35.001" fill="#d5d5d5" stroke-width=".094"/><g fill="#00e6b5" stroke-width=".063" transform="matrix(1.5 0 0 1.5 -580.83 -756.67)"><rect width="1" height="8" x="400.57" y="527.8"/><rect width="1" height="8" x="402.57" y="527.8"/></g><rect width="1.5" height="12" x="-46.999" y="34.999" fill="#d5d5d5" stroke-width=".094" transform="scale(-1,1)"/><g><g fill="#00e6b5" stroke-width=".063" transform="matrix(-1.5 0 0 1.5 -580.83 -756.67)"><rect width="1" height="8" x="-416.57" y="527.8"/><rect width="1" height="8" x="-414.57" y="527.8"/></g><g fill="#00e6b5" stroke-width=".063" transform="matrix(1.5 0 0 1.5 -580.83 -756.67)"><rect width="1" height="4" x="404.57" y="523.8"/><rect width="1" height="4" x="408.57" y="523.8"/><rect width="1" height="4" x="412.57" y="523.8"/></g><rect width="101.71" height="87.207" x="246.54" y="-66.418" fill="#262626"/></g><style type="text/css"/></svg>