<svg xmlns="http://www.w3.org/2000/svg" xmlns:xlink="http://www.w3.org/1999/xlink" width="64" height="64" version="1.1" viewBox="0 0 16.933 16.933"><metadata/><defs><style type="text/css"/><linearGradient id="linearGradient947" x1="19.332" x2="33.837" y1="-82.95" y2="-72.093" gradientTransform="translate(-16.969 66.638)" gradientUnits="userSpaceOnUse"><stop offset="0" stop-color="#289be6"/><stop offset="1" stop-color="#8278eb"/></linearGradient><style type="text/css"/><style type="text/css"/><style type="text/css"/><style type="text/css"/><linearGradient id="linearGradient1498" x1=".529" x2="16.404" y1=".529" y2="16.404" gradientTransform="translate(-29.122)" gradientUnits="userSpaceOnUse" xlink:href="#linearGradient947"/><style type="text/css"/><style type="text/css"/><linearGradient id="linearGradient1642" x1="19.332" x2="33.837" y1="-82.95" y2="-72.093" gradientTransform="translate(-16.969 85.41)" gradientUnits="userSpaceOnUse" xlink:href="#linearGradient947"/></defs><g fill="#5e4aa6" stroke-width=".265"><circle cx="-370.34" cy="-335.58" r="0"/><circle cx="-352.1" cy="-333.45" r="0"/><circle cx="-346.01" cy="-340.27" r="0"/><circle cx="-348.83" cy="-333.21" r="0"/></g><rect width="15.875" height="15.875" x="-28.593" y=".529" fill="url(#linearGradient1498)" ry=".794"/><style type="text/css"/><circle cx="-336.52" cy="-328.09" r="0" fill="#5e4aa6" stroke-width=".265"/><rect width="15.875" height="12.171" x=".529" y="2.381" fill="url(#linearGradient1642)" ry=".794"/><g style="font-feature-settings:normal;font-variant-caps:normal;font-variant-ligatures:normal;font-variant-numeric:normal" fill="#f0f0f0" stroke-width=".23" aria-label="KV"><path style="font-feature-settings:normal;font-variant-caps:normal;font-variant-ligatures:normal;font-variant-numeric:normal" d="m3.8923 9.5736v2.2456h-1.3788v-6.7053h1.3788v2.9417l2.6183-2.9417h1.6303l-2.6767 2.8878 2.9597 3.8175h-1.6438l-2.2007-2.9597z"/><path style="font-feature-settings:normal;font-variant-caps:normal;font-variant-ligatures:normal;font-variant-numeric:normal" d="m12.12 11.819h-1.1677l-2.2635-6.7053h1.3878l1.4911 5.048 1.4641-5.048h1.3878z"/></g><style type="text/css"/><style type="text/css"/><circle cx="-340.54" cy="-381.04" r="0" fill="#5e4aa6" stroke-width=".265"/><text x="-27.291" y="11.819" fill="#f0f0f0" stroke-width=".23" font-family="'Mukti Narrow'" font-size="9.198" font-weight="bold" letter-spacing="0" word-spacing="0" xml:space="preserve" style="font-feature-settings:normal;font-variant-caps:normal;font-variant-ligatures:normal;font-variant-numeric:normal;line-height:1.25"><tspan style="font-feature-settings:normal;font-variant-caps:normal;font-variant-ligatures:normal;font-variant-numeric:normal" x="-27.291" y="11.819" fill="#f0f0f0" stroke-width=".23" font-family="'Mukti Narrow'" font-size="9.198" font-weight="bold">KV</tspan></text></svg>