<svg xmlns="http://www.w3.org/2000/svg" width="64" height="64" version="1.1" viewBox="0 0 16.933 16.933"><defs><linearGradient id="linearGradient873" x1="-48.646" x2="-32.772" y1="-3.091" y2="9.574" gradientTransform="matrix(1 0 0 .91665 49.175 7.5514)" gradientUnits="userSpaceOnUse"><stop offset="0" stop-color="#26b4eb"/><stop offset="1" stop-color="#017adc"/></linearGradient><filter id="filter965" width="1.366" height="1.165" x="-.183" y="-.083" color-interpolation-filters="sRGB"><feGaussianBlur stdDeviation=".128"/></filter></defs><metadata/><path fill="url(#linearGradient873)" stroke-width=".957" d="m16.404 4.7176h-15.875v10.882c0 0.40307 0.32452 0.72759 0.72759 0.72759h14.42c0.40308 0 0.72759-0.32452 0.72759-0.72759z"/><path fill="#056abe" stroke-width=".957" d="m1.2565 1.7757c-0.40307 0-0.72759 0.32452-0.72759 0.72759v2.2143h15.875v-2.2143c0-0.40307-0.32452-0.72759-0.72759-0.72759z"/><g fill="#fff" transform="translate(14.962 -35.303)"><rect width="1.852" height="1.852" x="-8.993" y="42.131"/><rect width="1.852" height="1.852" x="-5.788" y="42.131"/><rect width="1.852" height="1.852" x="-2.583" y="42.131"/><rect width="1.852" height="1.852" x="-12.198" y="47.871"/><rect width="1.852" height="1.852" x="-8.993" y="47.871"/><rect width="1.852" height="1.852" x="-5.788" y="47.871"/><rect width="1.852" height="1.852" x="-12.198" y="45.001"/><rect width="1.852" height="1.852" x="-8.993" y="45.001"/><rect width="1.852" height="1.852" x="-5.788" y="45.001"/><rect width="1.852" height="1.852" x="-2.583" y="45.001"/></g><g><rect width="1.674" height="3.704" x="-13.08" y="35.909" filter="url(#filter965)" opacity=".3" ry=".837" transform="matrix(1.0256 0 0 .7562 15.915 -25.364)"/><rect width="1.674" height="3.704" x="2.517" y=".605" fill="#2ecef2" ry=".837"/><rect width="1.674" height="3.704" x="-13.08" y="35.909" filter="url(#filter965)" opacity=".3" ry=".837" transform="matrix(1.0256 0 0 .7562 26.13 -25.364)"/><rect width="1.674" height="3.704" x="12.742" y=".605" fill="#2ecef2" ry=".837"/></g></svg>