<svg xmlns="http://www.w3.org/2000/svg" xmlns:xlink="http://www.w3.org/1999/xlink" width="64" height="64" version="1.1"><metadata/><defs><linearGradient id="b" x1="399.57" x2="399.57" y1="545.8" y2="517.8" gradientTransform="matrix(2.1429 0 0 2.1429 -826.36 -1107.5)" gradientUnits="userSpaceOnUse"><stop offset="0" stop-color="#3889e9"/><stop offset="1" stop-color="#5ea5fb"/></linearGradient><linearGradient id="linearGradient1108"><stop offset="0" stop-color="#50d2ff"/><stop offset="1" stop-color="#19a0e6"/></linearGradient><linearGradient id="linearGradient1156" x1="12.692" x2="51.5" y1="9.5" y2="59.5" gradientUnits="userSpaceOnUse" xlink:href="#linearGradient1108"/><filter id="filter888" width="1.19" height="1.151" x="-.095" y="-.075" color-interpolation-filters="sRGB"><feGaussianBlur stdDeviation="1.54"/></filter></defs><circle cx="32.02" cy="32.044" r="0" fill="url(#b)" stroke-width="1.571"/><g fill="#5e4aa6" stroke-width=".265" transform="matrix(3.7796 0 0 3.7796 -79.981 84.574)"><circle cx="-322.63" cy="-345.67" r="0"/><circle cx="-31.726" cy="-10.849" r="0" fill-rule="evenodd"/><circle cx="-306.92" cy="-328.72" r="0"/></g><g filter="url(#filter888)" opacity=".2" transform="matrix(1.1224 0 0 1.1224 -3.9183 -7.2857)"><path d="m12.5 54v3.5c0 0.554 0.22248 1.0545 0.58398 1.416s0.86202 0.58398 1.416 0.58398h35c0.554 0 1.0545-0.22248 1.416-0.58398s0.58398-0.86202 0.58398-1.416v-3.5c0-10.803-8.697-19.5-19.5-19.5s-19.5 8.697-19.5 19.5z"/><circle cx="32" cy="21.5" r="11"/></g><g fill="url(#linearGradient1156)" transform="matrix(1.1224 0 0 1.1224 -3.9183 -7.2857)"><path d="m12.5 54v3.5c0 0.554 0.22248 1.0545 0.58398 1.416s0.86202 0.58398 1.416 0.58398h35c0.554 0 1.0545-0.22248 1.416-0.58398s0.58398-0.86202 0.58398-1.416v-3.5c0-10.803-8.697-19.5-19.5-19.5s-19.5 8.697-19.5 19.5z"/><circle cx="32" cy="21.5" r="11"/></g></svg>