<svg xmlns="http://www.w3.org/2000/svg" xmlns:xlink="http://www.w3.org/1999/xlink" width="64" height="64" version="1.1" viewBox="0 0 16.933 16.933"><defs><linearGradient id="linearGradient1008" x1="1.59" x2="15.587" y1="8.92" y2="8.92" gradientUnits="userSpaceOnUse"><stop offset="0" stop-color="#00bffb"/><stop offset="1" stop-color="#01a1f3"/></linearGradient><linearGradient id="linearGradient935" x1="1.59" x2="15.587" y1="8.92" y2="8.92" gradientUnits="userSpaceOnUse" xlink:href="#linearGradient1008"/><linearGradient id="linearGradient1083" x1="-1.201" x2="13.174" y1="10.369" y2="10.369" gradientTransform="matrix(1.0463 0 0 1.1557 2.2023 -3.5168)" gradientUnits="userSpaceOnUse"><stop offset="0" stop-color="#7d8791"/><stop offset="1" stop-color="#96aab9"/></linearGradient></defs><metadata/><g transform="matrix(1.0906 0 0 1.0906 -.76698 -.76706)"><rect width="15.041" height="6.827" x=".946" y="5.053" fill="url(#linearGradient1083)" stroke-width=".818" ry=".228"/><rect width="13.709" height="5.634" x="1.612" y="5.65" fill="#141414" stroke-width=".71" ry=".188"/><g fill="url(#linearGradient935)" transform="rotate(15 8.4664 8.4664)"><g transform="matrix(.68559 -.1837 .1837 .68559 3.7881 16.039)"><rect width="1.323" height="1.323" x="-.265" y="-10.98" ry="0"/><rect width="1.323" height="1.323" x="1.296" y="-10.98" ry="0"/><rect width="1.323" height="1.323" x="2.857" y="-10.98" ry="0"/><rect width="1.323" height="1.323" x="4.418" y="-10.98" ry="0"/><rect width="1.323" height="1.323" x="5.979" y="-10.98" ry="0"/><rect width="1.323" height="1.323" x="7.54" y="-10.98" ry="0"/><rect width="1.323" height="1.323" x="9.101" y="-10.98" ry="0"/><rect width="1.323" height="1.323" x="10.662" y="-10.98" ry="0"/><rect width="1.323" height="1.323" x="12.224" y="-10.98" ry="0"/><rect width="1.323" height="1.323" x="13.785" y="-10.98" ry="0"/><rect width="3.175" height="1.323" x="15.346" y="-10.98" ry="0"/></g><g transform="matrix(.68559 -.1837 .1837 .68559 3.7881 16.039)"><rect width="1.323" height="1.323" x=".132" y="-9.393" ry="0"/><rect width="1.323" height="1.323" x="1.706" y="-9.393" ry="0"/><rect width="1.323" height="1.323" x="3.281" y="-9.393" ry="0"/><rect width="1.323" height="1.323" x="4.855" y="-9.393" ry="0"/><rect width="1.323" height="1.323" x="6.429" y="-9.393" ry="0"/><rect width="1.323" height="1.323" x="8.004" y="-9.393" ry="0"/><rect width="1.323" height="1.323" x="9.578" y="-9.393" ry="0"/><rect width="1.323" height="1.323" x="11.152" y="-9.393" ry="0"/><rect width="1.323" height="1.323" x="12.726" y="-9.393" ry="0"/><rect width="2.646" height="1.323" x="15.875" y="-9.393" ry="0"/><rect width="1.323" height="1.323" x="14.3" y="-9.393" ry="0"/></g><g transform="matrix(.68559 -.1837 .1837 .68559 3.8123 16.129)"><rect width="1.323" height="1.323" x="-.265" y="-7.937" ry="0"/><rect width="1.323" height="1.323" x="1.323" y="-7.937" ry="0"/><rect width="1.323" height="1.323" x="2.91" y="-7.937" ry="0"/><rect width="1.323" height="1.323" x="4.498" y="-7.937" ry="0"/><rect width="1.323" height="1.323" x="6.085" y="-7.937" ry="0"/><rect width="1.323" height="1.323" x="7.673" y="-7.937" ry="0"/><rect width="1.323" height="1.323" x="9.26" y="-7.937" ry="0"/><rect width="1.323" height="1.323" x="10.848" y="-7.937" ry="0"/><rect width="1.323" height="1.323" x="12.435" y="-7.937" ry="0"/><rect width="1.323" height="1.323" x="14.023" y="-7.937" ry="0"/><rect width="1.323" height="1.323" x="15.61" y="-7.937" ry="0"/><rect width="1.323" height="1.323" x="17.198" y="-7.937" ry="0"/></g><g transform="matrix(.68559 -.1837 .1837 .68559 3.8368 16.22)"><rect width="1.323" height="1.323" x="-.265" y="-6.482" ry="0"/><rect width="1.323" height="1.323" x="1.323" y="-6.482" ry="0"/><rect width="1.323" height="1.323" x="2.91" y="-6.482" ry="0"/><rect width="9.26" height="1.323" x="4.498" y="-6.482" ry="0"/><rect width="1.323" height="1.323" x="14.023" y="-6.482" ry="0"/><rect width="1.323" height="1.323" x="15.61" y="-6.482" ry="0"/><rect width="1.323" height="1.323" x="17.198" y="-6.482" ry="0"/></g></g><g transform="matrix(.46762 -2.8273e-8 2.8273e-8 .46762 6.2057 14.866)"><rect width=".524" height=".388" x="16.142" y="-18.518" fill="none" stroke="#fff" stroke-linecap="round" stroke-width=".032" ry="0"/><rect width=".389" height=".08" x="16.21" y="-18.276" fill="#fff"/></g><g fill="#fff" transform="matrix(.70977 3.1748e-6 -3.1748e-6 .70977 1.594 19.37)"><rect width=".351" height=".059" x="-.374" y="-25.877" transform="rotate(45)"/><rect width=".351" height=".059" x="-26.023" y="-.228" transform="matrix(-.70711 .70711 .70711 .70711 0 0)"/></g></g></svg>