<svg xmlns="http://www.w3.org/2000/svg" xmlns:xlink="http://www.w3.org/1999/xlink" width="64" height="64" version="1.1" viewBox="0 0 16.933 16.933"><defs><linearGradient id="linearGradient1119"><stop offset="0" stop-color="#aa4664"/><stop offset="1" stop-color="#b44b64"/></linearGradient><style type="text/css"/><linearGradient id="linearGradient947" x1="18.821" x2="31.3" y1="-81.858" y2="-72.986" gradientTransform="matrix(1 0 0 1.1304 -14.852 43.321)" gradientUnits="userSpaceOnUse"><stop offset="0" stop-color="#fa904f"/><stop offset="1" stop-color="#8c62c2"/></linearGradient><linearGradient id="linearGradient952" x1="18.821" x2="31.3" y1="-81.858" y2="-72.986" gradientTransform="matrix(.83334 0 0 .77657 -10.613 17.118)" gradientUnits="userSpaceOnUse"><stop offset="0" stop-color="#464b4b"/><stop offset="1" stop-color="#1e1e1e"/></linearGradient><style type="text/css"/><linearGradient id="linearGradient1056" x1="8.8" x2="14.091" y1="-42.898" y2="-42.898" gradientTransform="translate(0 .26458)" gradientUnits="userSpaceOnUse"><stop offset="0" stop-color="#ebebeb"/><stop offset="1" stop-color="#fff"/></linearGradient><filter id="filter1068" width="1.202" height="1.144" x="-.101" y="-.072" color-interpolation-filters="sRGB"><feGaussianBlur stdDeviation=".223"/></filter><linearGradient id="linearGradient1113" x1="32" x2="32" y1="-252" y2="-239.94" gradientTransform="matrix(.26458 0 0 .26458 6.6145 16.139)" gradientUnits="userSpaceOnUse" xlink:href="#linearGradient1119"/><linearGradient id="linearGradient1123" x1="32" x2="32" y1="-252" y2="-239.94" gradientTransform="matrix(.26458 0 0 .26458 -3.1749 16.139)" gradientUnits="userSpaceOnUse" xlink:href="#linearGradient1119"/><linearGradient id="linearGradient1127" x1="32" x2="32" y1="-252" y2="-239.94" gradientTransform="matrix(.26458 0 0 .26458 .088192 16.139)" gradientUnits="userSpaceOnUse" xlink:href="#linearGradient1119"/><linearGradient id="linearGradient1131" x1="32" x2="32" y1="-252" y2="-239.94" gradientTransform="matrix(.26458 0 0 .26458 3.3513 16.139)" gradientUnits="userSpaceOnUse" xlink:href="#linearGradient1119"/><linearGradient id="linearGradient1155" x1="18.821" x2="31.3" y1="-81.858" y2="-72.986" gradientTransform="matrix(1,0,0,1.1304,-14.852,43.321)" gradientUnits="userSpaceOnUse" xlink:href="#linearGradient947"/></defs><metadata/><style type="text/css"/><g transform="translate(5.5313e-8 -.00049979)"><circle cx="-340.54" cy="-381.04" r="0" fill="#5e4aa6" stroke-width=".265"/><g transform="translate(-2.1165,52.122)"><rect width="15.875" height="13.758" x="2.646" y="-50.534" fill="url(#linearGradient1155)" stroke-width="1.063" ry=".897"/><rect width="15.875" height="13.758" x="2.646" y="-50.534" fill="url(#linearGradient1155)" stroke-width="1.063" ry=".794"/><rect width="13.229" height="9.452" x="3.968" y="-47.359" fill="url(#linearGradient952)" stroke-width=".804" ry=".265"/><path stroke-width=".005" d="m13.493-43.218-4.3699-3.3114a0.46291 0.42023 0 0 0-0.75917 0.32778v6.606a0.46291 0.42023 0 0 0 0.75917 0.32778l4.3699-3.3114a0.46291 0.42023 0 0 0 0.05554-0.58832z" filter="url(#filter1068)" opacity=".5" p-id="47316" transform="matrix(1 0 0 .97742 0 -.61993)"/><path fill="url(#linearGradient1056)" stroke-width=".005" d="m13.929-42.953-4.3699-3.3114a0.46291 0.42023 0 0 0-0.75917 0.32778v6.606a0.46291 0.42023 0 0 0 0.75917 0.32778l4.3699-3.3114a0.46291 0.42023 0 0 0 0.05554-0.58832z" p-id="47316"/><path fill="url(#linearGradient1113)" d="m14.023-50.534 1.0583 1.5875-1.0583 1.5875h1.852l1.0583-1.5875-1.0583-1.5875z"/><path fill="url(#linearGradient1123)" d="m4.2333-50.534 1.0583 1.5875-1.0583 1.5875h1.852l1.0583-1.5875-1.0583-1.5875z"/><path fill="url(#linearGradient1127)" d="m7.4964-50.534 1.0583 1.5875-1.0583 1.5875h1.852l1.0583-1.5875-1.0583-1.5875z"/><path fill="url(#linearGradient1131)" d="m10.76-50.534 1.0583 1.5875-1.0583 1.5875h1.852l1.0583-1.5875-1.0583-1.5875z"/></g></g></svg>