<svg xmlns="http://www.w3.org/2000/svg" width="64" height="64" version="1.1" viewBox="0 0 16.933 16.933"><defs><linearGradient id="linearGradient856" x1="-73.361" x2="-58.736" y1="6.98" y2="17.198" gradientTransform="translate(75.14 -.97417)" gradientUnits="userSpaceOnUse"><stop offset="0" stop-color="#fafafa"/><stop offset="1" stop-color="#e6e6e6"/></linearGradient><linearGradient id="linearGradient874" x1="-74.611" x2="-58.736" y1="5.556" y2="5.556" gradientTransform="translate(75.14 -2.1056)" gradientUnits="userSpaceOnUse"><stop offset="0" stop-color="#cfcfcf"/><stop offset="1" stop-color="#c9c9c9"/></linearGradient><linearGradient id="linearGradient908" x1="-70.642" x2="-70.642" y2="2.674" gradientTransform="translate(75.14 -.13229)" gradientUnits="userSpaceOnUse"><stop offset="0" stop-color="#ebebeb"/><stop offset="1" stop-color="#fafafa"/></linearGradient><linearGradient id="linearGradient922" x1="-62.705" x2="-62.705" y2="3.852" gradientTransform="translate(75.14 -.13229)" gradientUnits="userSpaceOnUse"><stop offset="0" stop-color="#ebebeb"/><stop offset="1" stop-color="#fafafa"/></linearGradient><filter id="filter954" width="1.36" height="1.36" x="-.18" y="-.18" color-interpolation-filters="sRGB"><feGaussianBlur stdDeviation=".119"/></filter><filter id="filter962" width="1.36" height="1.36" x="-.18" y="-.18" color-interpolation-filters="sRGB"><feGaussianBlur stdDeviation=".119"/></filter></defs><metadata/><g transform="translate(0 .20462)"><rect width="15.875" height="11.641" x=".529" y="3.45" fill="url(#linearGradient874)" ry=".529"/><rect width="1.587" height="1.587" x="3.704" y="3.524" filter="url(#filter954)" opacity=".5" ry="0"/><rect width="1.587" height="1.587" x="11.641" y="3.524" filter="url(#filter962)" opacity=".5" ry="0"/><path fill="url(#linearGradient856)" d="m3.7041 2.9945v1.5875h-2.6458c-0.29315 0-0.52916 0.236-0.52916 0.52916v10.583c0 0.29315 0.236 0.52916 0.52916 0.52916h14.816c0.29315 0 0.52916-0.236 0.52916-0.52916v-10.583c0-0.29315-0.236-0.52916-0.52916-0.52916h-2.6458v-1.5875h-1.5875v1.5875h-6.3499v-1.5875z"/><g transform="translate(75.537 -.41223)"><rect width="3.175" height="3.175" x="-70.378" y="7.673" fill="#f44e24" ry=".265"/><rect width="3.175" height="3.175" x="-66.938" y="7.673" fill="#81b901" ry=".265"/><rect width="3.175" height="3.175" x="-70.378" y="11.112" fill="#00a2ef" ry=".265"/><rect width="3.175" height="3.175" x="-66.938" y="11.112" fill="#ffb800" ry=".265"/></g><g transform="translate(0 .43263)"><path fill="url(#linearGradient908)" d="m5.2916 2.5619v-2.6942l-1.5875 1.3229v1.3713z"/><path fill="url(#linearGradient922)" d="m11.641 2.5619v-2.6942l1.5875 1.3229v1.3713z"/><rect width="6.35" height="1.587" x="5.292" y="-.132" fill="#c8c8c8" ry="0"/></g></g></svg>