<svg xmlns="http://www.w3.org/2000/svg" xmlns:xlink="http://www.w3.org/1999/xlink" width="64" height="64" version="1.1" viewBox="0 0 16.933 16.933"><defs><linearGradient id="linearGradient4461" x1="19.332" x2="33.837" y1="-82.95" y2="-72.093" gradientTransform="translate(-16.969 87.135)" gradientUnits="userSpaceOnUse"><stop offset="0" stop-color="#23b4ff"/><stop offset="1" stop-color="#057ed6"/></linearGradient><style type="text/css"/><style type="text/css"/><style type="text/css"/><style type="text/css"/><radialGradient id="radialGradient4437" cx="8.466" cy="10.191" r="7.938" gradientTransform="matrix(1 0 0 .76668 0 2.3779)" gradientUnits="userSpaceOnUse" xlink:href="#linearGradient4461"/><radialGradient id="radialGradient4445" cx="8.466" cy="2.934" r="6.614" gradientTransform="matrix(1 0 0 .085556 0 2.6828)" gradientUnits="userSpaceOnUse" xlink:href="#linearGradient4461"/><radialGradient id="radialGradient4447" cx="8.468" cy="1.269" r="4.725" gradientTransform="matrix(1 0 0 .12003 0 1.1165)" gradientUnits="userSpaceOnUse" xlink:href="#linearGradient4461"/><linearGradient id="linearGradient4455" x1="3.382" x2="13.623" y1="6.514" y2="14.909" gradientUnits="userSpaceOnUse"><stop offset="0" stop-color="#fff"/><stop offset="1" stop-color="#ebebeb"/></linearGradient></defs><metadata/><g fill="#5e4aa6" stroke-width=".265" transform="matrix(1.0909 0 0 1.0909 -24.588 .20877)"><circle cx="-330.35" cy="-328.38" r="0"/><circle cx="-312.11" cy="-326.25" r="0"/><circle cx="-306.02" cy="-333.07" r="0"/><circle cx="-308.84" cy="-326.01" r="0"/></g><style type="text/css"/><circle cx="-329.48" cy="-329.25" r="0" fill="#5e4aa6" stroke-width=".265"/><rect width="15.875" height="12.171" x=".529" y="4.106" fill="url(#radialGradient4437)" ry=".794"/><path fill="url(#linearGradient4455)" stroke-width=".015" d="m8.4588 6.512c-0.86634-0.0020108-1.7119 0.26504-2.42 0.76428-0.15716 0.1012-0.24763 0.27982-0.23254 0.46715 0.01289 0.18731 0.12911 0.35097 0.2992 0.42632 0.17009 0.075356 0.3682 0.051578 0.51675-0.062527 0.54689-0.38326 1.2016-0.58568 1.8691-0.57928 0.09474 0 0.18956 0.0069 0.28215 0.015502 0.03014 0 0.05779 0.00604 0.08578 0.010334 0.07752 0.00861 0.15306 0.019552 0.2284 0.034623 0.03229 0.00646 0.06434 0.015303 0.09663 0.021703 0.0732 0.01724 0.14651 0.03428 0.21755 0.055809 0.02255 0.00697 0.04479 0.014896 0.06666 0.02377 0.07967 0.028 0.16165 0.056075 0.24132 0.088365 0.0086 0.00217 0.01517 0.00655 0.02377 0.010853 0.47152 0.20238 0.88711 0.51435 1.2144 0.91052 0 0.0022 2e-3 0.00462 0.0041 0.00672 0.47154 0.57487 0.73017 1.2957 0.73017 2.0407h-0.84851l1.3565 2.0329 1.3606-2.0391h-0.84851c0-0.85477-0.25805-1.688-0.74464-2.3921-0.0065-0.012919-0.01055-0.026021-0.01705-0.034623-0.06028-0.079666-0.12298-0.16165-0.18758-0.24132-0.0086-0.00861-0.0153-0.017145-0.0217-0.027905-0.42631-0.5146-0.96661-0.92112-1.5802-1.186l-0.05168-0.021703c-0.09903-0.040898-0.198-0.075619-0.2992-0.11007-0.03445-0.01076-0.07304-0.023365-0.10748-0.034106-0.08828-0.025849-0.17466-0.047715-0.2651-0.069245-0.05167-0.01075-0.10087-0.023336-0.15038-0.034106-0.02584-0.0043-0.04755-0.011171-0.07338-0.017571-0.06674-0.01075-0.13374-0.017237-0.2005-0.025839-0.04522-0.0043-0.0901-0.012753-0.13746-0.017052-0.11197-0.010821-0.22393-0.014954-0.33589-0.017052zm-3.7227 2.2024-1.3539 2.0324h0.84593c0 0.85692 0.26055 1.6947 0.74929 2.3988 0.00646 0.01077 0.010554 0.02137 0.017052 0.02997 0.04951 0.07106 0.10336 0.13589 0.15503 0.2005 0.01937 0.02368 0.036863 0.04961 0.058393 0.07545 0.075354 0.09257 0.16116 0.18052 0.24081 0.26664l0.02377 0.02377c0.28206 0.28205 0.60299 0.52305 0.95393 0.71467l0.027905 0.0155c0.10074 0.05333 0.20348 0.10281 0.30799 0.14831l0.07958 0.03462c0.090425 0.0366 0.18079 0.06899 0.27336 0.10128l0.13126 0.04496c0.081815 0.02368 0.16406 0.04315 0.24804 0.06253 0.055986 0.01292 0.10724 0.028 0.16536 0.03876 0.021531 0.0065 0.043478 0.01069 0.067178 0.01499 0.081815 0.01292 0.16132 0.02137 0.23667 0.02997 0.03014 0.0043 0.058308 0.01082 0.086298 0.01292 0.1421 0.01293 0.28164 0.0217 0.42374 0.0217 0.86556-0.0021 1.7076-0.27106 2.4138-0.76841 0.14856-0.10336 0.23054-0.27793 0.21549-0.46094-0.01509-0.18086-0.1273-0.33797-0.29093-0.41547-0.16579-0.07751-0.35734-0.06046-0.5059 0.04289l0.0021-0.0021c-0.55119 0.38757-1.2097 0.58995-1.8836 0.58135-0.088277 0-0.17475-0.0086-0.26303-0.01499-0.034451 0-0.070968-0.01069-0.10542-0.01499-0.068892-0.0086-0.13583-0.01758-0.20257-0.03049-0.04306-0.0065-0.081551-0.0193-0.12247-0.02791-0.066744-0.01507-0.13124-0.02816-0.19585-0.04754-0.03229-0.01076-0.060292-0.01912-0.090432-0.03204-0.075354-0.02153-0.14856-0.04727-0.21962-0.07958l-0.047541-0.01964c-0.079667-0.0366-0.16167-0.07957-0.24132-0.11834l-0.010334-0.0062c-0.27133-0.14636-0.51688-0.3318-0.73435-0.54926l-0.010853-0.01085-0.012919-0.01292c-0.062943-0.06288-0.12262-0.12893-0.1788-0.19792-0.012919-0.01507-0.025847-0.03031-0.038756-0.04754-0.45777-0.56719-0.70841-1.2735-0.71054-2.0024h0.85058z"/><path fill="url(#radialGradient4445)" stroke-width=".018" d="m2.4205 3.4997h12.095c0.31213 0 0.5659-0.25378 0.5659-0.5659s-0.25378-0.56591-0.5659-0.56591h-12.095c-0.20301 0-0.3908 0.10913-0.49231 0.28422-0.10149 0.1751-0.10149 0.3908 0 0.56591 0.10149 0.17511 0.28931 0.28167 0.49231 0.28167z" p-id="88817"/><path fill="url(#radialGradient4447)" stroke-width=".018" d="m4.3111 1.8359h8.316c0.31215 0 0.56591-0.25378 0.56591-0.5659-1.8e-5 -0.31468-0.2538-0.56845-0.56845-0.56845h-8.3134c-0.20302 0-0.3908 0.10913-0.49231 0.28422-0.10151 0.1751-0.10151 0.3908 0 0.5659 0.10151 0.1751 0.28929 0.28422 0.49231 0.28422z" p-id="88817"/><style type="text/css"/></svg>