<svg xmlns="http://www.w3.org/2000/svg" width="64" height="64" version="1.1" viewBox="0 0 16.933 16.933"><defs><style type="text/css"/><style type="text/css"/><linearGradient id="linearGradient919" x1="4.311" x2="14.36" y1="8.466" y2="8.466" gradientTransform="translate(9.9041,-18.316)" gradientUnits="userSpaceOnUse"><stop offset="0" stop-color="#3c8cff"/><stop offset="1" stop-color="#55b4ff"/></linearGradient></defs><metadata/><g fill="#5e4aa6" stroke-width=".265"><circle cx="-330.35" cy="-328.38" r="0"/><circle cx="-330.35" cy="-328.37" r="0"/><circle cx="-330.35" cy="-328.37" r="0"/><circle cx="-352.63" cy="-336.83" r="0"/></g><g><g fill="#5e4aa6" stroke-width=".265" transform="translate(1.8225e-5 -8.9531e-5)"><circle cx="-330.35" cy="-328.38" r="0"/><circle cx="-330.35" cy="-328.37" r="0"/><circle cx="-330.35" cy="-328.37" r="0"/><circle cx="-352.63" cy="-336.83" r="0"/></g><g fill="#5e4aa6" stroke-width=".265" transform="translate(1.8225e-5 -8.9531e-5) translate(32.665,-10.979)"><circle cx="-330.35" cy="-328.38" r="0"/><circle cx="-312.11" cy="-326.25" r="0"/><circle cx="-306.02" cy="-333.07" r="0"/><circle cx="-308.84" cy="-326.01" r="0"/></g><g transform="translate(1.8225e-5 -8.9531e-5) matrix(1.2775,0,0,1.2775,-19.293,-1.4993)"><rect width="6.428" height="1.359" x="23.002" y="-10.528" fill="#1955b9" ry=".679" transform="rotate(45)"/><circle cx="19.239" cy="-9.849" r="4.363" fill="none" stroke="url(#linearGradient919)" stroke-linecap="round" stroke-width="1.45" transform="rotate(45)"/></g></g></svg>