<svg xmlns="http://www.w3.org/2000/svg" width="64" height="64" version="1.1" viewBox="0 0 16.933 16.933"><defs><linearGradient id="linearGradient1005" x1=".739" x2="16.388" y1="16.296" y2=".647" gradientTransform="matrix(.91665 0 0 .91665 .6739 .71189)" gradientUnits="userSpaceOnUse"><stop offset="0" stop-color="#00a0ff"/><stop offset="1" stop-color="#37beff"/></linearGradient><linearGradient id="w" x1="123.64" x2="146.53" y1="131.03" y2="174.71" gradientTransform="matrix(4.2812,0,0,3.5908,41,42)" gradientUnits="userSpaceOnUse"><stop offset="0" stop-color="#fafafa"/><stop offset="1" stop-color="#fff"/></linearGradient><filter id="filter1152" width="1.111" height="1.131" x="-.055" y="-.066" color-interpolation-filters="sRGB"><feGaussianBlur stdDeviation="2.993"/></filter></defs><metadata/><g fill="#5e4aa6" stroke-width=".265" transform="translate(-21.833 .89722)"><circle cx="-330.35" cy="-328.38" r="0"/><circle cx="-312.11" cy="-326.25" r="0"/><circle cx="-306.02" cy="-333.07" r="0"/><circle cx="-308.84" cy="-326.01" r="0"/></g><g><path fill="url(#linearGradient1005)" stroke-width=".028" d="m15.743 8.4667c0 0.87223-0.15353 1.7085-0.43508 2.4836-0.19571 0.5387-0.45318 1.048-0.76442 1.5191-0.13037 0.19807-0.27054 0.38935-0.41933 0.57317-0.47634 0.5883-1.0424 1.1006-1.6779 1.5164-0.23402 0.15324-0.47725 0.29342-0.72907 0.41902-0.97788 0.48939-2.0818 0.76468-3.2501 0.76468s-2.2722-0.27529-3.2501-0.7647c-0.25184-0.12563-0.49536-0.2658-0.72938-0.41902-0.64355-0.42141-1.2164-0.94176-1.6966-1.5398-0.14907-0.18531-0.28896-0.37835-0.41933-0.5782-0.30292-0.46327-0.55385-0.96312-0.74569-1.4914-0.28151-0.77483-0.43477-1.6108-0.43477-2.4827 0-4.0184 3.2575-7.2759 7.2759-7.2759 2.0171 0 3.8423 0.82084 5.1603 2.1465 0.37982 0.38189 0.7175 0.806 1.0049 1.2645 0.27174 0.43181 0.49891 0.89448 0.67561 1.3812 0.28158 0.77511 0.4351 1.6114 0.4351 2.4836z" transform="matrix(1.0909 0 0 1.0909 -.77037 -.77001)"/><g fill="#000096" stroke-width="15.683" filter="url(#filter1152)" image-rendering="optimizeSpeed" opacity=".3" transform="matrix(1.0909 0 0 1.0909 -.77037 -.77001) matrix(.058131 0 0 .058088 1.6143 1.7407)"><path d="m98 175c-3.8876 0-3.227-1.4679-4.5678-5.1695l-11.432-37.625 88-52.206"/><path d="m98 175c3 0 4.3255-1.372 6-3l16-15.558-19.958-12.035"/><path d="m100.04 144.41 48.36 35.729c5.5185 3.0449 9.5014 1.4684 10.876-5.1235l19.685-92.763c2.0154-8.0802-3.0801-11.745-8.3594-9.3482l-115.59 44.571c-7.8901 3.1647-6.9241 9.4078-0.51824 11.369l29.663 9.2583 67.753-45.166c3.2419-1.9659 6.2173-0.90899 3.7752 1.2584"/></g><g stroke-width="61.492" image-rendering="optimizeSpeed"><path fill="#cdf2fd" d="m425.24 728.15c-15.243 0-12.653-5.7554-17.91-20.269l-44.824-147.52 345.03-204.69" transform="matrix(1.0909 0 0 1.0909 -.77037 -.77001) matrix(.014453 0 0 .014453 1.1972 1.2476)"/><path fill="#ace6fb" d="m425.24 728.15c11.762 0 16.96-5.3794 23.525-11.762l62.733-61-78.252-47.187" transform="matrix(1.0909 0 0 1.0909 -.77037 -.77001) matrix(.014453 0 0 .014453 1.1972 1.2476)"/><path fill="url(#w)" d="m433.24 608.21 189.61 140.09c21.637 11.939 37.253 5.7574 42.643-20.088l77.182-363.71c7.902-31.681-12.077-46.05-32.776-36.653l-453.21 174.76c-30.936 12.408-30.755 29.667-5.6389 37.358l116.3 36.3 269.26-169.87c12.711-7.708 24.377-3.564 14.802 4.934" transform="matrix(1.0909 0 0 1.0909 -.77037 -.77001) matrix(.014453 0 0 .014453 1.1972 1.2476)"/></g></g></svg>