<svg xmlns="http://www.w3.org/2000/svg" xmlns:xlink="http://www.w3.org/1999/xlink" width="64" height="64" version="1.1" viewBox="0 0 16.933 16.933"><metadata/><defs><style type="text/css"/><style type="text/css"/><linearGradient id="linearGradient908" x1="12.654" x2="9.289" y1="-42.659" y2="-39.589" gradientTransform="matrix(8.5041 0 0 7.3763 -57.846 348.43)" gradientUnits="userSpaceOnUse"><stop offset="0" stop-color="#c81446"/><stop offset="1" stop-color="#be0f46"/></linearGradient><linearGradient id="linearGradient917" x1="9.13" x2="11.57" y1="-46.409" y2="-43.045" gradientTransform="matrix(8.5041 0 0 7.3763 -57.846 348.43)" gradientUnits="userSpaceOnUse"><stop offset="0" stop-color="#f0417d"/><stop offset="1" stop-color="#e64678"/></linearGradient><filter id="filter965" width="1.096" height="1.157" x="-.048" y="-.079" color-interpolation-filters="sRGB"><feGaussianBlur stdDeviation=".902"/></filter><filter id="filter969" width="1.097" height="1.158" x="-.048" y="-.079" color-interpolation-filters="sRGB"><feGaussianBlur stdDeviation=".906"/></filter><filter id="filter979" width="1.185" height="1.154" x="-.092" y="-.077" color-interpolation-filters="sRGB"><feGaussianBlur stdDeviation=".255"/></filter></defs><style type="text/css"/><circle cx="-340.54" cy="-381.04" r="0" fill="#5e4aa6" stroke-width=".265"/><g><g stroke-width=".039"><path d="m61.984 32h-44.994v24.363a3.9366 3.0998 0 0 0 6.4551 2.418l37.162-24.426a3.9366 3.0998 0 0 0 1.377-2.3555z" filter="url(#filter965)" opacity=".5" transform="matrix(1.0104 0 0 1.0104 -.67659 -.37848) matrix(.26299 0 0 .27328 -.095423 -.24125)"/><path d="m20.904 4.5a3.9366 3.0998 0 0 0-3.9141 3.1367v24.363h44.994a3.9366 3.0998 0 0 0-0.9043-1.9844l-0.47266-0.37109-37.162-24.426a3.9366 3.0998 0 0 0-2.541-0.71875z" filter="url(#filter969)" opacity=".5" transform="matrix(1.0104 0 0 1.0104 -.67659 -.37848) matrix(.25504 0 0 .25504 .0033784 .30532)"/><path fill="url(#linearGradient908)" d="m61.984 32h-44.994v24.363a3.9366 3.0998 0 0 0 6.4551 2.418l37.162-24.426a3.9366 3.0998 0 0 0 1.377-2.3555z" transform="matrix(1.0104 0 0 1.0104 -.67659 -.37848) scale(.26458)"/><path fill="url(#linearGradient917)" d="m20.904 4.5a3.9366 3.0998 0 0 0-3.9141 3.1367v24.363h44.994a3.9366 3.0998 0 0 0-0.9043-1.9844l-0.47266-0.37109-37.162-24.426a3.9366 3.0998 0 0 0-2.541-0.71875z" transform="matrix(1.0104 0 0 1.0104 -.67659 -.37848) scale(.26458)"/></g><path stroke-width=".006" d="m8.0964 8.1265-5.4624-3.525a0.57864 0.44734 0 0 0-0.94896 0.34893v7.0322a0.57864 0.44734 0 0 0 0.94896 0.34893l5.4624-3.525a0.57864 0.44734 0 0 0 0.069422-0.62628z" filter="url(#filter979)" opacity=".35" p-id="47316" transform="matrix(1.0104 0 0 1.0104 -.67659 -.37848) matrix(.93638 0 0 .93638 .31759 .80332)"/><path fill="#911941" stroke-width=".006" d="m8.3744 8.1265-5.4624-3.525a0.57864 0.44734 0 0 0-0.94896 0.34893v7.0322a0.57864 0.44734 0 0 0 0.94896 0.34893l5.4624-3.525a0.57864 0.44734 0 0 0 0.069422-0.62628z" p-id="47316" transform="matrix(1.0104 0 0 1.0104 -.67659 -.37848)"/></g></svg>