<svg xmlns="http://www.w3.org/2000/svg" xmlns:xlink="http://www.w3.org/1999/xlink" width="64" height="64" version="1.1" viewBox="0 0 16.933 16.933"><metadata/><defs><linearGradient id="linearGradient1124"><stop offset="0" stop-color="#2864b4"/><stop offset="1" stop-color="#0a4682"/></linearGradient><linearGradient id="linearGradient1116"><stop offset="0" stop-color="#28a0f5"/><stop offset="1" stop-color="#057ddc"/></linearGradient><linearGradient id="linearGradient1108"><stop offset="0" stop-color="#50d2ff"/><stop offset="1" stop-color="#19a0e6"/></linearGradient><linearGradient id="linearGradient1110" x1="-86.517" x2="-86.517" y1="3.439" y2="17.991" gradientTransform="matrix(.86728 0 0 .86728 78.79 -.58217)" gradientUnits="userSpaceOnUse" xlink:href="#linearGradient1108"/><linearGradient id="linearGradient1118" x1="-86.411" x2="-86.411" y1="3.439" y2="17.991" gradientUnits="userSpaceOnUse" xlink:href="#linearGradient1116"/><linearGradient id="linearGradient1126" x1="-86.411" x2="-86.411" y1="3.439" y2="17.991" gradientUnits="userSpaceOnUse" xlink:href="#linearGradient1124"/><filter id="filter1170" width="1.184" height="1.154" x="-.092" y="-.077" color-interpolation-filters="sRGB"><feGaussianBlur stdDeviation=".315"/></filter></defs><g fill="#5e4aa6"><circle cx="-330.35" cy="-328.38" r="0" stroke-width=".265"/><circle cx="-39.434" cy="6.44" r="0" fill-rule="evenodd" stroke-width=".265"/><g stroke-width=".265" transform="translate(2.581 -.053009)"><circle cx="-322.63" cy="-345.67" r="0"/><circle cx="-31.726" cy="-10.849" r="0" fill-rule="evenodd"/><circle cx="-306.92" cy="-328.72" r="0"/></g></g><g fill="url(#linearGradient1126)" transform="matrix(.67626 0 0 .67626 72.161 3.1875)"><path d="m-90.486 12.303v5.1593c0 0.14658 0.05886 0.279 0.15451 0.37465s0.22807 0.15451 0.37465 0.15451h7.1436c0.14658 0 0.279-0.05886 0.37465-0.15451s0.15451-0.22807 0.15451-0.37465v-5.1593c0-2.2719-1.829-4.101-4.101-4.101s-4.101 1.829-4.101 4.101z"/><circle cx="-86.385" cy="5.556" r="2.117"/></g><path d="m-90.486 12.303v5.1593c0 0.14658 0.05886 0.279 0.15451 0.37465s0.22807 0.15451 0.37465 0.15451h7.1436c0.14658 0 0.279-0.05886 0.37465-0.15451s0.15451-0.22807 0.15451-0.37465v-5.1593c0-2.2719-1.829-4.101-4.101-4.101s-4.101 1.829-4.101 4.101z" filter="url(#filter1170)" opacity=".6" transform="matrix(.79101 0 0 .72996 77.685 2.0847)"/><g fill="url(#linearGradient1118)" transform="matrix(.76625 0 0 .76625 75.48 1.5686)"><path d="m-90.486 12.303v5.1593c0 0.14658 0.05886 0.279 0.15451 0.37465s0.22807 0.15451 0.37465 0.15451h7.1436c0.14658 0 0.279-0.05886 0.37465-0.15451s0.15451-0.22807 0.15451-0.37465v-5.1593c0-2.2719-1.829-4.101-4.101-4.101s-4.101 1.829-4.101 4.101z"/><circle cx="-86.385" cy="5.556" r="2.117"/></g><path d="m-90.486 12.303v5.1593c0 0.14658 0.05886 0.279 0.15451 0.37465s0.22807 0.15451 0.37465 0.15451h7.1436c0.14658 0 0.279-0.05886 0.37465-0.15451s0.15451-0.22807 0.15451-0.37465v-5.1593c0-2.2719-1.829-4.101-4.101-4.101s-4.101 1.829-4.101 4.101z" filter="url(#filter1170)" opacity=".6" transform="matrix(.86962 0 0 .8025 79.352 .77957)"/><g fill="url(#linearGradient1110)" stroke-width=".867" transform="translate(.17938 .33304)"><path d="m0.31295 10.088v4.4746c0 0.12713 0.051048 0.24197 0.134 0.32493 0.082955 0.08296 0.1978 0.134 0.32493 0.134h6.1955c0.12713 0 0.24197-0.05105 0.32493-0.134 0.082955-0.08295 0.134-0.1978 0.134-0.32493v-4.4746c0-1.9704-1.5863-3.5567-3.5567-3.5567-1.9705 0-3.5567 1.5863-3.5567 3.5567z"/><circle cx="3.87" cy="4.237" r="1.836"/></g></svg>