<svg xmlns="http://www.w3.org/2000/svg" xmlns:xlink="http://www.w3.org/1999/xlink" id="Activity-Monitor" width="64" height="64" enable-background="new 0 0 1024 1024" image-rendering="optimizeSpeed" version="1.1" viewBox="0 0 64 64"><metadata/><defs><linearGradient id="linearGradient3789" x1="-6.596" x2="-6.596" y1="22.746" y2="15.514" gradientTransform="translate(2.8923,-7.2683)" gradientUnits="userSpaceOnUse"><stop offset="0" stop-color="#2dc8f0"/><stop offset="1" stop-color="#50e6ff"/></linearGradient><linearGradient id="linearGradient3803" x1="-6.614" x2="-6.614" y1="5.027" y2="14.287" gradientUnits="userSpaceOnUse"><stop offset="0" stop-color="#2fc3fe"/><stop offset="1" stop-color="#23aef5"/></linearGradient><linearGradient id="linearGradient3811" x1="-9.843" x2="-9.843" y1="6.614" y2="14.287" gradientUnits="userSpaceOnUse"><stop offset="0" stop-color="#1ea7f1"/><stop offset="1" stop-color="#148dd0"/></linearGradient><linearGradient id="linearGradient3819" x1="-12.7" x2="-12.7" y1="8.731" y2="14.287" gradientUnits="userSpaceOnUse"><stop offset="0" stop-color="#0978e8"/><stop offset="1" stop-color="#0467cd"/></linearGradient><linearGradient id="linearGradient3827" x1="-15.61" x2="-15.61" y1="10.848" y2="14.287" gradientUnits="userSpaceOnUse"><stop offset="0" stop-color="#0171ca"/><stop offset="1" stop-color="#005ba9"/></linearGradient><filter id="filter3898" width="1.168" height="1.168" x="-.084" y="-.084" color-interpolation-filters="sRGB"><feGaussianBlur stdDeviation=".324"/></filter></defs><g><g transform="translate(0 1.6604e-5) matrix(3.5434 0 0 3.5434 64.811 -6.4381)"><rect width="2.91" height="11.906" x="-5.556" y="2.381" fill="url(#linearGradient3789)"/><rect width="2.91" height="9.789" x="-8.466" y="4.498" fill="url(#linearGradient3803)"/><rect width="2.91" height="7.673" x="-11.377" y="6.614" fill="url(#linearGradient3811)"/><rect width="2.91" height="5.556" x="-14.287" y="8.731" fill="url(#linearGradient3819)"/><rect width="2.646" height="3.439" x="-16.933" y="10.848" fill="url(#linearGradient3827)"/></g><g filter="url(#filter3898)" opacity=".3" transform="translate(0 1.6604e-5) matrix(3.2886 0 0 3.2886 74.899 -4.9444)"><circle cx="-10.186" cy="14.949" r="4.63" opacity="1"/><g transform="translate(11.377 .13229)"><rect width="5.027" height="1.587" x="-24.077" y="14.023" opacity="1" ry=".265"/><rect width="5.027" height="1.587" x="-17.33" y="-22.357" opacity="1" ry=".265" transform="rotate(-90)"/></g></g><g transform="translate(0 1.6604e-5) matrix(3.5434 0 0 3.5434 78.875 -7.3758)"><circle cx="-10.186" cy="14.949" r="4.63" fill="#184f85"/><g fill="#fff" transform="translate(11.377 .13229)"><rect width="5.027" height="1.587" x="-24.077" y="14.023" ry=".265"/><rect width="5.027" height="1.587" x="-17.33" y="-22.357" ry=".265" transform="rotate(-90)"/></g></g></g></svg>