<svg xmlns="http://www.w3.org/2000/svg" xmlns:svg="http://www.w3.org/2000/svg" id="svg10" width="16" height="16" version="1.1"><metadata id="metadata16"/><defs id="defs14"><style id="current-color-scheme" type="text/css">.ColorScheme-Text{color:#727272}</style></defs><path id="path826" d="M 1.5,3.1250002 V 12.875 h 13 V 3.1250002 Z m 0.8125,0.8125 h 11.375 V 9.9550779 L 11.256348,7.4191893 8.6887205,9.9868159 5.5878909,6.616211 2.3125,9.5885009 Z m 8.125,0.8125 a 0.81249998,0.81249998 0 0 0 -0.8125,0.8124999 0.81249998,0.81249998 0 0 0 0.8125,0.8125 0.81249998,0.81249998 0 0 0 0.8125,-0.8125 0.81249998,0.81249998 0 0 0 -0.8125,-0.8124999 z M 5.5371091,7.7587892 9.4948728,12.0625 H 2.3125 V 10.686646 Z M 11.243653,8.5808108 13.6875,11.129394 V 12.0625 H 10.597779 L 9.2393801,10.585083 Z" class="ColorScheme-Text" style="color:#727272;fill:#ebebeb;fill-opacity:1;stroke-width:.8125"/></svg>