<svg xmlns="http://www.w3.org/2000/svg" xmlns:osb="http://www.openswatchbook.org/uri/2009/osb" xmlns:svg="http://www.w3.org/2000/svg" id="svg7384" width="16" height="16" version="1.1"><metadata id="metadata20854"/><defs id="defs7386"><linearGradient id="linearGradient5606" osb:paint="solid"><stop id="stop5608" offset="0" style="stop-color:#000;stop-opacity:1"/></linearGradient><linearGradient id="linearGradient4526" osb:paint="solid"><stop id="stop4528" offset="0" style="stop-color:#fff;stop-opacity:1"/></linearGradient><linearGradient id="linearGradient3600-4" osb:paint="gradient"><stop id="stop3602-7" offset="0" style="stop-color:#f4f4f4;stop-opacity:1"/><stop id="stop3604-6" offset="1" style="stop-color:#dbdbdb;stop-opacity:1"/></linearGradient></defs><g id="layer2" transform="translate(-352,-60)"><path id="path4297" d="m 355.99414,62 c -1.25819,0.0145 -2.17883,-0.0306 -2.93164,0.384766 -0.37641,0.20768 -0.67518,0.559426 -0.83984,0.998046 C 352.05801,63.821442 352,64.34241 352,65 v 7 c 0,0.65759 0.058,1.178558 0.22266,1.617188 0.16466,0.43862 0.46343,0.790366 0.83984,0.998046 0.75281,0.41535 1.67345,0.370226 2.93164,0.384766 h 0.004 8.0039 0.004 c 1.25819,-0.0145 2.17883,0.0306 2.93164,-0.384766 0.37641,-0.20768 0.67324,-0.559426 0.83789,-0.998046 C 367.93972,73.178558 368,72.65759 368,72 v -7 c 0,-0.65759 -0.06,-1.178558 -0.22461,-1.617188 -0.16465,-0.43862 -0.46148,-0.790366 -0.83789,-0.998046 C 366.18469,61.969406 365.26405,62.01454 364.00586,62 h -0.004 -8.00586 z M 356,63 h 8 c 1.25957,0.0147 2.08706,0.0578 2.45312,0.259766 0.1834,0.10118 0.28915,0.214649 0.38672,0.474609 C 366.9373,63.994315 367,64.40759 367,65 v 7 c 0,0.59241 -0.0626,1.005675 -0.16016,1.265625 -0.0976,0.25995 -0.20334,0.373429 -0.38672,0.474609 C 366.08705,73.942214 365.25957,73.98531 364,74 H 363.994 356 Z" style="color:#000;font-style:normal;font-variant:normal;font-weight:400;font-stretch:normal;font-size:medium;line-height:normal;font-family:sans-serif;text-indent:0;text-align:start;text-decoration:none;text-decoration-line:none;text-decoration-style:solid;text-decoration-color:#000;letter-spacing:normal;word-spacing:normal;text-transform:none;writing-mode:lr-tb;direction:ltr;baseline-shift:baseline;text-anchor:start;white-space:normal;clip-rule:nonzero;display:inline;overflow:visible;visibility:visible;opacity:1;isolation:auto;mix-blend-mode:normal;color-interpolation:sRGB;color-interpolation-filters:linearRGB;solid-color:#000;solid-opacity:1;fill:gray;fill-opacity:1;fill-rule:nonzero;stroke:none;stroke-width:4.00079155;stroke-linecap:butt;stroke-linejoin:miter;stroke-miterlimit:4;stroke-dasharray:none;stroke-dashoffset:0;stroke-opacity:1;marker:none;color-rendering:auto;image-rendering:auto;shape-rendering:auto;text-rendering:auto;enable-background:accumulate"/></g></svg>