<svg xmlns="http://www.w3.org/2000/svg" xmlns:osb="http://www.openswatchbook.org/uri/2009/osb" xmlns:svg="http://www.w3.org/2000/svg" id="svg7384" width="16" height="16" version="1.1"><metadata id="metadata20854"/><defs id="defs7386"><linearGradient id="linearGradient5606" osb:paint="solid"><stop id="stop5608" offset="0" style="stop-color:#000;stop-opacity:1"/></linearGradient><linearGradient id="linearGradient4526" osb:paint="solid"><stop id="stop4528" offset="0" style="stop-color:#fff;stop-opacity:1"/></linearGradient><linearGradient id="linearGradient3600-4" osb:paint="gradient"><stop id="stop3602-7" offset="0" style="stop-color:#f4f4f4;stop-opacity:1"/><stop id="stop3604-6" offset="1" style="stop-color:#dbdbdb;stop-opacity:1"/></linearGradient></defs><g id="g1833" transform="translate(-572.00004,-240)" style="display:inline"><path id="path7742-5" d="m 580.00004,240 a 8,8 0 0 0 -8,8 8,8 0 0 0 8,8 8,8 0 0 0 8,-8 8,8 0 0 0 -8,-8 z m 0,1 a 7,7 0 0 1 7,7 7,7 0 0 1 -7,7 7,7 0 0 1 -7,-7 7,7 0 0 1 7,-7 z" style="display:inline;opacity:1;fill:gray;fill-opacity:1;stroke:none;stroke-width:4;stroke-linecap:round;stroke-linejoin:round;stroke-miterlimit:4;stroke-dasharray:none;stroke-dashoffset:0;stroke-opacity:1"/><path id="path7744-6" d="m 580.7083,245.66291 q 0,1.1898 -0.085,2.16714 -0.085,0.96317 -0.21247,1.92635 h -0.82153 q -0.12747,-0.96318 -0.21246,-1.92635 -0.085,-0.97734 -0.085,-2.16714 v -2.66289 h 1.41643 z m 0.24079,6.3881 q 0,0.38244 -0.25496,0.66573 -0.25495,0.28328 -0.69405,0.28328 -0.43909,0 -0.69405,-0.28328 -0.25496,-0.28329 -0.25496,-0.66573 0,-0.38243 0.25496,-0.66572 0.25496,-0.28328 0.69405,-0.28328 0.4391,0 0.69405,0.28328 0.25496,0.28329 0.25496,0.66572 z" style="font-style:normal;font-variant:normal;font-weight:400;font-stretch:normal;font-size:medium;line-height:1000%;font-family:Ubuntu;-inkscape-font-specification:Ubuntu;letter-spacing:0;word-spacing:0;fill:gray;fill-opacity:1;stroke:none;stroke-width:2.35333323px;stroke-linecap:butt;stroke-linejoin:miter;stroke-opacity:1"/></g></svg>