<svg xmlns="http://www.w3.org/2000/svg" xmlns:osb="http://www.openswatchbook.org/uri/2009/osb" xmlns:svg="http://www.w3.org/2000/svg" id="svg7384" width="16" height="16" version="1.1"><metadata id="metadata20854"/><defs id="defs7386"><linearGradient id="linearGradient5606" osb:paint="solid"><stop id="stop5608" offset="0" style="stop-color:#000;stop-opacity:1"/></linearGradient><linearGradient id="linearGradient4526" osb:paint="solid"><stop id="stop4528" offset="0" style="stop-color:#fff;stop-opacity:1"/></linearGradient><linearGradient id="linearGradient3600-4" osb:paint="gradient"><stop id="stop3602-7" offset="0" style="stop-color:#f4f4f4;stop-opacity:1"/><stop id="stop3604-6" offset="1" style="stop-color:#dbdbdb;stop-opacity:1"/></linearGradient></defs><path style="opacity:1;fill:gray;fill-opacity:1;stroke:none;stroke-width:8;stroke-linecap:round;stroke-linejoin:round;stroke-miterlimit:4;stroke-dasharray:none;stroke-dashoffset:0;stroke-opacity:1" id="rect5102" d="M 4.5,4 C 4.223,4 4,4.223 4,4.5 v 7 C 4,11.777 4.223,12 4.5,12 h 7 c 0.277,0 0.5,-0.223 0.5,-0.5 v -7 C 12,4.223 11.777,4 11.5,4 Z M 5,5 h 6 v 6 H 5 Z"/><rect style="opacity:1;fill:gray;fill-opacity:1;stroke:none;stroke-width:8;stroke-linecap:round;stroke-linejoin:round;stroke-miterlimit:4;stroke-dasharray:none;stroke-dashoffset:0;stroke-opacity:1" id="rect5104" width="2" height="3" x="4" y="0" rx=".5" ry=".5"/><rect style="display:inline;opacity:1;fill:gray;fill-opacity:1;stroke:none;stroke-width:8;stroke-linecap:round;stroke-linejoin:round;stroke-miterlimit:4;stroke-dasharray:none;stroke-dashoffset:0;stroke-opacity:1" id="rect5104-6" width="2" height="3" x="7" y="0" rx=".5" ry=".5"/><rect style="display:inline;opacity:1;fill:gray;fill-opacity:1;stroke:none;stroke-width:8;stroke-linecap:round;stroke-linejoin:round;stroke-miterlimit:4;stroke-dasharray:none;stroke-dashoffset:0;stroke-opacity:1" id="rect5104-0" width="2" height="3" x="10" y="0" rx=".5" ry=".5"/><rect style="display:inline;opacity:1;fill:gray;fill-opacity:1;stroke:none;stroke-width:8;stroke-linecap:round;stroke-linejoin:round;stroke-miterlimit:4;stroke-dasharray:none;stroke-dashoffset:0;stroke-opacity:1" id="rect5104-8" width="2" height="3" x="4" y="13" rx=".5" ry=".5"/><rect style="display:inline;opacity:1;fill:gray;fill-opacity:1;stroke:none;stroke-width:8;stroke-linecap:round;stroke-linejoin:round;stroke-miterlimit:4;stroke-dasharray:none;stroke-dashoffset:0;stroke-opacity:1" id="rect5104-6-7" width="2" height="3" x="7" y="13" rx=".5" ry=".5"/><rect style="display:inline;opacity:1;fill:gray;fill-opacity:1;stroke:none;stroke-width:8;stroke-linecap:round;stroke-linejoin:round;stroke-miterlimit:4;stroke-dasharray:none;stroke-dashoffset:0;stroke-opacity:1" id="rect5104-0-9" width="2" height="3" x="10" y="13" rx=".5" ry=".5"/><rect style="display:inline;opacity:1;fill:gray;fill-opacity:1;stroke:none;stroke-width:8;stroke-linecap:round;stroke-linejoin:round;stroke-miterlimit:4;stroke-dasharray:none;stroke-dashoffset:0;stroke-opacity:1" id="rect5104-2" width="2" height="3" x="-6" y="13" rx=".5" ry=".5" transform="rotate(-90)"/><rect style="display:inline;opacity:1;fill:gray;fill-opacity:1;stroke:none;stroke-width:8;stroke-linecap:round;stroke-linejoin:round;stroke-miterlimit:4;stroke-dasharray:none;stroke-dashoffset:0;stroke-opacity:1" id="rect5104-6-0" width="2" height="3" x="-9" y="13" rx=".5" ry=".5" transform="rotate(-90)"/><rect style="display:inline;opacity:1;fill:gray;fill-opacity:1;stroke:none;stroke-width:8;stroke-linecap:round;stroke-linejoin:round;stroke-miterlimit:4;stroke-dasharray:none;stroke-dashoffset:0;stroke-opacity:1" id="rect5104-0-2" width="2" height="3" x="-12" y="13" rx=".5" ry=".5" transform="rotate(-90)"/><rect style="display:inline;opacity:1;fill:gray;fill-opacity:1;stroke:none;stroke-width:8;stroke-linecap:round;stroke-linejoin:round;stroke-miterlimit:4;stroke-dasharray:none;stroke-dashoffset:0;stroke-opacity:1" id="rect5104-8-3" width="2" height="3" x="-6" y="0" rx=".5" ry=".5" transform="rotate(-90)"/><rect style="display:inline;opacity:1;fill:gray;fill-opacity:1;stroke:none;stroke-width:8;stroke-linecap:round;stroke-linejoin:round;stroke-miterlimit:4;stroke-dasharray:none;stroke-dashoffset:0;stroke-opacity:1" id="rect5104-6-7-7" width="2" height="3" x="-9" y="0" rx=".5" ry=".5" transform="rotate(-90)"/><rect style="display:inline;opacity:1;fill:gray;fill-opacity:1;stroke:none;stroke-width:8;stroke-linecap:round;stroke-linejoin:round;stroke-miterlimit:4;stroke-dasharray:none;stroke-dashoffset:0;stroke-opacity:1" id="rect5104-0-9-5" width="2" height="3" x="-12" y="0" rx=".5" ry=".5" transform="rotate(-90)"/><path style="opacity:1;fill:gray;fill-opacity:1;stroke:none;stroke-width:8;stroke-linecap:round;stroke-linejoin:round;stroke-miterlimit:4;stroke-dasharray:none;stroke-dashoffset:0;stroke-opacity:1" id="rect5228" d="M 4,2 C 2.892,2 2,2.892 2,4 v 8 c 0,1.108 0.892,2 2,2 h 8 c 1.108,0 2,-0.892 2,-2 V 4 C 14,2.892 13.108,2 12,2 Z m 0.5,1 h 7 C 12.331,3 13,3.669 13,4.5 v 7 c 0,0.831 -0.669,1.5 -1.5,1.5 h -7 C 3.669,13 3,12.331 3,11.5 v -7 C 3,3.669 3.669,3 4.5,3 Z"/></svg>