<svg xmlns="http://www.w3.org/2000/svg" xmlns:osb="http://www.openswatchbook.org/uri/2009/osb" xmlns:svg="http://www.w3.org/2000/svg" id="svg7384" width="16" height="16" version="1.1"><metadata id="metadata20854"/><defs id="defs7386"><linearGradient id="linearGradient5606" osb:paint="solid"><stop id="stop5608" offset="0" style="stop-color:#000;stop-opacity:1"/></linearGradient><linearGradient id="linearGradient4526" osb:paint="solid"><stop id="stop4528" offset="0" style="stop-color:#fff;stop-opacity:1"/></linearGradient><linearGradient id="linearGradient3600-4" osb:paint="gradient"><stop id="stop3602-7" offset="0" style="stop-color:#f4f4f4;stop-opacity:1"/><stop id="stop3604-6" offset="1" style="stop-color:#dbdbdb;stop-opacity:1"/></linearGradient></defs><g id="g1833" transform="translate(-572.00004,-260)" style="display:inline"><path id="path4237-1" d="m 572.38841,265.89185 -0.38837,0.59584 7,5.01231 -2,2 c 0,0 2.72412,-1.22906 4,-2 2.45979,-1.48631 7,-5.03358 7,-5.03358 l -0.38837,-0.57457 -7.61296,4.59385 z" style="font-style:normal;font-variant:normal;font-weight:400;font-stretch:normal;font-size:15px;line-height:125%;font-family:Ubuntu;-inkscape-font-specification:Ubuntu;text-align:center;letter-spacing:0;word-spacing:0;writing-mode:lr-tb;text-anchor:middle;display:inline;fill:gray;fill-opacity:1;stroke:none;stroke-width:.99980211"/><path id="path2732-8-1-32" d="m 575.99418,261.9995 c -1.2582,0.0145 -2.17889,-0.0306 -2.93164,0.38477 -0.37637,0.20766 -0.67323,0.55938 -0.83789,0.99804 -0.16467,0.43867 -0.22461,0.95959 -0.22461,1.61719 V 272 c 0,0.65761 0.0599,1.17858 0.22461,1.61719 0.16468,0.43861 0.46153,0.78852 0.83789,0.99609 0.75272,0.41513 1.67354,0.37165 2.93164,0.38672 h 0.002 8.00586 0.004 c 1.25819,-0.0145 2.17889,0.0306 2.93164,-0.38477 0.37637,-0.20766 0.67322,-0.55938 0.83789,-0.99804 0.16453,-0.43867 0.22447,-0.95958 0.22447,-1.61719 v -7.0005 c 0,-0.6576 -0.0599,-1.17858 -0.22461,-1.61719 -0.16468,-0.4386 -0.46153,-0.78852 -0.83789,-0.99608 -0.75272,-0.41513 -1.67355,-0.37165 -2.93164,-0.38673 h -0.002 -8.00586 z m 0.006,1 h 8 c 1.25862,0.0152 2.0891,0.0599 2.45508,0.26173 0.18342,0.10116 0.28722,0.21285 0.38476,0.47266 0.0974,0.25978 0.16002,0.67322 0.16002,1.26561 V 272 c 0,0.59239 -0.0626,1.00572 -0.16016,1.26562 -0.0976,0.25991 -0.20135,0.37147 -0.38476,0.47266 -0.36596,0.20192 -1.19656,0.24701 -2.45508,0.26172 h -7.99414 -0.006 c -1.25863,-0.0152 -2.0891,-0.0599 -2.45508,-0.26172 -0.18342,-0.10116 -0.28722,-0.21286 -0.38476,-0.47266 -0.0976,-0.25979 -0.16016,-0.67323 -0.16016,-1.26562 v -7.0005 c 0,-0.59239 0.0626,-1.00572 0.16016,-1.26562 0.0976,-0.25991 0.20135,-0.37147 0.38476,-0.47266 0.36596,-0.20192 1.19655,-0.24702 2.45508,-0.26172 z" style="color:#000;font-style:normal;font-variant:normal;font-weight:400;font-stretch:normal;font-size:medium;line-height:normal;font-family:sans-serif;font-variant-ligatures:normal;font-variant-position:normal;font-variant-caps:normal;font-variant-numeric:normal;font-variant-alternates:normal;font-feature-settings:normal;text-indent:0;text-align:start;text-decoration:none;text-decoration-line:none;text-decoration-style:solid;text-decoration-color:#000;letter-spacing:normal;word-spacing:normal;text-transform:none;writing-mode:lr-tb;direction:ltr;text-orientation:mixed;dominant-baseline:auto;baseline-shift:baseline;text-anchor:start;white-space:normal;shape-padding:0;clip-rule:nonzero;display:inline;overflow:visible;visibility:visible;opacity:1;isolation:auto;mix-blend-mode:normal;color-interpolation:sRGB;color-interpolation-filters:linearRGB;solid-color:#000;solid-opacity:1;vector-effect:none;fill:gray;fill-opacity:1;fill-rule:nonzero;stroke:none;stroke-width:1.00000012;stroke-linecap:butt;stroke-linejoin:miter;stroke-miterlimit:4;stroke-dasharray:none;stroke-dashoffset:0;stroke-opacity:1;marker:none;color-rendering:auto;image-rendering:auto;shape-rendering:auto;text-rendering:auto;enable-background:accumulate"/><path id="path2732-8-1-36" d="m 576.99422,263.99916 c -0.62947,0.007 -1.10654,0.009 -1.50586,0.0547 -0.39932,0.0458 -0.76315,0.14093 -1.03711,0.41406 -0.27395,0.27313 -0.36959,0.63968 -0.41211,1.03711 -0.0425,0.39741 -0.0391,1.37069 -0.0391,1.99497 h 1 c 0,-0.62572 9.9e-4,-1.58835 0.0332,-1.8895 0.0322,-0.30116 0.0892,-0.39788 0.125,-0.43361 0.0358,-0.0357 0.13752,-0.0938 0.44336,-0.12889 0.30457,-0.0349 0.77106,-0.0416 1.39844,-0.0488 H 582 c 0.62741,0.008 2.09166,0.0139 2.39628,0.0488 0.30591,0.0351 0.40951,0.0932 0.44532,0.12889 0.0358,0.0357 0.0928,0.13255 0.125,0.43361 0.0321,0.30108 0.0332,1.26378 0.0332,1.8895 h 1 c 0,-0.62428 0.003,-1.59763 -0.0391,-1.99498 -0.0425,-0.39736 -0.13813,-0.76407 -0.41211,-1.03711 -0.27398,-0.27303 -0.63785,-0.36822 -1.03711,-0.41406 -0.39926,-0.0458 -1.87622,-0.0471 -2.50566,-0.0547 h -0.002 -5.00582 z" style="color:#000;font-style:normal;font-variant:normal;font-weight:400;font-stretch:normal;font-size:medium;line-height:normal;font-family:sans-serif;font-variant-ligatures:normal;font-variant-position:normal;font-variant-caps:normal;font-variant-numeric:normal;font-variant-alternates:normal;font-feature-settings:normal;text-indent:0;text-align:start;text-decoration:none;text-decoration-line:none;text-decoration-style:solid;text-decoration-color:#000;letter-spacing:normal;word-spacing:normal;text-transform:none;writing-mode:lr-tb;direction:ltr;text-orientation:mixed;dominant-baseline:auto;baseline-shift:baseline;text-anchor:start;white-space:normal;shape-padding:0;clip-rule:nonzero;display:inline;overflow:visible;visibility:visible;opacity:1;isolation:auto;mix-blend-mode:normal;color-interpolation:sRGB;color-interpolation-filters:linearRGB;solid-color:#000;solid-opacity:1;vector-effect:none;fill:gray;fill-opacity:1;fill-rule:nonzero;stroke:none;stroke-width:1.00000012;stroke-linecap:butt;stroke-linejoin:miter;stroke-miterlimit:4;stroke-dasharray:none;stroke-dashoffset:0;stroke-opacity:1;marker:none;color-rendering:auto;image-rendering:auto;shape-rendering:auto;text-rendering:auto;enable-background:accumulate"/></g></svg>