<svg xmlns="http://www.w3.org/2000/svg" xmlns:osb="http://www.openswatchbook.org/uri/2009/osb" xmlns:svg="http://www.w3.org/2000/svg" id="svg7384" width="16" height="16" version="1.1"><metadata id="metadata20854"/><defs id="defs7386"><linearGradient id="linearGradient5606" osb:paint="solid"><stop id="stop5608" offset="0" style="stop-color:#000;stop-opacity:1"/></linearGradient><linearGradient id="linearGradient4526" osb:paint="solid"><stop id="stop4528" offset="0" style="stop-color:#fff;stop-opacity:1"/></linearGradient><linearGradient id="linearGradient3600-4" osb:paint="gradient"><stop id="stop3602-7" offset="0" style="stop-color:#f4f4f4;stop-opacity:1"/><stop id="stop3604-6" offset="1" style="stop-color:#dbdbdb;stop-opacity:1"/></linearGradient></defs><g id="g1833" transform="translate(-592.00004,-259.99999)" style="display:inline"><path id="path4271-8" d="m 600.00004,261 a 3.9999991,4 0 0 0 -4,4 3.9999991,4 0 0 0 0.25391,1.39453 3.9999991,4.0000005 0 0 1 -0.0684,-0.19141 c 0.73252,2.19763 2.20617,6.38148 3.81445,9.56641 1.60828,-3.18493 3.08193,-7.36878 3.81445,-9.56641 A 3.9999991,4 0 0 0 604.00004,265 a 3.9999991,4 0 0 0 -4,-4 z m 0,1 a 3.0000001,3 0 0 1 3,3 3.0000001,3 0 0 1 -3,3 3.0000001,3 0 0 1 -3,-3 3.0000001,3 0 0 1 3,-3 z" style="color:#000;display:inline;overflow:visible;visibility:visible;opacity:1;fill:gray;fill-opacity:1;fill-rule:nonzero;stroke:none;stroke-width:2.99881363;marker:none;enable-background:accumulate"/></g></svg>