<svg xmlns="http://www.w3.org/2000/svg" xmlns:osb="http://www.openswatchbook.org/uri/2009/osb" xmlns:svg="http://www.w3.org/2000/svg" id="svg7384" width="16" height="16" version="1.1"><metadata id="metadata20854"/><defs id="defs7386"><linearGradient id="linearGradient5606" osb:paint="solid"><stop id="stop5608" offset="0" style="stop-color:#000;stop-opacity:1"/></linearGradient><linearGradient id="linearGradient4526" osb:paint="solid"><stop id="stop4528" offset="0" style="stop-color:#fff;stop-opacity:1"/></linearGradient><linearGradient id="linearGradient3600-4" osb:paint="gradient"><stop id="stop3602-7" offset="0" style="stop-color:#f4f4f4;stop-opacity:1"/><stop id="stop3604-6" offset="1" style="stop-color:#dbdbdb;stop-opacity:1"/></linearGradient></defs><g id="g1833" transform="translate(-632.00005,-159.99999)" style="display:inline"><path id="path2332" d="m 639.00005,161 c -3.30975,0 -6,2.69047 -6,6 0,3.30953 2.69025,6 6,6 1.47531,0 2.82536,-0.53619 3.87109,-1.42188 l 3.27539,3.2754 0.70704,-0.70704 -3.2754,-3.27539 c 0.88566,-1.04575 1.42188,-2.39588 1.42188,-3.87109 0,-3.30953 -2.69025,-6 -6,-6 z m 0,1 a 5,5 0 0 1 5,5 5,5 0 0 1 -5,5 5,5 0 0 1 -5,-5 5,5 0 0 1 5,-5 z" style="color:#000;font-style:normal;font-variant:normal;font-weight:400;font-stretch:normal;font-size:medium;line-height:normal;font-family:sans-serif;font-variant-ligatures:none;font-variant-position:normal;font-variant-caps:normal;font-variant-numeric:normal;font-variant-alternates:normal;font-feature-settings:normal;text-indent:0;text-align:start;text-decoration:none;text-decoration-line:none;text-decoration-style:solid;text-decoration-color:#000;letter-spacing:normal;word-spacing:normal;text-transform:none;writing-mode:lr-tb;direction:ltr;baseline-shift:baseline;text-anchor:start;white-space:normal;shape-padding:0;clip-rule:nonzero;display:inline;overflow:visible;visibility:visible;opacity:1;isolation:auto;mix-blend-mode:normal;color-interpolation:sRGB;color-interpolation-filters:linearRGB;solid-color:#000;solid-opacity:1;fill:gray;fill-opacity:1;fill-rule:nonzero;stroke:none;stroke-width:4.00000048;stroke-linecap:round;stroke-linejoin:round;stroke-miterlimit:4;stroke-dasharray:none;stroke-dashoffset:0;stroke-opacity:1;marker:none;color-rendering:auto;image-rendering:auto;shape-rendering:auto;text-rendering:auto;enable-background:accumulate"/></g></svg>