<svg xmlns="http://www.w3.org/2000/svg" xmlns:osb="http://www.openswatchbook.org/uri/2009/osb" xmlns:svg="http://www.w3.org/2000/svg" id="svg7384" width="16" height="16" version="1.1"><metadata id="metadata20854"/><defs id="defs7386"><linearGradient id="linearGradient5606" osb:paint="solid"><stop id="stop5608" offset="0" style="stop-color:#000;stop-opacity:1"/></linearGradient><linearGradient id="linearGradient4526" osb:paint="solid"><stop id="stop4528" offset="0" style="stop-color:#fff;stop-opacity:1"/></linearGradient><linearGradient id="linearGradient3600-4" osb:paint="gradient"><stop id="stop3602-7" offset="0" style="stop-color:#f4f4f4;stop-opacity:1"/><stop id="stop3604-6" offset="1" style="stop-color:#dbdbdb;stop-opacity:1"/></linearGradient></defs><g id="g1833" transform="translate(-512.00004,-180)" style="display:inline"><path id="path2406" d="m 520.00004,196.00003 a 8,8 0 0 1 -8,-8 8,8 0 0 1 8,-8 8,8 0 0 1 8,8 8,8 0 0 1 -8,8 z m 0,-1 a 7,7 0 0 0 7,-7 7,7 0 0 0 -7,-7 7,7 0 0 0 -7,7 7,7 0 0 0 7,7 z" style="display:inline;opacity:1;fill:gray;fill-opacity:1;stroke:none;stroke-width:4;stroke-linecap:round;stroke-linejoin:round;stroke-miterlimit:4;stroke-dasharray:none;stroke-dashoffset:0;stroke-opacity:1"/><path id="path2408" d="m 520.00004,183.75 c -0.38557,0 -0.69018,0.12426 -0.91406,0.37305 -0.22388,0.24876 -0.33594,0.54112 -0.33594,0.87695 0,0.33581 0.11206,0.62819 0.33594,0.87695 0.22388,0.24874 0.52849,0.37305 0.91406,0.37305 0.38557,0 0.69018,-0.12428 0.91406,-0.37305 0.22388,-0.24876 0.33594,-0.54113 0.33594,-0.87695 0,-0.33582 -0.11206,-0.62819 -0.33594,-0.87695 -0.22388,-0.24875 -0.52849,-0.37305 -0.91406,-0.37305 z m -1,3.25 v 5 h 2 v -5 z" style="font-style:normal;font-variant:normal;font-weight:400;font-stretch:normal;font-size:medium;line-height:1000%;font-family:Ubuntu;-inkscape-font-specification:Ubuntu;letter-spacing:0;word-spacing:0;fill:gray;fill-opacity:1;stroke:none;stroke-width:2.35333323px;stroke-linecap:butt;stroke-linejoin:miter;stroke-opacity:1"/></g></svg>