<svg xmlns="http://www.w3.org/2000/svg" xmlns:osb="http://www.openswatchbook.org/uri/2009/osb" xmlns:svg="http://www.w3.org/2000/svg" id="svg7384" width="16" height="16" version="1.1"><metadata id="metadata20854"/><defs id="defs7386"><linearGradient id="linearGradient5606" osb:paint="solid"><stop id="stop5608" offset="0" style="stop-color:#000;stop-opacity:1"/></linearGradient><linearGradient id="linearGradient4526" osb:paint="solid"><stop id="stop4528" offset="0" style="stop-color:#fff;stop-opacity:1"/></linearGradient><linearGradient id="linearGradient3600-4" osb:paint="gradient"><stop id="stop3602-7" offset="0" style="stop-color:#f4f4f4;stop-opacity:1"/><stop id="stop3604-6" offset="1" style="stop-color:#dbdbdb;stop-opacity:1"/></linearGradient></defs><g id="g1833" transform="translate(-612.00006,-320.00006)" style="display:inline"><path id="path4116-6-2" d="m 620.00006,320.00006 c -4.41378,0 -8,3.58646 -8,8 0,4.41354 3.58622,8 8,8 4.41378,0 8,-3.58646 8,-8 0,-4.41354 -3.58622,-8 -8,-8 z m -0.0391,1.00195 -0.0215,0.61719 0.91602,0.13672 0.61719,-0.59766 c 0.61182,0.13138 1.19118,0.34493 1.73242,0.625 l -0.21485,0.34571 0.60938,0.54101 -0.60938,0.50977 0.23829,0.60937 1.35546,-0.64453 0.84766,0.64453 0.0449,-0.13867 c 0.184,0.23127 0.34988,0.47679 0.50391,0.73047 l -0.85547,0.1543 -0.50781,-0.54297 -1.5586,0.10156 -0.94921,1.49219 0.64453,1.59179 2.10156,0.64454 0.40625,2.47461 0.50781,1.2871 0.35742,-0.20312 c -1.19382,2.15589 -3.49107,3.61914 -6.12688,3.61914 -3.86205,0 -7,-3.13815 -7,-7 0,-0.8121 0.14531,-1.58881 0.40039,-2.31445 l 0.0332,0.13672 1.08399,0.30468 1.42383,1.05078 0.0332,1.5254 0.91601,1.2539 0.54102,3.39063 0.98242,0.60937 -0.26953,-1.2539 1.66016,-2.30469 0.71093,-1.5586 -1.66015,-1.56054 -1.79688,-0.84571 -0.74414,0.43946 -0.88281,-1.32227 -0.50781,0.23828 -0.43945,-0.74609 0.77929,-0.40625 0.74414,0.43945 1.28907,-1.59179 1.86328,-1.15235 -0.50782,-0.94922 -1.52539,0.54297 -0.18945,-0.21094 c 0.91545,-0.44771 1.93831,-0.70687 3.02344,-0.71289 z" style="color:#000;font-style:normal;font-variant:normal;font-weight:400;font-stretch:normal;font-size:medium;line-height:normal;font-family:sans-serif;font-variant-ligatures:normal;font-variant-position:normal;font-variant-caps:normal;font-variant-numeric:normal;font-variant-alternates:normal;font-feature-settings:normal;text-indent:0;text-align:start;text-decoration:none;text-decoration-line:none;text-decoration-style:solid;text-decoration-color:#000;letter-spacing:normal;word-spacing:normal;text-transform:none;writing-mode:lr-tb;direction:ltr;baseline-shift:baseline;text-anchor:start;white-space:normal;shape-padding:0;clip-rule:nonzero;display:inline;overflow:visible;visibility:visible;opacity:1;isolation:auto;mix-blend-mode:normal;color-interpolation:sRGB;color-interpolation-filters:linearRGB;solid-color:#000;solid-opacity:1;fill:gray;fill-opacity:1;fill-rule:nonzero;stroke:none;stroke-width:4;stroke-linecap:round;stroke-linejoin:round;stroke-miterlimit:4;stroke-dasharray:none;stroke-dashoffset:0;stroke-opacity:1;marker:none;color-rendering:auto;image-rendering:auto;shape-rendering:auto;text-rendering:auto;enable-background:accumulate"/></g></svg>