<svg xmlns="http://www.w3.org/2000/svg" xmlns:osb="http://www.openswatchbook.org/uri/2009/osb" xmlns:svg="http://www.w3.org/2000/svg" id="svg7384" width="16" height="16" version="1.1"><metadata id="metadata20854"/><defs id="defs7386"><linearGradient id="linearGradient5606" osb:paint="solid"><stop id="stop5608" offset="0" style="stop-color:#000;stop-opacity:1"/></linearGradient><linearGradient id="linearGradient4526" osb:paint="solid"><stop id="stop4528" offset="0" style="stop-color:#fff;stop-opacity:1"/></linearGradient><linearGradient id="linearGradient3600-4" osb:paint="gradient"><stop id="stop3602-7" offset="0" style="stop-color:#f4f4f4;stop-opacity:1"/><stop id="stop3604-6" offset="1" style="stop-color:#dbdbdb;stop-opacity:1"/></linearGradient></defs><g id="g1833" transform="translate(-512.00004,-199.99994)" style="display:inline"><path id="path967-9" d="m 518.7559,201 c -0.48485,1.0101 -0.95009,2.03328 -1.39453,3.07031 -0.44445,1.02357 -0.89561,2.1011 -1.35352,3.23242 -0.2098,0.53405 -0.4328,1.13327 -0.64843,1.69727 h -0.85938 c -0.831,0 -1.5,0.669 -1.5,1.5 0,0.74119 0.53361,1.34896 1.23828,1.47266 -0.36109,0.96894 -0.72149,1.93381 -1.11914,3.02734 h 2.6582 l 1.06836,-3 h 6.1543 c 0.36116,1.01205 0.86169,2.08327 1.19988,3 h 2.61457 c -0.41034,-1.08092 -0.77559,-2.04944 -1.14062,-3.01758 0.74736,-0.0867 1.32617,-0.71105 1.32617,-1.48242 0,-0.831 -0.669,-1.5 -1.5,-1.5 h -0.9707 c -0.21556,-0.55206 -0.43194,-1.11772 -0.64453,-1.63672 -0.44445,-1.13131 -1.33399,-3.25195 -1.33399,-3.25195 0,0 -0.91574,-2.07429 -1.41406,-3.11133 h -1.19727 z m 1.24414,2.5 2,5.5 h -4.08594 l 2.08599,-5.5 z m -5.5,6.5 h 3.93359 3.06641 4.06641 c 0.24027,0 0.43359,0.19332 0.43359,0.43359 v 0.13282 c 0,0.24027 -0.19332,0.43359 -0.43359,0.43359 h -4.06641 -3.06641 -3.93359 c -0.277,0 -0.5,-0.223 -0.5,-0.5 0,-0.277 0.223,-0.5 0.5,-0.5 z" style="font-style:normal;font-variant:normal;font-weight:300;font-stretch:normal;font-size:196.24819946px;line-height:1000%;font-family:Ubuntu;-inkscape-font-specification:'Ubuntu Light';letter-spacing:0;word-spacing:0;fill:gray;fill-opacity:1;stroke:none;stroke-width:.50505048px;stroke-linecap:butt;stroke-linejoin:miter;stroke-opacity:1"/></g></svg>