<svg xmlns="http://www.w3.org/2000/svg" xmlns:osb="http://www.openswatchbook.org/uri/2009/osb" xmlns:svg="http://www.w3.org/2000/svg" id="svg7384" width="16" height="16" version="1.1"><metadata id="metadata20854"/><defs id="defs7386"><linearGradient id="linearGradient5606" osb:paint="solid"><stop id="stop5608" offset="0" style="stop-color:#000;stop-opacity:1"/></linearGradient><linearGradient id="linearGradient4526" osb:paint="solid"><stop id="stop4528" offset="0" style="stop-color:#fff;stop-opacity:1"/></linearGradient><linearGradient id="linearGradient3600-4" osb:paint="gradient"><stop id="stop3602-7" offset="0" style="stop-color:#f4f4f4;stop-opacity:1"/><stop id="stop3604-6" offset="1" style="stop-color:#dbdbdb;stop-opacity:1"/></linearGradient></defs><path style="opacity:1;fill:gray;fill-opacity:1;stroke:none;stroke-width:2;stroke-linecap:round;stroke-linejoin:round;stroke-miterlimit:4;stroke-dasharray:none;stroke-dashoffset:0;stroke-opacity:1" id="rect8474" d="M 8 0 L 4.1992188 5 L 3.5 5 C 2.669 5 2 5.669 2 6.5 C 2 7.331 2.669 8 3.5 8 L 6 8 L 6 10 L 3.5 10 L 8 16 L 12.5 10 L 10 10 L 10 8 L 12.5 8 C 13.331 8 14 7.331 14 6.5 C 14 5.669 13.331 5 12.5 5 L 11.800781 5 L 8 0 z M 3.5 6 L 5.5 6 L 6 6 L 7 6 L 9 6 L 10 6 L 10.5 6 L 12.5 6 C 12.777 6 13 6.223 13 6.5 C 13 6.777 12.777 7 12.5 7 L 10.5 7 L 10 7 L 9 7 L 7 7 L 6 7 L 5.5 7 L 3.5 7 C 3.223 7 3 6.777 3 6.5 C 3 6.223 3.223 6 3.5 6 z"/></svg>