<svg xmlns="http://www.w3.org/2000/svg" id="svg3699" width="16" height="16" version="1.1" viewBox="0 0 16 16"><defs id="defs4339"><style id="current-color-scheme" type="text/css">.ColorScheme-Text{color:#5d656b}</style></defs><metadata id="metadata3704"/><g id="layer1" transform="translate(0 -1036.4)"><path id="path4303" d="m5 2v2 5h1v-5h7v5h1v-5-2h-9zm-2.9141 7.3008l-0.707 0.7072 1.4141 1.414-1.4141 1.414 0.707 0.707 1.4141-1.414 1.4141 1.414 0.707-0.707-1.4141-1.414 1.4141-1.414-0.707-0.7072-1.4141 1.4142-1.4141-1.4142zm8.0001 0l-0.7071 0.7072 1.4141 1.414-1.4141 1.414 0.7071 0.707 1.414-1.414 1.414 1.414 0.707-0.707-1.414-1.414 1.414-1.414-0.707-0.7072-1.414 1.4142-1.414-1.4142z" class="ColorScheme-Text" transform="translate(0,1036.4)" style="fill:currentColor"/></g></svg>