<svg xmlns="http://www.w3.org/2000/svg" viewBox="0 0 16 16"><defs id="defs3051"><style id="current-color-scheme" type="text/css">.ColorScheme-Text{color:#5d656b}.ColorScheme-NegativeText{color:#da4453}</style></defs><g transform="translate(-421.71429,-531.79074)"><path style="fill:currentColor;fill-opacity:1;stroke:none" id="rect4272" d="M 2 2 L 2 14 L 14 14 L 14 2 L 2 2 z M 3 4 L 9 4 L 9 13 L 3 13 L 3 4 z M 10 4 L 13 4 L 13 13 L 10 13 L 10 4 z" class="ColorScheme-Text" transform="translate(421.71429,531.79074)"/><path style="fill:currentColor;fill-opacity:1;stroke:none" id="rect4153" d="m 425.95691,537.79079 -0.70703,0.70703 1.79296,1.79297 -1.79296,1.79297 0.70703,0.70703 1.79297,-1.79296 1.79297,1.79296 0.70703,-0.70703 -1.79296,-1.79297 1.79296,-1.79297 -0.70703,-0.70703 -1.79297,1.79296 -1.79297,-1.79296 z" class="ColorScheme-NegativeText"/></g></svg>