<svg xmlns="http://www.w3.org/2000/svg" xmlns:svg="http://www.w3.org/2000/svg" id="svg9" width="24" height="24" version="1.1"><metadata id="metadata13"/><defs id="defs3"><style id="current-color-scheme" type="text/css"/><linearGradient id="linearGradient885" x1="5.959" x2="16.556" y1="1.046" y2="11.644" gradientTransform="matrix(0.85494046,0,0,0.85494046,2.280425,6.6175126)" gradientUnits="userSpaceOnUse"><stop id="stop826" offset="0" stop-color="#ffcd00"/><stop id="stop828" offset="1" stop-color="#e16405"/></linearGradient></defs><path style="fill:url(#linearGradient885);stroke-width:.02650829" id="path851" d="m 18.785907,11.999876 c 0,0.813501 -0.143195,1.593438 -0.405788,2.316376 -0.18253,0.502432 -0.422667,0.977454 -0.712953,1.416806 -0.121589,0.184735 -0.252327,0.363136 -0.391093,0.534578 -0.444269,0.548692 -0.972238,1.026527 -1.564883,1.414328 -0.218266,0.14292 -0.445116,0.273666 -0.679977,0.39081 -0.912052,0.456436 -1.941655,0.713192 -3.031277,0.713192 -1.089622,0 -2.119226,-0.256756 -3.031277,-0.713209 C 8.733773,17.955587 8.506649,17.824858 8.288391,17.681947 7.688172,17.288913 7.153885,16.803581 6.706068,16.245818 6.567037,16.072983 6.436565,15.892941 6.314975,15.706547 6.032451,15.27447 5.79842,14.808262 5.619498,14.315559 5.356946,13.592904 5.214,12.813258 5.214,12.000038 c 0,-3.7478021 3.038202,-6.7860042 6.786004,-6.7860042 1.881297,0 3.58357,0.7655736 4.812804,2.0019286 0.354244,0.3561768 0.669187,0.7517321 0.937271,1.1793906 0.253439,0.4027372 0.465318,0.8342512 0.630116,1.2882242 0.26262,0.7229208 0.405805,1.5028998 0.405805,2.3163758 z"/></svg>