<svg xmlns="http://www.w3.org/2000/svg" xmlns:svg="http://www.w3.org/2000/svg" xmlns:xlink="http://www.w3.org/1999/xlink" id="svg9" width="24" height="24" version="1.1"><metadata id="metadata13"/><defs id="defs3"><style id="current-color-scheme" type="text/css">.ColorScheme-Text{color:#dfdfdf}</style><linearGradient id="linearGradient874" x1="2" x2="14" y1="7.999" y2="7.999" gradientTransform="translate(8.2124088e-5,-0.57189415)" gradientUnits="userSpaceOnUse" xlink:href="#linearGradient885"/><linearGradient id="linearGradient885" x1="5.959" x2="16.556" y1="1.046" y2="11.644" gradientTransform="matrix(0.85494046,0,0,0.85494046,-1.7195744,2.6175126)" gradientUnits="userSpaceOnUse"><stop id="stop826" offset="0" stop-color="#ffcd00"/><stop id="stop828" offset="1" stop-color="#e16405"/></linearGradient><filter style="color-interpolation-filters:sRGB" id="filter1012-3" width="1.096" height="1.153" x="-.048" y="-.076"><feGaussianBlur id="feGaussianBlur823-6" stdDeviation=".188"/></filter><linearGradient id="linearGradient992" x1="13.152" x2="20.621" y1="9.126" y2="9.126" gradientTransform="matrix(0.85495515,0,0,0.85495515,-2.1299959,2.6174204)" gradientUnits="userSpaceOnUse"><stop id="stop818" offset="0" stop-color="#fafafa"/><stop id="stop820" offset="1" stop-color="#d4d4d4"/></linearGradient></defs><g id="g858" transform="translate(3.6059729,3.999947)"><path style="color:#dfdfdf;fill:url(#linearGradient874);fill-opacity:1" id="path5-6" d="m 8.6420821,0.42810589 c -2.723,0.1 -5.232,1.81000001 -6.221,4.57000001 -1.303,3.64 0.516,7.6900001 4.096,9.0100001 2.718,1 5.6559999,0.14 7.4829999,-1.91 -1.308,0.43 -2.765,0.45 -4.1569999,-0.06 -3.324,-1.23 -5.029,-4.9800001 -3.819,-8.3600001 0.507,-1.41 1.453,-2.51 2.618,-3.25000001 z" class="ColorScheme-Text"/><g id="g850" transform="matrix(1.286781,0,0,1.286781,-5.1569698,-1.5598157)"><path id="path853" d="m 15.187,6.176 a 2.296,2.3606 0 0 1 2.0957,1.4016 2.296,2.3606 0 0 1 0.9664,-0.22286 2.296,2.3606 0 0 1 2.296,2.3606 2.296,2.3606 0 0 1 -2.296,2.3606 2.296,2.3606 0 0 1 -7.47e-4,0 h -5.3574 a 1.721,1.7695 0 0 1 -1.7205,-1.7697 1.721,1.7695 0 0 1 1.7205,-1.7689 2.296,2.3606 0 0 0 0,-7.6e-4 2.296,2.3606 0 0 1 0,-0.001 2.296,2.3606 0 0 1 2.296,-2.3591 z" transform="matrix(0.71074986,0,0,0.82582683,-0.66762934,2.9691404)" style="opacity:.3;fill-rule:evenodd;filter:url(#filter1012-3)"/><path id="path855" d="M 10.919065,7.8976234 A 1.962977,2.0182071 0 0 1 12.710794,9.0959285 1.962977,2.0182071 0 0 1 13.537023,8.9053932 1.962977,2.0182071 0 0 1 15.5,10.9236 a 1.962977,2.0182071 0 0 1 -1.962977,2.018207 1.962977,2.0182071 0 0 1 -6.39e-4,0 H 8.9560476 a 1.4713778,1.5128431 0 0 1 -1.4709503,-1.513014 1.4713778,1.5128431 0 0 1 1.4709503,-1.5123298 1.962977,2.0182071 0 0 0 0,-6.498e-4 1.962977,2.0182071 0 0 1 0,-8.549e-4 1.962977,2.0182071 0 0 1 1.9629774,-2.0169247 z" style="fill:url(#linearGradient992);fill-rule:evenodd;stroke-width:.85495514"/></g></g></svg>