<svg xmlns="http://www.w3.org/2000/svg" xmlns:svg="http://www.w3.org/2000/svg" id="svg9" width="24" height="24" version="1.1"><metadata id="metadata13"/><defs id="defs3"><style id="current-color-scheme" type="text/css"/><linearGradient id="linearGradient885" x1="5.959" x2="16.556" y1="1.046" y2="11.644" gradientTransform="matrix(0.85494046,0,0,0.85494046,-2.151029,2.2750079)" gradientUnits="userSpaceOnUse"><stop id="stop826" offset="0" stop-color="#ffcd00"/><stop id="stop828" offset="1" stop-color="#e16405"/></linearGradient><filter id="filter1012" width="1.096" height="1.153" x="-.048" y="-.076" style="color-interpolation-filters:sRGB"><feGaussianBlur id="feGaussianBlur823" stdDeviation=".188"/></filter><linearGradient id="linearGradient992" x1="13.152" x2="20.621" y1="9.126" y2="9.126" gradientTransform="matrix(0.85495515,0,0,0.85495515,-2.1299959,2.6174204)" gradientUnits="userSpaceOnUse"><stop id="stop818" offset="0" stop-color="#fafafa"/><stop id="stop820" offset="1" stop-color="#d4d4d4"/></linearGradient></defs><g id="g889" transform="translate(3.873117,4)"><path id="path851" d="m 14.354452,7.6573715 c 0,0.8135012 -0.143195,1.5934379 -0.405788,2.3163758 -0.18253,0.5024317 -0.422667,0.9774537 -0.712953,1.4168057 -0.121589,0.184735 -0.252327,0.363136 -0.391093,0.534578 -0.444269,0.548692 -0.972238,1.026527 -1.564883,1.414328 -0.218266,0.14292 -0.445116,0.273666 -0.679976,0.39081 -0.912052,0.456436 -1.9416555,0.713192 -3.0312772,0.713192 -1.0896216,0 -2.1192265,-0.256756 -3.031277,-0.713209 C 4.3023186,13.613082 4.075195,13.482353 3.8569372,13.339442 3.2567177,12.946408 2.7224311,12.461076 2.2746134,11.903313 2.1355829,11.730478 2.0051104,11.550436 1.8835207,11.364042 1.6009971,10.931965 1.3669657,10.465757 1.1880438,9.9730543 0.92549151,9.2503995 0.78254551,8.4707532 0.78254551,7.6575339 c 0,-3.7478026 3.03820209,-6.78600474 6.78600459,-6.78600474 1.8812963,0 3.5835689,0.76557364 4.8128029,2.00192864 0.354244,0.3561768 0.669187,0.7517321 0.937271,1.1793905 0.253439,0.4027367 0.465318,0.8342509 0.630116,1.2882242 0.26262,0.7229207 0.405805,1.5029 0.405805,2.3163759 z" style="fill:url(#linearGradient885);stroke-width:.02650829"/><g id="g850" transform="matrix(1.1698009,0,0,1.1698009,-2.6606935,-0.44590704)"><path style="opacity:.3;fill-rule:evenodd;filter:url(#filter1012)" id="path853" d="m 15.187,6.176 a 2.296,2.3606 0 0 1 2.0957,1.4016 2.296,2.3606 0 0 1 0.9664,-0.22286 2.296,2.3606 0 0 1 2.296,2.3606 2.296,2.3606 0 0 1 -2.296,2.3606 2.296,2.3606 0 0 1 -7.47e-4,0 h -5.3574 a 1.721,1.7695 0 0 1 -1.7205,-1.7697 1.721,1.7695 0 0 1 1.7205,-1.7689 2.296,2.3606 0 0 0 0,-7.6e-4 2.296,2.3606 0 0 1 0,-0.001 2.296,2.3606 0 0 1 2.296,-2.3591 z" transform="matrix(0.71074986,0,0,0.82582683,-0.66762934,2.9691404)"/><path style="fill:url(#linearGradient992);fill-rule:evenodd;stroke-width:.85495514" id="path855" d="M 10.919065,7.8976234 A 1.962977,2.0182071 0 0 1 12.710794,9.0959285 1.962977,2.0182071 0 0 1 13.537023,8.9053932 1.962977,2.0182071 0 0 1 15.5,10.9236 a 1.962977,2.0182071 0 0 1 -1.962977,2.018207 1.962977,2.0182071 0 0 1 -6.39e-4,0 H 8.9560476 a 1.4713778,1.5128431 0 0 1 -1.4709503,-1.513014 1.4713778,1.5128431 0 0 1 1.4709503,-1.5123298 1.962977,2.0182071 0 0 0 0,-6.498e-4 1.962977,2.0182071 0 0 1 0,-8.549e-4 1.962977,2.0182071 0 0 1 1.9629774,-2.0169247 z"/></g></g></svg>